<svg width="91" height="61" viewBox="0 0 91 61" fill="none" xmlns="http://www.w3.org/2000/svg">
<mask id="mask0_348_1013" style="mask-type:luminance" maskUnits="userSpaceOnUse" x="0" y="0" width="91" height="61">
<path d="M90.6295 0.5H0.167969V60.5H90.6295V0.5Z" fill="white"/>
</mask>
<g mask="url(#mask0_348_1013)">
<path d="M8.66323 57.1738C5.68224 57.1738 3.26557 54.6929 3.26557 51.6311C3.26557 48.57 5.68224 46.0884 8.66323 46.0884C11.6446 46.0884 14.0606 48.57 14.0606 51.6311C14.0602 54.6929 11.6442 57.1738 8.66323 57.1738ZM14.0775 57.8768C14.0775 58.3845 14.9433 59.8099 16.0041 59.8099H16.691C16.9571 59.8099 17.1755 59.5909 17.1755 59.3235V44.1552H17.1726C17.1589 43.8996 16.9483 43.6948 16.6914 43.6948H14.5627C14.3051 43.6948 14.0948 43.8996 14.0807 44.1552H14.0782V45.3879C12.774 43.7736 10.7177 43.104 8.6551 43.104C3.96735 43.1044 0.167969 46.9216 0.167969 51.6311C0.167969 56.3406 3.96735 60.1586 8.65475 60.1586C10.717 60.1586 12.9644 59.3548 14.0775 57.875V57.8768ZM22.2615 55.7047C23.6823 56.6935 25.2336 57.1738 26.7241 57.1738C28.1446 57.1738 29.6125 56.4339 29.6125 55.147C29.6125 53.4279 26.4135 53.1602 24.4036 52.4747C22.3933 51.788 20.6618 50.369 20.6618 48.0716C20.6618 44.5561 23.7799 43.104 26.6898 43.104C28.5337 43.104 30.4362 43.715 31.6698 44.5902C32.0949 44.9132 31.8359 45.2849 31.8359 45.2849L30.6585 46.9745C30.526 47.1648 30.2518 47.3168 29.9627 47.1233C29.1694 46.5964 28.286 46.0887 26.6898 46.0887C24.7142 46.0887 23.8449 46.9124 23.8449 47.9335C23.8449 49.1583 25.235 49.5432 26.8633 49.9607C29.7009 50.729 32.796 51.6528 32.796 55.1473C32.796 58.2449 29.9118 60.1593 26.7245 60.1593C24.3092 60.1593 22.2526 59.4673 20.5279 58.1956C20.1688 57.8345 20.4194 57.499 20.4194 57.499L21.5911 55.8187C21.8293 55.5034 22.1297 55.6131 22.2615 55.7047ZM48.7603 57.8768C48.7603 58.3845 49.6257 59.8099 50.6865 59.8099H51.3735C51.6399 59.8099 51.8579 59.5909 51.8579 59.3235V44.1552H51.8551C51.8406 43.8996 51.6307 43.6948 51.3735 43.6948H49.2444C48.9868 43.6948 48.7769 43.8996 48.7628 44.1552H48.7603V45.3879C47.4564 43.7736 45.3995 43.104 43.3376 43.104C38.6502 43.104 34.8501 46.9213 34.8501 51.6307C34.8501 56.3402 38.6498 60.1582 43.3376 60.1582C45.3991 60.1582 47.6465 59.3544 48.76 57.8746L48.7603 57.8768ZM43.3457 57.1738C40.3644 57.1738 37.9481 54.6929 37.9481 51.6311C37.9481 48.57 40.3647 46.0884 43.3457 46.0884C46.3264 46.0884 48.743 48.57 48.743 51.6311C48.743 54.6929 46.3264 57.1738 43.3457 57.1738ZM70.9308 58.3983L70.9294 50.5497C70.9294 46.1253 68.1516 43.1406 63.7215 43.1406C61.6069 43.1406 59.8765 44.3693 59.2645 45.4248V45.4103L59.2606 45.422C59.2595 44.3541 58.3973 43.7321 57.3344 43.7321H56.6506C56.3842 43.7321 56.1662 43.9511 56.1662 44.2188V57.9151V57.9173V59.3881H56.169C56.1828 59.6434 56.3934 59.8486 56.6506 59.8486H58.7793C58.8122 59.8486 58.844 59.8444 58.8751 59.839C58.8892 59.8358 58.9019 59.8305 58.9157 59.8266C58.9316 59.8216 58.9482 59.8181 58.9634 59.8113C58.9825 59.8039 58.9995 59.7929 59.0171 59.7829C59.0252 59.778 59.0348 59.7741 59.0433 59.7691C59.0641 59.7552 59.0836 59.7386 59.1026 59.7212C59.1058 59.718 59.1097 59.7158 59.1122 59.713C59.1337 59.6928 59.1528 59.6707 59.1701 59.6462C59.2231 59.5728 59.2556 59.484 59.2613 59.3881H59.2641V50.4279C59.2641 48.0521 61.1815 46.1253 63.5466 46.1253C65.9116 46.1253 67.8293 48.0521 67.8293 50.4279L67.8311 57.9176L67.8318 57.9151C67.8318 57.9215 67.8332 57.9283 67.8332 57.9354V59.3881H67.8361C67.8498 59.6434 68.0604 59.8486 68.3177 59.8486H70.446C70.4792 59.8486 70.5107 59.8444 70.5418 59.839C70.5545 59.8362 70.5662 59.8312 70.5782 59.828C70.5962 59.8231 70.6142 59.8184 70.6305 59.8113C70.6478 59.8039 70.6637 59.7939 70.6799 59.7851C70.6898 59.7794 70.7008 59.7755 70.7103 59.7691C70.7305 59.7556 70.7478 59.74 70.7658 59.7247C70.7704 59.7204 70.7754 59.7173 70.7796 59.713C70.7997 59.6935 70.8174 59.6725 70.834 59.6505C70.8351 59.6484 70.8365 59.647 70.8379 59.6455C70.8902 59.5728 70.9224 59.4847 70.928 59.3896C70.928 59.3888 70.9284 59.3881 70.9284 59.3881H70.9308V58.3983ZM87.5319 57.8768C87.5319 58.3845 88.3963 59.8099 89.4574 59.8099H90.1447C90.4108 59.8099 90.6292 59.5909 90.6292 59.3235V44.1552H90.6264C90.6126 43.8996 90.4016 43.6948 90.1447 43.6948H88.0164C87.7584 43.6948 87.5485 43.8996 87.5348 44.1552H87.5319V45.3879C86.227 43.7736 84.1707 43.104 82.1085 43.104C77.4214 43.104 73.6214 46.9213 73.6214 51.6307C73.6214 56.3402 77.4214 60.1582 82.1085 60.1582C84.1707 60.1582 86.4178 59.3544 87.5305 57.8746L87.5319 57.8768ZM82.1177 57.1738C79.1363 57.1738 76.72 54.6929 76.72 51.6311C76.72 48.57 79.1367 46.0884 82.1177 46.0884C85.0976 46.0884 87.5139 48.57 87.5139 51.6311C87.5143 54.6929 85.0976 57.1738 82.1177 57.1738Z" fill="white"/>
<path d="M55.1986 17.3135C51.0907 17.3135 47.7606 20.6589 47.7606 24.7858C47.7606 28.913 51.0907 32.2588 55.1986 32.2588C59.3061 32.2588 62.6358 28.913 62.6358 24.7858C62.6358 20.6589 59.3061 17.3135 55.1986 17.3135ZM35.8751 17.3138C31.7676 17.3138 28.4375 20.6589 28.4375 24.7862C28.4375 28.913 31.7676 32.2588 35.8751 32.2588C39.983 32.2588 43.3131 28.913 43.3131 24.7862C43.3131 20.6589 39.983 17.3138 35.8751 17.3138ZM52.9745 7.97231C52.9745 12.0995 49.6447 15.4457 45.5372 15.4457C41.4293 15.4457 38.0996 12.0995 38.0996 7.97231C38.0992 3.8458 41.4293 0.5 45.5372 0.5C49.6447 0.5 52.9745 3.8458 52.9745 7.97231Z" fill="url(#paint0_radial_348_1013)"/>
</g>
<defs>
<radialGradient id="paint0_radial_348_1013" cx="0" cy="0" r="1" gradientUnits="userSpaceOnUse" gradientTransform="translate(45.5291 17.8447) scale(22.6703 21.053)">
<stop stop-color="#FFB900"/>
<stop offset="0.6" stop-color="#F95D8F"/>
<stop offset="0.9991" stop-color="#F95353"/>
</radialGradient>
</defs>
</svg>
