<svg width="170" height="38" viewBox="0 0 170 38" fill="none" xmlns="http://www.w3.org/2000/svg">
<g clip-path="url(#clip0_348_1019)">
<path d="M0.776594 15.8138C0.664702 15.8123 0.55385 15.8354 0.451821 15.8814C0.349792 15.9273 0.25906 15.9951 0.185995 16.0798C0.11293 16.1646 0.0593035 16.2643 0.0288801 16.372C-0.00154325 16.4797 -0.00802572 16.5927 0.00988784 16.7032L3.26455 36.4612C3.30511 36.703 3.42955 36.9227 3.61604 37.0819C3.80252 37.241 4.03912 37.3294 4.28427 37.3314H19.8982C20.082 37.3338 20.2605 37.27 20.4012 37.1518C20.542 37.0336 20.6356 36.8688 20.6649 36.6874L23.9273 16.7108C23.9452 16.6004 23.9387 16.4873 23.9083 16.3796C23.8779 16.272 23.8242 16.1722 23.7512 16.0875C23.6781 16.0027 23.5874 15.935 23.4853 15.889C23.3833 15.8431 23.2725 15.82 23.1606 15.8215L0.776594 15.8138ZM14.4815 30.0937H9.49787L8.14847 23.0477H15.689L14.4815 30.0937Z" fill="#2684FF"/>
<path d="M22.8844 23.0476H15.6889L14.4813 30.0936H9.49775L3.61328 37.0822C3.79979 37.2434 4.03759 37.3331 4.28415 37.3352H19.9019C20.0857 37.3375 20.2642 37.2738 20.405 37.1556C20.5457 37.0374 20.6393 36.8726 20.6687 36.6911L22.8844 23.0476Z" fill="url(#paint0_linear_348_1019)"/>
<path d="M61.5346 2.0015C61.5346 2.99822 61.9985 3.78793 63.8041 4.13678C64.8813 4.36296 65.1075 4.52013 65.1075 4.90348C65.1075 5.28684 64.8813 5.47851 64.1222 5.47851C63.2043 5.46181 62.3048 5.21816 61.5039 4.76931V6.39089C62.3093 6.79382 63.2031 6.98762 64.1031 6.95442C65.993 6.95442 66.7405 6.11105 66.7405 4.86132L61.5346 2.0015ZM66.7405 4.86132C66.7405 3.68059 66.1157 3.12473 64.3484 2.74521C63.3747 2.53053 63.137 2.31585 63.137 2.00534C63.137 1.62198 63.4859 1.44947 64.1337 1.44947C64.9253 1.47417 65.7027 1.66622 66.4147 2.013V0.479592C65.715 0.15454 64.9512 -0.00921949 64.1797 0.000400591C62.4355 0.000400591 61.5308 0.767106 61.5308 2.0015" fill="white"/>
<path d="M85.8008 0.10376V6.84694H87.2384V1.70617L87.8441 3.07091L89.8797 6.84694H91.6853V0.10376H90.2477V4.45482L89.7034 3.19358L88.0703 0.10376H85.8008Z" fill="white"/>
<path d="M76.6615 0.10376H75.0898V6.85077H76.6615V0.10376Z" fill="white"/>
<path d="M73.2757 4.85754C73.2757 3.67681 72.6508 3.12095 70.8836 2.74143C69.9099 2.52675 69.6722 2.31207 69.6722 2.00156C69.6722 1.61821 70.021 1.4457 70.6689 1.4457C71.4605 1.47039 72.2378 1.66244 72.9498 2.00923V0.475814C72.251 0.152644 71.4886 -0.00978939 70.7187 0.000456243C68.9745 0.000456243 68.0698 0.767162 68.0698 2.00156C68.0698 2.99828 68.5336 3.78798 70.3392 4.13683C71.4164 4.36301 71.6426 4.52019 71.6426 4.90354C71.6426 5.28689 71.4164 5.47857 70.6574 5.47857C69.7395 5.46186 68.84 5.21822 68.0391 4.76937V6.39095C68.8445 6.79388 69.7383 6.98767 70.6382 6.95448C72.5282 6.95448 73.2757 6.1111 73.2757 4.86137" fill="white"/>
<path d="M49.3281 0.10376V6.84694H52.5598L53.0658 5.3902H50.9114V0.10376H49.3281Z" fill="white"/>
<path d="M42.9492 0.10376V1.5605H44.6973V6.84694H46.2767V1.5605H48.1436V0.10376H42.9492Z" fill="white"/>
<path d="M40.6446 0.10376H38.5745L36.2207 6.85077H38.0187L38.3522 5.70071C39.1731 5.94159 40.046 5.94159 40.867 5.70071L41.2005 6.85077H42.9984L40.6446 0.10376ZM39.6096 4.49698C39.3177 4.49735 39.0272 4.45604 38.747 4.37431L39.6096 1.43016L40.4721 4.37431C40.1956 4.45496 39.9091 4.49626 39.6211 4.49698H39.6096Z" fill="white"/>
<path d="M58.127 0.10376H56.0569L53.7031 6.85077H55.501L55.8345 5.70071C56.6555 5.94159 57.5284 5.94159 58.3493 5.70071L58.6829 6.85077H60.4808L58.127 0.10376ZM57.0919 4.49698C56.8 4.49735 56.5096 4.45604 56.2294 4.37431L57.0919 1.43016L57.9545 4.37431C57.673 4.4564 57.3813 4.49771 57.0881 4.49698H57.0919Z" fill="white"/>
<path d="M82.3203 0.10376H80.2502L77.8965 6.85077H79.6944L80.0279 5.70071C80.8489 5.94159 81.7217 5.94159 82.5427 5.70071L82.8762 6.85077H84.6741L82.3203 0.10376ZM81.2815 4.49698C80.9896 4.49735 80.6991 4.45604 80.4189 4.37431L81.2815 1.42633L82.144 4.37048C81.864 4.4535 81.5735 4.4961 81.2815 4.49698Z" fill="white"/>
<path d="M44.8115 15.1699C49.3312 15.1699 51.524 17.3972 51.524 20.9739C51.524 23.6574 50.3088 25.2904 47.8131 25.9C51.087 26.4405 52.7047 28.2269 52.7047 31.3666C52.7047 34.9088 50.3088 37.3392 45.352 37.3392H36.209V15.1699H44.8115ZM39.2452 18.0719V24.6809H44.4051C47.2726 24.6809 48.4533 23.366 48.4533 21.2307C48.4533 19.0955 47.1729 18.0604 44.4051 18.0604L39.2452 18.0719ZM39.2452 27.3835V34.2839H45.4517C48.3537 34.2839 49.6686 33.2373 49.6686 31.0101C49.6686 28.6486 48.4188 27.3682 45.3865 27.3682L39.2452 27.3835Z" fill="white"/>
<path d="M57.6656 13.9892C57.9364 13.9698 58.2082 14.0089 58.4626 14.1038C58.7169 14.1986 58.9479 14.3471 59.1399 14.539C59.3319 14.731 59.4803 14.962 59.5752 15.2164C59.6701 15.4707 59.7091 15.7425 59.6897 16.0133C59.6897 16.5501 59.4765 17.065 59.0969 17.4446C58.7173 17.8242 58.2025 18.0374 57.6656 18.0374C57.1288 18.0374 56.614 17.8242 56.2344 17.4446C55.8548 17.065 55.6415 16.5501 55.6415 16.0133C55.6222 15.7425 55.6612 15.4707 55.7561 15.2164C55.851 14.962 55.9994 14.731 56.1914 14.539C56.3833 14.3471 56.6143 14.1986 56.8687 14.1038C57.1231 14.0089 57.3949 13.9698 57.6656 13.9892ZM56.1821 20.464H59.0841V37.3316H56.1821V20.464Z" fill="white"/>
<path d="M70.1641 34.5023C70.7775 34.484 71.3875 34.4044 71.985 34.2647V37.0631C71.3493 37.2448 70.691 37.3352 70.0299 37.3315C66.4187 37.3315 64.663 35.2077 64.663 32.0681V23.1628H61.9297V20.4793H64.663V16.8911H67.4806V20.4678H71.9659V23.1513H67.4806V32.0029C67.4806 33.4865 68.3585 34.5023 70.1641 34.5023Z" fill="white"/>
<path d="M83.9447 37.6689C81.4836 37.6689 79.5937 36.5572 78.5778 34.3644V37.3315H75.6758V13.418H78.597V23.5002C79.678 21.2729 81.7021 20.1266 84.2974 20.1266C88.7827 20.1266 91.0444 23.9372 91.0444 28.8978C91.0291 33.6552 88.6677 37.6689 83.9447 37.6689ZM83.5039 22.8255C80.8971 22.8255 78.597 24.4815 78.597 28.2231V29.5725C78.597 33.3178 80.7207 34.9701 83.1972 34.9701C86.471 34.9701 88.1578 32.8118 88.1578 28.8978C88.1271 24.8496 86.5094 22.8255 83.5039 22.8255Z" fill="white"/>
<path d="M94.0664 20.4639H96.9683V30.6687C96.9683 33.7049 98.1836 35.0543 100.948 35.0543C103.631 35.0543 105.502 33.2679 105.502 29.8598V20.4639H108.404V37.3314H105.502V34.5674C104.985 35.525 104.215 36.3216 103.274 36.8694C102.334 37.4173 101.261 37.6952 100.173 37.6726C96.2936 37.6726 94.0664 34.9891 94.0664 30.3505V20.4639Z" fill="white"/>
<path d="M124.696 36.8946C123.684 37.4351 122.132 37.6613 120.579 37.6613C114.576 37.6613 111.762 34.0195 111.762 28.8442C111.762 23.7494 114.561 20.1076 120.579 20.1076C121.966 20.0682 123.343 20.3531 124.601 20.9395V23.6229C123.402 23.0625 122.09 22.7895 120.767 22.8256C116.382 22.8256 114.595 25.5934 114.595 28.8634C114.595 32.1334 116.431 34.8858 120.851 34.8858C122.156 34.9203 123.455 34.715 124.685 34.2801L124.696 36.8946Z" fill="white"/>
<path d="M128.004 37.3315V13.418H130.906V28.3687L138.159 20.4755H141.939L134.007 28.7521L142.272 37.3315H138.324L130.902 29.4383V37.3315H128.004Z" fill="white"/>
<path d="M151.886 37.6687C145.576 37.6687 142.812 34.0269 142.812 28.8516C142.812 23.7568 145.645 20.115 150.774 20.115C155.968 20.115 158.059 23.7262 158.059 28.8516V30.1665H145.744C146.151 33.034 148.006 34.8894 151.985 34.8894C153.735 34.8878 155.471 34.579 157.115 33.977V36.6605C155.731 37.4004 153.607 37.6687 151.886 37.6687ZM145.714 27.7015H155.126C154.957 24.5657 153.539 22.7755 150.641 22.7755C147.566 22.7601 146.017 24.7497 145.714 27.6862V27.7015Z" fill="white"/>
<path d="M168.179 34.5023C168.792 34.484 169.403 34.4044 170 34.2647V37.0631C169.364 37.2448 168.706 37.3352 168.045 37.3315C164.434 37.3315 162.678 35.2077 162.678 32.0681V23.1628H159.945V20.4793H162.678V16.8911H165.511V20.4678H169.996V23.1513H165.511V32.0029C165.515 33.4865 166.385 34.5023 168.179 34.5023Z" fill="white"/>
</g>
<defs>
<linearGradient id="paint0_linear_348_1019" x1="24.5482" y1="25.018" x2="12.6566" y2="34.3028" gradientUnits="userSpaceOnUse">
<stop offset="0.18" stop-color="#0052CC"/>
<stop offset="1" stop-color="#2684FF"/>
</linearGradient>
<clipPath id="clip0_348_1019">
<rect width="170" height="38" fill="white"/>
</clipPath>
</defs>
</svg>
