<svg width="83" height="71" viewBox="0 0 83 71" fill="none" xmlns="http://www.w3.org/2000/svg">
<path d="M9.6271 8.49461C9.47321 4.07525 12.9165 0 17.5706 0H65.2617C69.9159 0 73.3591 4.07525 73.2052 8.49461C73.0574 12.7398 73.2494 18.239 74.6333 22.7229C76.0217 27.2207 78.363 30.0636 82.1975 30.4289V34.5711C78.363 34.9364 76.0217 37.7793 74.6333 42.2771C73.2494 46.761 73.0574 52.2602 73.2052 56.5056C73.3591 60.9248 69.9159 65 65.2617 65H17.5706C12.9165 65 9.47321 60.9248 9.62726 56.5056C9.77495 52.2602 9.58297 46.761 8.19886 42.2771C6.8106 37.7793 4.46359 34.9364 0.628906 34.5711V30.4289C4.46343 30.0636 6.8106 27.2207 8.19886 22.7229C9.58297 18.239 9.77495 12.7398 9.6271 8.49461Z" fill="url(#paint0_linear_348_1064)"/>
<g filter="url(#filter0_d_348_1064)">
<path d="M43.1818 49.7787C50.7169 49.7787 55.2575 46.0893 55.2575 40.004C55.2575 35.4042 52.0177 32.074 47.207 31.5469V31.3552C50.7414 30.7802 53.5149 27.4981 53.5149 23.8326C53.5149 18.6098 49.3915 15.2076 43.1082 15.2076H28.9707V49.7787H43.1818ZM34.4686 19.592H41.7829C45.759 19.592 48.017 21.3648 48.017 24.5751C48.017 28.0012 45.3908 29.9177 40.6293 29.9177H34.4686V19.592ZM34.4686 45.3946V34.0146H41.7336C46.937 34.0146 49.6369 35.9312 49.6369 39.6687C49.6369 43.406 47.0108 45.3946 42.0527 45.3946H34.4686Z" fill="url(#paint1_linear_348_1064)"/>
<path d="M43.1818 49.7787C50.7169 49.7787 55.2575 46.0893 55.2575 40.004C55.2575 35.4042 52.0177 32.074 47.207 31.5469V31.3552C50.7414 30.7802 53.5149 27.4981 53.5149 23.8326C53.5149 18.6098 49.3915 15.2076 43.1082 15.2076H28.9707V49.7787H43.1818ZM34.4686 19.592H41.7829C45.759 19.592 48.017 21.3648 48.017 24.5751C48.017 28.0012 45.3908 29.9177 40.6293 29.9177H34.4686V19.592ZM34.4686 45.3946V34.0146H41.7336C46.937 34.0146 49.6369 35.9312 49.6369 39.6687C49.6369 43.406 47.0108 45.3946 42.0527 45.3946H34.4686Z" stroke="white"/>
</g>
<defs>
<filter id="filter0_d_348_1064" x="12.4707" y="2.70764" width="59.2871" height="67.571" filterUnits="userSpaceOnUse" color-interpolation-filters="sRGB">
<feFlood flood-opacity="0" result="BackgroundImageFix"/>
<feColorMatrix in="SourceAlpha" type="matrix" values="0 0 0 0 0 0 0 0 0 0 0 0 0 0 0 0 0 0 127 0" result="hardAlpha"/>
<feOffset dy="4"/>
<feGaussianBlur stdDeviation="8"/>
<feColorMatrix type="matrix" values="0 0 0 0 0 0 0 0 0 0 0 0 0 0 0 0 0 0 0.15 0"/>
<feBlend mode="normal" in2="BackgroundImageFix" result="effect1_dropShadow_348_1064"/>
<feBlend mode="normal" in="SourceGraphic" in2="effect1_dropShadow_348_1064" result="shape"/>
</filter>
<linearGradient id="paint0_linear_348_1064" x1="12.7493" y1="1.72027" x2="84.0265" y2="58.3001" gradientUnits="userSpaceOnUse">
<stop stop-color="#9013FE"/>
<stop offset="1" stop-color="#6610F2"/>
</linearGradient>
<linearGradient id="paint1_linear_348_1064" x1="31.4571" y1="17.4831" x2="47.3894" y2="44.4282" gradientUnits="userSpaceOnUse">
<stop stop-color="white"/>
<stop offset="1" stop-color="#F1E5FC"/>
</linearGradient>
</defs>
</svg>
