<svg width="103" height="31" viewBox="0 0 103 31" fill="none" xmlns="http://www.w3.org/2000/svg">
<path d="M83.9936 19.0757C83.9936 14.5338 86.8791 11.3395 90.9835 11.3395C95.0878 11.3395 98.0193 14.5319 98.0193 19.0757C98.0193 23.6194 95.0885 26.6309 90.9835 26.6309C86.8785 26.6309 83.9936 23.4817 83.9936 19.0757ZM79.7092 19.0757C79.7092 25.7772 84.3993 30.5 90.9828 30.5C97.5664 30.5 102.303 25.7772 102.303 19.0757C102.303 12.3741 97.6125 7.4723 90.9828 7.4723C84.3532 7.4723 79.7092 12.2855 79.7092 19.0757ZM57.8363 7.7418L66.6761 30.2292H70.8258L79.6651 7.7418H75.2004L68.7963 25.1026H68.7057L62.3016 7.7418H57.8363ZM40.6536 18.2652C40.9238 14.1268 43.6751 11.3395 47.4186 11.3395C50.6651 11.3395 53.1008 13.4088 53.4617 16.5126H45.9749C43.3143 16.5126 41.8705 16.8274 40.7896 18.2672H40.6536V18.266V18.2652ZM36.3697 18.94C36.3697 25.6415 41.1052 30.4981 47.6435 30.4981C52.0634 30.4981 55.941 28.2498 57.6096 24.6955L54.0022 22.8957C52.7399 25.2344 50.3041 26.6291 47.6435 26.6291C44.4405 26.6291 41.555 24.1999 41.555 21.861C41.555 20.6474 42.3669 20.1065 43.5391 20.1065H57.8344V18.8929C57.8344 12.146 53.5052 7.46853 47.2825 7.46853C41.0599 7.46853 36.3691 12.2817 36.3691 18.9381M24.1033 30.2267H28.1623V16.4215C28.1623 13.4533 30.0104 11.3389 32.5822 11.3389C33.665 11.3389 34.7912 11.6988 35.3336 12.1926C35.7399 11.1127 36.371 10.0347 37.3177 8.95484C36.2349 8.05589 34.3869 7.4698 32.5822 7.4698C27.6219 7.4698 24.1033 11.1579 24.1033 16.4197V30.228V30.2267ZM4.48673 15.343V4.36715H11.1611C13.4153 4.36715 14.9045 5.67128 14.9045 7.65009C14.9045 9.89838 12.9657 11.6077 8.99735 12.9118C6.29135 13.7655 5.07441 14.4855 4.62279 15.341L4.48673 15.3423V15.343ZM4.48673 26.362V21.775C4.48673 19.751 6.20066 17.7722 8.59108 17.007C10.7113 16.2871 12.4686 15.5672 13.9577 14.8039C15.9418 15.9743 17.1588 17.9964 17.1588 20.1109C17.1588 23.7085 13.731 26.362 9.08617 26.362H4.48673ZM0.427734 30.2292H9.44709C16.3028 30.2292 21.4427 25.9569 21.4427 20.2899C21.4427 17.1861 19.8648 14.3988 17.0681 12.599C18.5118 11.1592 19.1883 9.49509 19.1883 7.47105C19.1883 3.28917 16.1667 0.5 11.6127 0.5H0.427734V30.2292Z" fill="#F9FFF6"/>
</svg>
