<svg width="58" height="65" viewBox="0 0 58 65" fill="none" xmlns="http://www.w3.org/2000/svg">
<path d="M5.60454 58.5024L0.388672 0H57.7024L52.481 58.4931L29.0105 65L5.60454 58.5024Z" fill="#264DE4"/>
<path d="M48.0102 54.7686L52.4723 4.78333H29.0449V60.0265L48.0102 54.7686Z" fill="#2965F1"/>
<path d="M12.3469 26.4812L12.99 33.6562H29.0464V26.4812H12.3469ZM11.707 19.1338H29.0464V11.9586H11.0547L11.707 19.1338ZM29.0464 45.1156L29.0149 45.124L21.0239 42.9663L20.5132 37.2437H13.3104L14.3157 48.5097L29.0134 52.59L29.0464 52.5807V45.1156Z" fill="#EBEBEB"/>
<path d="M29.0215 26.4812V33.6562H37.8568L37.024 42.9617L29.0215 45.1216V52.5864L43.7308 48.5097L43.8387 47.2974L45.5246 28.4078L45.6998 26.4812L46.9951 11.9586H29.0215V19.1338H39.1319L38.4789 26.4812H29.0215Z" fill="white"/>
</svg>
