<svg width="65" height="65" viewBox="0 0 65 65" fill="none" xmlns="http://www.w3.org/2000/svg">
<path d="M17.7827 17.6961L13.5801 13.4915L13.5963 43.8617L13.6471 45.2795C13.6674 45.9499 13.7944 46.7014 13.9975 47.4835L47.2847 59.2241L55.6128 55.5374L55.6199 55.5252L17.7807 17.6961H17.7827Z" fill="#00C4B3"/>
<path d="M14.0014 47.4835H14.0045C14.0014 47.4713 13.9963 47.4571 13.9902 47.4429C13.9973 47.4581 13.9973 47.4733 14.0004 47.4835H14.0014ZM55.6076 55.5374L47.2794 59.2241L13.9973 47.4835C14.6321 49.9251 16.0408 52.6693 17.5541 54.1663L28.4111 64.9695L52.5708 65L55.5974 55.5374H55.6076Z" fill="#22D3C5"/>
<path d="M13.6955 13.4924L0.753414 33.0382C-0.321119 34.1858 0.215132 36.5543 1.94474 38.2991L9.41569 45.831L14.1119 47.4865C13.9088 46.7065 13.7809 45.963 13.7616 45.2825L13.7108 43.8647L13.6955 13.4945V13.4924Z" fill="#0075C9"/>
<path d="M47.5589 13.8836C46.7768 13.6855 46.0273 13.5606 45.3519 13.5413L43.8508 13.4865L13.5801 13.4936L55.6189 55.5263L59.3117 47.1981L47.5609 13.8856L47.5589 13.8836Z" fill="#0075C9"/>
<path d="M47.5215 13.8764C47.5347 13.8815 47.5489 13.8845 47.5601 13.8866V13.8825C47.5469 13.8795 47.5347 13.8795 47.5215 13.8744V13.8764ZM54.2399 17.4494C52.7113 15.9107 50.0047 14.5041 47.5601 13.8866L59.3109 47.1961L55.614 55.5242L64.6348 52.6419L64.6551 27.9093L54.2388 17.4484L54.2399 17.4494Z" fill="#00A8E1"/>
<path d="M45.915 9.21672L38.3993 1.74171C36.6464 0.0181939 34.2779 -0.520088 33.1404 0.552413L13.5957 13.4915L43.8664 13.4844L45.3675 13.5392C46.0429 13.5595 46.7935 13.6834 47.5745 13.8815L45.917 9.21469L45.915 9.21672Z" fill="#00C4B3"/>
</svg>
