<svg width="45" height="65" viewBox="0 0 45 65" fill="none" xmlns="http://www.w3.org/2000/svg">
<g clip-path="url(#clip0_348_746)">
<path d="M11.0156 65C17.094 65 22.0273 60.1466 22.0273 54.1666V43.3333H11.0156C4.93714 43.3333 0.00390625 48.1866 0.00390625 54.1666C0.00390625 60.1466 4.93714 65 11.0156 65Z" fill="#0ACF83"/>
<path d="M0.00390625 32.4999C0.00390625 26.52 4.93714 21.6666 11.0156 21.6666H22.0273V43.3333H11.0156C4.93714 43.3333 0.00390625 38.4799 0.00390625 32.4999Z" fill="#A259FF"/>
<path d="M0.00488281 10.8334C0.00488281 4.85339 4.93812 6.10352e-05 11.0166 6.10352e-05H22.0283V21.6667H11.0166C4.93812 21.6667 0.00488281 16.8134 0.00488281 10.8334Z" fill="#F24E1E"/>
<path d="M22.0273 0H33.039C39.1175 0 44.0507 4.85333 44.0507 10.8333C44.0507 16.8133 39.1175 21.6667 33.039 21.6667H22.0273V0Z" fill="#FF7262"/>
<path d="M44.0507 32.4999C44.0507 38.4799 39.1175 43.3333 33.039 43.3333C26.9606 43.3333 22.0273 38.4799 22.0273 32.4999C22.0273 26.52 26.9606 21.6666 33.039 21.6666C39.1175 21.6666 44.0507 26.52 44.0507 32.4999Z" fill="#1ABCFE"/>
</g>
<defs>
<clipPath id="clip0_348_746">
<rect width="44.0556" height="65" fill="white"/>
</clipPath>
</defs>
</svg>
