<svg width="67" height="65" viewBox="0 0 67 65" fill="none" xmlns="http://www.w3.org/2000/svg">
<g clip-path="url(#clip0_348_784)">
<path fill-rule="evenodd" clip-rule="evenodd" d="M33.6485 0C15.3571 0 0.570312 14.8958 0.570312 33.324C0.570312 48.0546 10.0447 60.5238 23.1883 64.937C24.8316 65.2688 25.4335 64.22 25.4335 63.3378C25.4335 62.5652 25.3793 59.9171 25.3793 57.158C16.1778 59.1446 14.2616 53.1856 14.2616 53.1856C12.7829 49.3235 10.5918 48.3309 10.5918 48.3309C7.58016 46.2895 10.8112 46.2895 10.8112 46.2895C14.1519 46.5102 15.9049 49.7101 15.9049 49.7101C18.8617 54.7855 23.6264 53.3515 25.5432 52.4685C25.8167 50.3168 26.6935 48.8272 27.6245 47.9998C20.2856 47.2272 12.5642 44.3584 12.5642 31.5582C12.5642 27.9168 13.8777 24.9377 15.9591 22.6207C15.6307 21.7933 14.4803 18.372 16.2881 13.7929C16.2881 13.7929 19.0811 12.9099 25.3786 17.2135C28.0749 16.484 30.8554 16.113 33.6485 16.1098C36.4415 16.1098 39.2886 16.4965 41.9178 17.2135C48.216 12.9099 51.009 13.7929 51.009 13.7929C52.8168 18.372 51.6657 21.7933 51.3373 22.6207C53.4735 24.9377 54.7329 27.9168 54.7329 31.5582C54.7329 44.3584 47.0115 47.1717 39.6177 47.9998C40.8229 49.0479 41.8629 51.0338 41.8629 54.1789C41.8629 58.6476 41.8087 62.2341 41.8087 63.3371C41.8087 64.22 42.4114 65.2688 44.054 64.9377C57.1975 60.5231 66.6719 48.0546 66.6719 33.324C66.7261 14.8958 51.8851 0 33.6485 0Z" fill="white"/>
</g>
<defs>
<clipPath id="clip0_348_784">
<rect width="66.3542" height="65" fill="white" transform="translate(0.570312)"/>
</clipPath>
</defs>
</svg>
