<svg width="75" height="65" viewBox="0 0 75 65" fill="none" xmlns="http://www.w3.org/2000/svg">
<g clip-path="url(#clip0_348_757)">
<path d="M72.1753 14.635C71.8682 13.8395 70.947 13.4724 70.21 13.7783C69.6573 14.0231 69.2888 14.5738 69.2888 15.1245C69.2888 15.3081 69.2888 15.4917 69.4116 15.6141C70.8242 19.3467 71.6226 23.3853 71.6226 27.6687C71.6226 44.9857 58.6638 59.3655 41.8359 61.5072V45.5364C42.88 45.3528 43.8626 45.0469 44.8453 44.7409V58.1417C58.541 54.8374 68.7975 42.4769 68.7975 27.6687C68.7975 15.8588 62.226 5.51757 52.5223 0.193962C51.7853 -0.234375 50.864 0.0715798 50.4955 0.867061C50.3727 1.05063 50.3727 1.2954 50.3727 1.54016C50.3727 2.09088 50.6798 2.58041 51.1097 2.82517C59.8922 7.65925 65.8495 17.0215 65.8495 27.7299C65.8495 39.7845 58.3568 50.0645 47.7318 54.2255V42.3545C49.5743 41.8038 50.9254 40.0904 50.9254 38.0099C50.9254 36.2966 50.0656 34.8892 48.6531 34.0937C49.6971 23.8136 54.4261 26.5672 54.4261 23.2629V21.366C54.4261 16.4707 43.0642 0.499916 37.721 0.132771H36.7384C31.3952 0.499916 20.0333 16.4707 20.0333 21.366V23.2629C20.0333 26.506 24.7009 23.8136 25.8064 34.0937C24.4552 34.8892 23.5954 36.3578 23.5954 38.0099C23.5954 40.0292 24.9465 41.7426 26.789 42.3545V54.2255C16.2255 50.0645 8.67135 39.7845 8.67135 27.7299C8.67135 17.0215 14.6287 7.65925 23.4112 2.82517C24.0867 2.45802 24.3938 1.60135 24.0253 0.867061C23.8411 0.316343 23.2883 0.0103889 22.7356 0.0103889C22.4899 0.0103889 22.2443 0.0715798 21.9986 0.193962C12.2949 5.51757 5.72339 15.8588 5.72339 27.6687C5.72339 42.4769 15.9798 54.8374 29.7984 58.2029V44.8021C30.7811 45.1081 31.7637 45.414 32.8078 45.5976V61.5684C15.9798 59.3655 3.02109 45.0469 3.02109 27.6687C3.02109 23.4465 3.8195 19.4079 5.23206 15.6141C5.53914 14.8798 5.17065 14.0231 4.43366 13.7171C4.24941 13.656 4.06516 13.5948 3.88092 13.5948C3.26676 13.5948 2.71402 13.9619 2.46835 14.5738C0.87154 18.6736 0.0117188 23.0793 0.0117188 27.6687C0.0117188 47.6781 15.857 63.9549 35.7557 64.7503V45.9647C36.3085 46.0259 37.2911 46.0259 37.2911 46.0259C37.2911 46.0259 38.2738 46.0259 38.8265 45.9647V64.7503C58.7253 63.9549 74.5705 47.6781 74.5705 27.6687C74.5091 23.0793 73.7107 18.6736 72.1753 14.635ZM44.1697 35.807C44.7224 35.2563 45.4594 34.8892 46.3193 34.8892C47.1791 34.8892 47.9161 35.2563 48.4688 35.807C49.0216 36.3578 49.39 37.0921 49.39 37.9487C49.39 38.8054 49.0216 39.5397 48.4688 40.0904C47.9161 40.6411 47.1791 41.0083 46.3193 41.0083C45.4594 41.0083 44.7224 40.6411 44.1697 40.0904C43.617 39.5397 43.2485 38.8054 43.2485 37.9487C43.2485 37.0921 43.617 36.3578 44.1697 35.807ZM30.4126 40.0904C29.8598 40.6411 29.1228 41.0083 28.263 41.0083C27.4032 41.0083 26.6662 40.6411 26.1134 40.0904C25.4993 39.5397 25.1922 38.8054 25.1922 37.9487C25.1922 37.0921 25.5607 36.3578 26.1134 35.807C26.6662 35.2563 27.4032 34.8892 28.263 34.8892C29.1228 34.8892 29.8598 35.2563 30.4126 35.807C30.9653 36.3578 31.3338 37.0921 31.3338 37.9487C31.2724 38.8054 30.9653 39.5397 30.4126 40.0904Z" fill="#128379"/>
</g>
<defs>
<clipPath id="clip0_348_757">
<rect width="74.5588" height="65" fill="white" transform="translate(0.0117188)"/>
</clipPath>
</defs>
</svg>
