<svg width="66" height="17" viewBox="0 0 66 17" fill="none" xmlns="http://www.w3.org/2000/svg">
<path d="M7.43704 7.80706C8.00989 7.33578 8.42835 6.70403 8.63555 5.99304C9.05401 4.90016 8.51976 3.67727 7.43704 3.23849C3.91666 1.45494 1.64354 4.63202 1.31446 5.37144C0.985376 6.11086 0.404402 7.285 0.772081 9.96236C1.13976 12.6397 2.43172 15.1119 6.47213 16.0849C10.3378 16.9828 14.3945 16.5115 17.9494 14.7442L29.8939 9.76328C30.9985 9.4926 32.1308 9.35148 33.2681 9.34279V5.2719C32.3855 3.6857 31.0601 2.3909 29.4537 1.54567C27.8472 0.700442 26.0294 0.341392 24.2223 0.512382C17.7707 1.02023 15.2071 4.3395 13.6592 5.76146C12.1112 7.18343 9.1759 10.5352 7.22374 9.94611C5.27159 9.35701 4.72108 6.94576 5.40972 6.20431C6.09836 5.46285 6.64074 5.59489 7.06936 6.20431C7.33344 6.6959 7.46344 7.2464 7.45126 7.803L7.43704 7.80706Z" fill="white"/>
<path d="M58.872 7.80706C58.2992 7.33578 57.8807 6.70403 57.6735 5.99304C57.2551 4.90016 57.7893 3.67727 58.872 3.23849C62.3924 1.45494 64.6655 4.63202 64.9946 5.37144C65.3237 6.11086 65.9047 7.285 65.537 9.96236C65.1693 12.6397 63.8774 15.1119 59.8369 16.0849C55.9712 16.9828 51.9146 16.5115 48.3596 14.7442L36.4151 9.76328C35.3106 9.4926 34.1782 9.35148 33.041 9.34279V5.2719C33.9236 3.6857 35.249 2.3909 36.8554 1.54567C38.4618 0.700442 40.2796 0.341392 42.0867 0.512382C48.5384 1.02023 51.102 4.3395 52.6499 5.76146C54.1978 7.18343 57.1332 10.5352 59.0853 9.94611C61.0375 9.35701 61.588 6.94576 60.8994 6.20431C60.2107 5.46285 59.6683 5.59489 59.2397 6.20431C58.9756 6.6959 58.8456 7.2464 58.8578 7.803L58.872 7.80706Z" fill="white"/>
</svg>
