<svg width="47" height="65" viewBox="0 0 47 65" fill="none" xmlns="http://www.w3.org/2000/svg">
<path d="M4.99414 0H7.91406V2.89453H10.6055V0H13.5254V8.75977H10.6055V5.83984H7.93945V8.75977H4.99414M17.3848 2.91992H14.8076V0H22.8945V2.91992H20.3047V8.75977H17.3848M24.1768 0H27.2363L29.1152 3.08496L30.9941 0H34.0537V8.75977H31.1338V4.41797L29.0898 7.56641L27.0459 4.41797V8.75977H24.1768M35.501 0H38.4209V5.86523H42.5596V8.75977H35.501" fill="white"/>
<path d="M4.89258 59.7949L0.703125 12.7715H46.7617L42.5723 59.7695L23.6943 65" fill="#E44D26"/>
<path d="M23.7324 61.001V16.6309H42.5596L38.9668 56.748" fill="#F16529"/>
<path d="M9.25977 22.3818H23.7324V28.1455H15.582L16.1152 34.0488H23.7324V39.7998H10.834M11.0879 42.6943H16.877L17.2832 47.3027L23.7324 49.0293V55.0469L11.9004 51.7461" fill="#EBEBEB"/>
<path d="M38.1543 22.3818H23.707V28.1455H37.6211M37.1006 34.0488H23.707V39.8125H30.8164L30.1436 47.3027L23.707 49.0293V55.0215L35.5137 51.7461" fill="white"/>
</svg>
