<svg width="68" height="65" viewBox="0 0 68 65" fill="none" xmlns="http://www.w3.org/2000/svg">
<g clip-path="url(#clip0_348_867)">
<path d="M12.5282 0H55.5838C62.1115 0 67.3893 5.27778 67.3893 11.8056V53.1944C67.3893 59.7222 62.1115 65 55.5838 65H12.5282C6.00043 65 0.722656 59.7222 0.722656 53.1944V11.8056C0.722656 5.27778 6.00043 0 12.5282 0Z" fill="#330000"/>
<path d="M32.9445 38.8888H22.6112L20.5 45.4166C20.4445 45.6666 20.2223 45.8333 19.9723 45.8055H14.75C14.4445 45.8055 14.3612 45.6388 14.4445 45.3055L23.3889 19.5555C23.4723 19.2777 23.5556 18.9722 23.6667 18.6388C23.7778 18.0555 23.8334 17.4444 23.8334 16.8333C23.8056 16.6944 23.9167 16.5555 24.0556 16.5277H31.25C31.4723 16.5277 31.5834 16.6111 31.6112 16.75L41.75 45.3611C41.8334 45.6666 41.75 45.8055 41.4723 45.8055H35.6667C35.4723 45.8333 35.2778 45.6944 35.2223 45.5L32.9445 38.8888ZM24.2223 33.25H31.2778C31.1112 32.6666 30.8889 31.9722 30.6389 31.25C30.3889 30.5 30.1389 29.6944 29.8889 28.8611C29.6112 28 29.3612 27.1666 29.0834 26.3055C28.8056 25.4444 28.5556 24.6388 28.3334 23.8333C28.1112 23.0555 27.9167 22.3333 27.7223 21.6666H27.6667C27.4167 22.8611 27.1112 24.0555 26.7223 25.25C26.3056 26.5833 25.8889 27.9722 25.4445 29.3611C25.0556 30.7777 24.6389 32.0833 24.2223 33.25ZM47.9445 21.3888C47.0278 21.4166 46.1389 21.0555 45.4723 20.4166C44.8334 19.7222 44.5 18.8055 44.5278 17.8611C44.5 16.9166 44.8612 16.0277 45.5278 15.3888C46.1945 14.75 47.0834 14.4166 48 14.4166C49.0834 14.4166 49.9167 14.75 50.5278 15.3888C51.1389 16.0555 51.4723 16.9444 51.4445 17.8611C51.4723 18.8055 51.1389 19.7222 50.4723 20.4166C49.8334 21.0833 48.8889 21.4444 47.9445 21.3888ZM44.8334 45.5V24.1111C44.8334 23.8333 44.9445 23.7222 45.1945 23.7222H50.6945C50.9445 23.7222 51.0556 23.8611 51.0556 24.1111V45.5C51.0556 45.8055 50.9445 45.9444 50.6945 45.9444H45.25C44.9723 45.9444 44.8334 45.7777 44.8334 45.5Z" fill="#FF9A00"/>
</g>
<defs>
<clipPath id="clip0_348_867">
<rect width="66.6667" height="65" fill="white" transform="translate(0.722656)"/>
</clipPath>
</defs>
</svg>
