<svg width="68" height="65" viewBox="0 0 68 65" fill="none" xmlns="http://www.w3.org/2000/svg">
<path d="M12.3075 0H55.3631C61.8908 0 67.1686 5.27778 67.1686 11.8056V53.1944C67.1686 59.7222 61.8908 65 55.3631 65H12.3075C5.77973 65 0.501953 59.7222 0.501953 53.1944V11.8056C0.501953 5.27778 5.77973 0 12.3075 0Z" fill="#49021F"/>
<path d="M24.7257 17V45.6111C24.7257 45.9166 24.5868 46.0555 24.3368 46.0555H18.8924C18.6424 46.0555 18.5312 45.9166 18.5312 45.6111V17C18.5312 16.75 18.6701 16.6389 18.9201 16.6389H24.3368C24.5035 16.6111 24.6701 16.7222 24.6979 16.9166C24.7257 16.9444 24.7257 16.9722 24.7257 17Z" fill="#FF3366"/>
<path d="M40.7814 46.3888C38.7259 46.4166 36.6703 45.9999 34.8092 45.1388C33.0592 44.3333 31.6148 42.9999 30.6148 41.361C29.587 39.6666 29.087 37.5555 29.087 35.0277C29.0592 32.9721 29.587 30.9444 30.6148 29.1666C31.6703 27.361 33.1981 25.861 35.0314 24.861C36.9759 23.7777 39.3092 23.2499 42.0592 23.2499C42.1981 23.2499 42.3925 23.2499 42.6425 23.2777C42.8925 23.3055 43.1703 23.3055 43.5036 23.3333V14.5555C43.5036 14.361 43.587 14.2499 43.7814 14.2499H49.4203C49.5592 14.2221 49.6703 14.3333 49.6981 14.4444V14.4999V40.9444C49.6981 41.4444 49.7259 41.9999 49.7536 42.611C49.8092 43.1944 49.837 43.7499 49.8648 44.2221C49.8648 44.4166 49.7814 44.5833 49.587 44.6666C48.1425 45.2777 46.6148 45.7221 45.0592 45.9999C43.6703 46.2499 42.2259 46.3888 40.7814 46.3888ZM43.5036 40.8333V28.611C43.2536 28.5555 43.0036 28.4999 42.7536 28.4721C42.4481 28.4444 42.1425 28.4166 41.837 28.4166C40.7536 28.4166 39.6703 28.6388 38.6981 29.1388C37.7536 29.611 36.9481 30.3055 36.337 31.1944C35.7259 32.0833 35.4203 33.2777 35.4203 34.7221C35.3925 35.6944 35.5592 36.6666 35.8925 37.5833C36.1703 38.3333 36.587 38.9999 37.1425 39.5555C37.6703 40.0555 38.3092 40.4444 39.0314 40.6666C39.7814 40.9166 40.5592 41.0277 41.337 41.0277C41.7536 41.0277 42.1425 40.9999 42.5036 40.9721C42.8648 40.9999 43.1981 40.9444 43.5036 40.8333Z" fill="#FF3366"/>
</svg>
