<svg width="131" height="45" viewBox="0 0 131 45" fill="none" xmlns="http://www.w3.org/2000/svg">
<path d="M40.6038 0.708984H4.92323C2.74137 0.708984 0.972656 2.4777 0.972656 4.65956V40.3401C0.972656 42.522 2.74137 44.291 4.92323 44.291H40.6038C42.7856 44.291 44.5544 42.522 44.5544 40.3401V4.65956C44.5544 2.4777 42.7856 0.708984 40.6038 0.708984Z" fill="#FF3366"/>
<path d="M62.1688 34.5424H66.3399V16.3416H62.1688V34.5424ZM77.4055 23.7869C75.2678 23.0967 73.3025 22.5457 73.3025 21.2361V21.167C73.3025 20.0985 74.2332 19.3398 75.8534 19.3398C76.6437 19.3398 77.528 19.5211 78.4423 19.8417L78.442 19.8395C78.442 19.8395 78.4505 19.8442 78.468 19.852C78.5467 19.8798 78.6261 19.9111 78.7062 19.941C79.3662 20.1494 81.1456 20.4283 82.6454 18.0993C80.7147 16.8232 78.2333 16.0304 75.957 16.0304C72.338 16.0304 69.477 18.1328 69.477 21.5805V21.6496C69.477 25.1307 72.4759 26.2338 75.1645 26.9924C77.3022 27.6474 79.233 28.1296 79.233 29.5429V29.6113C79.233 30.8183 78.1987 31.5769 76.4058 31.5769C75.214 31.5769 73.9087 31.2621 72.6084 30.6495C72.234 30.4917 70.2872 29.8257 68.6225 32.1935C70.8909 33.9647 73.7324 34.8868 76.3028 34.8868C80.0939 34.8868 83.0589 32.9916 83.0589 29.1643V29.0955C83.0586 25.821 80.0597 24.6143 77.4055 23.7869ZM50.7944 29.716L45.8996 16.3416H41.418L48.8985 34.6795H52.6557L60.1016 16.3416H55.7237L50.7944 29.716ZM102.431 15.962C96.8461 15.962 92.7092 20.2705 92.7092 25.5107C92.7092 30.7154 96.8115 34.9559 102.362 34.9559C107.981 34.9559 112.118 30.647 112.118 25.4417C112.118 20.2021 108.015 15.962 102.431 15.962ZM102.431 31.3365C99.1896 31.3365 96.8802 28.682 96.8802 25.4413C96.8802 22.2362 99.0176 19.6155 102.362 19.6155C105.636 19.6155 107.946 22.2696 107.946 25.5104C107.946 28.7162 105.809 31.3365 102.431 31.3365ZM124.492 15.962C121.665 15.962 119.976 17.4443 118.804 19.1678V16.3416H114.633V34.5424H118.804V24.2692C118.804 21.4426 120.493 19.7537 122.907 19.7537C125.389 19.7537 126.802 21.3732 126.802 24.1997V34.542H130.973V22.9592C130.973 18.7198 128.594 15.962 124.492 15.962ZM85.8153 34.5424H89.987V16.3416H85.8153V34.5424Z" fill="#FF3366"/>
<path d="M15.537 14.421C16.9858 14.421 18.1993 13.2856 18.1993 11.7972C18.1993 10.3098 16.9858 9.17474 15.537 9.17474C14.0885 9.17474 12.875 10.3102 12.875 11.7972C12.875 13.2856 14.0885 14.421 15.537 14.421Z" fill="white"/>
<path d="M10.0178 28.4694C9.86144 29.1351 9.78272 29.8538 9.78272 30.4401C9.78272 32.7505 11.0357 34.2841 13.698 34.2841C15.9063 34.2841 17.6963 32.9727 18.9849 30.8557L18.1982 34.0142H22.5829L25.0889 23.9632C25.715 21.4181 26.9288 20.0974 28.7691 20.0974C30.2177 20.0974 31.1184 20.9981 31.1184 22.4855C31.1184 22.9164 31.0792 23.3859 30.9225 23.8952L29.6303 28.515C29.4344 29.1803 29.3564 29.8467 29.3564 30.4725C29.3564 32.6657 30.6479 34.2699 33.3494 34.2699C35.6595 34.2699 37.4994 32.7829 38.5174 29.2198L36.7949 28.5549C35.9337 30.9419 35.1897 31.3736 34.6024 31.3736C34.0151 31.3736 33.7017 30.9821 33.7017 30.1993C33.7017 29.8474 33.7804 29.456 33.8975 28.9851L35.1509 24.4843C35.464 23.4275 35.5815 22.4901 35.5815 21.6293C35.5815 18.2621 33.5453 16.5051 31.0789 16.5051C28.7691 16.5051 26.4195 18.5887 25.2456 20.7812L26.1068 16.8453H19.4116L18.4721 20.3122H21.6042L19.6755 28.0345C18.1608 31.4013 15.3784 31.4558 15.0294 31.3778C14.456 31.2489 14.0895 31.0309 14.0895 30.2862C14.0895 29.8563 14.1678 29.2391 14.3637 28.4943L17.3003 16.8456H9.86144L8.92188 20.3125H12.0148L10.0178 28.4694Z" fill="white"/>
</svg>
