<svg width="66" height="65" viewBox="0 0 66 65" fill="none" xmlns="http://www.w3.org/2000/svg">
<path d="M65.3887 0H0.388672V65H65.3887V0Z" fill="#F7DF1E"/>
<path d="M44.0528 50.7815C45.3621 52.9193 47.0655 54.4906 50.0782 54.4906C52.6091 54.4906 54.2258 53.2257 54.2258 51.4779C54.2258 49.3835 52.5647 48.6417 49.779 47.4232L48.252 46.768C43.8444 44.8902 40.9163 42.5379 40.9163 37.5648C40.9163 32.9839 44.4067 29.4966 49.8615 29.4966C53.745 29.4966 56.5369 30.8482 58.5488 34.3871L53.7925 37.441C52.7453 35.5632 51.6155 34.8235 49.8615 34.8235C48.0725 34.8235 46.9386 35.9584 46.9386 37.441C46.9386 39.2734 48.0735 40.0152 50.6941 41.1502L52.2211 41.8043C57.4108 44.0298 60.341 46.2986 60.341 51.3995C60.341 56.8987 56.021 59.9114 50.2195 59.9114C44.547 59.9114 40.8822 57.2082 39.0891 53.6652L44.0528 50.7815ZM22.4759 51.3108C23.4354 53.0132 24.3083 54.4525 26.4068 54.4525C28.4136 54.4525 29.6795 53.6673 29.6795 50.6144V29.8453H35.7875V50.6969C35.7875 57.0215 32.0794 59.9001 26.6668 59.9001C21.7764 59.9001 18.9442 57.3692 17.5039 54.3209L22.4759 51.3108Z" fill="black"/>
</svg>
