<svg width="67" height="65" viewBox="0 0 67 65" fill="none" xmlns="http://www.w3.org/2000/svg">
<path d="M11.8612 0H54.9168C61.4445 0 66.7223 5.27778 66.7223 11.8056V53.1944C66.7223 59.7222 61.4445 65 54.9168 65H11.8612C5.33344 65 0.0556641 59.7222 0.0556641 53.1944V11.8056C0.0556641 5.27778 5.33344 0 11.8612 0Z" fill="#001E36"/>
<path d="M15.0557 45.5834V17.0001C15.0557 16.8056 15.139 16.6945 15.3334 16.6945C15.8057 16.6945 16.2501 16.6945 16.889 16.6667C17.5557 16.6389 18.2501 16.6389 19.0001 16.6112C19.7501 16.5834 20.5557 16.5834 21.4168 16.5556C22.2779 16.5278 23.1112 16.5278 23.9446 16.5278C26.2223 16.5278 28.1112 16.8056 29.6668 17.3889C31.0557 17.8612 32.3334 18.6389 33.389 19.6667C34.2779 20.5556 34.9723 21.6389 35.4168 22.8334C35.8334 24.0001 36.0557 25.1945 36.0557 26.4445C36.0557 28.8334 35.5001 30.8056 34.389 32.3612C33.2779 33.9167 31.7223 35.0834 29.9168 35.7501C28.0279 36.4445 25.9446 36.6945 23.6668 36.6945C23.0001 36.6945 22.5557 36.6945 22.2779 36.6667C22.0001 36.6389 21.6112 36.6389 21.0834 36.6389V45.5556C21.1112 45.7501 20.9723 45.9167 20.7779 45.9445C20.7501 45.9445 20.7223 45.9445 20.6668 45.9445H15.389C15.1668 45.9445 15.0557 45.8334 15.0557 45.5834ZM21.1112 22.0556V31.3889C21.5001 31.4167 21.8612 31.4445 22.1946 31.4445H23.6668C24.7501 31.4445 25.8334 31.2778 26.8612 30.9445C27.7501 30.6945 28.5279 30.1667 29.139 29.4723C29.7223 28.7778 30.0001 27.8334 30.0001 26.6112C30.0279 25.7501 29.8057 24.8889 29.3612 24.1389C28.889 23.4167 28.2223 22.8612 27.4168 22.5556C26.389 22.1389 25.2779 21.9723 24.139 22.0001C23.4168 22.0001 22.7779 22.0001 22.2501 22.0278C21.6946 22.0001 21.3057 22.0278 21.1112 22.0556Z" fill="#31A8FF"/>
<path d="M53.3891 29.6945C52.5557 29.2501 51.6668 28.9445 50.7224 28.7501C49.6946 28.5279 48.6668 28.389 47.6113 28.389C47.0557 28.3612 46.4724 28.4445 45.9446 28.5834C45.5835 28.6667 45.278 28.8612 45.0835 29.139C44.9446 29.3612 44.8613 29.639 44.8613 29.889C44.8613 30.139 44.9724 30.389 45.1391 30.6112C45.3891 30.9167 45.7224 31.1667 46.0835 31.3612C46.7224 31.6945 47.3891 32.0001 48.0557 32.2779C49.5557 32.7779 51.0002 33.4723 52.3335 34.3056C53.2502 34.889 54.0002 35.6667 54.528 36.6112C54.9724 37.5001 55.1946 38.4723 55.1668 39.4723C55.1946 40.7779 54.8057 42.0834 54.0835 43.1667C53.3057 44.2779 52.2224 45.139 50.9724 45.639C49.6113 46.2223 47.9446 46.5279 45.9446 46.5279C44.6668 46.5279 43.4168 46.4167 42.1668 46.1667C41.1946 46.0001 40.2224 45.6945 39.3335 45.2779C39.1391 45.1667 39.0002 44.9723 39.028 44.7501V39.9167C39.028 39.8334 39.0557 39.7223 39.1391 39.6667C39.2224 39.6112 39.3057 39.639 39.3891 39.6945C40.4724 40.3334 41.6113 40.7779 42.8335 41.0556C43.8891 41.3334 45.0002 41.4723 46.1113 41.4723C47.1668 41.4723 47.9168 41.3334 48.4168 41.0834C48.8613 40.889 49.1668 40.4167 49.1668 39.9167C49.1668 39.5279 48.9446 39.1667 48.5002 38.8056C48.0557 38.4445 47.1391 38.0279 45.778 37.5001C44.3613 37.0001 43.0557 36.3334 41.8335 35.5001C40.9724 34.889 40.2502 34.0834 39.7224 33.139C39.278 32.2501 39.0557 31.2779 39.0835 30.3056C39.0835 29.1112 39.4168 27.9723 40.028 26.9445C40.7224 25.8334 41.7502 24.9445 42.9446 24.389C44.2502 23.7223 45.8891 23.4167 47.8613 23.4167C49.0002 23.4167 50.1668 23.5001 51.3057 23.6667C52.1391 23.7779 52.9446 24.0001 53.6946 24.3056C53.8057 24.3334 53.9168 24.4445 53.9724 24.5556C54.0002 24.6667 54.028 24.7779 54.028 24.889V29.4167C54.028 29.5279 53.9724 29.639 53.8891 29.6945C53.6391 29.7501 53.5002 29.7501 53.3891 29.6945Z" fill="#31A8FF"/>
</svg>
