<svg width="91" height="65" viewBox="0 0 91 65" fill="none" xmlns="http://www.w3.org/2000/svg">
<path d="M88.654 0.859101C86.738 1.85296 75.4296 7.48313 64.2632 29.1536C64.2632 29.1536 60.6612 37.0617 58.5235 39.9838C56.6991 35.6694 51.2626 27.2376 37.7982 32.6233C37.7982 32.6233 26.0639 37.6704 18.0519 53.6945L16.0824 57.6008C13.8245 58.2038 11.4964 58.7588 9.35571 59.1484C6.83577 59.4879 4.76364 59.6245 3.31609 59.674C3.2618 59.672 1.54614 59.6101 1.01838 59.6877C0.48216 59.7666 2.27987 62.4663 5.65513 63.5184C5.65793 63.5192 5.6605 63.52 5.66327 63.5209C6.7064 64.0001 7.89102 64.3646 9.2575 64.6109C10.6767 64.9324 12.329 65.0708 15.4419 64.965C15.4973 64.9631 15.5527 64.9614 15.6085 64.9593C15.6471 64.958 15.6836 64.9569 15.7226 64.9554C15.7329 64.955 15.7431 64.953 15.7534 64.9525C19.3135 64.8107 23.688 64.2445 29.1552 63.2206C47.0089 59.877 56.6455 61.6118 58.9166 62.227C61.1877 62.8421 61.5662 61.6118 61.5662 61.6118C61.5662 61.6118 69.6099 48.0324 69.2787 47.3227C68.9474 46.6129 68.2377 46.5656 68.2377 46.5656C54.2323 44.3891 45.3055 45.4301 30.1646 52.8744C29.3333 53.2831 28.5062 53.6634 27.6839 54.0249C27.4366 54.1119 25.435 54.812 22.6205 55.6942C22.7568 55.4458 23.1984 55.0731 24.1713 54.5146C27.5781 52.5589 38.7444 45.3039 46.4411 43.5374C54.1377 41.771 59.3109 42.2757 59.3109 42.2757C59.3109 42.2757 60.6357 39.4368 61.6451 37.7965C62.6545 36.1562 64.074 33.822 65.9666 32.6865C67.8592 31.5508 71.5182 29.879 72.8115 28.3019C74.1048 26.7247 75.6504 25.116 76.5652 18.5865C76.5652 18.5865 77.2798 12.9212 80.4373 9.38673C83.5948 5.85218 87.2232 2.12894 90.1456 0.432206L90.9727 0.00697967C90.9727 0.00697967 90.5708 -0.134761 88.654 0.859101Z" fill="white"/>
</svg>
