<svg width="68" height="65" viewBox="0 0 68 65" fill="none" xmlns="http://www.w3.org/2000/svg">
<path d="M12.5673 0H55.6228C62.1506 0 67.4284 5.27778 67.4284 11.8056V53.1944C67.4284 59.7222 62.1506 65 55.6228 65H12.5673C6.0395 65 0.761719 59.7222 0.761719 53.1944V11.8056C0.761719 5.27778 6.0395 0 12.5673 0Z" fill="#00005B"/>
<path d="M16.5938 45.5555V16.9444C16.5938 16.7499 16.6771 16.6388 16.8715 16.6388C17.3437 16.6388 17.7882 16.6388 18.4271 16.6111C19.0937 16.5833 19.7882 16.5833 20.5382 16.5555C21.2882 16.5277 22.0938 16.5277 22.9549 16.4999C23.816 16.4722 24.6493 16.4722 25.4826 16.4722C27.7604 16.4722 29.6493 16.7499 31.2049 17.3333C32.5937 17.8055 33.8715 18.5833 34.9271 19.6111C35.816 20.4999 36.5104 21.5833 36.9549 22.7777C37.3715 23.9444 37.5938 25.1388 37.5938 26.3888C37.5938 28.7777 37.0382 30.7499 35.9271 32.3055C34.816 33.8611 33.2604 35.0277 31.4549 35.6944C29.566 36.3888 27.4826 36.6388 25.2049 36.6388C24.5382 36.6388 24.0937 36.6388 23.816 36.6111C23.5382 36.5833 23.1493 36.5833 22.6215 36.5833V45.4999C22.6493 45.6944 22.5104 45.8611 22.316 45.8888H22.2049H16.9271C16.7049 45.8888 16.5938 45.7777 16.5938 45.5277V45.5555ZM22.6493 22.0277V31.3611C23.0382 31.3888 23.3993 31.4166 23.7326 31.4166H25.2049C26.2882 31.4166 27.3715 31.2499 28.3993 30.9166C29.2882 30.6666 30.066 30.1388 30.6771 29.4444C31.2604 28.7499 31.5382 27.8055 31.5382 26.5833C31.566 25.7222 31.3437 24.8611 30.8993 24.1111C30.4271 23.3888 29.7604 22.8333 28.9549 22.5277C27.9271 22.1111 26.816 21.9444 25.6771 21.9722C24.9549 21.9722 24.316 21.9722 23.7882 21.9999C23.2326 21.9722 22.8438 21.9999 22.6493 22.0277Z" fill="#9999FF"/>
<path d="M41.5936 23.6666H46.4548C46.7325 23.6666 46.9548 23.861 47.0381 24.111C47.1214 24.3332 47.177 24.5554 47.2048 24.8054C47.2603 25.0832 47.3159 25.3888 47.3436 25.6666C47.3714 25.9721 47.3992 26.3054 47.3992 26.6666C48.2325 25.6943 49.2325 24.8888 50.3714 24.2777C51.6492 23.5554 53.1214 23.1943 54.5936 23.1943C54.7881 23.1666 54.9548 23.3054 54.9825 23.4999V23.611V29.0277C54.9825 29.2499 54.8436 29.3332 54.5381 29.3332C53.5381 29.3054 52.5103 29.3888 51.5381 29.611C50.7325 29.7777 49.9548 30.0277 49.2048 30.361C48.677 30.611 48.177 30.9443 47.7881 31.3888V45.5554C47.7881 45.8332 47.677 45.9443 47.427 45.9443H41.9548C41.7325 45.9721 41.5381 45.8332 41.5103 45.611V45.4999V30.111C41.5103 29.4443 41.5103 28.7499 41.4825 28.0277C41.4548 27.3054 41.4548 26.5832 41.427 25.861C41.427 25.2221 41.3714 24.611 41.3159 23.9721C41.2881 23.8332 41.3714 23.6943 41.5103 23.6666C41.5103 23.6388 41.5659 23.6388 41.5936 23.6666Z" fill="#9999FF"/>
</svg>
