<svg width="141" height="35" viewBox="0 0 141 35" fill="none" xmlns="http://www.w3.org/2000/svg">
<path d="M44.9551 27.6266L46.6584 23.6368C48.5251 25.0134 50.9517 25.7367 53.3784 25.7367C55.1518 25.7367 56.295 25.0367 56.295 23.9868C56.2483 21.0702 45.5616 23.3336 45.4683 15.9835C45.4218 12.2501 48.7584 9.35685 53.4485 9.35685C56.2485 9.35685 59.0484 10.0568 61.0318 11.6202L59.4451 15.6802C57.6251 14.5135 55.3617 13.6968 53.2152 13.6968C51.7451 13.6968 50.7885 14.3968 50.7885 15.2835C50.8352 18.177 61.6152 16.5903 61.732 23.6136C61.732 27.4403 58.4886 30.1001 53.8687 30.1001C50.4616 30.1466 47.3352 29.33 44.9551 27.6266ZM112.739 22.2132C111.852 23.7766 110.219 24.7332 108.445 24.7332C105.715 24.7332 103.499 22.5166 103.499 19.7865C103.499 17.0564 105.715 14.8398 108.445 14.8398C110.219 14.8398 111.875 15.7965 112.739 17.3598L117.475 14.7232C115.702 11.5499 112.318 9.40303 108.445 9.40303C102.729 9.40303 98.0852 14.0464 98.0852 19.7865C98.0852 25.5267 102.729 30.1698 108.445 30.1698C112.319 30.1698 115.702 28.0231 117.475 24.8498L112.739 22.2132ZM64.8118 29.7266H70.7385V0.746636H64.8118V29.7266ZM120.462 0.746636V29.7266H126.389V21.0467L133.412 29.7266H140.972L132.058 19.4134L140.318 9.77685H133.085L126.388 17.7802V0.72345H120.462V0.746636H120.462ZM88.9619 9.80003V12.1567C87.9819 10.5232 85.6019 9.40322 83.0819 9.40322C77.9018 9.40322 73.7953 13.9998 73.7953 19.7633C73.7953 25.5268 77.8786 30.17 83.0819 30.17C85.6019 30.17 87.9819 29.0266 88.9619 27.4167V29.7734H94.8886V9.8234H88.9619V9.80003ZM88.9619 22.2366C88.1219 23.6599 86.3251 24.7098 84.3419 24.7098C81.6118 24.7098 79.3952 22.4932 79.3952 19.7631C79.3952 17.0331 81.6118 14.8165 84.3419 14.8165C86.3251 14.8165 88.1219 15.9131 88.9619 17.3832V22.2366Z" fill="white"/>
<path d="M13.6894 0.11676C11.7761 0.11676 10.2128 1.68011 10.2128 3.59337C10.2128 5.50663 11.7761 7.06999 13.6894 7.06999H17.166V3.59337C17.166 1.67993 15.626 0.11676 13.6894 0.11676ZM13.6894 9.38006H4.44927C2.53601 9.38006 0.972656 10.9434 0.972656 12.8567C0.972656 14.7699 2.53601 16.3333 4.44927 16.3333H13.7126C15.6258 16.3333 17.1892 14.7699 17.1892 12.8567C17.166 10.9432 15.626 9.38006 13.6894 9.38006Z" fill="#36C5F0"/>
<path d="M35.6933 12.8567C35.6933 10.9434 34.1299 9.38005 32.2167 9.38005C30.3034 9.38005 28.74 10.9434 28.74 12.8567V16.3333H32.2167C34.1299 16.3566 35.6933 14.7933 35.6933 12.8567ZM26.43 12.8567V3.57C26.43 1.65674 24.8664 0.0933838 22.9534 0.0933838C21.0401 0.0933838 19.4766 1.65674 19.4766 3.57V12.8567C19.4766 14.7699 21.0401 16.3333 22.9534 16.3333C24.8898 16.3566 26.43 14.7933 26.43 12.8567Z" fill="#2EB67D"/>
<path d="M22.9534 34.9066C24.8664 34.9066 26.43 33.3433 26.43 31.43C26.43 29.5168 24.8664 27.9534 22.9534 27.9534H19.4766V31.43C19.4766 33.3435 21.0401 34.9066 22.9534 34.9066ZM22.9534 25.62H32.2165C34.1297 25.62 35.6931 24.0566 35.6931 22.1434C35.6931 20.2301 34.1297 18.6667 32.2165 18.6667H22.9534C21.0401 18.6667 19.4766 20.2299 19.4766 22.1434C19.4766 24.0568 21.0401 25.62 22.9534 25.62Z" fill="#ECB22E"/>
<path d="M0.972656 22.1434C0.972656 24.0566 2.53601 25.62 4.44927 25.62C6.36253 25.62 7.92588 24.0566 7.92588 22.1434V18.6667H4.44927C2.51265 18.6667 0.972656 20.2299 0.972656 22.1434ZM10.236 22.1434V31.43C10.236 33.3433 11.7993 34.9066 13.7126 34.9066C15.6258 34.9066 17.1892 33.3433 17.1892 31.43V22.1434C17.1892 20.2301 15.6258 18.6667 13.7126 18.6667C11.776 18.6667 10.236 20.2299 10.236 22.1434Z" fill="#E01E5A"/>
</svg>
