<svg width="67" height="65" viewBox="0 0 67 65" fill="none" xmlns="http://www.w3.org/2000/svg">
<g clip-path="url(#clip0_348_752)">
<path d="M63.4525 65H2.61487C1.21274 65 0.0615234 63.865 0.0615234 62.4826V2.51735C0.0615234 1.13499 1.21274 0 2.61487 0H63.4525C64.8546 0 66.0058 1.13499 66.0058 2.51735V62.4972C65.991 63.8796 64.8546 65 63.4525 65V65Z" fill="#4D4D4E"/>
<path d="M15.2637 19.6294L49.7708 8.83243C49.7708 8.83243 52.2208 7.56648 51.6304 9.90922L51.719 20.3133C51.719 20.3133 52.147 21.8412 50.0217 22.2195L36.0004 26.5412L15.2637 19.6294Z" fill="#F89820"/>
<path d="M15.2636 19.6295C15.2636 19.6295 13.9057 19.9496 14.3042 22.2342L14.2304 32.2599C14.2304 32.2599 14.1123 33.5259 16.5476 34.0351L50.7447 44.8903C50.7447 44.8903 51.896 45.3414 51.7631 43.9445L51.7779 32.7692C51.7779 32.7692 52.1026 31.6197 49.9773 30.863L36.0003 26.5413L15.2636 19.6295Z" fill="#F89820"/>
<path d="M30.3331 38.4006L15.7805 42.7805C15.7805 42.7805 14.0241 42.8387 14.2308 46.0836C14.4374 49.3285 14.216 55.862 14.216 55.862C14.216 55.862 14.3636 57.0697 16.0462 56.3713L50.5532 45.5161C50.5532 45.5161 51.7782 45.2106 50.7451 44.8759C49.712 44.5558 30.3331 38.4006 30.3331 38.4006V38.4006Z" fill="url(#paint0_linear_348_752)"/>
</g>
<defs>
<linearGradient id="paint0_linear_348_752" x1="16.2348" y1="49.9161" x2="51.0336" y2="37.7038" gradientUnits="userSpaceOnUse">
<stop offset="0.233" stop-color="#F89822"/>
<stop offset="1" stop-color="#C27818"/>
</linearGradient>
<clipPath id="clip0_348_752">
<rect width="65.9559" height="65" fill="white" transform="translate(0.0556641)"/>
</clipPath>
</defs>
</svg>
