<svg width="147" height="31" viewBox="0 0 147 31" fill="none" xmlns="http://www.w3.org/2000/svg">
<path fill-rule="evenodd" clip-rule="evenodd" d="M25.9143 0.456055H3.49211C1.56318 0.456055 -0.00124982 2.01838 -0.00387807 3.9473V26.3365C-0.00760811 27.2662 0.359055 28.159 1.01508 28.8177C1.67111 29.4764 2.56247 29.8466 3.49211 29.8466H25.9143C26.8431 29.8454 27.7333 29.4746 28.3883 28.816C29.0433 28.1575 29.4093 27.2654 29.4056 26.3365V3.9473C29.403 2.02022 27.8414 0.45865 25.9143 0.456055ZM12.6796 21.625C12.6784 21.9357 12.5534 22.2331 12.3324 22.4515C12.1114 22.6699 11.8124 22.7913 11.5017 22.7888H6.60173C5.96085 22.7862 5.44269 22.2659 5.44269 21.625V7.04279C5.44269 6.4019 5.96085 5.88163 6.60173 5.87904H11.5017C12.1434 5.88162 12.6629 6.40114 12.6655 7.04279L12.6796 21.625ZM23.9873 14.9299C23.9873 15.241 23.8628 15.5392 23.6415 15.7578C23.4202 15.9765 23.1205 16.0974 22.8094 16.0937H17.9094C17.2678 16.0911 16.7483 15.5716 16.7457 14.9299V7.04279C16.7483 6.40114 17.2678 5.88162 17.9094 5.87904H22.8094C23.4503 5.88163 23.9685 6.4019 23.9685 7.04279L23.9873 14.9299Z" fill="url(#paint0_linear_348_858)"/>
<path d="M60.9346 2.60925V8.29137H54.2019V29.8467H47.7094V8.29137H40.9766V2.60925H60.9346Z" fill="white"/>
<path d="M69.1978 29.8466H63.1953V8.6447H69.1978V12.706C70.338 9.84614 72.1614 8.14528 75.4076 8.35259V14.6331C71.1672 14.3033 69.1978 15.3398 69.1978 18.7368V29.8466Z" fill="white"/>
<path d="M108.201 30.0115C104.267 30.0115 101.793 28.1269 101.793 23.6698V0.456055H107.838V22.8406C107.838 24.1268 108.686 24.5838 109.722 24.5838C110.022 24.5899 110.321 24.5757 110.618 24.5414V29.7665C109.827 29.9591 109.014 30.0416 108.201 30.0115Z" fill="white"/>
<path d="M120.809 30.0115C116.875 30.0115 114.396 28.1269 114.396 23.6698V0.456055H120.441V22.8406C120.441 24.1268 121.294 24.5838 122.35 24.5838C122.647 24.59 122.945 24.5758 123.24 24.5414V29.7665C122.445 29.961 121.627 30.0434 120.809 30.0115Z" fill="white"/>
<path d="M126.137 19.2363C126.137 12.6872 129.906 8.20654 136.398 8.20654C142.891 8.20654 146.58 12.6731 146.58 19.2363C146.58 25.7994 142.849 30.3461 136.398 30.3461C129.948 30.3461 126.137 25.7429 126.137 19.2363ZM132.021 19.2363C132.021 22.426 133.36 24.9561 136.398 24.9561C139.437 24.9561 140.7 22.426 140.7 19.2363C140.7 16.0465 139.404 13.5824 136.398 13.5824C133.392 13.5824 132.021 16.0418 132.021 19.2363Z" fill="white"/>
<path d="M83.5127 21.1539C85.1933 21.3385 86.8822 21.4376 88.5729 21.4507C93.1713 21.4507 97.0537 20.2163 97.0537 15.7639C97.0537 11.4434 93.063 8.19714 88.2619 8.19714C81.7977 8.19714 77.6562 12.8851 77.6562 19.4342C77.6562 26.2329 81.2276 30.2707 89.2985 30.2707C91.6928 30.2902 94.0699 29.8652 96.3092 29.0174V23.9384C94.2362 24.6027 91.9039 25.2623 89.5105 25.2623C86.2972 25.2623 84.0592 24.2069 83.5127 21.1539ZM88.1394 12.8239C89.8403 12.8239 91.2066 13.9782 91.2066 15.5566C91.2066 17.5872 89.0629 18.2233 86.594 18.2233C85.5433 18.2185 84.4944 18.135 83.4562 17.9736C83.5346 16.9835 83.8186 16.0207 84.2901 15.1467C85.0603 13.7361 86.5323 12.8514 88.1394 12.8333V12.8239Z" fill="white"/>
<defs>
<linearGradient id="paint0_linear_348_858" x1="4592.29" y1="1881.45" x2="4592.29" y2="0.456055" gradientUnits="userSpaceOnUse">
<stop stop-color="#0052CC"/>
<stop offset="1" stop-color="#2684FF"/>
</linearGradient>
</defs>
</svg>
