<svg width="66" height="65" viewBox="0 0 66 65" fill="none" xmlns="http://www.w3.org/2000/svg">
<g clip-path="url(#clip0_348_845)">
<mask id="mask0_348_845" style="mask-type:alpha" maskUnits="userSpaceOnUse" x="0" y="0" width="66" height="65">
<path fill-rule="evenodd" clip-rule="evenodd" d="M46.8154 64.5561C47.8391 64.9549 49.0065 64.9294 50.0398 64.4322L63.4222 57.9928C64.8284 57.3161 65.7227 55.893 65.7227 54.3317V10.6686C65.7227 9.10733 64.8284 7.68415 63.4222 7.0075L50.0398 0.567926C48.6837 -0.0845996 47.0966 0.0752283 45.9064 0.940502C45.7365 1.06411 45.5745 1.20211 45.4225 1.3542L19.8035 24.727L8.64434 16.2562C7.60551 15.4677 6.15252 15.5323 5.18772 16.41L1.60863 19.6657C0.428498 20.7391 0.427145 22.5957 1.6057 23.671L11.2833 32.5001L1.6057 41.3291C0.427145 42.4043 0.428498 44.261 1.60863 45.3344L5.18772 48.5902C6.15252 49.4678 7.60551 49.5324 8.64434 48.7438L19.8035 40.2731L45.4225 63.6458C45.8278 64.0514 46.3036 64.3567 46.8154 64.5561ZM49.4825 17.7443L30.0436 32.5001L49.4825 47.2558V17.7443Z" fill="white"/>
</mask>
<g mask="url(#mask0_348_845)">
<path d="M63.423 7.01747L50.0301 0.56904C48.4798 -0.177365 46.6272 0.137485 45.4106 1.3541L1.56718 41.329C0.387901 42.4042 0.389257 44.2608 1.5701 45.3343L5.15137 48.59C6.11676 49.4677 7.57066 49.5323 8.61007 48.7438L61.4077 8.69037C63.179 7.34663 65.7231 8.60997 65.7231 10.8333V10.6778C65.7231 9.11716 64.8291 7.69451 63.423 7.01747Z" fill="#0065A9"/>
<g filter="url(#filter0_d_348_845)">
<path d="M63.423 57.9824L50.0301 64.4308C48.4798 65.1773 46.6272 64.8623 45.4106 63.6457L1.56718 23.6709C0.387901 22.5956 0.389257 20.739 1.5701 19.6655L5.15137 16.4098C6.11676 15.5322 7.57066 15.4676 8.61007 16.2561L61.4077 56.3095C63.179 57.6532 65.7231 56.3899 65.7231 54.1666V54.3221C65.7231 55.8827 64.8291 57.3053 63.423 57.9824Z" fill="#007ACC"/>
</g>
<g filter="url(#filter1_d_348_845)">
<path d="M50.0302 64.432C48.4795 65.178 46.6269 64.8625 45.4102 63.6457C46.9093 65.1449 49.4727 64.0831 49.4727 61.963V3.03683C49.4727 0.916696 46.9093 -0.145077 45.4102 1.35408C46.6269 0.137354 48.4795 -0.177941 50.0302 0.567804L63.4208 7.0074C64.8279 7.68405 65.7227 9.10722 65.7227 10.6685V54.3316C65.7227 55.8929 64.8279 57.316 63.4207 57.9927L50.0302 64.432Z" fill="#1F9CF0"/>
</g>
<g style="mix-blend-mode:overlay" opacity="0.25">
<path fill-rule="evenodd" clip-rule="evenodd" d="M46.7763 64.5561C47.8001 64.9549 48.9675 64.9294 50.0007 64.4322L63.3831 57.9928C64.7893 57.3162 65.6836 55.893 65.6836 54.3316V10.6687C65.6836 9.1073 64.7894 7.68413 63.3832 7.00748L50.0007 0.567926C48.6447 -0.0845991 47.0576 0.0752287 45.8674 0.940496C45.6974 1.06411 45.5354 1.20211 45.3834 1.3542L19.7644 24.7269L8.60526 16.2563C7.5665 15.4677 6.11345 15.5324 5.14866 16.4099L1.56956 19.6656C0.389435 20.7392 0.388082 22.5958 1.56664 23.671L11.2442 32.5L1.56664 41.3291C0.388082 42.4043 0.389435 44.2609 1.56956 45.3344L5.14866 48.5901C6.11345 49.4678 7.5665 49.5324 8.60526 48.7438L19.7644 40.2731L45.3834 63.6459C45.7887 64.0513 46.2646 64.3568 46.7763 64.5561ZM49.4435 17.7443L30.0045 32.5L49.4435 47.2558V17.7443Z" fill="url(#paint0_linear_348_845)"/>
</g>
</g>
</g>
<defs>
<filter id="filter0_d_348_845" x="-7.64975" y="7.3721" width="81.7057" height="65.793" filterUnits="userSpaceOnUse" color-interpolation-filters="sRGB">
<feFlood flood-opacity="0" result="BackgroundImageFix"/>
<feColorMatrix in="SourceAlpha" type="matrix" values="0 0 0 0 0 0 0 0 0 0 0 0 0 0 0 0 0 0 127 0" result="hardAlpha"/>
<feOffset/>
<feGaussianBlur stdDeviation="4.16667"/>
<feColorMatrix type="matrix" values="0 0 0 0 0 0 0 0 0 0 0 0 0 0 0 0 0 0 0.25 0"/>
<feBlend mode="overlay" in2="BackgroundImageFix" result="effect1_dropShadow_348_845"/>
<feBlend mode="normal" in="SourceGraphic" in2="effect1_dropShadow_348_845" result="shape"/>
</filter>
<filter id="filter1_d_348_845" x="37.0768" y="-8.16586" width="36.9792" height="81.3317" filterUnits="userSpaceOnUse" color-interpolation-filters="sRGB">
<feFlood flood-opacity="0" result="BackgroundImageFix"/>
<feColorMatrix in="SourceAlpha" type="matrix" values="0 0 0 0 0 0 0 0 0 0 0 0 0 0 0 0 0 0 127 0" result="hardAlpha"/>
<feOffset/>
<feGaussianBlur stdDeviation="4.16667"/>
<feColorMatrix type="matrix" values="0 0 0 0 0 0 0 0 0 0 0 0 0 0 0 0 0 0 0.25 0"/>
<feBlend mode="overlay" in2="BackgroundImageFix" result="effect1_dropShadow_348_845"/>
<feBlend mode="normal" in="SourceGraphic" in2="effect1_dropShadow_348_845" result="shape"/>
</filter>
<linearGradient id="paint0_linear_348_845" x1="33.1836" y1="0.167602" x2="33.1836" y2="64.8325" gradientUnits="userSpaceOnUse">
<stop stop-color="white"/>
<stop offset="1" stop-color="white" stop-opacity="0"/>
</linearGradient>
<clipPath id="clip0_348_845">
<rect width="65" height="65" fill="white" transform="translate(0.722656)"/>
</clipPath>
</defs>
</svg>
