<svg width="110" height="65" viewBox="0 0 110 65" fill="none" xmlns="http://www.w3.org/2000/svg">
<path d="M10.4385 0H99.3227C104.948 0 109.501 4.5534 109.501 10.1787V44.1072C109.501 49.7321 104.948 54.286 99.3227 54.286H67.448L71.8231 65L52.5819 54.286H10.4837C4.85884 54.286 0.305013 49.7326 0.305013 44.1072V10.1787C0.26037 4.59819 4.81363 0 10.4385 0Z" fill="#7F54B3"/>
<path d="M6.52346 9.27739C7.14489 8.43402 8.07707 7.99011 9.31995 7.90135C11.5838 7.72379 12.871 8.78912 13.1818 11.0973C14.5578 20.3748 16.067 28.2314 17.6652 34.668L27.3863 16.1579C28.2741 14.4711 29.3838 13.5834 30.7154 13.4946C32.6686 13.3614 33.867 14.6043 34.3553 17.2233C35.465 23.1271 36.8855 28.1429 38.5723 32.4041C39.7264 21.1292 41.6795 13.0064 44.4318 7.9902C45.0976 6.74732 46.0741 6.12588 47.3614 6.03707C48.3824 5.9483 49.3145 6.25902 50.1579 6.92485C51.0013 7.59069 51.4452 8.43406 51.534 9.45501C51.5783 10.254 51.4452 10.9198 51.09 11.5857C49.3589 14.7817 47.9384 20.1529 46.7845 27.6098C45.6748 34.8453 45.2752 40.4826 45.5416 44.522C45.6304 45.6317 45.4528 46.6083 45.0089 47.4517C44.4762 48.4282 43.6772 48.9609 42.6563 49.0497C41.5022 49.1384 40.3037 48.6058 39.1496 47.4073C35.0215 43.1903 31.7366 36.8873 29.3399 28.4975C26.4546 34.1792 24.3241 38.4408 22.948 41.2816C20.3291 46.2974 18.1097 48.872 16.2453 49.0051C15.0467 49.0939 14.0258 48.0729 13.138 45.9423C10.8742 40.1272 8.43277 28.897 5.81376 12.2514C5.63621 11.0973 5.90254 10.0763 6.52397 9.27731L6.52346 9.27739ZM101.917 16.2463C100.319 13.4498 97.9661 11.7629 94.8147 11.097C93.9713 10.9195 93.1723 10.8307 92.4177 10.8307C88.1564 10.8307 84.6942 13.0502 81.9865 17.4891C79.6783 21.2622 78.5241 25.4349 78.5241 30.0066C78.5241 33.4246 79.2344 36.3541 80.6548 38.7956C82.2528 41.5921 84.6054 43.2791 87.7568 43.9449C88.6002 44.1225 89.3992 44.2113 90.1538 44.2113C94.4594 44.2113 97.9217 41.9918 100.585 37.5529C102.893 33.7354 104.047 29.5628 104.047 24.991C104.092 21.5287 103.337 18.6435 101.917 16.2463ZM96.3238 28.542C95.7024 31.4717 94.5927 33.6465 92.9503 35.1117C91.663 36.2658 90.4646 36.7541 89.3548 36.5322C88.2895 36.3102 87.4017 35.3781 86.7359 33.6469C86.2032 32.2709 85.9369 30.8948 85.9369 29.6075C85.9369 28.4978 86.0257 27.3881 86.2476 26.3672C86.6471 24.5472 87.4017 22.7717 88.6002 21.0848C90.065 18.9097 91.6186 18.022 93.2167 18.3327C94.2821 18.5547 95.1698 19.4868 95.8356 21.218C96.3683 22.594 96.6346 23.9701 96.6346 25.2573C96.6346 26.4115 96.5458 27.5211 96.3238 28.542ZM74.1292 16.2463C72.5313 13.4498 70.1342 11.7629 67.0272 11.097C66.1838 10.9195 65.3848 10.8307 64.6302 10.8307C60.3689 10.8307 56.9067 13.0502 54.199 17.4891C51.8908 21.2622 50.7366 25.4349 50.7366 30.0066C50.7366 33.4246 51.4469 36.3541 52.8673 38.7956C54.4653 41.5921 56.8179 43.2791 59.9693 43.9449C60.8127 44.1225 61.6117 44.2113 62.3663 44.2113C66.6719 44.2113 70.1342 41.9918 72.7976 37.5529C75.1058 33.7354 76.2599 29.5628 76.2599 24.991C76.2599 21.5287 75.5497 18.6435 74.1292 16.2463ZM68.492 28.542C67.8705 31.4717 66.7608 33.6465 65.1185 35.1117C63.8312 36.2658 62.6327 36.7541 61.5229 36.5322C60.4576 36.3102 59.5698 35.3781 58.904 33.6469C58.3714 32.2709 58.105 30.8948 58.105 29.6075C58.105 28.4978 58.1938 27.3881 58.4157 26.3672C58.8152 24.5472 59.5699 22.7717 60.7683 21.0848C62.2331 18.9097 63.7868 18.022 65.3849 18.3327C66.4502 18.5547 67.338 19.4868 68.0038 21.218C68.5365 22.594 68.8028 23.9701 68.8028 25.2573C68.8472 26.4115 68.7139 27.5211 68.492 28.542Z" fill="white"/>
</svg>
