<svg width="66" height="65" viewBox="0 0 66 65" fill="none" xmlns="http://www.w3.org/2000/svg">
<path d="M4.92188 32.4992C4.92188 43.5349 11.3352 53.0719 20.6351 57.5914L7.33571 21.1526C5.78873 24.62 4.92188 28.4572 4.92188 32.4992Z" fill="white"/>
<path d="M51.6241 31.0923C51.6241 27.6467 50.3865 25.2604 49.3249 23.4031C47.9116 21.1065 46.5869 19.1616 46.5869 16.865C46.5869 14.3021 48.5307 11.9164 51.2687 11.9164C51.3923 11.9164 51.5096 11.9318 51.63 11.9387C46.6697 7.39433 40.0611 4.61975 32.8026 4.61975C23.0624 4.61975 14.493 9.61718 9.50781 17.1865C10.1619 17.2062 10.7784 17.22 11.302 17.22C14.2182 17.22 18.7324 16.8661 18.7324 16.8661C20.2353 16.7775 20.4125 18.985 18.9111 19.1627C18.9111 19.1627 17.4008 19.3404 15.7201 19.4285L25.8731 49.6279L31.9745 31.3289L27.6307 19.4274C26.1293 19.3394 24.707 19.1616 24.707 19.1616C23.2046 19.0736 23.3807 16.7764 24.8831 16.865C24.8831 16.865 29.4874 17.2189 32.227 17.2189C35.1427 17.2189 39.6574 16.865 39.6574 16.865C41.1614 16.7764 41.338 18.9839 39.8362 19.1616C39.8362 19.1616 38.3226 19.3394 36.6451 19.4274L46.7206 49.3982L49.5016 40.1052C50.7069 36.2489 51.6241 33.4791 51.6241 31.0923Z" fill="white"/>
<path d="M33.2929 34.938L24.9277 59.2455C27.4254 59.9798 30.0668 60.3814 32.8037 60.3814C36.0505 60.3814 39.164 59.8201 42.0622 58.801C41.9874 58.6816 41.9195 58.5548 41.8638 58.4169L33.2929 34.938Z" fill="white"/>
<path d="M57.2668 19.1229C57.3867 20.011 57.4546 20.9643 57.4546 21.9898C57.4546 24.819 56.9262 27.9995 55.3347 31.9762L46.8184 56.5989C55.1071 51.7654 60.6822 42.7854 60.6822 32.4998C60.6828 27.6525 59.4446 23.0943 57.2668 19.1229Z" fill="white"/>
<path d="M32.803 0C14.8828 0 0.302734 14.579 0.302734 32.4992C0.302734 50.4215 14.8828 65 32.803 65C50.7227 65 65.3049 50.4215 65.3049 32.4992C65.3043 14.579 50.7227 0 32.803 0ZM32.803 63.5103C15.7046 63.5103 1.79294 49.5987 1.79294 32.4992C1.79294 15.4008 15.704 1.49021 32.803 1.49021C49.9009 1.49021 63.8115 15.4008 63.8115 32.4992C63.8115 49.5987 49.9009 63.5103 32.803 63.5103Z" fill="white"/>
</svg>
