<svg width="70" height="70" viewBox="0 0 70 70" fill="none" xmlns="http://www.w3.org/2000/svg">
<path d="M69.7032 0H0.567383V70H69.7032V0Z" fill="#CE181E"/>
<path d="M23.6632 54.8695C23.603 54.9803 23.5177 55.0692 23.4079 55.1384C23.2575 55.2313 22.9827 55.2778 22.5843 55.2778H20.2153V53.7399H22.4624C22.6705 53.7399 22.8339 53.7456 22.9527 53.757C23.0713 53.7684 23.1713 53.7888 23.2518 53.8165C23.4136 53.8752 23.538 53.964 23.625 54.0822C23.7112 54.2012 23.7551 54.3414 23.7551 54.5044C23.7551 54.638 23.7241 54.7595 23.6632 54.8695ZM20.2153 51.3406H22.4193C22.5868 51.3406 22.7363 51.3487 22.8665 51.3626C22.9957 51.378 23.0957 51.3984 23.1648 51.4278C23.4542 51.5435 23.599 51.7603 23.599 52.0798C23.599 52.3577 23.4827 52.5573 23.2518 52.6788C23.1648 52.7301 23.0656 52.7652 22.9527 52.7831C22.8405 52.8002 22.6681 52.8092 22.4364 52.8092H20.2153V51.3406ZM11.1976 53.6274L11.2757 53.4962L12.5415 51.506L13.7813 53.4962L13.8626 53.6274H11.1976ZM25.4818 53.8785C25.3371 53.6698 25.129 53.5052 24.8574 53.3838C24.7071 53.3145 24.551 53.2623 24.3892 53.2273C24.2274 53.1922 24.0192 53.1637 23.7648 53.1409C24.3372 53.0716 24.5672 52.9282 24.8591 52.7114C25.1509 52.493 25.2973 52.2028 25.2973 51.8377C25.2973 51.5712 25.2193 51.3316 25.0631 51.1205C24.907 50.9094 24.6851 50.7456 24.3965 50.6291C24.2063 50.5533 23.9925 50.4995 23.7558 50.4644C23.5184 50.4294 23.2071 50.4123 22.8201 50.4123H17.0609V51.3422H17.7113C17.8845 51.3422 18.0072 51.3487 18.0796 51.3593C18.152 51.3707 18.2137 51.3919 18.2658 51.4204C18.3064 51.4498 18.3381 51.4775 18.3617 51.5068C18.3844 51.5362 18.4023 51.5794 18.4137 51.6364C18.4251 51.6943 18.4316 51.7733 18.4357 51.8711C18.4381 51.9705 18.4397 52.0977 18.4397 52.2542V54.3658C18.4397 54.5174 18.4381 54.6364 18.4357 54.7269C18.4316 54.8165 18.4267 54.8899 18.4178 54.9485C18.4089 55.0056 18.3942 55.0512 18.3739 55.083C18.3543 55.1148 18.3292 55.1417 18.3007 55.1661C18.2544 55.2118 18.1909 55.2428 18.1105 55.2566C18.0291 55.2713 17.8958 55.2778 17.7113 55.2778H17.5324C17.3942 55.2778 17.2812 55.2721 17.195 55.2607C17.1081 55.2493 17.03 55.2216 16.96 55.1767C16.8918 55.1335 16.8243 55.07 16.7609 54.9868C16.6975 54.9021 16.6227 54.7904 16.5357 54.6519L13.874 50.4106H11.8822L9.23913 54.4873C9.12287 54.6666 9.0245 54.8092 8.94401 54.9127C8.86272 55.017 8.78304 55.0969 8.70499 55.1515C8.62695 55.2061 8.54158 55.2411 8.44972 55.2566C8.35703 55.2705 8.24159 55.277 8.10257 55.277H7.48145V56.2077H11.7903V55.277H10.8684C10.6944 55.277 10.5765 55.2607 10.5123 55.2289C10.4489 55.1971 10.418 55.1376 10.418 55.0512C10.418 55.004 10.4237 54.9665 10.435 54.9363C10.4464 54.9086 10.4814 54.845 10.5391 54.7464L10.696 54.4783H14.3845L14.5967 54.8507C14.6423 54.9322 14.6707 54.9844 14.6829 55.0064C14.6943 55.03 14.7 55.0569 14.7 55.0855C14.7 55.1555 14.6658 55.2045 14.5967 55.2338C14.5268 55.2623 14.4138 55.277 14.2577 55.277H13.4691V56.2077H17.0609L17.0601 56.2069L17.0609 56.2077H18.2202H22.7535C23.0827 56.2077 23.3917 56.193 23.6802 56.1637C23.9689 56.1352 24.1974 56.0977 24.3648 56.0504C24.7803 55.9347 25.1062 55.7448 25.3436 55.4815C25.5802 55.2183 25.6981 54.9184 25.6981 54.5818C25.6981 54.3218 25.6257 54.0871 25.4818 53.8785Z" fill="white"/>
<path d="M25.9375 51.3409H26.5879C26.7611 51.3409 26.8838 51.3474 26.9562 51.358C27.0285 51.3686 27.0903 51.3906 27.1423 51.4191C27.183 51.4485 27.2147 51.4762 27.2383 51.5055C27.261 51.5348 27.2781 51.578 27.2895 51.6351C27.3017 51.6938 27.3082 51.772 27.3115 51.8698C27.3147 51.9692 27.3163 52.0964 27.3163 52.2529V54.3645C27.3163 54.5161 27.3147 54.6351 27.3115 54.7256C27.3082 54.8152 27.3033 54.8886 27.2944 54.9472C27.2854 55.0043 27.2708 55.0499 27.2505 55.0817C27.231 55.1135 27.2058 55.1404 27.1773 55.1648C27.131 55.2105 27.0676 55.2415 26.9863 55.2553C26.9058 55.27 26.7724 55.2765 26.5879 55.2765H25.9375V56.2072H30.4699V55.2765H29.8195C29.6464 55.2765 29.5236 55.2708 29.4512 55.2594C29.3789 55.248 29.3171 55.2268 29.2643 55.1983C29.2244 55.1754 29.1927 55.1477 29.1691 55.1159C29.1464 55.0842 29.1285 55.0369 29.1171 54.9766C29.1057 54.9155 29.0984 54.8372 29.096 54.7419C29.0927 54.6465 29.0911 54.5202 29.0911 54.3629V52.2512C29.0911 52.1005 29.0927 51.979 29.096 51.8869C29.0984 51.794 29.1049 51.7199 29.113 51.6652C29.122 51.6106 29.1358 51.5666 29.1561 51.5348C29.1765 51.5031 29.2008 51.4721 29.2301 51.4436C29.2764 51.3971 29.3382 51.3678 29.4163 51.3572C29.4943 51.3466 29.6293 51.3401 29.8195 51.3401H30.4699V50.4102H25.9375V51.3409Z" fill="white"/>
<path d="M51.9851 52.6789C51.8988 52.7303 51.7989 52.7662 51.6867 52.7825C51.5729 52.8004 51.4013 52.8093 51.1696 52.8093H48.9486V51.3407H51.1534C51.3209 51.3407 51.4696 51.3472 51.5997 51.3619C51.7298 51.3766 51.8298 51.3986 51.8988 51.4271C52.1875 51.5428 52.333 51.7596 52.333 52.0791C52.333 52.3578 52.2159 52.5575 51.9851 52.6789ZM40.1341 53.6268L40.2121 53.4956L41.4771 51.5062L42.7178 53.4956L42.7991 53.6268H40.1341ZM62.7897 52.6879V50.4108H54.5663V51.3407H55.2167C55.3906 51.3407 55.5134 51.3472 55.5858 51.3587C55.6573 51.3701 55.7199 51.3896 55.7719 51.419C55.8126 51.4475 55.8443 51.4768 55.8679 51.5054C55.8907 51.5347 55.9078 51.5779 55.9191 51.6357C55.9305 51.6928 55.937 51.7719 55.9403 51.8705C55.9435 51.9691 55.9443 52.0954 55.9443 52.2527V54.3644C55.9443 54.5168 55.9435 54.6358 55.9403 54.7254C55.937 54.8151 55.9321 54.8892 55.9232 54.9463C55.9143 55.0041 55.9004 55.0498 55.8793 55.0807C55.8598 55.1125 55.8346 55.1402 55.8061 55.1647C55.759 55.2103 55.6964 55.2413 55.6158 55.2543C55.5345 55.2706 55.4013 55.2763 55.2167 55.2763H54.5663H54.2598C53.9581 55.2763 53.7126 55.0318 53.7126 54.7287C53.7126 54.7287 53.7029 54.5583 53.6956 54.432C53.6582 53.8248 53.3256 53.5094 53.0273 53.3472C52.8419 53.2454 52.6704 53.2022 52.5916 53.1851L52.5834 53.1843C52.4818 53.1663 52.3736 53.1492 52.2566 53.137C52.6135 53.1044 52.9176 53.0547 53.1696 52.9675C53.3241 52.9129 53.459 52.8444 53.5737 52.7564C53.8061 52.5763 53.9485 52.3464 54.0013 52.0661C54.0086 52.0302 54.0135 51.9943 54.0175 51.9585C54.0192 51.9422 54.0208 51.9259 54.0224 51.9088V51.9006C54.024 51.8705 54.0249 51.8395 54.0249 51.8077C54.0249 51.5412 53.9533 51.3041 53.8078 51.0954C53.6639 50.8868 53.4558 50.7213 53.185 50.5999C53.0338 50.5363 52.8427 50.4882 52.6086 50.4565C52.3745 50.4247 52.0818 50.4084 51.7298 50.4084H51.5452H45.786V51.3391H46.4372C46.6104 51.3391 46.7323 51.344 46.8047 51.3562C46.8779 51.3676 46.9389 51.3872 46.9917 51.4157C47.0315 51.445 47.064 51.4744 47.0868 51.5029C47.1088 51.5323 47.1274 51.5754 47.138 51.6333C47.1503 51.6904 47.1567 51.7694 47.1599 51.868C47.1624 51.9666 47.164 52.093 47.164 52.2503V54.3619C47.164 54.5143 47.1624 54.6333 47.1599 54.723C47.1567 54.8126 47.151 54.8868 47.142 54.9438C47.1331 55.0017 47.1201 55.0473 47.099 55.0783C47.0795 55.1101 47.0542 55.1378 47.025 55.1622C46.9787 55.2079 46.9153 55.2388 46.8347 55.2519C46.7567 55.2674 46.6299 55.2739 46.4567 55.2739C46.3226 55.2739 46.2129 55.2682 46.1291 55.2568C46.043 55.2454 45.9641 55.2177 45.8949 55.1737C45.8259 55.1305 45.7592 55.0669 45.6958 54.9829C45.6324 54.899 45.5575 54.7882 45.4706 54.6488L42.8089 50.4076H40.8186L38.1748 54.4842C38.0586 54.6635 37.9602 54.8053 37.8797 54.9088C37.7992 55.0123 37.7195 55.0938 37.6415 55.1484C37.5634 55.203 37.4781 55.238 37.3862 55.2527C37.2935 55.2682 37.1773 55.2739 37.0391 55.2739H36.796H36.3106H36.1464C35.9724 55.2739 35.8497 55.2682 35.7773 55.2568C35.7049 55.2454 35.6432 55.2258 35.5911 55.1965C35.5505 55.1737 35.5188 55.1451 35.4968 55.1133C35.4732 55.0816 35.4554 55.0351 35.4448 54.974C35.4326 54.9137 35.4253 54.8346 35.4228 54.7393C35.4196 54.6439 35.4188 54.5184 35.4188 54.3611V51.3367H36.2472C36.5757 51.3367 36.8049 51.4108 36.9318 51.5591C37.0586 51.7058 37.1228 51.974 37.1228 52.3619V52.6749H38.2065V50.4067H30.8555V52.6749H31.914V52.4051C31.914 52.0123 31.9766 51.7425 32.1034 51.5983C32.2587 51.4239 32.5156 51.3367 32.8717 51.3367H33.6432V54.3611C33.6432 54.5135 33.6416 54.6341 33.6383 54.7262C33.6359 54.8191 33.6302 54.8933 33.6213 54.9471C33.6123 55.0025 33.5985 55.0465 33.5782 55.0775C33.5578 55.1093 33.5326 55.137 33.5042 55.1614C33.4578 55.2079 33.3944 55.238 33.3131 55.2511C33.2327 55.2666 33.1001 55.2731 32.9148 55.2731H32.2644V56.203H36.3123V56.2038H40.7284V55.2731H39.8057C39.6325 55.2731 39.5146 55.2568 39.4496 55.2258C39.3862 55.194 39.3545 55.1337 39.3545 55.0465C39.3545 55.0001 39.361 54.9626 39.3715 54.9332C39.3829 54.9047 39.4179 54.8411 39.4756 54.7417L39.6333 54.4736H43.3219L43.5332 54.8468C43.5796 54.9283 43.608 54.9797 43.6186 55.0033C43.6316 55.0261 43.6365 55.0522 43.6365 55.0816C43.6365 55.1508 43.6023 55.2005 43.5324 55.2299C43.4633 55.2584 43.3495 55.2731 43.1942 55.2731H42.4056V56.2038H47.1567V56.203H50.4241V55.2731H49.6705C49.4965 55.2731 49.3738 55.269 49.3022 55.26C49.229 55.2503 49.1672 55.2299 49.116 55.1948C49.0746 55.172 49.0436 55.1435 49.0209 55.1117C48.9973 55.0799 48.9803 55.0335 48.9689 54.9723C48.9575 54.912 48.951 54.8338 48.9477 54.7376C48.9453 54.6431 48.9436 54.5168 48.9436 54.3595V53.7344H50.9631C51.1599 53.7344 51.3192 53.7417 51.4404 53.7556C51.5615 53.771 51.6826 53.8118 51.7566 53.8648C51.9899 54.0327 52.0338 54.3554 52.0509 54.5331L52.077 54.7653C52.0794 54.8403 52.0867 54.9137 52.0997 54.9862C52.2216 55.6741 52.82 56.1965 53.5403 56.2005H53.5501H53.5525H53.5582H54.5671V56.2014H62.7905V53.8379H61.7767V54.15C61.7767 54.3823 61.7629 54.5591 61.7369 54.6806C61.7125 54.8012 61.6605 54.912 61.5856 55.0098C61.545 55.0628 61.5011 55.1052 61.4556 55.1402C61.4093 55.1753 61.3515 55.2014 61.2816 55.2185C61.2125 55.2364 61.1287 55.2486 61.0295 55.2584C60.9312 55.2674 60.8133 55.2715 60.6743 55.2715H57.7207V53.7075H58.6719C58.8394 53.7075 58.958 53.7132 59.0272 53.7246C59.0962 53.7368 59.1548 53.7596 59.2011 53.7939C59.2703 53.846 59.319 53.9104 59.3443 53.9854C59.3694 54.0604 59.3832 54.1826 59.3832 54.3505V54.6284H60.3426V51.8558H59.3832V52.1606C59.3832 52.2992 59.376 52.41 59.3613 52.4907C59.3475 52.5722 59.3174 52.6333 59.2711 52.6773C59.2239 52.7205 59.158 52.7482 59.0719 52.7596C58.9857 52.7719 58.8662 52.7776 58.7158 52.7776H57.7207V51.3342H60.5369C60.6987 51.3342 60.8312 51.3383 60.9352 51.3432C61.0393 51.3489 61.1247 51.3603 61.1946 51.3782C61.2637 51.3953 61.3231 51.4206 61.3735 51.4524C61.4222 51.4833 61.4718 51.5265 61.5247 51.5779C61.6231 51.6708 61.6897 51.7792 61.7238 51.9039C61.7588 52.027 61.7759 52.2071 61.7759 52.4385V52.6814H62.7897V52.6879Z" fill="white"/>
<path d="M26.4672 31.4042L26.8899 30.6886L33.7743 19.8647L40.5173 30.6886L40.9611 31.4042H26.4672ZM60.9201 40.3798C60.1656 40.3798 59.5526 40.3488 59.081 40.2852C58.6095 40.2225 58.1851 40.0725 57.8079 39.8353C57.4307 39.5998 57.0697 39.2526 56.7234 38.7954C56.3771 38.3398 55.969 37.7319 55.4974 36.9764L41.0222 13.9087H30.1915L15.8097 36.0782C15.1805 37.0554 14.6463 37.8272 14.2057 38.3944C13.7659 38.9617 13.3342 39.3953 12.9098 39.6951C12.4854 39.9942 12.0212 40.1842 11.5188 40.2616C11.0155 40.3415 10.3863 40.3805 9.63261 40.3805H8.12371H7.48145V45.4376H8.12371H29.6891V40.3805H24.6737C23.7307 40.3805 23.086 40.2933 22.7404 40.1198C22.3941 39.9478 22.2217 39.6251 22.2217 39.1516C22.2217 38.8981 22.2527 38.6943 22.3161 38.537C22.3787 38.379 22.5673 38.0334 22.8819 37.4971L23.7364 36.0374H43.8001L44.9497 38.0644C45.2009 38.5053 45.3578 38.7889 45.4212 38.9152C45.4838 39.0415 45.5156 39.1825 45.5156 39.3399C45.5156 39.7172 45.3269 39.9853 44.9497 40.1434C44.5725 40.3007 43.9595 40.3798 43.1107 40.3798H38.8198V45.4368H62.7908V40.3798H60.9201Z" fill="white"/>
</svg>
