<svg width="87" height="70" viewBox="0 0 87 70" fill="none" xmlns="http://www.w3.org/2000/svg">
<path d="M19.164 27.9363C18.9375 28.8434 18.5977 29.7504 18.0313 30.6575C16.6722 32.5849 14.1805 31.9046 12.0285 32.018L11.9152 31.9046L12.0285 16.7118C14.2937 16.5985 16.8988 16.4851 18.258 18.5259C19.8436 21.1336 19.8436 24.9884 19.164 27.9363ZM17.3519 3.78661C18.4845 6.16756 18.258 9.3422 17.8049 11.9499C17.5784 13.197 16.559 14.3308 15.4264 14.7844C14.407 15.2379 13.1611 15.3513 12.0285 15.3513L11.9152 2.1993C13.9539 2.08593 16.4457 1.63241 17.3519 3.78661ZM70.3592 16.7118C72.6244 16.5985 75.2295 16.4851 76.5887 18.5259C78.0611 21.1336 78.0611 24.9884 77.3815 28.0497C77.155 28.9568 76.8152 29.8637 76.2489 30.7708C74.8897 32.6983 72.3979 32.018 70.2459 32.1314L70.1326 32.018L70.3592 16.7118ZM75.6826 3.78661C76.8152 6.16756 76.5887 9.3422 76.1356 11.9499C75.9091 13.197 74.8897 14.3308 73.7571 14.7844C72.7377 15.2379 71.4918 15.3513 70.3592 15.3513V2.08592C72.2846 2.08592 74.7765 1.63241 75.6826 3.78661ZM60.392 13.4239V32.018H58.3532V33.492H71.8316C75.6826 33.492 79.8733 33.7187 82.9315 31.5645C86.3294 29.5237 87.462 25.442 86.1028 21.8138C84.9702 18.0723 81.006 16.1449 77.3815 15.6914C80.2131 15.1245 83.158 13.6506 84.5171 10.9294C85.4233 9.22879 85.4233 6.73446 84.4039 5.03378C82.4784 1.63241 78.854 0.611997 75.2295 0.498617H58.2399V1.97253H60.2788V10.1358C60.0522 9.00204 59.4859 7.86824 58.6931 6.96121C57.6737 5.94079 56.3144 5.37393 54.842 5.71406C53.9359 5.94082 53.0299 6.84783 52.8034 7.75487C52.5768 8.88867 52.8033 9.90908 53.7094 10.5893C54.389 11.1562 55.5217 11.2696 56.3145 11.0429C57.2206 10.7027 57.9002 9.68231 58.1268 8.77527C58.6931 9.45555 58.693 10.5893 58.3532 11.383C58.0134 12.4034 56.8809 13.0837 55.8615 13.4239C53.5962 13.9908 50.9911 13.8773 48.6126 14.1041C45.6677 14.5577 42.7229 15.6914 40.9106 18.4125C39.5515 20.4533 39.0984 23.5146 40.3443 25.7822C40.9106 26.6892 41.8168 27.3694 42.8361 27.4829C43.9688 27.7096 44.7616 27.1427 45.5545 26.4624C46.2341 25.6688 46.4606 24.3083 46.0075 23.2878C45.5545 22.3807 44.6484 21.8138 43.7422 21.7005C42.7229 21.5871 41.8168 22.154 41.2504 23.061C41.2504 22.7209 41.477 22.2674 41.5902 21.9273C43.0627 19.6597 45.8943 19.3195 48.3861 19.7731C49.9718 20.1132 51.6707 21.5871 52.1238 23.2878C52.5768 25.3286 51.8972 27.3694 50.5381 28.8434C47.933 31.6778 43.7422 32.4715 40.3443 31.2244C38.4188 30.5441 36.8331 28.5032 36.4934 26.5758C35.927 23.7414 35.927 20.34 37.1729 17.8456C38.4188 15.578 40.9106 15.3513 43.2892 15.2379C43.5157 15.0111 43.4025 14.4442 43.4025 14.1041C42.3831 13.9908 41.2504 13.9908 40.3443 13.4239C39.0984 12.6301 38.6454 11.2696 38.5321 9.90908C38.4188 7.18797 37.9658 3.89997 40.6841 2.42604C42.1566 1.51901 44.3086 1.85916 45.781 2.65281C46.9136 3.44647 47.7065 4.58024 47.5932 5.82741C47.0269 5.14714 46.4606 4.80703 45.781 4.58027C45.1014 4.35351 44.1953 4.46687 43.629 4.80701C42.8361 5.26053 42.1566 6.16756 42.0433 7.07459C41.93 8.095 42.3831 8.88867 42.9494 9.56895C43.8555 10.476 45.2147 10.8161 46.5738 10.476C47.7065 10.1358 48.7259 9.00205 49.0656 7.86826C49.632 5.37392 48.7259 3.10633 46.6871 1.51903C43.4025 -0.63518 38.3056 -0.408415 35.0209 1.63241C32.6424 2.87958 31.2832 5.37393 31.3965 7.98164C31.3965 10.8162 34.1148 13.197 36.4934 14.2175C33.8883 14.5577 31.3965 15.9182 29.8108 18.1858C28.9047 19.433 28.5649 20.9069 28.4516 22.4941C28.3384 22.154 28.3384 21.9273 28.2251 21.5871C27.0925 17.8456 23.1282 15.9182 19.5039 15.4646C22.3354 14.8977 25.2802 13.4239 26.6394 10.7027C27.5455 9.00205 27.5455 6.50769 26.5261 4.80701C24.6006 1.40564 20.9763 0.385225 17.3519 0.271845H0.362284V1.7458H2.40101V31.6778H0.135742V33.1518H13.6141C17.465 33.1518 21.6559 33.3785 24.714 31.2244C26.9792 29.8638 28.2251 27.7096 28.4516 25.3286C28.5649 26.1222 28.9047 26.8025 29.2445 27.4829C31.17 31.6778 35.5872 33.1518 39.778 33.6052C44.7616 33.8321 49.9718 33.0384 52.8034 28.6166C54.5023 26.2356 54.5023 22.3807 53.2564 19.7731C54.5023 19.5463 55.635 19.0928 56.7676 18.5259C58.5797 17.5054 59.8257 15.6914 60.392 13.8773C60.2788 13.8773 60.2788 13.6506 60.392 13.4239Z" fill="white"/>
<path d="M21.0891 68.9796H15.6524V42.3355H11.1219V38.8207H25.7329V42.3355H21.2024L21.0891 68.9796ZM26.6389 43.2425V37.8003H9.98926V43.2425H14.5198V69.8865H21.9952V43.2425H26.6389Z" fill="white"/>
<path d="M79.9871 68.9796L78.4014 60.5895H71.7188L70.2464 68.9796H66.8485L71.7188 38.8207H80.2136L85.1972 68.9796H79.9871ZM71.0392 37.8003L65.9424 69.9999H71.2657L72.6249 61.6099H77.8351L79.1943 69.9999H86.4431L81.233 37.8003H71.0392Z" fill="white"/>
<path d="M3.08088 38.8207H8.06448V68.9796H3.08088V38.8207ZM2.06152 69.9999H9.08384V37.8003H2.06152V69.9999Z" fill="white"/>
<path d="M58.9198 38.8207H63.9034V68.9796H58.9198V38.8207ZM58.0137 69.9999H65.036V37.8003H58.0137V69.9999Z" fill="white"/>
<path d="M37.3992 68.9796L35.8135 60.5895H29.1309L27.6585 68.9796H24.2606L29.1309 38.8207H37.6257L42.6092 68.9796H37.3992ZM28.3381 37.8003L23.2412 69.9999H28.5646L29.9238 61.6099H35.1339L36.4931 69.9999H43.7419L38.5318 37.8003H28.3381Z" fill="white"/>
<path d="M56.0881 65.4648V68.9796H45.7811V38.8207H50.7647V65.4648H56.0881ZM51.7841 37.8003H44.7617V69.9999H57.1075V64.4443H51.7841V37.8003Z" fill="white"/>
<path d="M30.8299 56.0545L32.4156 45.9637L34.1145 56.0545H30.8299ZM32.3023 42.2222L29.6973 57.0748H35.3604L32.7554 42.2222H32.3023Z" fill="white"/>
<path d="M73.5311 56.0545L75.1168 45.9637L76.8157 56.0545H73.5311ZM75.0035 42.2222L72.3984 57.0748H78.0616L75.4566 42.2222H75.0035Z" fill="white"/>
</svg>
