<svg width="121" height="26" viewBox="0 0 121 26" fill="none" xmlns="http://www.w3.org/2000/svg">
<path fill-rule="evenodd" clip-rule="evenodd" d="M77.9863 15.3279C77.9863 9.52507 82.5403 4.80225 88.4785 4.80225C94.3825 4.80225 99.173 9.52507 99.173 15.3279C99.173 21.1641 94.3825 25.8535 88.4785 25.8535C82.5412 25.8544 77.9863 21.1641 77.9863 15.3279ZM88.2762 23.2221C88.6139 24.4367 89.8954 25.1781 91.1442 24.8421C92.3914 24.5044 93.1011 23.2221 92.7634 22.0075L88.8171 7.33337C88.4794 6.11881 87.2314 5.37566 85.9825 5.71337C84.7345 6.05023 83.9931 7.33337 84.3291 8.54793L88.2762 23.2221Z" fill="#CB0A1D"/>
<path fill-rule="evenodd" clip-rule="evenodd" d="M64.6945 7.5363C64.6945 5.8486 63.1431 4.66748 61.2197 4.66748C60.2408 4.66748 59.2628 4.9709 58.5883 5.3429L53.0889 8.37887H57.3737V25.2139H64.6945L64.7288 9.29086C64.7288 8.31201 65.5379 7.46858 66.5502 7.46858C67.5291 7.46858 68.3382 8.31201 68.3382 9.29086V25.2139H75.4901V7.70515C75.4901 6.01831 73.9379 4.66832 72.0145 4.66832C71.0365 4.66832 69.8896 5.07374 69.4173 5.37717L64.6945 7.5363Z" fill="#CB0A1D"/>
<path fill-rule="evenodd" clip-rule="evenodd" d="M109.869 7.5363C109.869 5.8486 108.282 4.66748 106.359 4.66748C105.381 4.66748 104.436 4.9709 103.729 5.3429L98.2295 8.37887H102.547V25.2139H109.869V9.29086C109.869 8.31201 110.678 7.46858 111.69 7.46858C112.702 7.46858 113.511 8.31201 113.511 9.29086L113.478 25.2139H120.664V7.70515C120.664 6.01831 119.079 4.66832 117.155 4.66832C116.21 4.66832 115.03 5.07374 114.557 5.37717L109.869 7.5363Z" fill="#CB0A1D"/>
<path fill-rule="evenodd" clip-rule="evenodd" d="M20.4674 12.6963L29.8796 7.29892C27.3827 3.04838 22.1199 0.146973 16.0814 0.146973C7.5803 0.146973 0.664062 5.88207 0.664062 12.9672C0.664062 20.0188 7.5803 25.7539 16.0814 25.7539C21.5131 25.7539 26.3036 23.4251 29.0362 19.8834L28.935 18.8034C27.0459 21.5694 23.841 23.3574 20.1974 23.3574C14.3945 23.3574 9.70514 18.8034 9.70514 13.136C9.70514 7.50206 14.3945 2.91381 20.1974 2.91381C21.9511 2.91381 24.1445 3.08266 25.5947 4.73522L20.4674 12.6963Z" fill="#CB0A1D"/>
<path fill-rule="evenodd" clip-rule="evenodd" d="M37.9426 18.735C37.9426 16.6453 39.6294 14.9576 41.6874 14.9576C43.7788 14.9576 45.4657 16.6453 45.4657 18.735C45.4657 20.793 43.7788 22.4807 41.6874 22.4807C39.6285 22.4807 37.9426 20.793 37.9426 18.735ZM54.3379 25.2132L50.0873 8.37823C49.4462 6.08454 47.5236 4.63428 44.7911 4.63428C43.5765 4.63428 42.6997 5.0054 41.5863 5.47768L33.6577 8.37823L43.2045 8.41166L44.8914 14.7545C43.5422 13.4722 41.4165 12.5954 38.7851 12.3254C34.2312 11.8865 30.4863 15.2276 30.4863 18.8036C30.4863 22.3787 34.2646 26.0224 38.7851 25.281C43.2045 24.5378 45.6002 22.6496 46.2405 19.9162L47.6574 25.2132H54.3379Z" fill="#CB0A1D"/>
</svg>
