<svg width="121" height="34" viewBox="0 0 121 34" fill="none" xmlns="http://www.w3.org/2000/svg">
<g clip-path="url(#clip0_299_2384)">
<path d="M50.7373 9.44071V32.4182H57.6947V18.413C57.6376 17.0448 58.6075 15.9628 59.5767 15.2795C60.2046 14.9378 61.0603 14.9378 61.7444 15.1659C62.9411 15.621 63.6827 16.8745 63.7969 18.0709L63.768 32.4169H70.755V18.0709C70.8128 16.4757 70.8692 14.653 70.1277 13.2282C68.9295 10.8364 66.478 9.41261 63.8546 9.24156C63.7404 9.18486 63.6826 9.35563 63.6262 9.24156C62.0868 9.12788 60.6599 9.58366 59.3489 10.2099L59.2348 10.3806C58.7787 10.4383 58.4369 10.8364 57.9801 11.1208H57.6809V9.44077H50.7373" fill="white"/>
<path d="M79.8236 22.7136C79.653 22.7136 79.5389 22.741 79.4811 22.8558C79.9377 24.5644 80.9641 26.3877 82.7882 26.8995C84.4431 27.4705 86.0967 26.7854 87.2371 25.5894C87.5796 25.1346 88.0349 24.6784 88.321 24.2229C88.5495 23.9948 88.7764 24.2229 89.0048 24.3363C90.7161 25.3613 92.4275 26.2166 94.1374 27.2423C94.2516 27.4127 94.1952 27.5831 94.1374 27.6971C92.8263 29.6345 90.8867 31.286 88.8342 32.0836C85.1832 33.9633 79.88 33.6782 76.7998 30.9446C74.2342 29.0078 72.9218 26.2166 72.2959 23.3113C71.7814 19.4379 72.637 15.5646 74.9179 12.6022C77.4285 10.0393 80.792 8.84258 84.5008 9.18474C88.1491 9.58354 91.5717 12.0894 93.0548 15.5069C94.081 17.7293 94.4235 20.0645 94.4235 22.627L94.2515 22.7136H79.8236ZM86.4392 17.8304L86.6675 17.7294C86.6675 17.3295 86.4392 16.9314 86.2686 16.5326C85.5836 15.1658 84.2148 13.9691 82.5612 14.2538C80.9063 14.4819 79.8236 16.0768 79.4247 17.5006C79.3669 17.6717 79.4811 17.8304 79.5952 17.8304H86.4392V17.8304Z" fill="white"/>
<path d="M28.1534 15.3931C29.8633 15.2798 31.4027 16.1347 32.4297 17.5586L32.6016 17.6149C35.1679 16.1911 37.7914 14.881 40.3577 13.3424C40.4142 13.2284 40.3577 13.0584 40.3013 12.9436C37.6201 8.72881 32.8864 6.1663 27.7537 6.39333C24.503 6.45103 21.7655 7.87485 19.0856 9.46977L10.4726 14.254C7.39314 15.9059 4.42785 17.5585 1.34775 19.2108C1.12078 19.3805 0.721111 19.4382 0.664062 19.7796C2.20414 22.4006 4.94174 23.8817 7.79348 24.1661L8.02117 24.3366C8.99099 25.7037 10.4726 26.7301 11.9562 27.3553C13.4957 27.9832 15.3205 28.0965 17.0318 27.8692C17.5449 28.0396 17.8868 28.6661 18.2864 29.0645C20.396 31.1152 22.8495 32.4253 25.5857 32.9386C30.9473 33.9635 35.9658 32.1409 39.3885 28.0395C39.7303 27.5833 40.1863 27.1285 40.2435 26.5583C38.8176 25.6474 37.3353 24.9067 35.9094 24.0521C34.7683 23.4256 33.6279 22.6864 32.4296 22.1725C31.6889 23.0842 30.719 23.8817 29.5786 24.1661C27.6395 24.6223 25.7577 23.8817 24.6172 22.3428C23.7045 21.1475 23.5902 19.2108 24.2753 17.9C25.0733 16.4188 26.4984 15.4501 28.1534 15.3931Z" fill="white"/>
<path d="M17.09 25.7034C14.8085 26.2167 12.4692 25.7034 10.8163 24.1659C10.7585 23.9948 10.8727 23.9378 10.9869 23.9378C11.8425 23.6534 12.6411 23.3113 13.439 22.7987C16.1202 21.3175 18.7429 19.7793 21.4812 18.4692H21.5375C21.4234 19.837 21.4812 21.1472 21.9936 22.3425C22.0514 22.6269 22.3368 22.8557 22.1649 23.1402C20.5113 23.9948 18.9148 25.1347 17.09 25.7034Z" fill="#D92D1A"/>
<path d="M24.7309 25.5332C26.6135 26.6723 29.4074 26.8997 31.4028 25.8747L32.9436 25.0208L33.1727 25.1348C34.4259 25.8184 35.6805 26.4442 36.8216 27.2425C36.4798 27.8691 35.7947 28.2676 35.3394 28.7237C31.9745 31.2299 26.9553 31.6284 23.1922 29.8051C21.9933 29.1222 20.7958 28.2676 19.7695 27.1848C19.7695 27.0708 19.7695 26.9574 19.8837 26.8997C21.1384 26.2169 22.3365 25.4755 23.5905 24.9067C24.0472 24.9637 24.3326 25.4192 24.7309 25.5332Z" fill="#D92D1A"/>
<path d="M11.5565 21.3747C9.33207 22.4574 6.25263 22.116 4.37071 20.6355C4.31361 20.5215 4.20012 20.4638 4.2565 20.3497C9.21926 17.5591 14.1806 14.7675 19.1997 12.0332C21.0239 11.1793 22.6781 9.98249 24.6171 9.35633C28.9512 7.87547 33.9132 9.07154 36.992 12.4891V12.6601C35.738 13.4577 34.4257 14.0839 33.1724 14.7675C32.715 14.6538 32.3731 14.2547 31.9171 14.0276C29.9774 12.8309 27.0122 12.7739 25.016 13.9129C20.5107 16.4764 16.0626 18.9256 11.5565 21.3747Z" fill="#D92D1A"/>
<path d="M102.636 1.89404H95.7344V32.3692H102.636V1.89404Z" fill="white"/>
<path d="M111.305 1.89404H104.404V32.3692H111.305V1.89404Z" fill="white"/>
<path d="M120.323 9.54932H113.423V32.3692H120.323V9.54932Z" fill="white"/>
<path d="M49.1396 9.54932H42.2393V32.3692H49.1396V9.54932Z" fill="white"/>
<path d="M45.1854 8.76981C47.4133 8.76981 49.2189 6.96678 49.2189 4.74225C49.2189 2.51738 47.4133 0.714355 45.1854 0.714355C42.9589 0.714355 41.1533 2.51738 41.1533 4.74225C41.1534 6.96678 42.9589 8.76981 45.1854 8.76981Z" fill="white"/>
<path d="M116.631 8.76981C118.858 8.76981 120.664 6.96678 120.664 4.74225C120.664 2.51738 118.858 0.714355 116.631 0.714355C114.404 0.714355 112.599 2.51738 112.599 4.74225C112.599 6.96678 114.404 8.76981 116.631 8.76981Z" fill="white"/>
</g>
<defs>
<clipPath id="clip0_299_2384">
<rect width="120" height="32.5714" fill="white" transform="translate(0.664062 0.714355)"/>
</clipPath>
</defs>
</svg>
