<svg width="120" height="58" viewBox="0 0 120 58" fill="none" xmlns="http://www.w3.org/2000/svg">
<g clip-path="url(#clip0_367_11789)">
<mask id="mask0_367_11789" style="mask-type:luminance" maskUnits="userSpaceOnUse" x="0" y="0" width="120" height="58">
<path d="M120 0H0V57.0629H120V0Z" fill="white"/>
</mask>
<g mask="url(#mask0_367_11789)">
<path d="M4.54734 49.2817C5.14841 53.2838 9.47167 52.3319 12.9804 52.3319V56.1206C10.8868 56.1206 8.77366 56.1206 6.66051 56.1206C2.31803 55.6157 0.185626 52.8957 0.0302734 49.282C0.185256 45.7076 2.31803 43.0069 6.66051 42.502C8.77366 42.502 10.8868 42.502 12.9804 42.502V46.271C9.47167 46.2707 5.14841 45.3188 4.54734 49.2817Z" fill="white"/>
<path d="M12.9797 56.1499C10.8862 56.1499 8.77301 56.1499 6.65613 56.1499C2.30217 55.6457 0.154243 52.9083 0 49.2813C0.154243 45.695 2.30218 42.9776 6.65983 42.4727C8.77301 42.4727 10.8862 42.4727 12.9794 42.4727H13.0082V46.3003H12.9794C11.839 46.2996 10.6143 46.1999 9.46095 46.1999C7.05709 46.2028 4.98128 46.6291 4.57588 49.2824C4.98276 51.9705 7.07077 52.3997 9.48353 52.4019C10.6302 52.4019 11.8457 52.303 12.9794 52.303H13.0082V56.1499H12.9797ZM0.0584496 49.2813C0.214912 52.8834 2.33177 55.5864 6.65983 56.0913C8.76302 56.0913 10.8662 56.0913 12.9501 56.0913V52.3616C11.8279 52.3634 10.6235 52.4605 9.48395 52.4605C7.0704 52.4635 4.92691 52.0187 4.51781 49.2864L4.54666 49.2824L4.51781 49.2775C4.92542 46.5802 7.05672 46.1383 9.46095 46.1413C10.6083 46.1413 11.8208 46.2399 12.9501 46.2414V42.5309C10.8662 42.5309 8.76302 42.5309 6.66278 42.5302C2.33177 43.0369 0.214912 45.7206 0.0584496 49.2813Z" fill="white"/>
<path d="M49.5816 53.0709C51.4232 52.7406 52.7027 51.7109 52.8773 50.0014L52.8385 42.9297H56.871C56.871 45.1444 56.871 47.7284 56.871 50.0407C56.328 54.7227 53.4395 56.6461 49.5816 56.8403C45.7625 56.6464 42.8741 54.6648 42.3115 49.9821C42.3115 47.6706 42.3115 45.1445 42.3115 42.9301H46.3636L46.3832 49.9243C46.3832 51.8855 47.9338 52.8574 49.5816 53.0709Z" fill="white"/>
<path d="M42.2822 49.9811C42.2822 47.6688 42.2822 45.1434 42.2822 42.929V42.8994H46.3928L46.4124 49.9233C46.4124 51.8641 47.9415 52.8249 49.5805 53.0406C51.4129 52.7096 52.6746 51.691 52.8484 50.0007L52.81 42.8994H56.9009V42.929C56.9009 45.1438 56.9009 47.7274 56.9002 50.0426C56.3583 54.7376 53.4499 56.6762 49.5808 56.8678C45.7521 56.6762 42.8448 54.679 42.2822 49.9811ZM42.3407 49.9778C42.9036 54.6479 45.7732 56.614 49.5801 56.8104C53.4296 56.6143 56.2984 54.7057 56.8418 50.0397C56.8418 47.7374 56.8418 45.1664 56.8418 42.958H52.8677L52.9058 50.0037C52.7305 51.7281 51.4359 52.7686 49.5868 53.0989L49.5816 53.0707L49.5779 53.0996C47.9226 52.8868 46.3539 51.9038 46.3539 49.9236L46.3344 42.9583H42.3407C42.3407 45.1661 42.3407 47.6788 42.3407 49.9778Z" fill="white"/>
<path d="M100.356 53.2269C102.159 52.8963 103.438 52.1582 103.613 50.4487L103.593 43.377H107.49C107.49 45.5921 107.49 48.1754 107.49 50.4876C106.947 55.1696 104.214 56.8988 100.356 57.0344C96.4786 56.8988 93.5898 55.1114 93.0664 50.4294C93.0664 48.1175 93.0664 45.5921 93.0664 43.3774H97.0212L97.0408 50.2352C97.0408 52.0997 98.7079 53.0516 100.356 53.2269Z" fill="white"/>
<path d="M93.0371 50.4287C93.0371 48.1172 93.0371 45.5917 93.0371 43.3774V43.3477H97.05L97.0696 50.2348C97.0689 52.0774 98.7159 53.0215 100.357 53.1973C102.152 52.8651 103.411 52.1367 103.584 50.4483L103.563 43.3477H107.519V43.3774C107.519 45.5914 107.519 48.175 107.519 50.4902C106.978 55.1848 104.222 56.9307 100.354 57.0634C96.4689 56.9307 93.559 55.127 93.0371 50.4287ZM93.0952 50.4257C93.6197 55.095 96.4874 56.8662 100.354 57.0048C104.205 56.8662 106.917 55.1536 107.461 50.4872C107.461 48.185 107.461 45.6143 107.461 43.4059H103.622L103.642 50.4513C103.466 52.1778 102.167 52.9255 100.361 53.2547L100.356 53.2258L100.353 53.2554C98.6975 53.0804 97.0126 52.1204 97.0111 50.2344L96.9919 43.4059H93.0952C93.0952 45.6132 93.0952 48.1271 93.0952 50.4257Z" fill="white"/>
<path d="M34.5766 42.7734H30.4668L30.5053 56.2956H41.5945V52.332H34.5766V42.7734Z" fill="white"/>
<path d="M30.476 56.3245L30.4375 42.7441H34.577H34.6058V52.3027H41.6244V56.3245H30.476ZM30.5345 56.2659H41.5652V52.3616H34.547V42.8031H30.4956L30.5345 56.2659Z" fill="white"/>
<path d="M67.9415 54.3526L72.4001 49.3211V56.4506H76.2777L76.2969 43.2012H72.4386L67.9415 49.0879L63.2499 43.2012H59.3916L59.4304 56.4506H63.2691V49.3211L67.9415 54.3526Z" fill="white"/>
<path d="M72.3709 56.4812V49.3979L67.9632 54.3731L67.9414 54.3968L63.2975 49.395V56.4812H59.4011L59.3623 43.1729H63.2627L67.9403 49.0416L72.4234 43.1729H76.3257L76.3064 56.4812H72.3709ZM72.4285 56.4226H76.2487L76.2676 43.2307H72.4529L67.9418 49.1358L63.2357 43.2307H59.4211L59.4595 56.4226H63.2394V49.2481L67.9407 54.3101L72.4293 49.2444L72.4285 56.4226Z" fill="white"/>
<path d="M118.58 50.0401C117.068 49.1071 115.768 48.4469 114.489 47.825C114.004 47.5336 113.442 47.0477 114.373 46.601H119.607L119.568 43.1426H112.26C110.437 43.7064 109.216 44.93 109.39 47.028C109.487 48.6601 109.953 49.2817 110.728 50.0008C112.279 50.8752 114.179 51.5161 115.458 52.1574C115.943 52.4487 116.505 52.9536 115.574 53.4006H108.925V56.898H117.106C118.889 56.3341 120.13 55.1109 119.955 52.9933C119.859 51.3223 119.394 50.6806 118.58 50.0401Z" fill="white"/>
<path d="M108.895 56.927V53.3723L115.561 53.3753C115.923 53.2003 116.046 53.0242 116.046 52.8641C116.049 52.6146 115.736 52.357 115.444 52.1843C114.168 51.5445 112.267 50.9029 110.707 50.0225C109.929 49.303 109.457 48.6673 109.361 47.0312C109.349 46.8966 109.343 46.7654 109.343 46.6379C109.342 44.763 110.538 43.6436 112.259 43.1143H119.596L119.636 46.6305L114.384 46.6271C114.022 46.8014 113.899 46.9756 113.9 47.1313C113.896 47.3744 114.209 47.6257 114.501 47.7992C115.781 48.4208 117.081 49.0817 118.593 50.0151L118.578 50.0396L118.597 50.0169C119.415 50.6593 119.889 51.3158 119.984 52.9905C119.995 53.1235 120 53.2544 120 53.3816C120.001 55.2753 118.792 56.3966 117.105 56.9263L108.895 56.927ZM108.953 56.8685L117.096 56.8703C118.761 56.3432 119.94 55.2479 119.942 53.3823C119.942 53.2566 119.937 53.1276 119.925 52.9953C119.828 51.3306 119.372 50.7038 118.563 50.0651C117.052 49.1325 115.754 48.4735 114.473 47.8507C114.177 47.6713 113.845 47.4248 113.841 47.132C113.841 46.9407 113.989 46.7521 114.372 46.5723H119.576L119.538 43.1725L112.268 43.1717C110.568 43.6988 109.402 44.7916 109.402 46.6383C109.402 46.7639 109.407 46.8933 109.418 47.0278C109.517 48.6547 109.974 49.2626 110.741 49.9765C112.289 50.8491 114.188 51.4896 115.472 52.1335C115.767 52.3129 116.099 52.5668 116.103 52.8645C116.103 53.0583 115.955 53.2511 115.573 53.4312L108.953 53.4305V56.8685Z" fill="white"/>
<path d="M21.4521 42.4824C17.4004 42.4824 14.0078 45.552 14.0078 49.496C14.0078 53.4006 17.4004 56.4702 21.4521 56.4702C25.5039 56.4702 28.9549 53.4006 28.9549 49.496C28.9546 45.5524 25.5039 42.4824 21.4521 42.4824ZM21.4521 52.7794C19.4555 52.7794 17.8269 51.3419 17.8269 49.4963C17.8269 47.67 19.4555 46.2129 21.4521 46.2129C23.4492 46.2129 25.1162 47.6704 25.1162 49.4963C25.1158 51.3419 23.4492 52.7794 21.4521 52.7794Z" fill="white"/>
<path d="M89.1698 49.9242C89.9063 49.9242 93.5119 46.1552 88.258 43.1631H78.9912L79.0108 49.9242V56.6463H88.801C93.803 54.3534 90.1193 49.7685 89.1698 49.9242ZM82.8495 46.1552H86.5136C87.5023 47.1652 87.192 47.8647 86.5136 48.4281C85.2534 48.4281 84.0709 48.4281 82.8495 48.4281V46.1552ZM86.5717 53.7317C85.3311 53.7317 84.129 53.7317 82.9076 53.7317V51.4588H86.5717C87.5604 52.4496 87.25 53.1679 86.5717 53.7317Z" fill="white"/>
<path d="M78.9815 56.6746V49.9235L78.9619 43.1328L88.272 43.138C90.4062 44.3512 91.0898 45.7023 91.0898 46.8795C91.0835 48.4297 89.9225 49.664 89.3435 49.9087C90.0467 50.0974 91.3897 51.6627 91.3964 53.3722C91.3972 54.5473 90.7499 55.7853 88.8006 56.675L78.9815 56.6746ZM79.04 49.9239V56.6164L88.7883 56.619C90.7107 55.7368 91.3373 54.524 91.338 53.3722C91.338 52.4804 90.9588 51.6216 90.5013 50.9874C90.0463 50.352 89.5059 49.9446 89.2182 49.9483C89.2171 49.9483 89.216 49.9483 89.2149 49.9483C89.1989 49.9509 89.1837 49.9524 89.1697 49.9528L89.163 49.895C89.1786 49.8916 89.1949 49.8905 89.2112 49.8898C89.6658 49.8068 91.0295 48.5187 91.031 46.8795C91.031 45.7268 90.366 44.3979 88.2572 43.1917H79.0196L79.04 49.9239ZM82.9071 53.7608H82.8783V51.4288L86.5916 51.4377C87.0447 51.8914 87.2311 52.2917 87.2311 52.6513C87.2311 53.0828 86.9622 53.4435 86.5905 53.7533L86.5716 53.7315V53.7603C85.3303 53.7608 84.1281 53.7608 82.9071 53.7608ZM86.5613 53.7022C86.9234 53.3982 87.1731 53.0543 87.1723 52.6517C87.1731 52.3136 86.9966 51.9263 86.5713 51.4874H82.9367V53.7022C84.1448 53.7022 85.3347 53.7022 86.5613 53.7022ZM82.8494 48.4568H82.8199V46.1545V46.1249L86.5343 46.1338C86.9866 46.5953 87.1727 46.9978 87.1734 47.3551C87.1727 47.7847 86.9038 48.1402 86.5139 48.4568C85.253 48.4568 84.0708 48.4568 82.8494 48.4568ZM86.4947 48.4049C86.8616 48.0994 87.1146 47.7584 87.1146 47.3555C87.1146 47.0193 86.9389 46.6316 86.5135 46.1838H82.8783V48.3986C84.0889 48.3982 85.263 48.3982 86.4947 48.4049Z" fill="white"/>
<path d="M81.2652 5.35432C75.8176 2.3122 68.2333 0.763167 59.841 0.76465C59.8369 0.76465 59.8328 0.76465 59.8288 0.76465C51.4405 0.76465 43.8607 2.31406 38.416 5.35432C32.9672 8.40533 29.6678 12.8801 29.6611 18.8661C29.6671 24.782 32.9672 29.2594 38.4168 32.3267C43.8649 35.3863 51.4486 36.968 59.841 36.9668C68.2327 36.9683 75.8172 35.3863 81.2637 32.3267C86.7137 29.2594 90.0138 24.782 90.0201 18.8661C90.0131 12.8801 86.7137 8.40533 81.2652 5.35432Z" fill="#E2231A"/>
<path d="M81.6361 4.68568C76.0219 1.55535 68.3261 0.0014827 59.8408 0C51.3545 0.0014827 43.6586 1.55535 38.0449 4.68568C32.4333 7.80675 28.8916 12.5736 28.8975 18.8662C28.8916 25.092 32.4333 29.8566 38.0441 32.9951C43.6575 36.1422 51.3534 37.7304 59.8408 37.7312C68.3275 37.7304 76.0234 36.1422 81.6368 32.9951C87.2476 29.8566 90.7882 25.0923 90.7826 18.8662C90.7893 12.5736 87.2476 7.80675 81.6361 4.68568ZM81.2636 32.3268C75.8167 35.3863 68.2324 36.968 59.8408 36.9669C51.4488 36.9684 43.8646 35.3863 38.4166 32.3268C32.967 29.2594 29.6669 24.7821 29.661 18.8662C29.6676 12.8805 32.967 8.40537 38.4159 5.35437C43.8606 2.31374 51.4403 0.764695 59.8286 0.764695C59.8327 0.764695 59.8368 0.764695 59.8408 0.764695C68.2332 0.763212 75.8178 2.31262 81.2651 5.35437C86.7135 8.40537 90.0129 12.8802 90.02 18.8662C90.0137 24.7821 86.7135 29.2591 81.2636 32.3268Z" fill="white"/>
<path d="M82.2005 21.0873C79.9623 20.3508 82.8448 19.0141 82.2005 17.8928C81.726 17.9792 81.0387 18.3254 80.5637 18.0682C80.9115 17.2019 81.514 16.4268 81.5562 15.436C75.8777 17.6778 69.7105 19.7028 63.0828 18.8372C62.8106 18.7991 62.6476 18.663 62.8387 18.5367C65.5951 16.7474 69.5127 17.501 72.2158 15.6936C71.9151 15.5639 71.358 15.6046 71.358 15.092L74.8021 13.1074C74.026 13.0192 73.4667 13.2816 72.8216 12.9336C74.2383 11.7678 76.3918 11.3363 77.554 9.9552C70.6256 10.516 64.8583 7.36938 57.9722 8.27605C54.5717 8.83688 52.3324 11.8542 51.3016 14.9178C48.2027 13.6223 45.8365 10.4326 42.0884 11.0379C39.5096 11.1654 38.5183 14.6157 36.1943 15.2195C39.8957 17.0336 42.3929 20.9131 45.1486 23.7605C50.2825 29.0226 57.4125 31.3501 64.8155 29.969C71.5707 29.1068 76.1332 22.2468 83.5395 22.637C83.2777 22.0347 82.8448 21.389 82.2005 21.0873Z" fill="#1A171B"/>
<path d="M78.7163 20.8317C79.014 20.4003 79.6151 20.0137 79.8319 19.497C79.318 19.3246 78.6271 19.4506 78.2842 18.9751L78.8435 17.8567C78.5017 17.9687 78.1547 18.0806 77.8034 18.1907C72.629 19.8165 66.5099 21.1539 60.9831 19.365C60.6043 19.2408 60.3136 19.0295 60.7171 18.6341C62.9243 16.4723 65.8427 16.0015 68.5144 15.4837C66.0558 14.8357 63.2217 14.967 60.8913 15.7869C60.8093 15.652 60.5089 15.652 60.5933 15.354C60.7634 15.1834 60.9831 15.093 61.1958 15.01C63.8208 13.5847 67.522 14.5796 70.3206 13.7582C67.09 13.068 63.6041 12.2922 60.25 12.8074C60.0762 12.7648 59.8639 12.6313 59.9489 12.4208C63.9511 10.9526 69.3289 13.3682 72.7715 11.0838C66.7467 10.7417 58.3122 5.94919 53.835 12.6317C52.1557 14.881 52.5452 18.5459 54.054 20.8317L53.835 21.0038C52.418 19.9692 51.7699 18.3271 51.2983 16.691C48.2841 15.0493 45.7903 11.3874 41.83 12.1169C41.564 12.2229 41.318 12.3637 41.0817 12.5209C40.1688 13.1284 39.4479 14.057 38.7303 14.8806C38.6349 14.9651 38.4189 15.2335 38.4189 15.2335C38.6249 15.4025 38.7806 15.4904 39.3399 15.9537C41.8485 18.5933 44.2461 21.3852 46.9122 23.7071C48.7387 25.298 50.6928 26.6665 52.8962 27.6125C53.9804 28.0618 55.1134 28.4162 56.2855 28.6645C57.5908 28.941 58.9439 29.0892 60.3314 29.0892C61.1406 29.0892 61.9359 29.034 62.7189 28.938C63.1747 28.8891 63.6215 28.8183 64.0613 28.7278C66.7127 28.18 69.0958 26.9249 71.4531 25.589C74.2583 23.9999 77.0281 22.3022 80.1751 21.5627L78.7163 20.8317Z" fill="white"/>
<path d="M42.5204 14.0264C42.5204 14.3993 42.2193 14.7007 41.8509 14.7007C41.4792 14.7007 41.1777 14.3993 41.1777 14.0264C41.1777 13.6535 41.4792 13.3555 41.8509 13.3555C42.2193 13.3555 42.5204 13.6535 42.5204 14.0264Z" fill="#1A171B"/>
</g>
</g>
<defs>
<clipPath id="clip0_367_11789">
<rect width="120" height="58" fill="white"/>
</clipPath>
</defs>
</svg>
