<svg width="206" height="16" viewBox="0 0 206 16" fill="none" xmlns="http://www.w3.org/2000/svg">
<g clip-path="url(#clip0_299_2397)">
<path d="M165.399 5.9507C163.427 4.96928 163.38 4.13307 163.408 3.70429C163.434 3.27628 163.72 2.32078 165.023 2.32078C166.55 2.32078 166.838 3.87123 166.884 4.24436C166.933 4.64341 166.967 5.5467 166.967 5.5467H169.328L170.55 0.114771L168.375 0.119725C168.103 0.119725 167.843 0.273704 167.763 0.559173L167.645 0.958983C167.638 0.973466 167.634 0.984519 167.634 0.984519C167.634 0.984519 166.639 -0.014434 164.807 0.00157368C164.235 0.00538502 163.156 -0.105144 161.698 0.984519C160.102 2.17633 159.897 3.80377 159.859 4.4174C159.819 5.03102 159.72 6.10506 160.852 7.66885C161.981 9.23531 165.455 10.0593 165.362 11.901C165.277 13.5387 164.03 13.6401 163.734 13.6401C163.529 13.6401 162.477 13.658 161.863 12.592C161.529 12.0123 161.293 11.008 161.221 10.4161C161.166 9.97395 161.19 9.78491 160.74 9.78491C160.294 9.78491 158.779 9.78491 158.779 9.78491L157.124 15.726H160.165L160.337 14.9161C161.277 15.9501 163.411 15.9814 163.411 15.9814C166.562 15.9814 168.864 13.9881 169.274 11.1673C169.683 8.34422 167.369 6.93364 165.399 5.9507Z" fill="white"/>
<path d="M18.9083 0.133703C16.3841 -0.492119 13.7748 1.17381 13.1746 3.81088L11.7033 10.4187C11.2072 12.9765 12.7436 15.2312 15.2034 15.8426C17.6628 16.4509 20.3241 15.2667 20.9629 12.7146C20.9629 12.7146 22.4159 6.28978 22.4286 6.23642C23.1393 2.85767 21.4718 0.767911 18.9083 0.133703ZM19.1577 5.07625L17.6804 11.6764L17.6591 11.7637C17.5086 12.391 16.9839 12.8297 16.3833 12.8297C16.2844 12.8297 16.1848 12.8175 16.0871 12.7927C15.3966 12.622 14.9626 11.8784 15.1203 11.1348L15.1326 11.0715L16.6207 4.43099C16.763 3.79221 17.2917 3.34552 17.9047 3.34552C18.0028 3.34552 18.1013 3.35771 18.1976 3.38096C18.8985 3.55819 19.331 4.31207 19.1577 5.07625Z" fill="white"/>
<path d="M8.028 6.40075H11.4439L12.8548 0.13185C12.8548 0.13185 10.7758 0.13185 10.3122 0.13185C9.84899 0.13185 9.58575 0.979112 9.58575 0.979112C9.10195 0.623132 8.57171 0.302979 7.96247 0.151669C5.43786 -0.474534 2.89229 1.18759 2.23849 3.8117L0.765368 10.419C0.244496 13.0184 1.78165 15.232 4.23997 15.8429C6.69942 16.4512 9.41836 15.2346 10.0272 12.715L10.8346 9.17159C10.8346 9.17159 8.28413 9.17007 8.13509 9.17007C7.68275 9.17007 7.32776 9.63505 7.22928 10.0135L6.82486 11.7911C6.63276 12.593 5.87785 13.0923 5.12594 12.904C4.37328 12.7192 3.90932 11.9176 4.07783 11.1115L4.07633 11.11C4.07633 11.11 5.57604 4.41427 5.57791 4.40589C5.76065 3.59331 6.52604 3.08526 7.28507 3.27125C8.0426 3.46182 8.5103 4.27287 8.32831 5.0885C8.32719 5.09422 8.028 6.40075 8.028 6.40075Z" fill="white"/>
<path d="M33.2164 12.8936C32.685 12.7133 32.3937 12.2068 32.6049 11.4887C32.7378 11.0337 32.7622 10.9178 32.8835 10.4688C33.0056 10.0221 33.1288 8.49988 32.2436 7.65795C33.4538 7.06605 34.2372 5.63756 34.3686 4.1397C34.5592 1.97486 33.3553 0.141602 30.3095 0.141602C28.7334 0.141602 25.0517 0.141602 24.8222 0.141602C24.5492 0.141602 24.274 0.374475 24.21 0.659182L23.6318 3.23336C23.6606 3.23336 24.9593 3.10835 24.5844 4.90616C24.3976 5.79992 23.6018 9.29187 23.0368 11.8409C22.9649 12.0456 22.878 12.2361 22.7522 12.408C22.4433 12.8265 21.9962 12.9336 21.7104 12.9565L21.6831 12.9538V12.9565L21.0566 15.7468H27.1558L27.7864 12.9466H27.6943C27.1959 12.9466 26.8697 12.8349 26.696 12.6047C26.5368 12.3928 26.4919 12.0677 26.5728 11.6343C26.5814 11.5874 27.2131 8.78191 27.2131 8.78191C27.3221 8.29063 27.5329 8.29864 27.8179 8.29864C28.3159 8.29864 28.7042 8.29864 29.0012 8.29864C29.4464 8.29864 29.5026 8.61498 29.3659 9.21717C29.2011 9.9459 28.6428 12.4843 28.5908 12.7396C28.25 14.404 29.0701 15.749 30.8443 15.749C31.3205 15.749 32.0754 15.749 32.5682 15.749L33.2164 12.8936ZM30.4417 4.42974C30.3496 4.91302 30.2245 5.49844 30.1347 5.85137C30.0725 6.09568 29.8808 6.18906 29.698 6.19134H27.7969L28.4121 3.43308C28.4893 3.09005 28.7664 2.98791 29.3902 2.98791C30.4013 2.98791 30.5848 3.6751 30.4417 4.42974Z" fill="white"/>
<path d="M45.2627 12.8936C44.7317 12.7133 44.44 12.2068 44.6512 11.4887C44.7845 11.0337 44.8088 10.9178 44.9302 10.4688C45.0519 10.0221 45.1754 8.49988 44.2902 7.65795C45.5005 7.06605 46.2835 5.63756 46.4153 4.1397C46.6059 1.97486 45.402 0.141602 42.3558 0.141602C40.7797 0.141602 37.0984 0.141602 36.8685 0.141602C36.5955 0.141602 36.3203 0.374475 36.2559 0.659182L35.6784 3.2326C35.7076 3.2326 37.0059 3.10759 36.6311 4.9054C36.4442 5.79916 35.6485 9.29111 35.083 11.8401C35.0115 12.0444 34.9243 12.2358 34.7985 12.4069C34.4895 12.8257 34.0428 12.9325 33.7567 12.9557L33.7294 12.953V12.9557L33.1025 15.746H39.2021L39.8323 12.9462H39.7402C39.2422 12.9462 38.916 12.8345 38.7419 12.6039C38.5824 12.3916 38.5374 12.0669 38.6187 11.6336C38.6273 11.5867 39.2586 8.78115 39.2586 8.78115C39.3676 8.28987 39.5784 8.29749 39.8638 8.29749C40.3618 8.29749 40.7501 8.29749 41.0467 8.29749C41.4919 8.29749 41.5485 8.6146 41.4118 9.21679C41.2466 9.94475 40.6887 12.4831 40.637 12.7385C40.2959 14.4033 41.116 15.7479 42.8905 15.7479C43.3664 15.7479 44.1213 15.7479 44.6145 15.7479L45.2627 12.8936ZM42.4876 4.42974C42.3959 4.91302 42.2708 5.49844 42.1809 5.85137C42.1184 6.09568 41.9267 6.18906 41.7439 6.19134H39.8428L40.458 3.43269C40.5352 3.08967 40.8123 2.98753 41.4361 2.98753C42.4479 2.98791 42.631 3.6751 42.4876 4.42974Z" fill="white"/>
<path d="M75.6045 12.8936C75.0731 12.7133 74.7818 12.2068 74.9934 11.4887C75.1259 11.0337 75.1506 10.9178 75.272 10.4688C75.394 10.0221 75.5172 8.49988 74.632 7.65795C75.8423 7.06605 76.6253 5.63756 76.7571 4.1397C76.9473 1.97486 75.7438 0.141602 72.6976 0.141602C71.1219 0.141602 67.4402 0.141602 67.2103 0.141602C66.9373 0.141602 66.6621 0.374475 66.5977 0.659182L66.0202 3.2326C66.0491 3.2326 67.3481 3.10759 66.9729 4.9054C66.7856 5.79916 65.9907 9.29111 65.4248 11.8401C65.3537 12.0444 65.2665 12.2358 65.1403 12.4069C64.831 12.8257 64.3846 12.9325 64.0985 12.9557L64.0708 12.953V12.9557L63.4443 15.746H69.5439L70.1745 12.9462H70.0824C69.584 12.9462 69.2578 12.8345 69.0841 12.6039C68.9245 12.3916 68.8796 12.0669 68.9609 11.6336C68.9695 11.5867 69.6008 8.78115 69.6008 8.78115C69.7102 8.28987 69.9206 8.29749 70.2059 8.29749C70.704 8.29749 71.0923 8.29749 71.3889 8.29749C71.8345 8.29749 71.8906 8.6146 71.754 9.21679C71.5888 9.94475 71.0309 12.4831 70.9788 12.7385C70.6377 14.4033 71.4578 15.7479 73.2327 15.7479C73.7086 15.7479 74.4635 15.7479 74.9563 15.7479L75.6045 12.8936ZM72.8294 4.42974C72.7377 4.91302 72.6122 5.49844 72.5231 5.85137C72.4609 6.09568 72.2688 6.18906 72.0861 6.19134H70.1853L70.8006 3.43269C70.8773 3.08967 71.1544 2.98753 71.7783 2.98753C72.7897 2.98791 72.9728 3.6751 72.8294 4.42974Z" fill="white"/>
<path d="M191.936 12.8936C191.405 12.7133 191.113 12.2068 191.325 11.4887C191.457 11.0337 191.482 10.9178 191.603 10.4688C191.725 10.0221 191.848 8.49988 190.964 7.65795C192.173 7.06605 192.956 5.63756 193.088 4.1397C193.279 1.97486 192.075 0.141602 189.029 0.141602C187.452 0.141602 183.771 0.141602 183.542 0.141602C183.269 0.141602 182.993 0.374475 182.93 0.659182L182.352 3.2326C182.381 3.2326 183.68 3.10759 183.305 4.9054C183.118 5.79916 182.322 9.29111 181.757 11.8401C181.685 12.0444 181.597 12.2358 181.472 12.4069C181.163 12.8257 180.716 12.9325 180.43 12.9557L180.403 12.953V12.9557L179.776 15.746H185.876L186.506 12.9462H186.414C185.916 12.9462 185.59 12.8345 185.416 12.6039C185.256 12.3916 185.211 12.0669 185.293 11.6336C185.302 11.5867 185.933 8.78115 185.933 8.78115C186.042 8.28987 186.253 8.29749 186.538 8.29749C187.036 8.29749 187.424 8.29749 187.721 8.29749C188.166 8.29749 188.223 8.6146 188.086 9.21679C187.921 9.94475 187.363 12.4831 187.312 12.7385C186.97 14.4033 187.79 15.7479 189.565 15.7479C190.041 15.7479 190.796 15.7479 191.289 15.7479L191.936 12.8936ZM189.161 4.42974C189.069 4.91302 188.945 5.49844 188.855 5.85137C188.793 6.09568 188.6 6.18906 188.418 6.19134H186.518L187.133 3.43269C187.21 3.08967 187.487 2.98753 188.111 2.98753C189.121 2.98791 189.305 3.6751 189.161 4.42974Z" fill="white"/>
<path d="M126.469 9.81875C126.192 10.9934 126.049 11.6478 125.811 12.2789C125.604 12.827 125.052 13.045 124.402 13.0404C124.192 13.0393 123.951 13.0484 123.743 13.0263C123.358 12.9844 122.989 12.8304 122.849 12.6467C122.692 12.4356 122.552 12.1448 122.666 11.6462C122.914 10.56 124.295 4.46038 124.332 4.28544C124.505 3.76519 124.881 3.23885 126.013 3.23885L126.747 0.131836H120.95C120.677 0.131836 120.4 0.365471 120.335 0.650179L119.747 3.24495C119.776 3.24495 121.052 3.25867 120.69 4.91812C120.596 5.34576 120.362 6.37368 120.079 7.60817C120.077 7.60703 120.076 7.60665 120.074 7.60626C119.768 8.94443 119.405 10.5265 119.102 11.8536C119.032 12.0567 118.942 12.2488 118.817 12.4203C118.511 12.8297 118.077 12.941 117.79 12.9665L117.158 15.7514H127.492L128.841 9.81951H126.469V9.81875Z" fill="white"/>
<path d="M137.29 9.80898C137.014 10.984 136.871 11.6385 136.632 12.2696C136.425 12.8177 135.873 13.0353 135.223 13.0311C135.013 13.03 134.772 13.0391 134.565 13.0166C134.18 12.9747 133.81 12.8207 133.671 12.6374C133.513 12.4255 133.373 12.1355 133.487 11.6369C133.736 10.5503 135.116 4.45061 135.154 4.27567C135.327 3.7558 135.703 3.22908 136.833 3.22908L137.568 0.12207H131.771C131.498 0.12207 131.221 0.355324 131.156 0.640413L130.569 3.23556C130.597 3.23556 131.874 3.24928 131.511 4.90874C131.417 5.33599 131.182 6.36467 130.9 7.59878C130.899 7.59802 130.897 7.59726 130.896 7.59688C130.589 8.93542 130.226 10.5172 129.924 11.8435C129.853 12.0478 129.763 12.2387 129.637 12.4106C129.333 12.8207 128.898 12.9316 128.611 12.9572L127.98 15.7421H138.314L139.662 9.81012H137.29V9.80898H137.29Z" fill="white"/>
<path d="M103.386 0.136719C103.07 0.136719 98.2597 0.137862 98.2597 0.137862C97.9868 0.137862 97.7111 0.371498 97.6475 0.656205L97.0705 3.24525C97.1015 3.24525 98.3758 3.26164 98.0193 4.91614C97.8291 5.8099 97.0424 9.29423 96.4769 11.8429C96.405 12.0449 96.3182 12.2362 96.1912 12.4073C95.8767 12.8338 95.4191 12.9367 95.1345 12.9554L94.5039 15.7361C95.8108 15.7354 101.786 15.7323 102.081 15.7323C103.649 15.7323 105.437 15.0421 106.192 11.8303C106.861 8.69052 107.556 5.78399 107.556 5.78399C108.12 2.83477 106.022 0.136719 103.386 0.136719ZM104.145 5.36245C104.058 5.74702 103.882 6.5333 103.685 7.4202C103.33 9.008 102.89 10.983 102.778 11.4389C102.519 12.479 102.17 12.8136 101.342 12.8136C101.227 12.8136 99.995 12.8205 99.8317 12.8167L101.936 3.35845H102.962C103.346 3.35845 103.698 3.53911 103.929 3.85392C104.203 4.22896 104.278 4.76445 104.145 5.36245Z" fill="white"/>
<path d="M152.606 12.9587C152.199 12.9587 151.699 12.9503 151.332 11.6438C150.45 8.51581 148.497 0.162109 148.497 0.162109H146.015L146.012 0.165158C145.746 0.181547 145.45 0.405273 145.344 0.680452L140.757 12.1709C140.443 12.8089 139.867 12.9347 139.432 12.9591L138.8 15.7486H144.083L144.743 12.8459L143.824 12.8432C143.72 12.8432 143.648 12.775 143.606 12.7109C143.503 12.5509 143.449 12.2494 143.563 11.9346C143.66 11.6644 143.706 11.5683 143.76 11.4574L143.764 11.4482H147.564L147.571 11.4749C147.597 11.5839 147.637 11.7471 147.718 12.1034C147.764 12.3111 147.741 12.5105 147.658 12.624C147.548 12.7712 147.405 12.8451 147.234 12.8451H146.695L146.038 15.7478L152.095 15.7509L152.728 12.9575C152.687 12.9587 152.749 12.9587 152.606 12.9587ZM144.424 9.66074L146.056 5.58641L147.155 9.66074H144.424Z" fill="white"/>
<path d="M205.543 12.9587C205.136 12.9587 204.635 12.9503 204.268 11.6438C203.386 8.51581 201.433 0.162109 201.433 0.162109H198.951L198.948 0.165158C198.682 0.181547 198.386 0.405273 198.281 0.680452L193.694 12.1709C193.381 12.8093 192.804 12.9347 192.369 12.9594L191.736 15.749H197.02L197.681 12.8463L196.76 12.8436C196.656 12.8436 196.584 12.775 196.544 12.7109C196.441 12.5516 196.386 12.2502 196.499 11.9353C196.596 11.6644 196.643 11.5683 196.697 11.4574L196.701 11.4486H200.501L200.508 11.4753C200.534 11.5839 200.574 11.7474 200.654 12.1042C200.701 12.3119 200.678 12.5109 200.594 12.6244C200.485 12.7719 200.343 12.8455 200.17 12.8455H199.632L198.975 15.7482L205.032 15.7513L205.664 12.9579C205.625 12.9587 205.686 12.9587 205.543 12.9587ZM197.36 9.66074L198.992 5.58641L200.091 9.66074H197.36Z" fill="white"/>
<path d="M48.9252 0.141602C48.6529 0.141602 48.377 0.375618 48.3126 0.660326L47.7247 3.23603C47.7539 3.23603 49.0742 3.12779 48.7413 4.671C48.7042 4.84175 48.5297 5.67948 48.5297 5.67948C48.1987 7.13389 47.6569 9.73208 47.1207 11.8531C47.0675 12.0642 46.9626 12.2483 46.8346 12.4198C46.3781 13.0316 45.7655 12.9668 45.7655 12.9668L45.1289 15.7498H51.1981L51.837 12.9603C51.4666 12.9603 50.3507 13.0331 50.7038 11.4662C50.8278 10.9163 52.0519 5.51902 52.244 4.70873C52.3807 4.09968 52.5821 3.23069 54.0384 3.23069L54.7424 0.141983L48.9252 0.141602Z" fill="white"/>
<path d="M55.9685 0.141602C55.6963 0.141602 55.4203 0.375618 55.3563 0.660326L54.774 3.24518C54.801 3.24518 56.0782 3.25966 55.7199 4.91836C55.527 5.81059 54.7321 9.30407 54.1606 11.8531C54.0906 12.0578 54.0022 12.2483 53.8768 12.4198C53.3881 13.0796 52.5572 12.9668 52.5572 12.9668L51.9277 15.7498H62.5635L63.7767 10.3312H61.4057C61.2166 11.2052 61.1177 11.7837 60.8698 12.2788C60.5998 12.8185 60.1231 13.0537 59.436 13.0537C58.8605 13.0537 58.4519 12.7819 58.1389 12.4099C57.8491 12.0601 57.7667 11.5307 57.8741 11.0325C57.997 10.4627 58.1434 9.84223 58.2179 9.48739C58.3553 8.83756 58.5141 8.51055 59.0586 8.53532C59.3428 8.54866 59.6839 8.87987 59.5892 9.41574C59.5581 9.5842 59.3937 10.3556 59.3937 10.3556H60.6171L61.7311 5.52855H60.468C60.468 5.52855 60.3755 5.94208 60.2482 6.52674C60.1744 6.8671 59.8251 7.10264 59.5105 7.08282C59.0174 7.05195 58.8889 6.58658 58.9795 6.16124C59.0473 5.84146 59.1634 5.23813 59.2608 4.76171C59.5386 3.41021 60.3321 3.12893 61.1997 3.14837C61.9067 3.16628 62.2594 3.62898 62.4316 3.99372C62.5762 4.29939 62.6818 4.76476 62.4893 5.57048H64.6893L65.9033 0.141983L55.9685 0.141602Z" fill="white"/>
<path d="M88.0255 5.5701L89.2395 0.141602H79.3051C79.0332 0.141602 78.7573 0.375618 78.6929 0.660326L78.1106 3.24518C78.1379 3.24518 79.4156 3.25966 79.0568 4.91836C78.8636 5.81059 78.069 9.30407 77.4976 11.8531C77.4276 12.0578 77.3396 12.2483 77.2137 12.4198C76.9063 12.8357 76.4633 12.9443 76.1772 12.9679L75.5459 15.749H85.9001L87.1133 10.3305H84.7419C84.5531 11.2044 84.4539 11.783 84.2064 12.2777C83.9364 12.8174 83.4597 13.0529 82.7726 13.0529C82.1967 13.0529 81.7881 12.7812 81.4755 12.4088C81.1856 12.0589 81.1036 11.5299 81.2107 11.0318C81.3335 10.462 81.4796 9.84147 81.5545 9.48625C81.6919 8.83642 81.8499 8.5094 82.3944 8.53494C82.679 8.54752 83.0201 8.87872 82.9254 9.41498C82.8947 9.58306 82.7303 10.3549 82.7303 10.3549H83.954L85.068 5.52779H83.805C83.805 5.52779 83.7125 5.94132 83.5848 6.52598C83.5114 6.86633 83.1616 7.10187 82.8471 7.08206C82.3539 7.05118 82.2255 6.58582 82.3161 6.16047C82.3839 5.8407 82.5003 5.23737 82.5973 4.76095C82.8756 3.40945 83.6687 3.12817 84.5367 3.14761C85.2436 3.16552 85.5964 3.62822 85.7686 3.99296C85.9128 4.29863 86.0188 4.764 85.8263 5.56971H88.0255V5.5701Z" fill="white"/>
<path d="M118.426 5.5701L119.64 0.141602H109.706C109.433 0.141602 109.158 0.375618 109.093 0.660326L108.51 3.24518C108.537 3.24518 109.815 3.25966 109.456 4.91836C109.263 5.81059 108.468 9.30407 107.898 11.8531C107.827 12.0578 107.739 12.2483 107.613 12.4198C107.306 12.8357 106.863 12.9443 106.576 12.9679L105.944 15.749H116.299L117.512 10.3305H115.14C114.952 11.2044 114.853 11.783 114.605 12.2777C114.335 12.8174 113.858 13.0529 113.171 13.0529C112.595 13.0529 112.187 12.7812 111.874 12.4088C111.584 12.0589 111.502 11.5299 111.609 11.0318C111.732 10.462 111.878 9.84147 111.953 9.48625C112.091 8.83642 112.249 8.5094 112.793 8.53494C113.078 8.54752 113.419 8.87872 113.324 9.41498C113.293 9.58306 113.129 10.3549 113.129 10.3549H114.352L115.467 5.52779H114.204C114.204 5.52779 114.111 5.94132 113.984 6.52598C113.91 6.86633 113.56 7.10187 113.246 7.08206C112.753 7.05118 112.624 6.58582 112.714 6.16047C112.782 5.8407 112.898 5.23737 112.995 4.76095C113.274 3.40945 114.066 3.12817 114.935 3.14761C115.642 3.16552 115.995 3.62822 116.167 3.99296C116.311 4.29863 116.418 4.764 116.225 5.56971H118.426V5.5701Z" fill="white"/>
<path d="M181.033 5.5701L182.247 0.141602H172.314C172.041 0.141602 171.765 0.375618 171.7 0.660326L171.118 3.24518C171.145 3.24518 172.423 3.25966 172.064 4.91836C171.871 5.81059 171.077 9.30407 170.505 11.8531C170.434 12.0578 170.347 12.2483 170.221 12.4198C169.914 12.8357 169.471 12.9443 169.184 12.9679L168.553 15.749H178.907L180.12 10.3305H177.748C177.559 11.2044 177.46 11.783 177.213 12.2777C176.943 12.8174 176.466 13.0529 175.779 13.0529C175.203 13.0529 174.795 12.7812 174.482 12.4088C174.191 12.0589 174.11 11.5299 174.218 11.0318C174.34 10.462 174.486 9.84147 174.561 9.48625C174.698 8.83642 174.857 8.5094 175.401 8.53494C175.686 8.54752 176.027 8.87872 175.932 9.41498C175.9 9.58306 175.737 10.3549 175.737 10.3549H176.961L178.076 5.52779H176.812C176.812 5.52779 176.72 5.94132 176.592 6.52598C176.518 6.86633 176.169 7.10187 175.854 7.08206C175.361 7.05118 175.232 6.58582 175.323 6.16047C175.39 5.8407 175.506 5.23737 175.604 4.76095C175.882 3.40945 176.675 3.12817 177.543 3.14761C178.25 3.16552 178.603 3.62822 178.776 3.99296C178.919 4.29863 179.026 4.764 178.832 5.56971H181.033V5.5701Z" fill="white"/>
</g>
<defs>
<clipPath id="clip0_299_2397">
<rect width="205" height="16" fill="white" transform="translate(0.664062)"/>
</clipPath>
</defs>
</svg>
