<svg width="109" height="40" viewBox="0 0 109 40" fill="none" xmlns="http://www.w3.org/2000/svg">
<g clip-path="url(#clip0_367_11786)">
<path d="M102.901 0.664952C100.075 0.664952 97.803 2.93687 97.803 5.76292C97.803 8.58897 100.075 10.8609 102.901 10.8609C105.727 10.8609 107.999 8.58897 107.999 5.76292C107.999 2.93687 105.727 0.664952 102.901 0.664952ZM102.901 11.415C99.7424 11.415 97.1934 8.86603 97.1934 5.70751C97.1934 2.54898 99.7424 0 102.901 0C106.06 0 108.609 2.54898 108.609 5.70751C108.609 8.86603 106.06 11.415 102.901 11.415Z" fill="white"/>
<path d="M103.456 5.04295H105.007L105.617 2.43854H104.453C104.231 2.43854 104.12 2.77102 104.12 2.77102C103.899 2.60478 103.677 2.49395 103.4 2.43854C102.292 2.16148 101.128 2.88184 100.851 3.93468L100.242 6.64991C100.075 7.70275 100.74 8.64476 101.793 8.86641C102.901 9.14348 104.065 8.58935 104.398 7.59192C104.398 7.59192 104.453 7.42568 104.453 7.37027L104.73 6.09578H103.511C103.289 6.09578 103.123 6.26202 103.123 6.42825L103.068 6.64991L102.957 7.20403C102.846 7.53651 102.513 7.75816 102.181 7.64733C101.849 7.59192 101.627 7.25945 101.682 6.92697L102.347 4.15633C102.458 3.82386 102.791 3.60221 103.123 3.71303C103.456 3.82386 103.622 4.10093 103.566 4.43341L103.456 5.04295ZM94.8111 5.7079C94.8111 5.59707 94.8111 5.54166 94.8111 5.43084H0V5.92955H94.8111C94.8111 5.87414 94.8111 5.81872 94.8111 5.7079ZM12.3016 38.9556C8.58897 38.9556 6.59411 38.7893 5.09797 38.7893C3.43559 38.7893 1.27449 38.9556 0.166238 39.011C0 39.011 0 38.9556 0 38.6785V38.2352C0 38.069 0 38.0135 0.166238 37.9581C0.997429 37.8473 2.10568 37.6811 2.93687 37.5148C3.38018 37.404 3.43559 37.2932 3.43559 36.5728V11.2492C3.43559 10.8059 3.38017 10.6397 3.0477 10.5288C2.21651 10.3626 1.27449 10.2518 0.277064 10.0855C0.110825 10.0301 0.110825 9.91926 0.110825 9.86384V9.2543C0.166238 9.08806 0.166238 9.03266 0.387889 9.03266C1.93944 9.14349 3.60183 9.36513 5.15338 9.36513C6.81576 9.36513 9.25392 9.19889 11.6367 9.19889C20.3919 9.19889 25.2128 15.2389 25.2128 23.9387C25.2128 32.5831 20.6689 38.9556 12.3016 38.9556ZM11.138 10.5842C9.64181 10.5842 8.20108 10.6951 7.4253 10.7505C7.09283 10.7505 7.03741 10.8613 7.03741 11.1938V36.5174C7.03741 37.0715 7.09283 37.1824 7.4253 37.2378C8.25649 37.404 10.1405 37.4594 11.3042 37.4594C18.2308 37.4594 21.2231 30.7545 21.2231 24.0495C21.2785 16.6796 17.9537 10.5842 11.138 10.5842ZM40.008 39.6205C31.0311 39.6205 27.5955 31.1424 27.5955 24.3266C27.5955 17.5662 31.1419 9.03266 40.008 9.03266C48.7078 9.03266 52.1988 17.6771 52.1988 24.3266C52.1988 31.087 48.8186 39.6205 40.008 39.6205ZM39.7863 10.4734C34.0788 10.4734 31.5852 17.6217 31.5852 24.3266C31.5852 30.9761 34.0234 38.1798 39.8417 38.1798C45.6601 38.1798 48.2645 31.0315 48.2645 24.3266C48.2645 17.7325 45.6601 10.4734 39.7863 10.4734ZM74.8072 10.0855C74.3084 10.2518 73.6989 10.3072 72.9231 10.4734C72.4244 10.5842 72.369 10.6397 72.0919 11.4709C69.2659 19.3949 66.1074 28.5934 63.9463 35.1321C63.4475 36.6836 63.0597 38.069 62.7272 38.9001C62.5609 39.3989 62.4501 39.6759 62.2839 39.6759C62.1176 39.6759 62.0068 39.288 61.8406 38.9001C60.0674 33.248 55.1911 18.2312 53.0854 11.8587C52.5312 10.2518 51.4784 9.36513 49.5944 9.47595C49.2065 9.47595 49.2065 9.36513 49.2065 9.19889C49.2065 9.03265 49.2619 8.75559 49.3173 8.64476C49.3173 8.64476 49.3727 8.53394 49.5944 8.47852C52.6975 7.4811 55.5235 7.59193 56.9088 11.9142C57.74 14.5186 59.1808 18.7853 60.5107 23.0521C61.7852 27.0972 62.8934 30.7545 63.2813 31.9181C63.4475 32.5277 63.5584 32.8047 63.6692 32.8047C63.7246 32.8047 63.8354 32.5277 63.9463 32.029C65.2762 27.8176 68.1022 18.342 69.82 11.5817C69.9862 10.8059 69.9862 10.6951 69.4875 10.6397C68.7118 10.5842 67.0494 10.3626 66.6615 10.3072C66.3844 10.2518 66.329 10.1409 66.329 10.0301C66.329 9.91927 66.3844 9.58678 66.3844 9.36513C66.4398 9.19889 66.4952 9.19889 66.6061 9.19889C67.7143 9.36513 70.3741 9.42055 71.2053 9.42055C72.7569 9.42055 73.8097 9.30972 74.6409 9.2543C74.8071 9.2543 74.918 9.25431 74.918 9.42055C74.9734 9.6422 74.9734 9.86385 74.9734 10.0301C75.0288 9.97468 74.9734 10.0301 74.8072 10.0855ZM94.8111 36.0741C94.7557 37.2378 94.7557 38.4568 94.7557 38.9001C94.7557 39.288 94.6449 39.288 94.257 39.288C93.2042 39.2326 84.0057 39.1218 81.4013 39.0664C79.2956 39.011 76.8574 39.1218 76.4141 39.1772C76.1925 39.1772 76.1371 39.1772 76.1371 39.011V38.4568C76.1371 38.2906 76.1925 38.2352 76.4141 38.2352C77.2453 38.069 78.2981 37.9581 79.1848 37.7919C79.5726 37.7365 79.6281 37.6257 79.6281 37.0715V11.5817C79.6281 10.8613 79.5172 10.5842 79.1293 10.5288C78.2982 10.3626 77.0237 10.2518 76.2479 10.0855C76.0816 10.0855 76.0262 9.91926 76.0262 9.86384C76.0262 9.6976 76.0816 9.36513 76.0816 9.2543C76.1371 9.08806 76.1371 9.03265 76.3587 9.08806C77.7994 9.19889 79.9051 9.2543 81.4013 9.30972C82.9528 9.30972 92.8163 9.19889 93.9799 9.14348C94.2016 9.08806 94.3124 9.14348 94.3124 9.47595C94.3124 10.9167 94.4232 13.4657 94.5895 14.9619C94.5895 15.1281 94.5895 15.2389 94.4787 15.2389C94.3678 15.3497 94.0908 15.3497 93.9245 15.3497C93.8691 15.3497 93.7583 15.2943 93.7029 15.0173C93.4812 13.909 93.315 11.9696 93.0379 11.1938C92.9271 10.8613 92.7609 10.7505 92.2067 10.6951C90.2673 10.4734 86.0559 10.5842 83.7286 10.5842C83.2853 10.5842 83.2299 10.6397 83.2299 11.3046V22.8305C83.2299 23.2738 83.2853 23.3292 83.5069 23.3292C85.8343 23.3292 89.4915 22.9967 90.8214 22.8305C91.2093 22.775 91.2647 22.7196 91.3755 22.1101C91.4864 21.3897 91.6526 20.2261 91.7634 19.4503C91.8189 19.2286 91.8743 19.1178 91.9851 19.1178H92.2622C92.4284 19.1178 92.4284 19.1732 92.4284 19.5611C92.373 20.3923 92.2622 22.7196 92.2622 23.9941C92.2622 25.5457 92.3176 27.5959 92.373 28.6488C92.373 28.815 92.373 28.9813 92.3176 29.0367C92.2622 29.0367 91.9297 29.0921 91.9297 29.0921C91.7634 29.0921 91.7634 28.9813 91.708 28.7596C91.5972 28.1501 91.3201 25.8227 91.3201 25.324C91.2647 24.8807 91.2647 24.7699 90.8214 24.7699C88.6049 24.6591 86.8871 24.6037 83.6178 24.6037C83.3407 24.6037 83.2853 24.6037 83.2853 25.047V37.2932C83.2853 37.7365 83.3407 37.7919 83.6732 37.7919C88.0508 37.8473 90.8768 37.7919 92.9825 37.4594C93.315 37.404 93.3704 37.2932 93.5366 36.9053C93.9245 35.9079 94.0908 34.0792 94.257 33.0818C94.3124 32.8602 94.3678 32.7493 94.4787 32.6939C94.5895 32.6385 94.7557 32.6939 94.8665 32.7493C94.922 32.7493 94.9774 32.8602 94.9774 33.0264C94.922 33.5251 94.8666 34.9658 94.8111 36.0741Z" fill="white"/>
</g>
<defs>
<clipPath id="clip0_367_11786">
<rect width="109" height="40" fill="white"/>
</clipPath>
</defs>
</svg>
