<svg width="140" height="38" viewBox="0 0 140 38" fill="none" xmlns="http://www.w3.org/2000/svg">
<g clip-path="url(#clip0_367_11814)">
<mask id="mask0_367_11814" style="mask-type:luminance" maskUnits="userSpaceOnUse" x="0" y="0" width="140" height="38">
<path d="M140 0H0V37.6923H140V0Z" fill="white"/>
</mask>
<g mask="url(#mask0_367_11814)">
<path d="M112.606 35.7362C112.636 36.0773 112.717 36.3711 112.856 36.621C112.992 36.8685 113.173 37.0716 113.399 37.2321C113.626 37.3916 113.891 37.5086 114.197 37.5816C114.503 37.655 114.844 37.692 115.218 37.692C115.612 37.692 115.953 37.6443 116.245 37.5512C116.538 37.4576 116.778 37.3271 116.971 37.1619C117.164 36.9976 117.31 36.8044 117.408 36.585C117.508 36.3632 117.556 36.1269 117.556 35.8742C117.556 35.3198 117.401 34.9019 117.093 34.6165C116.785 34.332 116.3 34.1261 115.642 34.0036L114.751 33.8426C114.531 33.8033 114.347 33.7532 114.199 33.6943C114.051 33.6362 113.931 33.5651 113.837 33.4837C113.748 33.4014 113.68 33.3036 113.642 33.1889C113.603 33.0748 113.583 32.9409 113.583 32.7893C113.583 32.6485 113.609 32.5161 113.661 32.3893C113.71 32.2639 113.795 32.1558 113.914 32.065C114.032 31.9747 114.19 31.9027 114.387 31.8498C114.581 31.7974 114.824 31.7698 115.114 31.7698C115.37 31.7698 115.586 31.7941 115.766 31.8409C115.944 31.8882 116.094 31.956 116.216 32.0463C116.338 32.1385 116.434 32.2527 116.51 32.3907C116.583 32.5287 116.644 32.6869 116.692 32.8623L117.458 32.7126C117.41 32.5077 117.341 32.3069 117.248 32.1085C117.157 31.912 117.021 31.7375 116.845 31.584C116.666 31.4315 116.435 31.3098 116.154 31.2195C115.871 31.1288 115.519 31.0824 115.099 31.0824C114.767 31.0824 114.457 31.1171 114.173 31.1891C113.888 31.2588 113.641 31.3669 113.433 31.5143C113.227 31.6608 113.062 31.8432 112.94 32.0594C112.818 32.2765 112.758 32.5287 112.758 32.8151C112.758 33.1099 112.8 33.3597 112.886 33.5637C112.973 33.7691 113.099 33.9423 113.27 34.0793C113.438 34.2174 113.644 34.3306 113.888 34.42C114.133 34.5075 114.411 34.5777 114.726 34.6296L115.526 34.7704C115.764 34.8126 115.958 34.8673 116.109 34.9384C116.26 35.0077 116.38 35.09 116.467 35.1841C116.551 35.2772 116.61 35.3815 116.639 35.4966C116.669 35.6108 116.683 35.7301 116.683 35.8522C116.683 36.0057 116.661 36.1503 116.613 36.2892C116.566 36.4273 116.485 36.5471 116.373 36.65C116.261 36.7534 116.109 36.8344 115.924 36.8961C115.736 36.9574 115.502 36.9878 115.225 36.9878C114.666 36.9878 114.247 36.89 113.966 36.6916C113.683 36.4951 113.506 36.176 113.434 35.7367L112.606 35.7362ZM106.167 35.7362C106.196 36.0773 106.28 36.3711 106.417 36.621C106.553 36.8685 106.735 37.0716 106.96 37.2321C107.187 37.3916 107.452 37.5086 107.758 37.5816C108.064 37.655 108.405 37.692 108.78 37.692C109.172 37.692 109.516 37.6443 109.806 37.5512C110.098 37.4576 110.339 37.3271 110.534 37.1619C110.727 36.9976 110.873 36.8044 110.971 36.585C111.069 36.3632 111.117 36.1269 111.117 35.8742C111.117 35.3198 110.965 34.9019 110.655 34.6165C110.345 34.3311 109.862 34.1261 109.203 34.0036L108.312 33.8426C108.092 33.8033 107.909 33.7532 107.76 33.6943C107.612 33.6362 107.493 33.5651 107.4 33.4837C107.307 33.4014 107.242 33.3036 107.204 33.1889C107.165 33.0748 107.146 32.9409 107.146 32.7893C107.146 32.6485 107.171 32.5161 107.222 32.3893C107.272 32.2639 107.356 32.1558 107.474 32.065C107.594 31.9747 107.752 31.9027 107.946 31.8498C108.143 31.7974 108.387 31.7698 108.678 31.7698C108.931 31.7698 109.15 31.7941 109.328 31.8409C109.506 31.8877 109.654 31.956 109.776 32.0463C109.9 32.1385 109.997 32.2527 110.071 32.3907C110.145 32.5287 110.205 32.6869 110.253 32.8623L111.019 32.7126C110.972 32.5077 110.902 32.3069 110.81 32.1085C110.718 31.912 110.583 31.7375 110.406 31.584C110.228 31.4315 109.997 31.3098 109.716 31.2195C109.433 31.1288 109.081 31.0824 108.66 31.0824C108.328 31.0824 108.02 31.1171 107.734 31.1891C107.449 31.2588 107.204 31.3669 106.995 31.5143C106.788 31.6608 106.623 31.8432 106.501 32.0594C106.378 32.2765 106.318 32.5287 106.318 32.8151C106.318 33.1099 106.362 33.3597 106.447 33.5637C106.533 33.7691 106.661 33.9423 106.83 34.0793C106.998 34.2174 107.206 34.3306 107.45 34.42C107.693 34.5075 107.972 34.5777 108.287 34.6296L109.088 34.7704C109.325 34.8126 109.52 34.8673 109.671 34.9384C109.823 35.0077 109.941 35.09 110.028 35.1841C110.114 35.2772 110.172 35.3815 110.2 35.4966C110.23 35.6108 110.246 35.7301 110.246 35.8522C110.246 36.0057 110.223 36.1503 110.174 36.2892C110.127 36.4273 110.046 36.5471 109.935 36.65C109.82 36.7534 109.671 36.8344 109.484 36.8961C109.297 36.9574 109.064 36.9878 108.785 36.9878C108.226 36.9878 107.808 36.89 107.523 36.6916C107.242 36.4951 107.066 36.176 106.994 35.7367L106.167 35.7362ZM100.637 37.5329H104.797L104.929 36.8273H101.466V34.6516H104.581V33.9277H101.466V31.9457H104.76V31.2406H100.637V37.5329ZM93.6812 37.5329H94.4745V32.5624L97.7341 37.5329H98.5156V31.2406H97.7251V36.2382L94.4911 31.2406H93.6812V37.5329ZM87.963 37.5329H91.9615L92.0863 36.81H88.7923V31.2406H87.963V37.5329ZM82.2456 37.5329H86.2443L86.3681 36.81H83.0731V31.2406H82.2456V37.5329ZM76.2433 37.5329H80.4027L80.5365 36.8273H77.0708V34.6516H80.1884V33.9277H77.0708V31.9457H80.3667V31.2406H76.2433V37.5329ZM68.4509 37.5329H69.2887L70.6769 32.2723L72.0925 37.5329H72.9577L74.7199 31.2406H73.8481L72.5303 36.4137L71.1596 31.2668H70.2769L68.8967 36.4137L67.5705 31.2406H66.6438L68.4509 37.5329ZM60.1237 37.5329H60.9515V31.963H63.0537V31.2406H58.0225V31.963H60.1237V37.5329ZM56.1521 35.4625C56.1166 35.6861 56.0599 35.8911 55.9833 36.0792C55.9043 36.2663 55.7994 36.4287 55.665 36.5648C55.5318 36.6987 55.362 36.8039 55.1573 36.876C54.9516 36.9504 54.7033 36.9864 54.4117 36.9864C54.0892 36.9864 53.8054 36.9242 53.5587 36.8011C53.3128 36.6781 53.1038 36.5017 52.935 36.2715C52.7643 36.0427 52.6353 35.7694 52.5454 35.4489C52.457 35.127 52.4121 34.7737 52.4121 34.3863C52.4121 33.9989 52.457 33.6442 52.5454 33.3237C52.6353 33.0041 52.7643 32.7299 52.935 32.5049C53.1038 32.2779 53.3128 32.1015 53.5587 31.9761C53.8054 31.8493 54.0872 31.7857 54.4031 31.7857C54.6707 31.7857 54.8986 31.8189 55.0864 31.8877C55.2736 31.9546 55.4338 32.0533 55.5681 32.1825C55.7024 32.3116 55.8121 32.4688 55.8982 32.6546C55.9847 32.8399 56.0551 33.0458 56.1081 33.276L56.909 33.1435C56.8443 32.8389 56.7502 32.5587 56.6287 32.3065C56.5062 32.0533 56.3459 31.8367 56.1469 31.6542C55.9468 31.4717 55.7052 31.3314 55.4192 31.2317C55.1345 31.1302 54.795 31.0815 54.4027 31.0815C53.9988 31.0815 53.622 31.155 53.2735 31.3019C52.926 31.4483 52.6249 31.6631 52.3681 31.9457C52.1128 32.2274 51.9128 32.5746 51.7695 32.9868C51.6277 33.3981 51.5563 33.8669 51.5563 34.3952C51.5563 34.9188 51.6234 35.3839 51.7572 35.7933C51.891 36.2008 52.0792 36.5461 52.3232 36.8287C52.5672 37.1104 52.8646 37.3257 53.2149 37.4721C53.5653 37.6186 53.9611 37.6925 54.4017 37.6925C54.8055 37.6925 55.1615 37.6377 55.467 37.525C55.7733 37.415 56.0343 37.2578 56.2475 37.0585C56.4622 36.8582 56.631 36.6229 56.7568 36.3487C56.882 36.0754 56.9615 35.7806 56.9979 35.4625H56.1521ZM45.8665 37.5329H50.0254L50.1577 36.8273H46.6943V34.6516H49.8102V33.9277H46.6943V31.9457H49.9889V31.2406H45.8665V37.5329ZM40.1303 37.5329H40.9582V34.748H43.8887V34.0166H40.9582V31.9457H44.085V31.2406H40.1303V37.5329ZM34.6003 34.2183V31.9284H35.8509C36.1549 31.9284 36.4041 31.9527 36.6021 32.0014C36.7984 32.0501 36.9549 32.1263 37.0702 32.2222C37.1871 32.3186 37.2693 32.4337 37.3166 32.5676C37.3643 32.7023 37.388 32.8567 37.388 33.0331C37.388 33.2142 37.3668 33.3798 37.3256 33.5258C37.2835 33.6718 37.2088 33.7953 37.1025 33.8987C36.9941 34.0007 36.8495 34.0812 36.6642 34.136C36.4793 34.1912 36.2447 34.2183 35.9582 34.2183H34.6003ZM33.7894 37.5329H34.6003V34.9244H35.8561C35.9265 34.9244 36.0064 34.9234 36.0963 34.9202C36.1852 34.9164 36.2679 34.9094 36.3449 34.8982L37.5473 37.5329H38.4646L37.1284 34.7035C37.5138 34.5444 37.7918 34.325 37.961 34.0428C38.1298 33.7602 38.2155 33.4196 38.2155 33.0205C38.2155 32.802 38.1828 32.5881 38.1171 32.3767C38.0523 32.1656 37.9317 31.9766 37.7572 31.8086C37.5809 31.6402 37.3431 31.504 37.04 31.3987C36.7369 31.2916 36.3483 31.2397 35.8726 31.2397H33.7885L33.7894 37.5329ZM27.788 37.5329H31.9469L32.0792 36.8273H28.6159V34.6516H31.7326V33.9277H28.6159V31.9457H31.9104V31.2406H27.788V37.5329ZM22.4164 34.4036V31.9293H23.7133C24.0149 31.9293 24.2651 31.9532 24.4632 32.0023C24.6613 32.0524 24.8192 32.1287 24.9383 32.2269C25.0566 32.3266 25.1393 32.4534 25.187 32.6069C25.2334 32.7589 25.257 32.9353 25.257 33.1351C25.257 33.3293 25.2357 33.5034 25.1913 33.6601C25.1469 33.8159 25.0679 33.9497 24.9554 34.0602C24.8428 34.1715 24.6868 34.2576 24.4854 34.317C24.283 34.3746 24.0296 34.4036 23.7218 34.4036H22.4164ZM21.6064 37.5329H22.4164V35.0919H23.735C24.1979 35.0919 24.5818 35.0395 24.8844 34.9328C25.1875 34.8261 25.4277 34.6825 25.6055 34.5014C25.7837 34.3194 25.9076 34.1065 25.979 33.8664C26.0504 33.6255 26.0859 33.3723 26.0859 33.1089C26.0859 32.8549 26.0514 32.6162 25.9833 32.3907C25.9157 32.1652 25.7937 31.9663 25.6182 31.796C25.4438 31.6252 25.2031 31.4909 24.8967 31.3903C24.5913 31.2907 24.2036 31.2411 23.735 31.2411H21.6064V37.5329Z" fill="white"/>
<path d="M140 7.36338C140 6.07618 138.954 5.06972 137.64 5.06972C136.297 5.06972 135.237 6.07618 135.237 7.36338C135.237 8.64964 136.297 9.67014 137.624 9.67014C138.954 9.67014 140 8.64964 140 7.36338ZM139.406 7.37695C139.406 8.38434 138.642 9.20787 137.64 9.19477C136.608 9.19477 135.83 8.38434 135.83 7.36338C135.83 6.35458 136.608 5.5292 137.612 5.5292C138.642 5.5292 139.406 6.35505 139.406 7.37695ZM138.161 7.43263V7.40502C138.43 7.32033 138.642 7.13879 138.642 6.85899C138.642 6.63533 138.543 6.46734 138.403 6.37003C138.247 6.2582 138.05 6.18801 137.611 6.18801C137.23 6.18801 136.933 6.22825 136.72 6.2582V8.55091H137.257V7.64318H137.513C137.808 7.64318 137.95 7.75408 137.992 7.99177C138.062 8.27158 138.106 8.46763 138.176 8.55091H138.742C138.699 8.46763 138.642 8.3413 138.57 7.99177C138.5 7.68482 138.388 7.50282 138.161 7.43263ZM138.062 6.92963C138.062 7.16639 137.823 7.26512 137.527 7.26512H137.272V6.60819C137.327 6.59368 137.427 6.57964 137.568 6.57964C137.907 6.57964 138.062 6.72002 138.062 6.92963ZM127.751 21.0701H133.06V5.06972H127.751V21.0701ZM127.751 3.94161H133.06V0.240042H127.751V3.94161ZM125.436 13.2482C125.436 8.05307 121.515 4.65095 116.416 4.65095C113.431 4.65095 111.228 5.60594 110.202 7.04006H110.143V0.239106H104.834V21.0701H109.962V19.0693H110.023C112.042 21.2184 113.823 21.6657 116.056 21.6657C121.305 21.6653 125.436 18.8597 125.436 13.2482ZM119.946 13.1593C119.946 16.2039 117.623 17.7849 114.938 17.7849C112.284 17.7849 109.962 16.2039 109.962 13.1593C109.962 10.1132 112.284 8.5322 114.938 8.5322C117.623 8.5322 119.946 10.1132 119.946 13.1593ZM96.5462 21.0701H101.854V5.06972H96.5462V21.0701ZM96.5462 3.94161H101.854V0.240042H96.5462V3.94161ZM93.5335 19.7867V5.06972H88.4043V7.00918H88.3451C86.958 5.30883 84.5447 4.65095 82.191 4.65095C75.435 4.65095 72.5697 8.2931 72.5697 12.6516C72.5697 16.771 75.435 20.6509 81.7683 20.6509C84.4529 20.6509 86.7154 19.9644 88.2223 18.2926V19.577C88.2223 23.4564 85.9607 23.4335 83.3362 23.4335C80.2591 23.4335 79.2341 22.9613 78.9017 21.6489H73.2336C73.7754 26.4842 79.174 26.7163 83.1561 26.7163C89.915 26.7163 93.5335 25.307 93.5335 19.7867ZM88.2241 12.7414C88.2241 16.4126 85.4804 17.128 83.1277 17.128C80.8052 17.128 78.0596 16.4121 78.0596 12.7414C78.0596 9.06985 80.8052 8.35253 83.1277 8.35253C85.4804 8.35253 88.2241 9.06985 88.2241 12.7414ZM55.0884 14.4727H70.6534V13.9935C70.6534 7.96557 67.2738 4.47221 60.2771 4.47221C53.8818 4.47221 49.599 7.04006 49.599 13.0694C49.599 19.0998 53.8818 21.6657 60.2771 21.6657C65.1333 21.6657 68.8118 20.0843 70.3508 16.2942H64.6808C63.9262 17.667 62.4185 18.3829 60.2771 18.3829C56.6567 18.3829 55.0884 16.0532 55.0884 14.5312V14.4727ZM55.0884 11.3676V11.3073C55.0884 10.9204 55.9631 7.75595 60.1565 7.75595C64.0468 7.75595 65.1631 10.4436 65.1631 11.3073V11.3676H55.0884ZM46.304 3.28281C47.2094 3.28281 48.0842 3.31369 48.9891 3.34411V0.0603677C47.6908 0.0299541 46.3636 8.36394e-06 45.6402 8.36394e-06C40.6932 8.36394e-06 39.3659 -0.0341482 39.3659 4.26306V5.07019H36.0184V8.59162H39.3665V21.0701H44.6752V8.59162H48.9286V5.07019H44.6752V4.08573C44.6747 3.5336 45.3692 3.28281 46.304 3.28281ZM32.0024 3.28281C32.9064 3.28281 33.7811 3.31369 34.6865 3.34411V0.0603677C33.3887 0.0299541 32.061 8.36394e-06 31.3386 8.36394e-06C26.3905 8.36394e-06 25.0643 -0.0341482 25.0643 4.26306V5.07019H21.7149V8.59162H25.0643V21.0701H30.3731V8.59162H34.6265V5.07019H30.3731V4.08573C30.3731 3.5336 31.0676 3.28281 32.0024 3.28281ZM5.48983 14.4727H21.0539V13.9935C21.0539 7.96557 17.6752 4.47221 10.6775 4.47221C4.28274 4.47221 0 7.04006 0 13.0694C0 19.0998 4.28274 21.6657 10.6775 21.6657C15.5348 21.6657 19.2123 20.0843 20.7513 16.2942H15.0813C14.3277 17.667 12.8199 18.3829 10.6781 18.3829C7.05769 18.3829 5.49031 16.0532 5.49031 14.5312L5.48983 14.4727ZM5.48983 11.3676V11.3073C5.48983 10.9204 6.36453 7.75595 10.5574 7.75595C14.4483 7.75595 15.5632 10.4436 15.5632 11.3073V11.3676H5.48983Z" fill="white"/>
</g>
</g>
<defs>
<clipPath id="clip0_367_11814">
<rect width="140" height="38" fill="white"/>
</clipPath>
</defs>
</svg>
