<svg width="140" height="42" viewBox="0 0 140 42" fill="none" xmlns="http://www.w3.org/2000/svg">
<mask id="mask0_367_11821" style="mask-type:luminance" maskUnits="userSpaceOnUse" x="0" y="0" width="140" height="42">
<path d="M140 0H0V41.087H140V0Z" fill="white"/>
</mask>
<g mask="url(#mask0_367_11821)">
<path d="M61.0491 21.3938H50.1284C50.1284 23.0945 51.4711 24.5268 53.5299 24.5268C55.8573 24.5268 59.0798 23.3631 59.0798 23.3631L59.2588 26.7646C59.2588 26.7646 56.8419 28.1073 52.8138 28.1073C48.0696 28.1073 45.7422 24.7953 45.7422 21.5728C45.7422 15.6649 50.934 11.6367 56.0363 11.6367C60.154 11.6367 62.1233 14.5012 62.1233 17.6342C62.0338 18.8874 61.6757 20.1406 61.0491 21.3938ZM58.0056 18.2608C58.0056 18.1713 58.0056 17.9922 58.0056 17.9027C58.0056 16.4705 57.021 15.1278 55.0517 15.1278C53.1719 15.1278 51.2921 16.739 50.755 18.2608H58.0056Z" fill="white"/>
<path d="M75.9974 27.75H71.7007L73.491 17.6349C73.491 17.4559 73.491 17.2768 73.491 17.0978C73.491 16.1132 73.0434 15.397 71.7902 15.397C69.9999 15.397 68.1201 17.0978 67.9411 17.8139L65.7928 27.75H61.4961L64.8976 11.906H68.5677V13.0697C68.5677 13.0697 70.4475 11.5479 72.9539 11.5479C75.7288 11.5479 77.7877 13.2487 77.7877 16.1132C77.7877 16.4712 77.7877 16.8293 77.6981 17.1873L75.9974 27.75Z" fill="white"/>
<path d="M89.6037 26.4963C89.6037 26.4963 87.6343 28.0181 85.1279 28.0181C80.7418 28.0181 78.5039 24.706 78.5039 21.215C78.5039 16.2917 82.7111 11.458 88.5295 11.458C91.2149 11.458 92.6471 13.0692 92.6471 13.0692L93.1842 11.7265H96.9438L93.3632 28.5551C92.8262 31.3301 91.3044 35.8953 84.3223 35.8953C81.2788 35.8953 78.7725 34.284 78.7725 34.284L80.9208 30.793C80.9208 30.793 82.7111 32.1357 85.1279 32.1357C87.9924 32.1357 88.9771 29.7188 89.2456 28.3761L89.6037 26.4963ZM82.8901 20.7674C82.8901 22.7367 83.9643 24.2585 86.1126 24.2585C89.0666 24.2585 91.0359 21.394 91.0359 18.7981C91.0359 16.7393 89.9617 15.3071 87.9924 15.3071C85.2175 15.3071 82.8901 17.9925 82.8901 20.7674Z" fill="white"/>
<path d="M102.404 27.7502C102.404 27.7502 101.151 28.0188 99.8979 28.0188C98.5552 28.0188 96.5859 27.2132 96.5859 24.6173C96.5859 24.2592 96.6754 23.8116 96.7649 23.2745L100.882 3.93945H105.09L101.151 22.5584C101.061 22.9165 100.972 23.4536 100.972 23.6326C100.972 24.2592 101.419 24.4382 102.404 24.4382V27.7502Z" fill="white"/>
<path d="M118.964 21.3938H108.043C108.043 23.0945 109.386 24.5268 111.445 24.5268C113.772 24.5268 116.995 23.3631 116.995 23.3631L117.174 26.7646C117.174 26.7646 114.757 28.1073 110.729 28.1073C105.985 28.1073 103.657 24.7953 103.657 21.5728C103.657 15.6649 108.849 11.6367 113.951 11.6367C118.069 11.6367 120.038 14.5012 120.038 17.6342C119.859 18.8874 119.501 20.1406 118.964 21.3938ZM115.831 18.2608C115.831 18.1713 115.831 17.9922 115.831 17.9027C115.831 16.4705 114.846 15.1278 112.877 15.1278C110.997 15.1278 109.118 16.739 108.58 18.2608H115.831Z" fill="white"/>
<path d="M133.734 12.9804L135.703 3.93945H140L134.898 27.7502H131.138L131.228 26.4075C131.228 26.4075 129.079 28.0188 126.573 28.0188C122.545 28.0188 119.949 25.0648 119.949 21.2157C119.949 16.2924 124.156 11.4587 129.885 11.4587C132.481 11.5482 133.734 12.9804 133.734 12.9804ZM132.481 18.7093C132.481 16.8295 131.407 15.3078 129.348 15.3078C126.483 15.3078 124.246 18.1722 124.246 20.7681C124.246 22.6479 125.32 24.2592 127.379 24.2592C130.243 24.2592 132.481 21.3947 132.481 18.7093Z" fill="white"/>
<path d="M16.739 37.3273C15.8439 34.4628 17.3656 31.5088 20.1405 30.5242C23.005 29.629 25.959 31.1508 26.9436 33.9257C27.8388 36.7902 26.317 39.7441 23.5421 40.7288C23.005 40.9078 22.4679 40.9973 21.8413 40.9973C19.6035 41.0868 17.4551 39.5651 16.739 37.3273Z" fill="url(#paint0_linear_367_11821)"/>
<path d="M2.77484 32.4041C1.61116 30.8824 1.96922 28.734 3.49096 27.5703C5.0127 26.4962 7.16103 26.8542 8.32472 28.376C9.4884 29.8977 9.13034 32.046 7.6086 33.2097C6.98201 33.6573 6.26589 33.8363 5.54978 33.8363C4.47561 33.8363 3.40144 33.2992 2.77484 32.4041Z" fill="url(#paint1_linear_367_11821)"/>
<path d="M26.1387 21.752C26.1387 18.5295 28.7346 15.9336 31.9571 15.9336C35.1796 15.9336 37.7755 18.5295 37.7755 21.752C37.7755 24.9745 35.1796 27.5704 31.9571 27.5704C28.7346 27.6599 26.1387 24.9745 26.1387 21.752Z" fill="url(#paint2_linear_367_11821)"/>
<path d="M2.23805 17.6345C-0.268345 15.8442 -0.805429 12.4426 0.984852 9.93629C2.77513 7.42989 6.17666 6.89281 8.68306 8.68309C11.1894 10.4733 11.7265 13.8749 9.93626 16.3813C8.86209 17.903 7.16132 18.6191 5.46055 18.6191C4.38638 18.7086 3.2227 18.3506 2.23805 17.6345Z" fill="url(#paint3_linear_367_11821)"/>
<path d="M19.4245 15.3968C15.3069 14.0541 12.9795 9.57832 14.3222 5.46067C15.6649 1.34302 20.1406 -0.984344 24.2583 0.358367C28.3759 1.70108 30.7033 6.17678 29.3606 10.2945C28.2864 13.6065 25.1534 15.7548 21.8414 15.7548C21.0358 15.7548 20.2302 15.6653 19.4245 15.3968Z" fill="url(#paint4_linear_367_11821)"/>
</g>
<defs>
<linearGradient id="paint0_linear_367_11821" x1="140.777" y1="-16.3283" x2="-341.231" y2="194.466" gradientUnits="userSpaceOnUse">
<stop stop-color="#932580"/>
<stop offset="0.0660797" stop-color="#8B428B"/>
<stop offset="0.1776" stop-color="#7D5F9E"/>
<stop offset="0.2942" stop-color="#6E73AD"/>
<stop offset="0.4148" stop-color="#5E82BB"/>
<stop offset="0.5405" stop-color="#4C8EC7"/>
<stop offset="0.6736" stop-color="#3996D0"/>
<stop offset="0.819" stop-color="#279BD6"/>
<stop offset="1" stop-color="#209DD8"/>
</linearGradient>
<linearGradient id="paint1_linear_367_11821" x1="136.213" y1="-26.7683" x2="-345.8" y2="184.028" gradientUnits="userSpaceOnUse">
<stop stop-color="#932580"/>
<stop offset="0.0660797" stop-color="#8B428B"/>
<stop offset="0.1776" stop-color="#7D5F9E"/>
<stop offset="0.2942" stop-color="#6E73AD"/>
<stop offset="0.4148" stop-color="#5E82BB"/>
<stop offset="0.5405" stop-color="#4C8EC7"/>
<stop offset="0.6736" stop-color="#3996D0"/>
<stop offset="0.819" stop-color="#279BD6"/>
<stop offset="1" stop-color="#209DD8"/>
</linearGradient>
<linearGradient id="paint2_linear_367_11821" x1="137.291" y1="-24.3016" x2="-344.722" y2="186.495" gradientUnits="userSpaceOnUse">
<stop stop-color="#932580"/>
<stop offset="0.0660797" stop-color="#8B428B"/>
<stop offset="0.1776" stop-color="#7D5F9E"/>
<stop offset="0.2942" stop-color="#6E73AD"/>
<stop offset="0.4148" stop-color="#5E82BB"/>
<stop offset="0.5405" stop-color="#4C8EC7"/>
<stop offset="0.6736" stop-color="#3996D0"/>
<stop offset="0.819" stop-color="#279BD6"/>
<stop offset="1" stop-color="#209DD8"/>
</linearGradient>
<linearGradient id="paint3_linear_367_11821" x1="129.909" y1="-41.1844" x2="-352.104" y2="169.612" gradientUnits="userSpaceOnUse">
<stop stop-color="#932580"/>
<stop offset="0.0660797" stop-color="#8B428B"/>
<stop offset="0.1776" stop-color="#7D5F9E"/>
<stop offset="0.2942" stop-color="#6E73AD"/>
<stop offset="0.4148" stop-color="#5E82BB"/>
<stop offset="0.5405" stop-color="#4C8EC7"/>
<stop offset="0.6736" stop-color="#3996D0"/>
<stop offset="0.819" stop-color="#279BD6"/>
<stop offset="1" stop-color="#209DD8"/>
</linearGradient>
<linearGradient id="paint4_linear_367_11821" x1="130.568" y1="-39.671" x2="-351.437" y2="171.122" gradientUnits="userSpaceOnUse">
<stop stop-color="#932580"/>
<stop offset="0.0660797" stop-color="#8B428B"/>
<stop offset="0.1776" stop-color="#7D5F9E"/>
<stop offset="0.2942" stop-color="#6E73AD"/>
<stop offset="0.4148" stop-color="#5E82BB"/>
<stop offset="0.5405" stop-color="#4C8EC7"/>
<stop offset="0.6736" stop-color="#3996D0"/>
<stop offset="0.819" stop-color="#279BD6"/>
<stop offset="1" stop-color="#209DD8"/>
</linearGradient>
</defs>
</svg>
