<svg width="150" height="67" viewBox="0 0 150 67" fill="none" xmlns="http://www.w3.org/2000/svg">
<g clip-path="url(#clip0_367_11837)">
<mask id="mask0_367_11837" style="mask-type:luminance" maskUnits="userSpaceOnUse" x="0" y="0" width="150" height="67">
<path d="M150 0H0V66.5625H150V0Z" fill="white"/>
</mask>
<g mask="url(#mask0_367_11837)">
<path d="M10.7654 55.6688C10.5165 54.8033 10.4231 54.4324 10.0498 53.9687C9.67641 53.4123 9.14748 53.2578 7.24954 53.2578H5.07157C4.32483 53.2578 4.23149 53.3196 4.23149 53.876V58.7907H6.96951C9.24083 58.7907 9.36528 58.6361 9.70753 57.2452H10.5165V61.2944H9.70753C9.36528 59.8107 9.24083 59.6252 6.96951 59.6252H4.23149V63.3653C4.23149 65.1272 4.4804 65.22 6.90729 65.3435V65.9927H0V65.3435C2.08463 65.22 2.30243 65.1272 2.30243 63.3653V55.0815C2.30243 53.3196 2.08463 53.2578 0.062228 53.1032V52.4541H11.2943C11.2943 53.2887 11.4499 54.556 11.5433 55.5451L10.7654 55.6688Z" fill="white"/>
<path d="M22.0904 52.1758C26.3218 52.1758 30.2733 54.8959 30.2733 59.0996C30.2733 63.6434 26.4152 66.3635 21.717 66.3635C17.2677 66.3635 13.5029 63.4888 13.5029 59.4397C13.534 55.6686 16.801 52.1758 22.0904 52.1758ZM21.4681 53.0104C18.6678 53.0104 15.9609 54.865 15.9609 58.8524C15.9609 62.7779 18.7301 65.5599 22.3393 65.5599C25.2328 65.5599 27.8775 63.7052 27.8775 59.656C27.8464 55.2668 24.8595 53.0104 21.4681 53.0104Z" fill="white"/>
<path d="M49.0039 60.3676C47.4171 60.553 47.3237 60.6458 47.3237 61.8513V63.6441C47.3237 64.324 47.3237 65.0041 47.5104 65.5914C45.8614 65.9314 43.7768 66.3641 41.7543 66.3641C36.2161 66.3641 32.4824 63.4277 32.4824 59.3476C32.4824 54.4638 37.2739 52.1455 42.0966 52.1455C44.2746 52.1455 46.2658 52.6092 47.1059 52.7947C47.1682 53.5365 47.3237 54.7111 47.5104 56.0711L46.7637 56.1638C46.0792 53.5674 44.1812 52.9801 41.7855 52.9801C37.8029 52.9801 34.9093 55.2674 34.9093 59.1312C34.9093 62.0985 37.1495 65.5604 42.1277 65.5604C43.0923 65.5604 43.9012 65.4059 44.4612 65.1586C45.0524 64.9422 45.3324 64.695 45.3324 63.7986V62.1604C45.3324 60.6767 45.1147 60.553 42.6255 60.3676V59.7494H49.0039V60.3676Z" fill="white"/>
<path d="M65.2459 66.0541V65.405C67.3927 65.2505 67.4238 65.1578 67.4238 62.8395L67.2994 54.4011H67.2372L60.8899 65.8996H60.361L54.6049 54.7102H54.5427L54.2005 60.7376C54.076 62.5304 54.0449 63.365 54.076 64.1377C54.1693 65.1268 54.7916 65.2814 56.4718 65.405V66.0851H50.4668V65.405C51.9291 65.2814 52.4581 65.0959 52.6448 64.1377C52.7692 63.4577 52.9559 62.5613 53.1426 60.3667L53.4848 56.0393C53.7026 53.3811 53.6404 53.3502 51.2758 53.1647V52.5156H55.3828L61.2633 63.0559L67.3305 52.5156H71.6553V53.1647C69.384 53.3502 69.1663 53.3192 69.2595 55.5757L69.4774 62.8395C69.5396 65.1578 69.6641 65.2505 71.9042 65.405V66.0541H65.2459Z" fill="white"/>
<path d="M83.8827 66.0544V65.4053C85.625 65.2508 85.8117 65.0962 85.5006 64.2925L84.1005 61.1397H78.4688C78.0955 61.9743 77.7532 62.8398 77.3799 63.7052C76.7887 65.0962 77.0687 65.2816 78.9978 65.4053V66.0544H73.335V65.4053C74.9841 65.2198 75.3263 65.1271 76.2286 63.2416L81.4869 52.3922L82.2647 52.1758C83.8204 55.6377 85.625 59.8106 87.243 63.3343C87.9585 65.0652 88.3631 65.2508 90.0432 65.3743V66.0235H83.8827V66.0544ZM81.3935 54.7413H81.3313C80.4912 56.565 79.6823 58.4196 78.9044 60.1815H83.6959L81.3935 54.7413Z" fill="white"/>
<path d="M103.982 66.0549C101.898 64.1694 99.9068 62.2529 97.4799 59.9656C96.8577 59.3783 96.4532 59.3165 96.0176 59.4092V63.3657C96.0176 65.1276 96.2665 65.282 98.4134 65.3747V66.0238H91.8794V65.3747C93.8396 65.2511 94.1196 65.1276 94.1196 63.3657V55.2364C94.1196 53.3509 93.8707 53.2891 91.7861 53.1345V52.4854H98.3511V53.1345C96.3287 53.2891 96.0798 53.4127 96.0798 55.2364V58.791C96.671 58.6674 97.1688 58.4201 97.8533 57.8946C99.2223 56.8437 100.902 55.4528 102.209 54.2164C102.925 53.4745 102.925 53.32 101.836 53.1963L101.213 53.1345V52.4854H107.343V53.1345C105.32 53.2891 104.791 53.4745 103.174 54.68C102.302 55.3291 100.373 56.8746 98.5689 58.3583C100.529 60.3056 103.485 62.9638 104.605 63.953C105.943 65.0967 106.503 65.2511 107.81 65.3747V66.0238H103.982V66.0549Z" fill="white"/>
<path d="M122.06 62.7475C121.935 63.3966 121.406 65.4057 121.188 66.0549H108.836V65.4057C111.201 65.2512 111.419 65.0967 111.419 63.3966V55.1437C111.419 53.32 111.201 53.2891 109.147 53.1345V52.4854H120.535C120.566 52.9491 120.659 54.4018 120.753 55.5455L119.913 55.6382C119.695 54.7418 119.477 54.3091 119.104 53.8454C118.793 53.3818 118.139 53.2582 116.304 53.2582H114.126C113.348 53.2582 113.285 53.32 113.285 53.9073V58.6056H115.806C118.108 58.6056 118.233 58.4201 118.513 57.0292H119.353V61.0166H118.606C118.264 59.5329 118.139 59.4401 115.899 59.4401H113.379V63.3039C113.379 64.293 113.597 64.7566 114.032 65.0039C114.53 65.2821 115.401 65.2821 116.739 65.2821C118.668 65.2821 119.415 65.1276 119.975 64.6021C120.411 64.2312 120.908 63.5202 121.22 62.6547L122.06 62.7475Z" fill="white"/>
<path d="M138.893 66.2087C138.519 66.2087 138.208 66.2087 137.897 66.1778C136.31 66.116 135.221 65.6832 133.945 64.3232C133.074 63.3031 132.079 61.974 131.363 60.9849C130.927 60.4285 130.492 60.1813 129.061 60.1813H128.158V63.4268C128.158 65.1886 128.376 65.3123 130.461 65.405V66.0541H123.833V65.405C126.011 65.2814 126.229 65.1886 126.229 63.4268V55.112C126.229 53.3192 126.011 53.2883 123.958 53.1647V52.5156H130.243C132.016 52.5156 133.292 52.701 134.194 53.1956C135.252 53.752 135.968 54.6793 135.968 55.9157C135.968 57.7394 134.63 58.8521 132.701 59.5631C133.137 60.2431 134.225 61.634 134.972 62.5613C135.937 63.6741 136.372 64.0759 137.026 64.6631C137.71 65.2814 138.395 65.5286 138.986 65.6523L138.893 66.2087ZM129.496 59.4394C130.834 59.4394 131.674 59.254 132.296 58.8212C133.292 58.1721 133.759 57.3994 133.759 56.2557C133.759 54.0302 131.861 53.2574 129.807 53.2574C129.061 53.2574 128.625 53.3192 128.438 53.4429C128.221 53.5974 128.127 53.8138 128.127 54.4011V59.4703H129.496V59.4394Z" fill="white"/>
<path d="M148.445 55.6689C148.04 54.3707 147.48 52.9179 145.209 52.9179C143.155 52.9179 142.346 54.1543 142.346 55.2053C142.346 56.7817 143.622 57.5235 145.551 58.3272C147.418 59.069 150.001 59.9963 150.001 62.4073C150.001 64.6638 147.729 66.3637 144.431 66.3637C143.342 66.3637 142.502 66.1474 141.911 66.0238C141.32 65.8692 140.946 65.6838 140.729 65.6219C140.511 65.1583 140.2 63.4892 140.013 62.4073L140.822 62.2836C141.226 63.551 142.284 65.591 144.898 65.591C146.889 65.591 148.04 64.6019 148.04 63.0873C148.04 61.48 146.609 60.7691 144.711 59.9345C143.187 59.2854 140.511 58.2963 140.511 55.8853C140.511 53.9071 142.44 52.207 145.676 52.207C146.671 52.207 147.698 52.3616 148.88 52.7016C148.974 53.4434 149.098 54.2162 149.316 55.6071L148.445 55.6689Z" fill="white"/>
<path d="M100.311 6.55273L76.7266 8.9637V9.42734L100.311 7.78912V6.55273Z" fill="white"/>
<path d="M76.7266 12.5493V13.2294L100.311 14.8985V13.693L76.7266 12.5493Z" fill="white"/>
<path d="M47.7598 7.23291L64.1257 9.27296V9.67479L47.7598 8.28384V7.23291Z" fill="white"/>
<path d="M64.1257 12.3022V12.8586L47.7598 14.2805V13.2604L64.1257 12.3022Z" fill="white"/>
<path d="M71.2509 2.25644V1.82369H71.1576V1.66915H70.9709L70.8465 1.36004C71.0954 1.23641 71.2509 0.958213 71.2509 0.680022C71.2509 0.401833 71.0954 0.123639 70.8465 0H70.0686C69.8197 0.123639 69.6641 0.401833 69.6641 0.680022C69.6641 0.989123 69.8197 1.23641 70.0686 1.36004L69.9442 1.66915H69.7575V1.82369H69.6641V2.25644C67.1439 2.65826 65.2148 4.91469 65.2148 7.63476H75.7002C75.7002 4.88377 73.7712 2.62735 71.2509 2.25644Z" fill="white"/>
<path d="M41.04 50.4455H109.863C103.329 49.4564 91.8178 48.4982 78.5944 47.9109L78.2521 42.5635H62.633L62.3219 47.9109C52.9876 48.3127 45.2714 49.4255 41.04 50.4455Z" fill="white"/>
<path d="M71.0017 34.4026H77.7534L77.4112 28.9316H63.4721L63.1299 34.4026H69.9438" fill="white"/>
<path d="M76.9135 20.3385H78.7181V14.1257H75.6379V8.19092H65.2147V14.1257H62.29V20.3385H64.0013L63.8457 22.7495H77.038L76.9135 20.3385ZM63.379 18.1749H62.6634V14.4348H63.379V18.1749ZM64.6236 18.1749H63.908V14.4348H64.6236V18.1749ZM67.7661 15.4239H65.837V14.4348H67.7661V15.4239ZM67.7661 14.1566H65.837V8.87094H67.7661V14.1566ZM72.1531 15.4239H68.6995V14.4348H72.1531V15.4239ZM72.1531 14.1566H68.6995V8.87094H72.1531V14.1566ZM75.0156 15.4239H73.0866V14.4348H75.0156V15.4239ZM75.0156 14.1566H73.0866V8.87094H75.0156V14.1566ZM77.5981 14.4348H78.3137V18.1749H77.5981V14.4348ZM76.3535 14.4348H77.0692V18.1749H76.3535V14.4348Z" fill="white"/>
<path d="M71.0022 24.2642H69.9443V27.417H71.0022V24.2642Z" fill="white"/>
<path d="M71.0325 36.876H69.9746V40.0288H71.0325V36.876Z" fill="white"/>
<path d="M64.3433 20.3389L62.6631 48.3742" stroke="white" stroke-width="3" stroke-miterlimit="10"/>
<path d="M76.5088 20.3696L78.2201 48.2195" stroke="white" stroke-width="3" stroke-miterlimit="10"/>
</g>
</g>
<defs>
<clipPath id="clip0_367_11837">
<rect width="150" height="67" fill="white"/>
</clipPath>
</defs>
</svg>
