<svg width="70" height="70" viewBox="0 0 70 70" fill="none" xmlns="http://www.w3.org/2000/svg">
<g clip-path="url(#clip0_299_2416)">
<path d="M70 0H0V70H70V0Z" fill="#DF002B"/>
<path d="M16.8224 21.6703C17.382 22.1739 18.3889 22.062 18.3889 22.062C19.8435 22.062 22.4733 18.7609 22.4733 18.7609C23.9841 16.5787 23.4805 14.5646 23.4805 14.5646C22.9769 11.3195 20.2914 12.5503 20.2914 12.5503C18.557 12.7741 16.5427 15.5158 16.5427 15.5158C13.3535 19.2086 16.8224 21.6703 16.8224 21.6703Z" fill="white"/>
<path d="M14.8084 24.5241C13.0738 24.8039 11.5073 26.9861 11.5073 26.9861C10.2763 28.329 7.31102 36.9452 7.31102 36.9452C5.46477 41.3092 4.62524 45.17 4.62524 45.17C4.05987 47.2015 4.6812 49.7579 4.6812 49.7579C5.29669 53.0031 8.48583 52.4995 8.48583 52.4995C10.7797 52.4995 10.9478 50.4292 10.9478 50.4292C11.0597 49.8137 11.5633 47.4079 11.5633 47.4079C12.0669 43.939 15.4798 35.8821 15.4798 35.8821C16.3191 33.9237 17.6621 29.6717 17.6621 29.6717C19.6202 23.2934 14.8084 24.5241 14.8084 24.5241Z" fill="white"/>
<path d="M35.6788 16.5788C36.4062 14.7324 33.9442 12.3266 33.9442 12.3266C32.993 11.0396 32.0421 10.9277 32.0421 10.9277C31.5384 10.9277 30.5313 11.7111 30.5313 11.7111C28.461 13.6692 25.6076 19.4323 25.6076 19.4323C23.7052 23.125 19.9565 32.5807 19.9565 32.5807C17.215 39.1831 16.5435 43.8827 16.5435 43.8827C15.4244 50.6529 18.2221 51.7158 18.2221 51.7158C21.4672 53.6739 21.8589 50.8765 21.8589 50.8765C22.8101 48.079 26.7266 37.3364 26.7266 37.3364C27.4541 34.7066 32.4896 23.5726 32.4896 23.5726L35.6788 16.5788Z" fill="white"/>
<path d="M40.7133 35.2663C41.5528 34.0356 47.8754 19.1525 47.8754 19.1525C49.5542 15.7956 46.9799 13.5574 46.9799 13.5574C44.5179 11.0954 42.8957 13.0538 42.8957 13.0538C42.2245 13.2776 39.3706 17.5299 39.3706 17.5299L37.0206 22.6214L34.7265 27.825C33.6074 29.6155 30.2504 39.6305 30.2504 39.6305C26.8934 49.6456 30.698 51.9954 30.698 51.9954C33.8872 54.4574 34.6705 51.0444 34.6705 51.0444L36.7965 45.0017C38.0277 40.7496 40.7133 35.2663 40.7133 35.2663Z" fill="white"/>
<path d="M62.6473 28.3844C61.5842 27.4332 60.1296 30.063 60.1296 30.063C60.1296 30.063 57.4998 34.931 55.4296 37.6727C54.7553 38.5658 51.8487 42.2048 51.8487 42.2048C48.9951 45.3379 48.3239 44.7224 48.3239 44.7224C47.4843 44.2748 48.8274 41.5333 48.8274 41.5333L54.4226 32.749C56.2131 29.8956 54.4226 28.9444 54.4226 28.9444L52.4642 26.8184C50.226 24.9159 48.8274 27.4338 48.8274 27.4338C46.8131 29.6158 42.7846 37.3932 42.7846 37.3932C39.0915 44.3312 40.6584 47.0168 40.6584 47.0168C43.3442 53.0036 48.6036 50.2619 48.6036 50.2619C49.8903 49.8142 49.0512 50.6535 49.0512 50.6535C48.5477 51.325 45.5385 54.0617 45.5385 54.0617C42.9091 56.3199 40.5471 58.0945 38.8413 59.3006C37.5991 60.3268 36.574 60.8364 36.574 60.8364C33.9264 61.677 35.8466 62.2353 35.8466 62.2353C37.2454 62.6269 40.1548 61.5638 40.1548 61.5638C43.512 60.0531 49.2191 55.9127 49.2191 55.9127C57.1082 50.7093 61.1366 43.2681 61.1366 43.2681C64.6612 38.2885 65.6129 33.3645 65.6129 33.3645C66.6758 30.7345 62.6473 28.3844 62.6473 28.3844Z" fill="white"/>
</g>
<defs>
<clipPath id="clip0_299_2416">
<rect width="70" height="70" fill="white"/>
</clipPath>
</defs>
</svg>
