<svg width="81" height="62" viewBox="0 0 81 62" fill="none" xmlns="http://www.w3.org/2000/svg">
<g clip-path="url(#clip0_367_11863)">
<path d="M76.1451 9.9435C73.4639 9.9435 71.2861 7.71271 71.2861 4.9729C71.2861 2.22966 73.4639 0 76.1451 0C78.8229 0 80.9996 2.22966 80.9996 4.9729C80.9996 7.71271 78.8229 9.9435 76.1451 9.9435ZM76.1451 0.538616C73.7539 0.538616 71.8123 2.52685 71.8123 4.97401C71.8123 7.41775 73.7539 9.406 76.1451 9.406C78.5341 9.406 80.4757 7.41775 80.4757 4.97401C80.4757 2.52685 78.5341 0.538616 76.1451 0.538616Z" fill="white"/>
<path d="M76.711 4.38987H78.0751L78.6161 1.99739C78.6161 1.99739 77.7863 1.99739 77.6002 1.99739C77.4142 1.99739 77.3137 2.32193 77.3137 2.32193C77.1197 2.18642 76.9062 2.06344 76.6631 2.00764C75.653 1.7685 74.6416 2.40049 74.3917 3.40372L74.3883 3.40261L73.8255 5.92492C73.668 6.90879 74.2479 7.76057 75.2306 7.99059C76.2157 8.22518 77.2464 7.75257 77.5306 6.79945C77.5306 6.79945 77.5705 6.6332 77.5717 6.61384L77.8399 5.44893C77.8399 5.44893 76.8183 5.44893 76.7635 5.44893C76.5809 5.44893 76.4417 5.62315 76.4017 5.76777L76.364 5.95109L76.2499 6.44644C76.1746 6.75504 75.8778 6.94295 75.5742 6.87121C75.2729 6.80061 75.0845 6.49542 75.1496 6.18796C75.1496 6.18796 75.726 3.63374 75.726 3.62919C75.7956 3.31831 76.0992 3.12701 76.4017 3.19875C76.7053 3.26936 76.8971 3.58024 76.8263 3.89226L76.711 4.38987Z" fill="white"/>
<path d="M69.2238 4.97447C69.2238 4.88678 69.2341 4.80138 69.2364 4.71484H0V5.26144H69.2386C69.2341 5.16579 69.2238 5.07126 69.2238 4.97447Z" fill="white"/>
<path d="M60.2927 38.4021C60.2596 38.4112 60.2036 38.4898 60.2036 38.5468C60.1956 38.6094 60.2207 38.6925 60.2595 38.6925C60.6396 38.6925 60.8257 38.6526 61.183 38.6526C61.6293 38.6526 61.7582 38.6925 62.2353 38.6925C62.2673 38.6925 62.3004 38.6094 62.3004 38.5468C62.3004 38.4898 62.2844 38.4112 62.2513 38.4021C61.7434 38.3771 61.6201 38.2336 61.6201 38.0138C61.6201 37.8999 61.6703 37.7633 61.7183 37.6278L62.0413 36.768H63.7249L64.073 37.7246C64.1141 37.8521 64.1541 37.966 64.1541 38.0628C64.1541 38.2655 64.0171 38.3759 63.4909 38.4021C63.4578 38.4112 63.4418 38.4898 63.4418 38.5468C63.4418 38.6094 63.4738 38.6925 63.5058 38.6925C64.0422 38.6925 64.4531 38.6526 64.9565 38.6526C65.4096 38.6526 65.7589 38.6925 66.2919 38.6925C66.3239 38.6925 66.3559 38.6094 66.3559 38.5468C66.3559 38.4898 66.3102 38.4112 66.2771 38.4021C65.6767 38.3384 65.4576 38.089 65.2807 37.5959L63.5423 33.0181C63.5331 32.984 63.4521 32.9521 63.3642 32.9521C63.282 32.9521 63.1998 32.9828 63.185 33.0181L61.2343 37.5959C60.9889 38.1106 60.8097 38.3623 60.2927 38.4021ZM62.9054 34.5258L63.6016 36.4469H62.1703L62.9054 34.5258Z" fill="white"/>
<path d="M36.9837 33.0898C36.6207 33.0898 35.8593 33.1137 35.4861 33.1137C35.106 33.1137 34.2796 33.1069 33.9155 33.0898C33.8847 33.0898 33.8516 33.1775 33.8516 33.2356C33.8516 33.3005 33.8847 33.3802 33.9155 33.3802C34.6129 33.4622 34.7259 33.6398 34.7259 34.0668V37.7256C34.7259 38.1527 34.6129 38.328 33.9155 38.4032C33.8847 38.4123 33.8516 38.4909 33.8516 38.5478C33.8516 38.6104 33.8847 38.6936 33.9155 38.6936C34.2796 38.6765 35.1049 38.6696 35.4861 38.6696C35.8593 38.6696 36.6207 38.6936 36.9837 38.6936C39.2277 38.6936 40.1728 37.4193 40.1728 35.9241C40.1728 34.3481 39.0953 33.0898 36.9837 33.0898ZM36.9517 38.3622L36.4083 38.3451C36.1915 38.3383 35.9392 38.2734 35.9392 37.8748V33.9142C35.9392 33.5157 36.1903 33.4508 36.4083 33.4451L36.9517 33.428C38.2141 33.4098 38.8852 34.429 38.8852 35.9218C38.8852 37.376 38.1901 38.369 36.9517 38.3622Z" fill="white"/>
<path d="M60.6099 33.235C60.6099 33.161 60.586 33.0801 60.5449 33.0801C60.1739 33.0801 59.8497 33.128 59.4537 33.128C59.0736 33.128 58.7985 33.0801 58.3785 33.0801C58.3465 33.0801 58.3122 33.169 58.3122 33.235C58.3122 33.2999 58.3374 33.3705 58.3785 33.3796C59.0656 33.4616 59.2688 33.6302 59.2688 34.0595V37.0783L55.5614 33.0801C55.1973 33.0801 55.0524 33.1212 54.759 33.1212C54.5262 33.1212 54.2168 33.0801 53.9429 33.0801C53.9018 33.0801 53.8767 33.169 53.8767 33.2259C53.8767 33.2908 53.9006 33.3705 53.9349 33.3705C54.662 33.4616 54.8321 33.6939 54.8252 34.1859L54.6859 37.7239C54.6791 38.151 54.5319 38.3263 53.8379 38.4015C53.7968 38.4106 53.7637 38.4824 53.7637 38.5461C53.7637 38.6201 53.7968 38.6919 53.8299 38.6919C54.2043 38.6919 54.4942 38.652 54.8891 38.652C55.2715 38.652 55.5865 38.6919 55.9986 38.6919C56.0328 38.6919 56.0648 38.6088 56.0648 38.5461C56.0648 38.4824 56.0408 38.4106 55.9986 38.4015C55.3023 38.3275 55.1254 38.151 55.1425 37.7239L55.1882 34.4216L59.2459 38.7477C59.2848 38.7886 59.343 38.8149 59.44 38.8149C59.5438 38.8149 59.6032 38.7727 59.6032 38.7351L59.6911 34.0606C59.6991 33.6313 59.844 33.4639 60.5472 33.3808C60.5803 33.3705 60.6099 33.2988 60.6099 33.235Z" fill="white"/>
<path d="M43.6836 32.9531C41.7421 32.9531 40.6006 34.3002 40.6006 35.915C40.6006 37.5377 41.7421 38.8233 43.6836 38.8233C45.6252 38.8233 46.7666 37.5377 46.7666 35.915C46.7678 34.2991 45.6263 32.9531 43.6836 32.9531ZM43.6836 38.4988C42.4452 38.4988 41.8859 37.4181 41.8859 35.9138C41.8859 34.4209 42.4452 33.2822 43.6836 33.2822C44.9209 33.2822 45.4803 34.4209 45.4803 35.9138C45.4814 37.417 44.9209 38.4988 43.6836 38.4988Z" fill="white"/>
<path d="M52.477 33.128C52.0958 33.128 51.8207 33.0801 51.4007 33.0801C51.3687 33.0801 51.3345 33.169 51.3345 33.235C51.3345 33.2999 51.3596 33.3705 51.4007 33.3796C52.0878 33.4616 52.291 33.6302 52.291 34.0595V37.0783L48.5837 33.0801C48.2207 33.0801 48.0746 33.1212 47.7847 33.1212C47.5484 33.1212 47.2425 33.0801 46.9651 33.0801C46.9252 33.0801 46.8989 33.169 46.8989 33.2259C46.8989 33.2908 46.924 33.3705 46.9571 33.3705C47.6876 33.4616 47.8554 33.6939 47.8463 34.1859L47.7082 37.7239C47.7014 38.151 47.5541 38.3263 46.8613 38.4015C46.819 38.4106 46.7871 38.4824 46.7871 38.5461C46.7871 38.6201 46.819 38.6919 46.8532 38.6919C47.2254 38.6919 47.5164 38.652 47.9137 38.652C48.2937 38.652 48.6099 38.6919 49.022 38.6919C49.0539 38.6919 49.0882 38.6088 49.0882 38.5461C49.0882 38.4824 49.0642 38.4106 49.022 38.4015C48.3269 38.3275 48.1476 38.151 48.1636 37.7239L48.2138 34.4216L52.2693 38.7477C52.3093 38.7886 52.3652 38.8149 52.4611 38.8149C52.5672 38.8149 52.6254 38.7727 52.6254 38.7351L52.7133 34.0606C52.7213 33.6313 52.8663 33.4639 53.5717 33.3808C53.6036 33.3717 53.6356 33.3011 53.6356 33.2361C53.6356 33.1621 53.6128 33.0813 53.5717 33.0813C53.1962 33.0802 52.8754 33.128 52.477 33.128Z" fill="white"/>
<path d="M22.8398 58.8366C15.8532 58.0486 15.4217 56.4657 15.4217 52.8024V18.9612C15.4217 15.2273 15.852 13.7184 22.8398 12.8564C23.1993 12.8564 23.4162 12.4271 23.4162 11.8543C23.4162 11.3521 23.2005 10.8545 22.8398 10.8545C18.0858 10.8545 16.215 11.2826 11.7555 11.2826C7.29251 11.2849 5.42172 10.8545 0.596932 10.8545C0.308152 10.8545 0.0205078 11.3567 0.0205078 11.8577C0.0205078 12.4271 0.308152 12.8564 0.596932 12.8564C7.58357 13.7195 8.08695 15.2284 8.08695 18.9612V52.8024C8.08695 56.4657 7.58357 58.0474 0.596932 58.8366C0.308152 58.9083 0.0205078 59.2682 0.0205078 59.8455C0.0205078 60.4172 0.308152 60.8488 0.596932 60.8488C5.42172 60.8488 7.29251 60.4172 11.7555 60.4172C16.215 60.4172 18.0869 60.8488 22.8398 60.8488C23.1993 60.8488 23.4162 60.4172 23.4162 59.8455C23.4162 59.2682 23.2005 58.9083 22.8398 58.8366Z" fill="white"/>
<path d="M49.5693 9.77441C33.0734 9.77441 23.0723 21.7654 23.0723 36.1409C23.0723 50.5847 33.0734 61.9994 49.5693 61.9994C66.1359 61.9994 76.137 50.5847 76.137 36.1409C76.137 21.7654 66.1347 9.77441 49.5693 9.77441ZM49.5693 59.7083C37.7544 59.7083 30.9858 49.4334 30.9858 36.1409C30.9858 22.8438 37.7555 12.0656 49.5693 12.0656C61.383 12.0656 68.227 22.8438 68.227 36.1409C68.2258 49.4323 61.3818 59.7083 49.5693 59.7083Z" fill="white"/>
</g>
<defs>
<clipPath id="clip0_367_11863">
<rect width="81" height="62" fill="white"/>
</clipPath>
</defs>
</svg>
