<svg width="130" height="38" viewBox="0 0 130 38" fill="none" xmlns="http://www.w3.org/2000/svg">
<g clip-path="url(#clip0_367_11874)">
<mask id="mask0_367_11874" style="mask-type:luminance" maskUnits="userSpaceOnUse" x="0" y="0" width="130" height="38">
<path d="M130 0H0V37.6552H130V0Z" fill="white"/>
</mask>
<g mask="url(#mask0_367_11874)">
<path d="M79.3307 11.6739C75.5905 11.6739 72.5197 13.0103 70.0787 15.7224C67.874 18.1594 66.7717 21.0681 66.7717 24.3697C66.7717 27.7107 67.9527 30.6587 70.2756 33.1743C72.5985 35.6898 75.6299 36.9476 79.3307 36.9476C82.9921 36.9476 86.0236 35.6898 88.3465 33.1743C90.6692 30.6587 91.8508 27.7501 91.8508 24.3697C91.8508 21.0287 90.7481 18.1201 88.5433 15.6831C86.1024 13.0103 83.0314 11.6739 79.3307 11.6739ZM87.441 29.283C86.6142 30.7766 85.4724 31.9558 84.0158 32.7419C82.5984 33.5673 81.0236 33.9604 79.2913 33.9604C77.5591 33.9604 75.9843 33.5673 74.5669 32.7419C73.1496 31.9165 72.0079 30.7766 71.1417 29.283C70.2756 27.7893 69.8819 26.1778 69.8819 24.4091C69.8819 21.6969 70.7874 19.4172 72.6378 17.5305C74.4882 15.6437 76.6929 14.7005 79.2519 14.7005C81.8111 14.7005 84.0158 15.6437 85.8662 17.5305C87.7166 19.4172 88.6614 21.7363 88.6614 24.4091C88.7008 26.1778 88.3071 27.7893 87.441 29.283ZM106.299 12.4993C105.315 11.9491 104.41 11.6739 103.544 11.6739C102.401 11.6739 101.3 12.0277 100.276 12.6959C99.2124 13.3641 98.228 14.4253 97.283 15.801V12.3027H94.1335V36.3188H97.283V28.1824C97.283 24.016 97.4803 21.2646 97.8739 19.8888C98.3858 18.1201 99.0941 16.7836 100.078 15.9583C101.023 15.0935 102.047 14.7005 103.071 14.7005C103.504 14.7005 104.055 14.8577 104.724 15.1328L106.299 12.4993ZM126.693 16.7051C125.472 15.0149 124.094 13.7571 122.481 12.9317C120.866 12.1062 119.094 11.6739 117.126 11.6739C113.701 11.6739 110.788 12.8924 108.346 15.3687C105.905 17.845 104.685 20.7929 104.685 24.2518C104.685 27.7893 105.905 30.7766 108.307 33.2529C110.709 35.7292 113.622 36.9476 117.048 36.9476C118.976 36.9476 120.709 36.5546 122.323 35.7685C123.937 34.9824 125.394 33.8031 126.693 32.2309V36.358H129.725V12.3421H126.693V16.7051ZM125.63 29.3616C124.804 30.8159 123.661 31.9558 122.126 32.8205C120.591 33.6852 119.015 34.1176 117.323 34.1176C115.63 34.1176 114.055 33.6852 112.599 32.8205C111.142 31.9558 109.96 30.7766 109.094 29.2044C108.228 27.6714 107.795 26.0599 107.795 24.3697C107.795 22.6795 108.228 21.0287 109.094 19.5351C109.96 18.0021 111.102 16.823 112.559 15.9583C114.015 15.1328 115.591 14.7005 117.323 14.7005C120 14.7005 122.244 15.6437 124.094 17.4912C125.945 19.3385 126.85 21.6969 126.85 24.4483C126.89 26.2564 126.457 27.9072 125.63 29.3616ZM82.9921 20.557L80 25.1165L77.0079 22.8761L75.9449 24.2911L79.6851 27.0819L80.748 25.6668L80.7087 25.6275L83.7402 21.0287L82.9921 20.557ZM123.661 5.10978H125.394L124.527 3.2624L123.661 5.10978ZM67.0078 0.0786109V9.39416H130V0.0786109H67.0078ZM72.4016 7.27161H72.2835L70.1181 2.20113H70.6693L72.3622 6.13174L74.0944 2.20113H74.6456L72.4016 7.27161ZM78.7402 2.67281H76.3386V4.28436H78.7402V4.79533H76.3386V6.79994H78.7402V7.31092H75.8268V2.24045H78.7402V2.67281ZM83.9764 7.27161H83.8583L80.5118 3.41963V7.27161H80V2.20113H80.1181L83.5039 6.09243V2.20113H84.0158V7.27161H83.9764ZM87.8346 2.67281H86.6929V7.27161H86.1811V2.67281H85.0394V2.16183H87.8346V2.67281ZM89.3701 7.27161H88.8582V2.20113H89.3701V7.27161ZM92.9132 6.99647C92.638 7.27162 92.2839 7.38953 91.8894 7.38953C91.5747 7.38953 91.2994 7.31092 91.0628 7.15369C90.827 6.99647 90.5903 6.72133 90.3545 6.32826L90.7875 6.05313C91.1022 6.60342 91.4563 6.87855 91.8508 6.87855C92.0077 6.87855 92.1655 6.83924 92.3224 6.76063C92.4802 6.68202 92.5986 6.56411 92.6775 6.44619C92.7563 6.32827 92.7949 6.17104 92.7949 6.01382C92.7949 5.8566 92.7563 5.66006 92.638 5.50284C92.4802 5.267 92.205 4.99186 91.7719 4.67742C91.3389 4.36297 91.1022 4.12713 90.9839 3.9699C90.7875 3.73406 90.7086 3.45892 90.7086 3.18379C90.7086 2.94795 90.7481 2.75142 90.8664 2.5942C90.9839 2.43697 91.1022 2.27975 91.2994 2.16183C91.4958 2.04391 91.693 2.00461 91.9288 2.00461C92.1655 2.00461 92.4013 2.08322 92.5985 2.20113C92.7949 2.31906 93.0316 2.55489 93.2674 2.86934L92.8343 3.18379C92.638 2.94795 92.4802 2.75143 92.3619 2.67281C92.2444 2.5942 92.0866 2.55488 91.9288 2.55488C91.7325 2.55488 91.5747 2.63349 91.4169 2.75142C91.26 2.86933 91.2206 3.02656 91.2206 3.22309C91.2206 3.34101 91.26 3.45892 91.2994 3.53753C91.3389 3.61615 91.4169 3.77338 91.5352 3.8913C91.6141 3.96991 91.8114 4.12713 92.205 4.40227C92.638 4.71672 92.9527 5.03118 93.1105 5.26701C93.2674 5.50284 93.3463 5.77799 93.3463 6.01382C93.3463 6.40688 93.1894 6.72133 92.9132 6.99647ZM97.6775 2.67281H95.2757V4.28436H97.6775V4.79533H95.2757V6.79994H97.6775V7.31092H94.7637V2.24045H97.6775V2.67281ZM101.221 2.67281H100.078V7.27161H99.5666V2.67281H98.4252V2.16183H101.221V2.67281ZM104.567 2.67281H103.425V7.27161H102.913V2.67281H101.772V2.16183H104.567V2.67281ZM108.582 2.67281H106.181V4.28436H108.582V4.79533H106.181V6.79994H108.582V7.31092H105.669V2.24045H108.582V2.67281ZM111.85 6.99647C111.575 7.27162 111.221 7.38953 110.826 7.38953C110.512 7.38953 110.236 7.31092 110 7.15369C109.764 6.99647 109.527 6.72133 109.291 6.32826L109.724 6.05313C110.039 6.60342 110.393 6.87855 110.788 6.87855C110.945 6.87855 111.102 6.83924 111.26 6.76063C111.417 6.68202 111.536 6.56411 111.614 6.44619C111.693 6.32827 111.732 6.17104 111.732 6.01382C111.732 5.8566 111.693 5.66006 111.575 5.50284C111.417 5.267 111.142 4.99186 110.709 4.67742C110.276 4.36297 110.039 4.12713 109.921 3.9699C109.724 3.73406 109.646 3.45892 109.646 3.18379C109.646 2.94795 109.685 2.75142 109.803 2.5942C109.921 2.43697 110.039 2.27975 110.236 2.16183C110.433 2.04391 110.63 2.00461 110.866 2.00461C111.102 2.00461 111.338 2.08322 111.536 2.20113C111.732 2.31906 111.969 2.55489 112.204 2.86934L111.771 3.18379C111.575 2.94795 111.417 2.75143 111.299 2.67281C111.181 2.5942 111.024 2.55488 110.866 2.55488C110.669 2.55488 110.512 2.63349 110.355 2.75142C110.197 2.86933 110.158 3.02656 110.158 3.22309C110.158 3.34101 110.197 3.45892 110.236 3.53753C110.276 3.61615 110.355 3.77338 110.472 3.8913C110.551 3.96991 110.748 4.12713 111.142 4.40227C111.575 4.71672 111.89 5.03118 112.047 5.26701C112.204 5.50284 112.283 5.77799 112.283 6.01382C112.283 6.40688 112.126 6.72133 111.85 6.99647ZM114.134 7.27161H113.622V2.20113H114.134V7.27161ZM120.67 7.27161L120.158 3.61615L118.347 7.23231H118.228L116.417 3.57685L115.905 7.23231H115.433L116.181 2.16183H116.259L118.347 6.32826L120.393 2.16183H120.472L121.22 7.23231H120.67V7.27161ZM126.417 7.27161L125.63 5.58145H123.426L122.638 7.27161H122.087L124.488 2.20113H124.606L126.969 7.27161H126.417ZM40.0787 4.28436H57.2441L40.6693 36.1222L43.6614 37.6552L62.874 0.904037H40.0787V4.28436ZM29.0157 23.6622C31.811 20.6357 33.7008 18.1987 34.6851 16.4299C35.6693 14.6611 36.1417 12.7352 36.1417 10.7306C36.1417 7.8219 35.1181 5.30631 33.0708 3.18379C31.0236 1.06126 28.3465 0 25.0393 0C21.6929 0 18.8976 1.13987 16.6142 3.41963C14.3308 5.69937 13.1496 8.60802 13.0708 12.1456H16.4961C16.6929 9.39416 17.5591 7.2323 19.0945 5.69937C20.6299 4.16644 22.5197 3.41963 24.8031 3.41963C26.9685 3.41963 28.8188 4.16644 30.3149 5.62076C31.811 7.07508 32.5591 8.80455 32.5591 10.8485C32.5591 12.46 32.126 13.9537 31.2992 15.408C30.4725 16.8623 28.6614 19.0634 25.8661 22.0507L12.126 36.8691H36.496V33.4101H19.9213L29.0157 23.6622ZM1.29921 0.0786109H0V6.83925H3.18897V5.62076H1.29921V0.0786109ZM6.22047 0.0786109L3.62205 6.83925H4.96063L5.5118 5.42423H8.26771L8.77953 6.83925H10.1181L7.55905 0.0786109H6.22047ZM5.98425 4.20574L6.88976 1.88669L7.79527 4.20574H5.98425Z" fill="#C52B2D"/>
</g>
</g>
<defs>
<clipPath id="clip0_367_11874">
<rect width="130" height="38" fill="white"/>
</clipPath>
</defs>
</svg>
