<svg width="180" height="30" viewBox="0 0 180 30" fill="none" xmlns="http://www.w3.org/2000/svg">
<g clip-path="url(#clip0_299_2423)">
<path d="M179.499 21.8087L179.59 21.7947C179.835 21.8231 180 21.9931 180 22.1909V24.6186C180 24.8017 179.872 24.9448 179.703 25.001C179.664 25.0141 179.633 25.0141 179.604 25.0141C179.414 25.0416 179.222 25.0573 179.027 25.0573C176.675 25.0573 174.765 23.32 174.765 21.1602C174.765 21.103 174.771 21.0331 174.778 20.9634V3.1066L174.771 3.064L174.778 3.00611C174.791 2.89261 174.865 2.7804 174.971 2.72415C175.043 2.68154 177.313 1.45418 177.313 1.45418L177.426 1.39792C177.472 1.38264 177.509 1.36865 177.561 1.36865C177.773 1.36865 177.948 1.5241 177.969 1.72248V5.56229H179.562C179.789 5.56229 179.97 5.74604 179.97 5.95678V8.38516C179.97 8.61086 179.789 8.77996 179.562 8.77996H177.972V21.0334C177.972 21.4861 178.447 21.838 179.027 21.838C179.2 21.8374 179.359 21.8231 179.499 21.8087ZM173.281 5.61661C173.48 5.63189 173.635 5.78669 173.653 5.98572V8.68208C173.653 8.86485 173.485 9.01933 173.294 9.04794C171.035 9.18974 169.708 10.432 169.708 12.0412V24.4482C169.708 24.6602 169.523 24.8306 169.297 24.8306H166.936C166.706 24.8306 166.525 24.6606 166.525 24.4482V5.97174C166.638 5.83027 166.773 5.74604 166.929 5.74604C166.986 5.74604 167.023 5.74604 167.07 5.77368L167.181 5.8306L168.974 6.78868L169.268 6.91714C170.454 6.06963 171.637 5.61693 173.129 5.61693H173.281V5.61661ZM107.746 9.78131C107.746 11.3918 107.749 14.4539 107.749 14.4539C107.749 14.4539 108.985 13.0991 109.367 12.4217C109.749 11.7443 109.988 11.0815 110.033 10.939C110.282 10.0932 110.452 8.83558 109.259 8.48338C109.065 8.42581 108.863 8.42581 108.654 8.45443C108.488 8.4837 107.746 8.752 107.746 9.78131ZM112.933 21.1316C112.933 21.1888 112.921 21.2451 112.897 21.3011L112.869 21.3436C112.304 22.318 110.358 25.07 108.038 25.0846C107.885 25.0846 107.717 25.07 107.576 25.0414C107.217 24.9717 106.951 24.8736 106.64 24.7034C106.134 24.4482 105.587 23.9414 105.167 23.3056C104.795 22.7265 104.704 22.3041 104.618 21.7248C104.585 21.5135 104.572 21.2025 104.572 20.9491V9.35918C104.572 7.58025 106.092 5.36359 109.049 5.43383C110.34 5.47709 112.039 6.30866 112.727 7.93409C113.071 8.73867 113.07 9.50065 113.059 10.2766C113.012 14.2156 107.802 18.0977 107.735 18.1403V19.9043C107.735 20.314 107.799 20.7664 107.93 21.0334C107.956 21.0896 108.108 21.3856 108.399 21.4708C109.04 21.6692 109.79 20.9075 110.668 19.6783C110.74 19.5794 110.869 19.4535 111.075 19.4821C111.156 19.4958 111.262 19.5521 111.344 19.6083C111.605 19.8203 112.78 20.8217 112.78 20.8217C112.892 20.9342 112.933 21.0331 112.933 21.1316ZM161.648 21.0331C161.648 21.4858 161.174 21.8376 160.59 21.8376C160.008 21.8376 159.536 21.4858 159.536 21.0331V9.27462C159.536 8.82192 160.008 8.46841 160.59 8.46841C161.174 8.46841 161.648 8.82192 161.648 9.27462V21.0331ZM164.838 9.14714C164.838 7.00072 162.946 5.26472 160.59 5.26472C158.238 5.26472 156.34 7.00072 156.34 9.14714V21.1736C156.34 23.32 158.235 25.0569 160.59 25.0569C162.946 25.0569 164.838 23.3197 164.838 21.1736V9.14714ZM151.574 20.8929V9.26063C151.574 8.83558 151.101 8.48338 150.518 8.48338C149.937 8.48338 149.465 8.48338 149.465 8.48338V20.8926C149.465 21.3148 149.937 21.6685 150.518 21.6685C151.102 21.6689 151.574 21.315 151.574 20.8929ZM146.591 29.488C146.367 29.488 146.183 29.3049 146.183 29.0955V5.80231C146.183 5.57595 146.367 5.40619 146.591 5.40619H150.518C152.869 5.40619 154.769 7.0573 154.769 9.13185V21.0194C154.769 23.0939 152.872 24.773 150.518 24.773C150.141 24.773 149.423 24.6475 149.423 24.6475V29.0955C149.423 29.3049 149.239 29.488 149.013 29.488H146.591Z" fill="white"/>
<path d="M7.7729 21.8515C7.99719 21.8515 8.18241 22.0343 8.18241 22.2476V24.448C8.18241 24.6601 7.99752 24.8305 7.7729 24.8305H0.410811C0.184881 24.8305 0 24.6603 0 24.448V4.98196C0.0177328 4.85578 0.0962173 4.74261 0.210167 4.67105L2.72692 3.30223C2.76633 3.28824 2.81 3.25963 2.84645 3.24564C2.89735 3.23231 2.93807 3.21832 2.99357 3.21832C3.22081 3.21832 3.40734 3.38776 3.43229 3.59817V3.69834L3.42803 21.8515H7.7729ZM135.069 22.7689L134.982 22.6838C134.918 22.6002 134.889 22.4733 134.915 22.3605C134.93 22.3038 134.959 22.2476 134.998 22.1907L135.084 22.1045L136.798 20.454C136.9 20.3405 137.057 20.2996 137.222 20.3269C137.343 20.3559 137.426 20.4108 137.506 20.4964C137.672 20.6655 137.81 20.8209 137.984 20.9627C138.659 21.47 139.191 21.6821 139.589 21.6821C141.548 21.6821 141.51 19.4527 140.921 18.0546C139.187 13.9315 136.394 7.39701 136.394 7.39701C135.263 4.60146 135.532 2.18707 137.571 1.17142C139.388 0.268301 142.19 0.901495 144.838 2.69636C144.986 2.80888 145.042 2.92108 145.042 3.03556C145.042 3.10612 145.027 3.16238 144.998 3.21865L143.724 5.15335C143.651 5.26457 143.518 5.34978 143.36 5.34978C143.258 5.34978 143.162 5.32084 143.088 5.25059C141.708 4.22031 140.412 3.71232 139.805 4.06518C139.385 4.31723 139.352 4.95302 139.584 5.78654C139.584 5.78654 142.769 13.4095 144.535 18.0836C145.175 19.762 145.36 25.0281 139.589 25.0281C138.392 25.0281 137.509 24.6473 136.445 23.9273C135.857 23.5322 135.227 22.94 135.069 22.7689ZM129.205 21.0326C129.205 21.4853 128.732 21.8371 128.148 21.8371C127.566 21.8371 127.094 21.4853 127.094 21.0326V9.27415C127.094 8.82145 127.566 8.46794 128.148 8.46794C128.732 8.46794 129.205 8.82145 129.205 9.27415V21.0326ZM132.394 9.14666C132.394 7.00024 130.503 5.26425 128.148 5.26425C125.796 5.26425 123.898 7.00024 123.898 9.14666V21.1731C123.898 23.3196 125.795 25.0565 128.148 25.0565C130.503 25.0565 132.394 23.3192 132.394 21.1731V9.14666Z" fill="white"/>
<path d="M87.2857 21.6413V16.6867L86.7978 17.0812C86.493 17.3206 86.0051 17.7579 85.6245 18.4227C85.3168 18.9586 85.187 19.4959 85.1595 19.6494C85.0777 20.1724 84.9949 21.3152 85.8734 21.5698C85.8924 21.5698 86.0629 21.5988 86.1184 21.6124C86.2769 21.6263 86.4799 21.6413 86.7068 21.6413H87.2857ZM82.1009 9.52807C82.1009 9.4718 82.114 9.41522 82.137 9.35928L82.1633 9.31798C82.7288 8.34233 84.6787 5.27979 86.9928 5.27979C87.1518 5.27979 87.3196 5.27979 87.4562 5.30743C87.8177 5.37735 88.0857 5.47687 88.3934 5.64598C88.8991 5.90062 89.4469 6.40763 89.8698 7.04343C90.2412 7.62296 90.3328 8.04639 90.4179 8.63958C90.4498 8.83601 90.4672 9.14724 90.4672 9.41521V24.4486C90.4672 24.6606 90.2809 24.844 90.0563 24.844H85.6875C83.9983 24.8021 82.601 23.9982 82.1492 22.912C81.9101 22.3325 81.8651 21.4858 81.8723 20.7226C81.9202 16.7722 87.2323 12.6075 87.2963 12.5496V10.7567C87.2993 10.347 87.2349 9.89556 87.1068 9.6266C87.0805 9.57035 86.9233 9.27472 86.6346 9.18952C85.9965 9.00544 85.2459 9.75344 84.3671 10.9821C84.2958 11.0816 84.1661 11.2091 83.9589 11.1789C83.8772 11.1649 83.7724 11.1086 83.6892 11.0523C83.4269 10.8403 82.2526 9.83864 82.2526 9.83864C82.1416 9.72482 82.1009 9.64124 82.1009 9.52807ZM14.1706 21.6413V16.6867L13.6823 17.0812C13.3808 17.3206 12.8909 17.7579 12.5093 18.4227C12.2003 18.9586 12.0719 19.4959 12.0459 19.6494C11.9628 20.1724 11.8798 21.3152 12.7598 21.5698C12.7789 21.5698 12.9493 21.6124 13.0048 21.6124C13.1592 21.6263 13.3664 21.6413 13.5933 21.6413H14.1706ZM8.98569 9.52807C8.98569 9.4718 9.00014 9.41522 9.02641 9.35928L9.04972 9.31798C9.61192 8.34233 11.5619 5.27979 13.8803 5.27979C14.0363 5.27979 14.2008 5.27979 14.3436 5.30743C14.7006 5.37735 14.9718 5.47687 15.2809 5.64598C15.7853 5.90062 16.333 6.40763 16.7527 7.04343C17.1257 7.62296 17.2147 8.04639 17.3037 8.63958C17.3326 8.83601 17.3503 9.14724 17.3503 9.41521V24.4486C17.3503 24.6606 17.1638 24.844 16.9395 24.844H12.5704C10.8828 24.8021 9.48681 23.9982 9.03495 22.912C8.79457 22.3325 8.74925 21.4995 8.75779 20.7226C8.80606 16.7722 14.1164 12.6075 14.1831 12.5496V10.7567C14.1831 10.347 14.119 9.89556 13.9893 9.6266C13.966 9.57035 13.8087 9.27472 13.5174 9.18952C12.879 9.00544 12.13 9.75344 11.2529 10.9821C11.1783 11.0816 11.0503 11.2091 10.8447 11.1789C10.7616 11.1649 10.6582 11.1086 10.5751 11.0523C10.3114 10.8403 9.1397 9.83864 9.1397 9.83864C9.02904 9.72482 8.98569 9.64124 8.98569 9.52807Z" fill="white"/>
<path d="M80.5053 21.8087L80.5913 21.7947C80.8406 21.8231 81.0037 21.9931 81.0037 22.1909V24.6186C81.0037 24.8017 80.877 24.9448 80.7066 25.001C80.6658 25.001 80.6366 25.0141 80.6045 25.0141C80.4179 25.0416 80.2255 25.0573 80.0304 25.0573C77.6769 25.0573 75.7663 23.306 75.7663 21.1602C75.7663 21.103 75.7752 21.0331 75.7781 20.9634V3.1066L75.7752 3.064L75.7781 3.00611C75.7926 2.89261 75.8671 2.7804 75.9765 2.72415C76.0448 2.68154 78.3165 1.45418 78.3165 1.45418L78.4273 1.39792C78.4739 1.38264 78.5133 1.36865 78.5642 1.36865C78.777 1.36865 78.9487 1.5241 78.9724 1.72248V5.56229H80.5637C80.7926 5.56229 80.9745 5.7314 80.9745 5.95678V8.38516C80.9745 8.61086 80.7923 8.77996 80.5637 8.77996H78.9753V21.0334C78.9753 21.4861 79.4476 21.838 80.0304 21.838C80.2022 21.8374 80.3624 21.8231 80.5053 21.8087ZM63.0473 9.78131C63.0473 11.3778 63.0473 14.4539 63.0473 14.4539C63.0473 14.4539 64.283 13.0991 64.6649 12.4217C65.0481 11.7443 65.2872 11.0815 65.3321 10.939C65.5797 10.0932 65.7518 8.83558 64.5568 8.48338C64.3618 8.42581 64.1605 8.42581 63.9519 8.45443C63.7875 8.4837 63.0473 8.752 63.0473 9.78131ZM68.2321 21.1316C68.2321 21.1888 68.2203 21.2451 68.194 21.3011L68.1678 21.3436C67.6052 22.318 65.654 25.07 63.3382 25.0846C63.1822 25.0846 63.0148 25.07 62.8748 25.0414C62.5162 24.9717 62.247 24.8736 61.9377 24.7034C61.4319 24.4482 60.8868 23.9414 60.4658 23.3056C60.0928 22.7265 60.0041 22.3041 59.9164 21.7248C59.8843 21.5135 59.8685 21.2025 59.8685 20.9491V9.35918C59.8685 7.58025 61.3912 5.36359 64.3467 5.43383C65.6363 5.47709 67.3366 6.30866 68.0249 7.93409C68.3701 8.73867 68.3671 9.50065 68.3573 10.2766C68.3106 14.2156 63.1008 18.0977 63.0352 18.1403V19.9043C63.0352 20.314 63.0965 20.7664 63.2275 21.0334C63.2522 21.0896 63.4081 21.3856 63.6981 21.4708C64.3378 21.6692 65.0869 20.9075 65.9643 19.6783C66.0372 19.5794 66.1669 19.4535 66.3725 19.4821C66.4543 19.4958 66.5587 19.5521 66.6421 19.6083C66.9045 19.8203 68.0804 20.8217 68.0804 20.8217C68.1901 20.9342 68.2321 21.0331 68.2321 21.1316ZM37.0437 21.6412V16.6866L36.554 17.0811C36.2539 17.3204 35.7643 17.7579 35.3811 18.4226C35.075 18.9585 34.9436 19.4958 34.9206 19.6493C34.8363 20.1722 34.7561 21.315 35.6319 21.5697C35.6507 21.5697 35.8227 21.6123 35.8782 21.6123C36.0342 21.6263 36.2398 21.6412 36.4667 21.6412H37.0437ZM31.8588 9.52796C31.8588 9.4717 31.8732 9.41512 31.8998 9.35918L31.9245 9.31787C32.4883 8.34223 34.4353 5.27968 36.754 5.27968C36.91 5.27968 37.0759 5.27968 37.2157 5.30732C37.5743 5.37725 37.8426 5.47676 38.1543 5.64587C38.66 5.90052 39.2064 6.40753 39.6261 7.04332C39.9965 7.62285 40.0881 8.04628 40.1771 8.63947C40.2077 8.8359 40.2224 9.14714 40.2224 9.41511V24.4485C40.2224 24.6606 40.0402 24.8439 39.8129 24.8439H35.4441C33.7582 24.802 32.3606 23.9981 31.9087 22.9118C31.6696 22.3323 31.623 21.4994 31.6319 20.7225C31.6785 16.7721 36.9888 12.6074 37.0558 12.5495V10.7567C37.0558 10.3469 36.9934 9.89545 36.8634 9.6265C36.8371 9.57024 36.6841 9.27462 36.3941 9.18941C35.7544 9.00534 35.0041 9.75333 34.1266 10.982C34.0524 11.0815 33.9227 11.209 33.7217 11.1787C33.6357 11.1648 33.5322 11.1085 33.4478 11.0522C33.1858 10.8402 32.0138 9.83854 32.0138 9.83854C31.9025 9.72472 31.8588 9.64114 31.8588 9.52796ZM58.9684 7.80693L58.955 7.92042L54.2626 21.9651H58.6081C58.8357 21.9651 59.019 22.1486 59.019 22.3612V24.4358C59.019 24.6608 58.8354 24.8313 58.6081 24.8313H51.0917C50.8657 24.8313 50.6836 24.6612 50.6836 24.4358V22.5446L50.698 22.4452L55.3844 8.45508H51.0861C50.8585 8.45508 50.6736 8.28596 50.6736 8.06059V5.98572C50.6736 5.77368 50.8585 5.58928 51.0861 5.58928H58.5589C58.7848 5.58928 58.9687 5.77336 58.9687 5.98572V7.80693H58.9684ZM49.5936 7.80693L49.5791 7.92042L44.8895 21.9648H49.235C49.4596 21.9648 49.6432 22.1482 49.6432 22.361V24.4354C49.6432 24.6606 49.4596 24.8309 49.235 24.8309H41.7182C41.4897 24.8309 41.3074 24.6608 41.3074 24.4354V22.5444L41.3219 22.4448L46.0086 8.45475H41.7097C41.4854 8.45475 41.2989 8.28564 41.2989 8.06027V5.98572C41.2989 5.77368 41.4854 5.58928 41.7097 5.58928H49.1828C49.41 5.58928 49.5936 5.77336 49.5936 5.98572V7.80693Z" fill="white"/>
<path d="M169.297 24.8304H168.812V6.70458L168.971 6.78849L169.267 6.91695C170.454 6.06944 171.637 5.61673 173.129 5.61673H173.281C173.482 5.63202 173.635 5.78683 173.652 5.98586V8.68221C173.652 8.86498 173.485 9.01946 173.294 9.04808C171.035 9.18987 169.708 10.4322 169.708 12.0413V24.4483C169.708 24.6603 169.523 24.8304 169.297 24.8304ZM122.338 2.90608V0.973974C122.315 0.775593 122.14 0.635426 121.932 0.635426C121.877 0.635426 121.839 0.635426 121.793 0.649085L121.682 0.705349L119.348 1.97531C119.243 2.04686 119.167 2.14475 119.154 2.2706V3.68497H119.162V24.4483C119.162 24.6603 119.343 24.8437 119.573 24.8437H121.932C122.157 24.8437 122.341 24.6607 122.341 24.4483V2.93534L122.338 2.90608ZM117.439 3.35877V0.973974C117.414 0.775593 117.243 0.635426 117.032 0.635426C116.981 0.635426 116.942 0.635426 116.897 0.649085L116.786 0.705349L114.45 1.97531C114.345 2.04686 114.269 2.14475 114.256 2.2706V3.68497H114.261V24.4483C114.261 24.6603 114.447 24.8437 114.673 24.8437H117.032C117.26 24.8437 117.441 24.6607 117.441 24.4483V3.38837L117.439 3.35877ZM103.09 3.40236V0.973974C103.067 0.775593 102.892 0.635426 102.683 0.635426C102.633 0.635426 102.595 0.635426 102.548 0.649085L102.434 0.705349L100.103 1.97531C99.9966 2.04686 99.9221 2.14475 99.9072 2.2706V3.68497H99.9106V5.65901C99.5608 5.57543 99.1963 5.53284 98.8127 5.53284C96.4621 5.53284 94.568 7.21322 94.568 9.28808V21.0751C94.568 23.1501 96.4634 24.8015 98.816 24.8015H102.683C102.909 24.8015 103.094 24.6314 103.094 24.4203V3.42967L103.09 3.40236ZM99.8668 21.725C99.8668 21.725 99.3973 21.725 98.8163 21.725C98.2331 21.725 97.7613 21.3851 97.7613 20.9493V9.41492C97.7613 8.99149 98.2331 8.63929 98.8163 8.63929C99.3976 8.63929 99.8698 8.99149 99.8698 9.41492L99.8668 21.725ZM25.2664 3.89538C24.6339 4.24758 24.4037 4.64402 24.3893 5.47657V20.3269C24.3893 20.8924 25.0421 21.3984 25.8525 21.3984C26.663 21.3984 27.3201 20.8924 27.3201 20.3269V13.4095H26.3146C26.0887 13.4095 25.9051 13.2258 25.9051 13.0147V11.4908C25.9051 11.2647 26.0887 11.0944 26.3146 11.0944H30.3294C30.5538 11.0944 30.7373 11.2644 30.7373 11.4908V20.0293C30.7373 22.6424 28.5601 24.7592 25.8525 24.7592C23.1463 24.7592 20.9648 22.6424 20.9648 20.0293V6.26749C20.9648 4.58743 21.2433 3.0908 21.9966 2.04654C22.259 1.62148 22.772 1.19902 23.2471 0.944706C25.0368 -0.0140262 27.8711 0.676403 30.516 2.46996C30.6661 2.58249 30.7215 2.69598 30.7215 2.80851C30.7215 2.87843 30.7055 2.93502 30.6762 2.99096L29.4011 4.91037C29.3298 5.03818 29.1955 5.12403 29.0382 5.12403C28.9361 5.12403 28.8399 5.09574 28.7673 5.0229C27.3851 3.98091 26.0591 3.45829 25.2664 3.89538ZM74.1447 21.8085L74.2304 21.7945C74.4826 21.8228 74.6429 21.9929 74.6429 22.1906V24.6183C74.6429 24.8015 74.5158 24.9445 74.3454 25.0008C74.306 25.0008 74.2758 25.0138 74.2448 25.0138C74.0587 25.0415 73.8659 25.0571 73.6695 25.0571C71.3159 25.0571 69.4041 23.3058 69.4041 21.16C69.4041 21.1028 69.4143 21.0329 69.4186 20.9633V3.10641L69.4156 3.06381L69.4186 3.00592C69.4331 2.89241 69.5076 2.78022 69.6139 2.72396C69.6839 2.68136 71.9557 1.45399 71.9557 1.45399L72.068 1.39773C72.1146 1.38244 72.1524 1.36846 72.2063 1.36846C72.4147 1.36846 72.5895 1.52391 72.6115 1.72229V5.5621H74.2041C74.4313 5.5621 74.6149 5.73121 74.6149 5.95658V8.38497C74.6149 8.61066 74.4313 8.77977 74.2041 8.77977H72.6157V21.0332C72.6157 21.4859 73.0879 21.8378 73.6692 21.8378C73.8429 21.8371 74.0032 21.8228 74.1447 21.8085Z" fill="white"/>
<path d="M179.027 25.0563C176.675 25.0563 174.765 23.319 174.765 21.1592C174.765 21.102 174.772 21.0321 174.778 20.9625V3.10562L174.772 3.06302L174.778 3.01879C174.791 2.89163 174.865 2.77943 174.973 2.72317C175.043 2.68057 177.314 1.45321 177.314 1.45321L177.426 1.39694C177.474 1.38166 177.509 1.36768 177.561 1.36768C177.773 1.36768 177.946 1.52313 177.969 1.72151V5.56131H179.563C179.789 5.56131 179.97 5.74506 179.97 5.9558V8.38418C179.97 8.60988 179.789 8.77899 179.563 8.77899H177.972V21.0325C177.972 21.4851 178.447 21.837 179.027 21.837C179.202 21.837 179.359 21.8227 179.499 21.8084L179.59 21.7944C179.837 21.8227 179.998 21.9928 179.998 22.1905V24.6182C179.998 24.8013 179.872 24.9574 179.703 25.0007C179.664 25.0137 179.633 25.0137 179.604 25.0137C179.414 25.0407 179.222 25.0563 179.027 25.0563Z" fill="white"/>
</g>
<defs>
<clipPath id="clip0_299_2423">
<rect width="180" height="28.9756" fill="white" transform="translate(0 0.512207)"/>
</clipPath>
</defs>
</svg>
