<svg width="120" height="46" viewBox="0 0 120 46" fill="none" xmlns="http://www.w3.org/2000/svg">
<g clip-path="url(#clip0_299_2430)">
<path fill-rule="evenodd" clip-rule="evenodd" d="M25.0796 45.174C24.4974 44.8953 23.8507 44.9448 23.2369 44.8282C19.7418 44.1642 16.7819 42.6658 14.8164 39.5971C13.6382 37.7578 13.0182 35.7157 12.7727 33.5751C12.3564 29.9456 12.449 26.3354 13.5481 22.8117C15.1878 17.555 18.8899 15.2754 23.7 14.7452C26.4005 14.4476 29.0912 14.5723 31.7393 15.2143C36.3864 16.341 39.1874 19.355 39.9445 24.0501C40.3957 26.8487 40.3187 29.653 39.9719 32.4581C39.923 32.8541 39.7609 32.9908 39.374 33.0167C35.7839 33.2567 32.1948 33.5094 28.6056 33.7608C26.5916 33.902 24.5789 34.061 22.5637 34.1805C22.0716 34.2097 22.063 34.4051 22.2026 34.7682C22.4415 35.3895 22.9384 35.7418 23.5113 36.0052C24.503 36.4613 25.5674 36.6289 26.6437 36.7327C28.3003 36.8924 29.9591 36.8971 31.6146 36.7342C32.0212 36.6943 32.1479 36.8061 32.2064 37.2118C32.5281 39.4447 32.8736 41.6746 33.2421 43.9004C33.3205 44.3734 33.1599 44.5107 32.7229 44.5842C31.6597 44.7632 30.5999 44.9588 29.5252 45.0608C29.4301 45.0697 29.3214 45.0513 29.2795 45.174C27.8796 45.174 26.4797 45.174 25.0796 45.174ZM26.2597 27.4595C26.2599 27.4625 26.2599 27.4655 26.2602 27.4686C26.6993 27.445 27.1382 27.4199 27.5774 27.3983C28.0165 27.3767 28.4566 27.3684 28.8949 27.337C30.8295 27.1985 30.7379 27.7092 30.4567 25.4443C30.2187 23.5279 28.9975 22.3074 27.2698 22.0946C25.0893 21.826 23.5586 22.6373 22.7521 24.4968C22.3933 25.3239 22.2441 26.1953 22.1859 27.091C22.1581 27.5184 22.2333 27.6729 22.7269 27.6312C23.9009 27.5322 25.0817 27.5117 26.2597 27.4595Z" fill="white"/>
<path fill-rule="evenodd" clip-rule="evenodd" d="M0 1.18262C1.69763 1.19415 3.39528 1.21044 5.09291 1.21579C6.95183 1.22149 8.81113 1.23683 10.6694 1.20461C11.2073 1.19534 11.3701 1.32256 11.3688 1.88184C11.3491 10.1204 11.3552 18.359 11.3552 26.5977C11.3552 29.2315 11.3461 31.8657 11.3644 34.4995C11.3674 34.9196 11.2787 35.0607 10.8181 35.0924C7.21067 35.3411 3.60576 35.626 0 35.8998C0 24.3275 0 12.755 0 1.18262Z" fill="white"/>
<path fill-rule="evenodd" clip-rule="evenodd" d="M120 25.4371C119.745 25.8274 119.775 26.2955 119.647 26.7216C119.039 28.7347 117.918 30.35 116.07 31.4432C114.122 32.5953 110.662 32.6748 108.391 30.3677C108.373 30.4293 108.347 30.4787 108.344 30.5293C108.287 31.6552 108.287 31.6553 107.17 31.6553C105.491 31.6553 103.811 31.6452 102.131 31.6629C101.759 31.6668 101.621 31.5939 101.622 31.1844C101.636 24.0725 101.635 16.9603 101.623 9.84835C101.623 9.46039 101.726 9.35351 102.118 9.35743C104.097 9.37717 106.077 9.3843 108.056 9.35375C108.539 9.34626 108.6 9.51901 108.596 9.93145C108.576 11.8529 108.587 13.7746 108.587 15.6963C108.587 15.8863 108.587 16.0763 108.587 16.3515C110.399 15.2317 112.315 15.1006 114.261 15.367C117.125 15.7587 118.943 17.5578 119.643 20.5299C119.767 21.0551 119.737 21.6147 120.001 22.108C120 23.2177 120 24.3274 120 25.4371ZM113.21 23.6853C113.195 22.7325 112.984 21.8399 112.35 21.0935C111.516 20.1131 110.361 20.1119 109.522 21.0776C108.365 22.409 108.359 24.9885 109.509 26.3184C110.351 27.2916 111.499 27.3032 112.339 26.3308C112.994 25.572 113.201 24.6576 113.21 23.6853Z" fill="white"/>
<path fill-rule="evenodd" clip-rule="evenodd" d="M47.8802 0.826292C48.0536 1.02877 48.3175 0.971817 48.5349 1.0321C51.6188 1.88862 53.4695 4.71249 53.0441 7.94119C52.6663 10.8091 50.0329 13.0694 47.0123 13.1181C43.8804 13.1686 41.2651 10.9871 40.7719 7.91289C40.2818 4.85884 42.1891 1.90514 45.1892 1.05623C45.4087 0.99417 45.6657 1.01842 45.8402 0.826172C46.5203 0.826291 47.2002 0.826292 47.8802 0.826292Z" fill="#C10169"/>
<path fill-rule="evenodd" clip-rule="evenodd" d="M68.2043 23.8219C67.3493 26.2186 66.4755 28.6049 65.6573 31.0099C65.4766 31.5412 65.2349 31.6935 64.6862 31.6796C63.088 31.6395 61.4879 31.6602 59.8887 31.6703C59.603 31.6722 59.4113 31.6315 59.2964 31.3243C57.3426 26.1022 55.3785 20.8839 53.4194 15.6639C53.4002 15.6128 53.417 15.5486 53.417 15.4414C55.1939 15.4414 56.9679 15.4414 58.7417 15.4414C60.1613 15.4414 60.1645 15.4405 60.5297 16.8158C61.1281 19.0703 61.722 21.3259 62.3202 23.5903C62.5779 23.4913 62.5523 23.2346 62.6162 23.0499C63.4353 20.6768 64.2473 18.3013 65.0415 15.9198C65.1574 15.572 65.2989 15.4243 65.6982 15.4303C67.397 15.4564 69.0968 15.4536 70.7957 15.4321C71.1797 15.4271 71.3471 15.5443 71.4734 15.9066C72.3393 18.3891 73.2304 20.8631 74.1169 23.3384C74.1679 23.4807 74.1625 23.6609 74.3696 23.7506C75.0309 21.1864 75.7053 18.6318 76.3375 16.0671C76.4595 15.5722 76.6553 15.4197 77.17 15.4281C79.1853 15.4608 81.2015 15.4414 83.2783 15.4414C82.5776 17.3247 81.8992 19.1564 81.2149 20.986C79.9474 24.375 78.6677 27.7596 77.418 31.155C77.2673 31.5644 77.0686 31.681 76.6479 31.675C74.9888 31.6516 73.3291 31.6496 71.6704 31.676C71.2243 31.683 71.0178 31.5705 70.8664 31.1244C70.0788 28.8035 69.2456 26.4977 68.4283 24.1865C68.3835 24.0594 68.386 23.9063 68.2043 23.8219Z" fill="white"/>
<path fill-rule="evenodd" clip-rule="evenodd" d="M94.7891 25.5836C93.03 25.5836 91.2706 25.6008 89.5116 25.5732C88.9789 25.565 88.9504 25.7268 89.1424 26.146C89.584 27.1105 90.2404 27.8279 91.3598 27.8972C92.4619 27.9654 93.4197 27.6292 93.9839 26.5968C94.1078 26.3699 94.2643 26.3625 94.4731 26.3845C96.4395 26.5925 98.4057 26.8004 100.373 26.9998C100.652 27.028 100.715 27.1104 100.583 27.3703C100.238 28.0479 99.7989 28.6559 99.2754 29.2068C96.0123 32.6424 90.0085 33.4094 85.9801 30.9054C80.4115 27.4443 80.4275 19.9166 86.0106 16.4787C90.4326 13.7559 96.4457 14.904 99.3123 19.0321C100.593 20.8766 101.039 22.9143 100.68 25.1298C100.622 25.4833 100.465 25.5697 100.126 25.5669C98.3473 25.552 96.5682 25.5599 94.7891 25.5599C94.7892 25.5678 94.7891 25.5758 94.7891 25.5836ZM91.3983 21.7573C91.3982 21.7661 91.3982 21.7749 91.3982 21.7838C92.0963 21.7838 92.7954 21.7624 93.4923 21.792C93.8892 21.809 93.9128 21.6482 93.833 21.3388C93.5497 20.2393 92.591 19.5098 91.4084 19.5075C90.1999 19.5048 89.2335 20.2491 88.9525 21.378C88.8832 21.657 88.9243 21.7705 89.244 21.7627C89.9617 21.7453 90.6802 21.7573 91.3983 21.7573Z" fill="white"/>
<path fill-rule="evenodd" clip-rule="evenodd" d="M41.4075 24.1765C41.4075 21.444 41.4196 18.7115 41.3956 15.9793C41.3916 15.525 41.519 15.4284 41.9592 15.4312C45.2166 15.4504 48.4741 15.4521 51.7314 15.4297C52.1972 15.4266 52.2857 15.5659 52.2845 15.9962C52.2696 21.1839 52.2685 26.3716 52.2863 31.5591C52.2878 32.004 52.1587 32.1152 51.7275 32.144C48.4191 32.3654 45.1116 32.6031 41.8065 32.8665C41.315 32.9056 41.4082 32.6385 41.4081 32.3738C41.4071 29.6413 41.4075 26.9088 41.4075 24.1765Z" fill="white"/>
</g>
<defs>
<clipPath id="clip0_299_2430">
<rect width="120" height="44.3478" fill="white" transform="translate(0 0.826172)"/>
</clipPath>
</defs>
</svg>
