<svg width="130" height="50" viewBox="0 0 130 50" fill="none" xmlns="http://www.w3.org/2000/svg">
<g clip-path="url(#clip0_299_2438)">
<path d="M77.7801 11.0505C77.2802 11.5836 77.0342 12.2054 77.0342 12.9181C77.0342 13.6308 77.2802 14.2488 77.7801 14.7857C78.2818 15.3168 78.8835 15.5853 79.5909 15.5853C80.3003 15.5853 80.9001 15.3168 81.3999 14.7857C81.8998 14.2488 82.1496 13.6288 82.1496 12.9181C82.1496 12.2074 81.8998 11.5855 81.3999 11.0505C80.8982 10.5175 80.2984 10.251 79.5909 10.251C78.8835 10.251 78.2818 10.5175 77.7801 11.0505Z" fill="white"/>
<path d="M39.1726 10.9832C38.6728 11.5143 38.4229 12.1362 38.4229 12.8508C38.4229 13.5596 38.6728 14.1833 39.1726 14.7183C39.6724 15.2533 40.2761 15.5218 40.9816 15.5218C41.691 15.5218 42.2926 15.2533 42.7905 14.7183C43.2923 14.1853 43.5403 13.5596 43.5403 12.8508C43.5403 12.1362 43.2942 11.5143 42.7905 10.9832C42.2907 10.4501 41.689 10.1836 40.9816 10.1836C40.2761 10.1836 39.6724 10.4482 39.1726 10.9832Z" fill="white"/>
<path d="M130 22.2666V21.1039C130 20.7814 129.792 20.4241 129.373 20.0378C128.954 19.6496 128.454 19.4545 127.88 19.4545C127.04 19.4545 126.244 19.6322 125.492 19.9895C124.733 20.3449 123.987 20.7041 123.249 21.0556C122.343 20.3449 121.378 19.8679 120.35 19.6245C119.321 19.3812 118.239 19.2615 117.114 19.2615C116.084 19.2615 115.146 19.4217 114.292 19.7462C113.439 20.0687 112.706 20.5226 112.093 21.1039C111.484 21.6872 111.011 22.3728 110.672 23.1665C110.332 23.9564 110.163 24.8217 110.163 25.7564C110.163 26.697 110.317 27.5526 110.628 28.3309C110.936 29.1015 111.42 29.7176 112.072 30.1715C110.936 30.6524 110.022 31.3399 109.327 32.2303C108.629 33.1206 108.281 34.2099 108.281 35.5019C108.281 36.8577 108.765 37.9103 109.726 38.6558C109.054 39.3008 108.511 40.027 108.112 40.8343C107.71 41.6435 107.508 42.5184 107.508 43.4532C107.508 44.6835 107.789 45.7186 108.352 46.5568C108.915 47.3989 109.63 48.0652 110.501 48.5673C111.37 49.0733 112.335 49.4345 113.396 49.6566C114.457 49.8845 115.488 50.0004 116.484 50.0004C117.772 50.0004 119.073 49.8459 120.394 49.5388C121.711 49.2298 122.91 48.7489 123.989 48.0864C125.067 47.4201 125.951 46.5645 126.642 45.5139C127.332 44.4633 127.682 43.177 127.682 41.659C127.682 40.4017 127.495 39.3627 127.126 38.5573C126.757 37.75 126.249 37.1184 125.605 36.6665C124.961 36.2146 124.175 35.8998 123.243 35.7221C122.307 35.5425 121.292 35.4556 120.198 35.4556C119.75 35.4556 119.267 35.471 118.752 35.5C118.233 35.5348 117.72 35.5656 117.208 35.5985C116.687 35.6313 116.201 35.6622 115.734 35.6931C115.267 35.726 114.875 35.7452 114.552 35.7452C113.104 35.7452 112.114 35.6139 111.583 35.3571C111.055 35.0983 110.784 34.5942 110.784 33.8506C110.784 33.1109 111.037 32.518 111.535 32.0854C112.035 31.647 112.554 31.2665 113.104 30.944C114.454 31.7184 115.936 32.1105 117.543 32.1105C118.735 32.1105 119.798 31.9483 120.73 31.6239C121.661 31.2994 122.435 30.859 123.047 30.2893C123.654 29.7273 124.123 29.0725 124.446 28.329C124.769 27.5815 124.929 26.7743 124.929 25.9013C124.929 25.1597 124.858 24.4798 124.711 23.8676C124.569 23.2515 124.365 22.6046 124.108 21.9247C124.306 21.8262 124.573 21.6988 124.931 21.5385C125.286 21.3762 125.59 21.2951 125.848 21.2951C126.299 21.2951 126.688 21.3859 127.007 21.5655C127.33 21.7413 127.491 22.0078 127.491 22.3631C127.491 22.9445 127.426 23.4775 127.297 23.9642L129.902 23.0411C129.967 22.8518 130 22.5911 130 22.2666ZM110.745 38.9957C111.641 38.9957 112.752 38.9687 114.071 38.9242C115.392 38.874 117.224 38.8528 119.575 38.8528C121.697 38.8528 123.304 39.1193 124.4 39.6485C125.492 40.1835 126.042 41.1453 126.042 42.5378C126.042 43.4725 125.736 44.2334 125.123 44.8128C124.512 45.3999 123.779 45.848 122.924 46.1725C122.074 46.495 121.172 46.7132 120.225 46.8272C119.275 46.9431 118.462 46.9991 117.785 46.9991C117.045 46.9991 116.222 46.916 115.328 46.7538C114.423 46.5916 113.579 46.325 112.791 45.9542C112.001 45.5834 111.343 45.0909 110.813 44.4749C110.282 43.8626 110.017 43.0843 110.017 42.1495C110.017 41.5991 110.072 41.0409 110.188 40.4751C110.301 39.9111 110.488 39.4186 110.745 38.9957ZM121.361 25.6638C121.361 26.3417 121.282 26.9887 121.12 27.6028C120.963 28.2189 120.73 28.7674 120.426 29.2521C120.123 29.735 119.732 30.1232 119.256 30.4187C118.773 30.7084 118.216 30.8552 117.576 30.8552C116.935 30.8552 116.374 30.7103 115.895 30.4187C115.417 30.1251 115.025 29.735 114.723 29.2521C114.419 28.7674 114.186 28.2209 114.027 27.6028C113.867 26.9887 113.788 26.3417 113.788 25.6638C113.788 24.984 113.867 24.3389 114.027 23.7228C114.186 23.1125 114.419 22.566 114.723 22.1005C115.025 21.6331 115.417 21.2488 115.895 20.9591C116.374 20.6694 116.935 20.5226 117.576 20.5226C118.216 20.5226 118.773 20.6675 119.256 20.9591C119.732 21.2469 120.123 21.6331 120.426 22.1005C120.73 22.566 120.963 23.1106 121.12 23.7228C121.282 24.3389 121.361 24.984 121.361 25.6638ZM102.837 37.9296C103.9 37.9624 104.895 38.0107 105.832 38.0725V37.4931C104.736 37.2961 103.9 37.0315 103.321 36.6916C102.742 36.3517 102.452 35.6506 102.452 34.5807V26.05C102.452 24.756 102.258 23.6745 101.873 22.7977C101.485 21.9267 100.974 21.2314 100.326 20.7118C99.6838 20.2 98.9514 19.8254 98.1306 19.5975C97.3078 19.3734 96.4484 19.2615 95.5507 19.2615C94.5164 19.2615 93.4399 19.5704 92.3134 20.1807C91.1888 20.7988 90.193 21.4419 89.3202 22.1217V19.5531L82.2766 20.6192V21.2024C83.1436 21.2024 83.9048 21.3145 84.5661 21.5423C85.2274 21.7664 85.5561 22.367 85.5561 23.3346V34.5826C85.5561 35.6526 85.2659 36.3537 84.6872 36.6936C84.1086 37.0335 83.2724 37.298 82.1785 37.495V38.0745C82.9167 38.0127 83.6338 37.9624 84.3239 37.9315C85.016 37.8987 85.733 37.8813 86.4712 37.8813C87.5651 37.8813 88.6512 37.9006 89.7297 37.9315C90.8062 37.9644 91.8924 38.0127 92.9862 38.0745V37.495C91.7636 37.298 90.8466 37.0335 90.2353 36.6936C89.624 36.3537 89.3164 35.6526 89.3164 34.5826V24.3041C89.3164 24.0164 89.4778 23.7074 89.8008 23.381C90.1218 23.0584 90.5237 22.761 91.0062 22.4867C91.4887 22.2144 92.0192 21.9943 92.5998 21.8301C93.1804 21.6698 93.7417 21.5887 94.2915 21.5887C95.8314 21.5887 96.9521 22.0425 97.6423 22.9464C98.3363 23.8503 98.6803 25.1307 98.6803 26.7762V34.5807C98.6803 35.6506 98.3997 36.3517 97.8383 36.6916C97.2712 37.0315 96.4773 37.2961 95.4469 37.4931V38.0725C96.0909 38.0107 96.7618 37.9605 97.452 37.9296C98.1421 37.8987 98.8572 37.8794 99.5973 37.8794C100.699 37.8794 101.773 37.8987 102.837 37.9296ZM76.6613 37.9296C77.8012 37.9624 78.9373 38.0107 80.0639 38.0725V37.4931C79.3564 37.4603 78.7624 37.3965 78.2761 37.2961C77.7935 37.1995 77.3995 37.0296 77.0938 36.7882C76.7862 36.5448 76.5709 36.1895 76.4401 35.7221C76.3113 35.2528 76.2479 34.6116 76.2479 33.8043V19.5511L72.1744 19.8196H58.4331V20.7041H59.6788C59.9326 20.7891 60.1767 20.8876 60.3939 21.0074C60.9245 21.2971 61.1898 21.9112 61.1898 22.8499C61.1898 23.3694 60.9726 24.1419 60.5381 25.1751C60.1018 26.2103 59.5885 27.3073 58.9925 28.4738C58.3966 29.6384 57.7929 30.7625 57.1835 31.844C56.5703 32.9255 56.1051 33.7734 55.7821 34.3895C55.5572 33.9375 55.1689 33.1843 54.6248 32.1337C54.075 31.085 53.5194 29.959 52.9581 28.7635C52.3948 27.568 51.897 26.4112 51.4644 25.2968C51.0281 24.1825 50.8127 23.3501 50.8127 22.7977C50.8127 22.0252 51.1357 21.4593 51.7778 21.102C52.4199 20.7447 53.0792 20.5206 53.7559 20.4221V19.8428C53.0158 19.8756 52.4833 19.9103 52.1604 19.9374C51.8393 19.9721 51.5336 19.9876 51.2433 19.9876H50.1841C49.9573 19.9876 49.667 19.9876 49.3133 19.9876C48.9615 19.9876 48.5232 20.005 48.0137 20.0359C47.66 20.0031 47.3524 19.9876 47.0948 19.9876C46.8353 19.9876 46.6277 19.9876 46.4681 19.9876H45.6934C45.4685 19.9876 45.1551 19.9721 44.7552 19.9374C44.3515 19.9103 43.6345 19.8756 42.6079 19.8428V20.4221C43.6998 20.5844 44.6168 21.0382 45.3589 21.7799C46.0971 22.5254 46.6758 23.3674 47.0968 24.3022C48.0599 26.5329 49.146 28.8697 50.3514 31.309C51.5605 33.7541 52.6775 36.1334 53.7079 38.4607H55.4457C56.3781 36.2319 57.4066 34.0979 58.5331 32.0622C59.6577 30.0266 60.7842 27.9408 61.9127 25.8067C62.424 24.7734 62.918 23.9179 63.3852 23.238C63.8504 22.5582 64.3022 22.0174 64.7347 21.6118C65.1711 21.2101 65.594 20.9205 66.015 20.7428C66.0516 20.7254 66.0881 20.7196 66.1227 20.7061H68.9101V20.7138C69.7483 20.8123 70.4057 20.9919 70.8883 21.2468C71.3727 21.5076 71.7322 21.8397 71.9725 22.2434C72.2167 22.6489 72.3609 23.1511 72.4108 23.746C72.457 24.3447 72.4839 25.0322 72.4839 25.8048V33.8062C72.4839 34.6135 72.4185 35.2547 72.2916 35.724C72.1628 36.1914 71.9552 36.5468 71.665 36.7901C71.3747 37.0315 71.0036 37.2015 70.5519 37.2981C70.102 37.3985 69.5522 37.4622 68.9101 37.495V38.0745C69.6483 38.0127 70.3769 37.9624 71.0825 37.9315C71.7918 37.8987 72.5127 37.8813 73.2528 37.8813C74.3851 37.8794 75.5194 37.8987 76.6613 37.9296ZM38.5344 37.9296C39.6763 37.9624 40.8105 38.0107 41.937 38.0725V37.4931C41.2276 37.4603 40.6356 37.3965 40.1511 37.2961C39.6686 37.1995 39.2765 37.0296 38.9689 36.7882C38.6632 36.5448 38.446 36.1895 38.3172 35.7221C38.1903 35.2528 38.1268 34.6116 38.1268 33.8043V19.5511L30.791 20.0359V20.7118C31.6273 20.8103 32.2866 20.9899 32.7672 21.2449C33.2517 21.5056 33.6131 21.8378 33.8534 22.2415C34.0956 22.6471 34.2398 23.1492 34.2917 23.744C34.3378 24.3427 34.3628 25.0303 34.3628 25.8028V33.8043C34.3628 34.6116 34.2994 35.2528 34.1706 35.7221C34.0399 36.1895 33.8341 36.5448 33.5438 36.7882C33.2536 37.0296 32.8845 37.1995 32.4308 37.2961C31.981 37.3965 31.435 37.4603 30.791 37.4931V38.0725C31.5311 38.0107 32.2559 37.9605 32.9614 37.9296C33.6708 37.8968 34.3935 37.8794 35.1337 37.8794C36.2563 37.8794 37.3906 37.8987 38.5344 37.9296ZM26.01 38.0725L29.726 27.2127H29.0013C28.0362 28.7963 27.0808 30.1792 26.1311 31.3592C25.1815 32.5412 24.1433 33.5165 23.0187 34.2929C21.8903 35.0674 20.6196 35.6506 19.2047 36.0369C17.7879 36.4251 16.1328 36.6182 14.2354 36.6182C13.3972 36.6182 12.5686 36.5545 11.7496 36.4251C10.9288 36.2957 10.0849 36.1489 9.21597 35.9886V12.7162C9.21597 11.7447 9.26407 10.9297 9.36211 10.2653C9.45823 9.6067 9.70622 9.05435 10.108 8.61787C10.5117 8.17946 11.146 7.81636 12.0149 7.52667C12.8839 7.2389 14.0931 6.97816 15.6349 6.75026V6.16895C14.2853 6.23461 12.9243 6.28293 11.5555 6.31576C10.1906 6.35053 8.83151 6.36209 7.47815 6.36209C6.22282 6.36209 4.97516 6.3486 3.73714 6.31576C2.49912 6.28293 1.2534 6.23461 0 6.16895V6.75026C1.15728 6.84876 2.05698 7.02451 2.7029 7.28331C3.34306 7.54017 3.82754 7.94579 4.1505 8.49622C4.47154 9.04664 4.67146 9.76124 4.75413 10.6516C4.83295 11.5419 4.87522 12.664 4.87522 14.0198V33.2229C4.87522 33.8719 4.81758 34.4358 4.70608 34.9225C4.59266 35.4073 4.35811 35.8187 4.00824 36.1566C3.65067 36.4946 3.16426 36.7785 2.53564 37.0064C1.90894 37.2324 1.0631 37.3946 0.001936 37.4912V38.0706C0.803574 38.0088 1.60907 37.9585 2.41455 37.9276C3.21811 37.8948 4.02167 37.8774 4.82523 37.8774H19.0144C20.1736 37.8774 21.3367 37.8967 22.5132 37.9276C23.6897 37.9585 24.8527 38.0107 26.01 38.0725Z" fill="white"/>
<path d="M114.482 6.15527H17.8262V6.88146H114.515C114.496 6.6555 114.478 6.43531 114.478 6.21321C114.478 6.1939 114.482 6.17072 114.482 6.15527Z" fill="white"/>
<path d="M123.495 12.9572C119.936 12.9572 117.043 10.0506 117.043 6.47766C117.043 2.91051 119.938 0 123.495 0C127.047 0 129.94 2.91051 129.94 6.47766C129.94 10.0506 127.047 12.9572 123.495 12.9572ZM123.495 0.703028C120.323 0.703028 117.745 3.28905 117.745 6.47766C117.745 9.66434 120.323 12.2562 123.495 12.2562C126.663 12.2562 129.241 9.66434 129.241 6.47766C129.242 3.28905 126.665 0.703028 123.495 0.703028Z" fill="white"/>
<path d="M124.247 5.72081H126.058L126.779 2.59979C126.779 2.59979 125.673 2.59979 125.425 2.59979C125.181 2.59979 125.048 3.02274 125.048 3.02274C124.789 2.84892 124.512 2.69054 124.18 2.61329C122.84 2.30235 121.498 3.13092 121.167 4.43263H121.163L120.415 7.71584C120.208 8.99824 120.977 10.1107 122.284 10.412C123.589 10.7152 124.958 10.103 125.335 8.85726C125.335 8.85726 125.391 8.64095 125.395 8.61585L125.75 7.09592C125.75 7.09592 124.393 7.09592 124.318 7.09592C124.078 7.09592 123.891 7.32576 123.839 7.51309L123.789 7.75062L123.634 8.39571C123.536 8.79356 123.14 9.04461 122.738 8.94997C122.34 8.8592 122.09 8.46328 122.178 8.05964C122.178 8.05964 122.94 4.72618 122.942 4.72232C123.036 4.31867 123.434 4.06762 123.839 4.15839C124.241 4.25495 124.491 4.65667 124.399 5.06611L124.247 5.72081Z" fill="white"/>
</g>
<defs>
<clipPath id="clip0_299_2438">
<rect width="130" height="50" fill="white"/>
</clipPath>
</defs>
</svg>
