<svg width="130" height="76" viewBox="0 0 130 76" fill="none" xmlns="http://www.w3.org/2000/svg">
<g clip-path="url(#clip0_367_11880)">
<mask id="mask0_367_11880" style="mask-type:luminance" maskUnits="userSpaceOnUse" x="0" y="0" width="130" height="76">
<path d="M130 0H0V75.1299H130V0Z" fill="white"/>
</mask>
<g mask="url(#mask0_367_11880)">
<path d="M0.950637 48.098C0.611124 48.098 0.407416 48.098 0.407416 48.098H0V16.1348L21.8647 0L43.1862 16.1348V48.132H42.7788C42.7109 48.132 35.8867 48.098 25.4296 45.9194L25.5994 45.1025C34.4947 46.9747 40.7077 47.247 42.3714 47.315V16.6113L21.8647 1.1233L0.848789 16.6113V47.315C0.882741 47.315 0.882733 47.315 0.916685 47.315C3.87046 47.315 19.9295 47.0087 27.4328 40.7795L28.1458 41.324C24.5808 44.2855 18.6393 46.43 10.9323 47.4512C6.34891 48.0298 2.34265 48.098 0.950637 48.098Z" fill="white"/>
<path d="M46.294 40.1397L46.2625 40.0947H46.2076H46.1094H46.0039H45.9699V40.2002H45.8984V48.3357V48.4412H46.0039H46.2416H46.3471V48.3357V40.9753L49.6863 45.7074L49.7729 45.8302L49.859 45.707L53.164 40.9779V48.3017V48.4072H53.2695H53.5072H53.6127V48.3017V40.2002V40.0947H53.5072H53.2695H53.2146L53.1831 40.1397L49.7386 45.0542L46.294 40.1397Z" fill="white" stroke="white" stroke-width="0.25"/>
<path d="M59.0415 40.0273H58.975L58.9463 40.0873L55.0419 48.2568L54.9697 48.4079H55.1371H55.4087H55.4753L55.5039 48.3478L56.6296 45.9911H61.6572L62.7828 48.3478L62.8115 48.4079H62.878H63.1496H63.317L63.2448 48.2568L59.3404 40.0873L59.3117 40.0273H59.2452H59.0415ZM56.8654 45.5417L59.1434 40.7203L61.4213 45.5417H56.8654Z" fill="white" stroke="white" stroke-width="0.25"/>
<path d="M64.7793 40.0947H64.6738V40.2002V48.3357V48.4412H64.7793H67.3936C69.9939 48.4412 71.811 46.6282 71.811 44.285V44.2509C71.811 41.9078 69.9939 40.0947 67.3936 40.0947H64.7793ZM67.3597 47.9919H65.1225V40.544H67.3597C69.682 40.544 71.2944 42.1687 71.2944 44.2509V44.285C71.2944 46.3673 69.682 47.9919 67.3597 47.9919Z" fill="white" stroke="white" stroke-width="0.25"/>
<path d="M79.4495 40.2002V40.0947H79.344H73.708V40.2002H73.6025V48.3357V48.4412H73.708H79.4119H79.5174V48.3357V48.0974V47.9919H79.4119H74.0512V44.4586H78.8347H78.9402V44.3531V44.1148V44.0093H78.8347H74.0512V40.544H79.344H79.4495V40.4385V40.2002Z" fill="white" stroke="white" stroke-width="0.25"/>
<path d="M81.5856 40.2998H81.4385L81.4856 40.4392L84.066 48.0641L84.0902 48.1358H84.1659H85.6258H85.7013L85.7257 48.0643L87.3234 43.3869L88.9211 48.0643L88.9455 48.1358H89.021H90.4809H90.5565L90.5808 48.0641L93.1612 40.4392L93.2083 40.2998H93.0611H91.3297H91.2514L91.2287 40.3747L89.7637 45.1962L88.1705 40.3723L88.1466 40.2998H88.0703H86.6444H86.5681L86.5442 40.3723L84.951 45.1962L83.486 40.3747L83.4632 40.2998H83.385H81.5856Z" fill="white" stroke="white" stroke-width="0.25"/>
<path d="M95.9463 40.2998H95.8408V40.4054V47.9962V48.1017H95.9463H97.6099H97.7155V47.9962V40.4054V40.2998H97.6099H95.9463Z" fill="white" stroke="white" stroke-width="0.25"/>
<path d="M100.73 41.9371V42.0427H100.835H103.038V47.9962V48.1017H103.144H104.808H104.913V47.9962V42.0427H107.116H107.222V41.9371V40.4054V40.2998H107.116H100.835H100.73V40.4054V41.9371Z" fill="white" stroke="white" stroke-width="0.25"/>
<path d="M110.037 40.2998H109.931V40.4054V47.9962V48.1017H110.037H111.7H111.806V47.9962V45.0722H114.65V47.9962V48.1017H114.756H116.42H116.525V47.9962V40.4054V40.2998H116.42H114.756H114.65V40.4054V43.2953H111.806V40.4054V40.2998H111.7H110.037Z" fill="white" stroke="white" stroke-width="0.25"/>
<path d="M129.491 67.8068C125.858 70.1216 119.441 73.0489 112.685 73.3212C110.41 73.4234 109.595 72.7086 109.494 71.6874C109.459 70.8704 109.697 70.0875 110.105 69.3726C111.022 69.6449 111.972 69.7471 112.854 69.7131C114.111 69.6791 116.352 68.828 116.284 66.9899C116.249 66.207 115.673 65.5602 114.416 65.5943C112.142 65.6964 109.663 67.6026 108.849 69.9513C103.756 73.7978 100.734 74.1722 99.4438 74.2063C94.181 74.2744 94.1132 71.7894 94.0453 69.679C93.9773 68.0111 93.9434 66.6154 92.1101 66.6835C88.647 66.8196 84.5729 70.9384 81.7209 71.0406C81.2116 71.0746 81.0758 70.6661 81.0758 70.1896C81.1437 68.794 81.6191 66.1729 79.5141 66.2751C78.7671 66.3091 77.6807 66.7176 76.4923 67.3303C73.8782 68.6919 70.6867 71.0066 69.0231 72.5384L69.057 72.3001C69.5324 68.6919 70.5508 66.241 68.8194 65.9686C68.2082 65.8666 67.2236 66.5133 66.2051 67.2281C66.2051 67.2281 63.2853 69.5429 58.7358 68.6919C58.0907 68.5557 57.7172 68.4876 56.9703 68.1132C55.6802 67.1601 54.4579 67.3303 53.7109 67.5005C52.964 67.6706 52.998 67.6706 52.4208 68.0791C52.1152 68.2834 51.8097 68.5557 51.572 68.828C50.2819 69.8151 48.7541 70.7683 47.7694 71.1427C46.7849 71.5171 45.8682 71.7214 45.0194 71.7214C44.0348 71.7214 43.254 71.4491 42.6428 70.9384C42.0317 70.3938 41.4545 69.8492 40.9452 69.2365C40.436 68.6238 39.9267 68.0451 39.4174 67.5345C38.9082 66.9899 38.2631 66.7516 37.4822 66.7516C37.0069 66.7516 36.4976 66.8878 35.9544 67.1941C35.4112 67.5005 34.9019 67.9089 34.3587 68.4536C33.8155 68.9982 33.2722 69.6109 32.729 70.3258C32.1857 71.0406 31.6765 71.7894 31.2012 72.6064C31.0993 71.9256 30.9975 71.2108 30.9636 70.4619C30.9295 69.7131 30.8956 68.9982 30.8956 68.2834C30.8956 67.7047 30.8956 67.1261 30.9295 66.5474C30.9635 65.9687 30.9975 65.39 31.0654 64.8113C32.0839 64.1306 33.1364 63.3817 34.2228 62.5307C35.3093 61.7138 36.2939 60.8287 37.1427 59.8756C38.0254 58.9225 38.7045 57.9353 39.2477 56.8801C39.7909 55.8249 40.0285 54.7697 39.9607 53.6804C39.9267 53.306 39.8588 52.9315 39.757 52.489C39.6551 52.0805 39.4514 51.7061 39.2137 51.3657C38.976 51.0253 38.6705 50.753 38.2631 50.5147C37.8896 50.3105 37.4143 50.2083 36.8371 50.2083C36.0222 50.2083 35.2414 50.5828 34.4945 51.3657C33.7815 52.1486 33.1025 53.1698 32.4913 54.4633C31.8802 55.7568 31.3709 57.2545 30.9636 58.9565C30.5222 60.6585 30.2166 62.4286 30.0129 64.3008C29.6394 64.539 28.9264 65.1177 26.4141 65.2879H15.8212L18.2317 35.9457L18.028 35.8096C16.0588 34.4139 14.8705 32.1334 14.8705 29.6825C14.8705 25.5637 18.1978 22.1938 22.3399 22.1938C26.4819 22.1938 29.8092 25.5296 29.8092 29.6825C29.8092 32.0993 28.6209 34.3799 26.6517 35.8096L26.448 35.9457L27.2288 40.8475L28.1455 41.2559L27.3647 36.3202C29.4357 34.7544 30.6919 32.2694 30.6919 29.6825C30.6919 25.0871 26.9573 21.3428 22.3738 21.3428C17.7904 21.3428 14.0557 25.0871 14.0557 29.6825C14.0557 32.3035 15.3119 34.7884 17.3829 36.3542L14.9385 66.1389H26.448H26.5498C28.485 66.0708 29.7073 65.6623 29.945 65.4921C29.877 65.9346 29.8431 66.4112 29.8431 66.8537C29.8431 67.2963 29.8431 67.7728 29.8431 68.2153C29.8431 69.0323 29.877 69.9513 29.9789 70.9384C30.0807 71.9256 30.2166 72.9809 30.4203 74.1041H31.5407C32.05 73.2191 32.5932 72.4021 33.1364 71.6533C33.6796 70.9044 34.2228 70.2236 34.7321 69.645C35.2414 69.0663 35.7507 68.6238 36.192 68.2834C36.6674 67.943 37.1088 67.7728 37.4822 67.7728C37.9235 67.7728 38.3649 68.0451 38.8402 68.5557C39.3156 69.0663 39.8248 69.645 40.436 70.2577C41.0131 70.9044 41.6922 71.4831 42.4391 71.9937C43.186 72.5383 44.0348 72.7766 45.0534 72.7766C45.97 72.7766 46.9886 72.5724 48.075 72.1299C48.8899 71.8235 49.7726 71.3129 50.7572 70.6321C50.6893 71.0066 50.6893 71.4151 50.7572 71.8916C50.893 72.8106 51.2664 73.4914 51.8776 73.8659C52.4887 74.2403 53.1677 74.3764 53.9487 74.2744C55.137 74.1041 56.0876 73.5936 56.8006 72.7086C57.5135 71.8235 57.7852 70.7342 57.5814 69.3726C57.5814 69.3726 59.7543 69.9854 63.1494 69.5088C64.6433 69.3046 66.6464 68.0451 66.6464 68.0451C67.6989 67.4324 68.0385 66.9558 68.5817 66.9899C69.4305 67.0579 68.8873 69.0663 68.6496 70.1215C67.9706 73.117 68.0385 73.968 68.0385 73.968C68.5138 74.7509 68.9212 74.0021 68.9212 74.0021C69.9737 72.6745 73.98 69.6449 77.0016 68.1132C78.0541 67.6026 78.9709 67.2281 79.6159 67.2281C80.7363 67.1941 80.2271 69.7131 80.261 70.2917C80.2949 71.3129 80.6344 72.0618 81.8567 71.9937C84.9463 71.8576 88.9526 67.7388 92.2458 67.6366C93.1965 67.6026 93.1965 68.5557 93.2644 69.7471C93.3323 72.2661 93.4341 75.2615 99.5797 75.1254C101.311 75.0913 104.095 74.4446 108.678 71.2789C108.678 71.4151 108.644 71.5852 108.678 71.7214C108.78 73.3212 109.901 74.3424 112.787 74.2403C119.747 73.968 126.333 70.9384 130 68.6238C130 67.5345 129.491 67.8068 129.491 67.8068ZM114.484 66.5133C115.129 66.4793 115.401 66.7516 115.401 67.0579C115.435 68.2153 113.806 68.794 112.854 68.828C112.142 68.8621 111.428 68.7599 110.681 68.5898C111.666 67.3983 113.126 66.5474 114.484 66.5133ZM32.0839 58.8885C32.4574 57.3907 32.8988 56.0632 33.408 54.9398C33.9173 53.8165 34.4605 52.8975 35.0716 52.2507C35.6827 51.57 36.2939 51.2295 36.905 51.2295C37.3464 51.2295 37.7198 51.2976 38.0254 51.4338C38.297 51.57 38.5347 51.7742 38.6705 52.0125C38.8063 52.2507 38.9082 52.523 38.9421 52.7953C38.976 53.0677 39.01 53.374 39.01 53.6463C39.01 54.5995 38.7723 55.5185 38.297 56.4716C37.8217 57.4248 37.2106 58.3098 36.4637 59.1608C35.7167 60.0118 34.8679 60.8287 33.9513 61.5776C33.0345 62.3265 32.1179 63.0073 31.2351 63.5859C31.4049 61.952 31.7105 60.3862 32.0839 58.8885ZM56.1554 71.9937C55.6122 72.7086 54.8314 73.117 53.8128 73.2531C53.3035 73.3212 52.8621 73.2532 52.4887 73.0489C52.1152 72.8447 51.8776 72.4022 51.7757 71.7554C51.6739 71.0746 51.7757 70.4959 52.0474 70.0194C52.3189 69.5428 52.6925 69.1344 53.1677 68.828C53.6431 68.5216 53.6431 68.5216 54.2542 68.3855C54.8653 68.2834 55.8499 68.2493 56.5289 69.1003C56.8006 70.3598 56.6987 71.2789 56.1554 71.9937Z" fill="white"/>
</g>
</g>
<defs>
<clipPath id="clip0_367_11880">
<rect width="130" height="76" fill="white"/>
</clipPath>
</defs>
</svg>
