<svg width="130" height="94" viewBox="0 0 130 94" fill="none" xmlns="http://www.w3.org/2000/svg">
<g clip-path="url(#clip0_367_11895)">
<mask id="mask0_367_11895" style="mask-type:luminance" maskUnits="userSpaceOnUse" x="0" y="0" width="130" height="94">
<path d="M130 0H0V93.1081H130V0Z" fill="white"/>
</mask>
<g mask="url(#mask0_367_11895)">
<path d="M25.9446 65.1137C26.3463 65.0638 26.6808 64.7898 26.815 64.4183H27.0834L26.5027 66.7279C24.382 66.7279 22.2625 66.7279 20.1191 66.7279V66.4293C20.5435 66.2553 20.8563 65.7839 20.8563 65.2631V55.7784C20.8563 55.2323 20.5435 54.7855 20.1191 54.6115V54.3135C21.5475 54.3135 22.9764 54.3135 24.4042 54.3135V54.6115C23.9577 54.7855 23.6676 55.2329 23.6676 55.7784V65.1137H25.9446Z" fill="white"/>
<path d="M33.2737 54.6115C32.8116 54.7855 32.4956 55.2576 32.4956 55.7784V65.2631C32.4956 65.7845 32.8116 66.2553 33.2737 66.4293V66.7279C31.7422 66.7279 30.1871 66.7279 28.6309 66.7279V66.4293C29.1178 66.2553 29.4332 65.7839 29.4332 65.2631V55.7784C29.4332 55.257 29.1178 54.7855 28.6309 54.6115V54.3135C30.1871 54.3135 31.7422 54.3135 33.2737 54.3135V54.6115Z" fill="white"/>
<path d="M33.9696 40.5902V50.4572C33.9696 51.0009 34.3051 51.4932 34.8214 51.6743V51.985C33.1701 51.985 31.5188 51.985 29.8933 51.985V51.6743C30.3586 51.4932 30.7198 51.0009 30.7198 50.4572V42.5072C29.8933 45.6661 29.0427 48.8255 28.2173 51.985C26.7992 51.985 25.6367 51.7256 25.1209 50.2761L22.8504 43.828V50.4312C22.8504 51.0009 23.2128 51.4932 23.7022 51.6743V51.985C22.5925 51.985 21.4834 51.985 20.3748 51.985V51.6743C20.8389 51.4932 21.2002 51.0009 21.2002 50.4312V39.0364C20.7873 37.6123 20.1681 36.2395 19.3421 34.9965C14.9304 36.5762 10.39 38.3111 6.64857 37.9225C3.34651 37.5598 1.07603 35.7218 0.328194 33.6497C-2.43336 25.9332 12.9425 24.8966 19.8585 31.6035C25.4822 29.4547 31.9059 27.7972 33.9955 35.1003L33.6337 35.5667C31.3632 31.6819 26.952 32.4326 21.9469 34.0642C23.0302 35.5921 23.882 37.2756 24.4495 39.0364L27.5976 48.0484L29.9967 39.0364C31.5963 39.0364 33.1948 39.0364 34.8214 39.0364V39.3477C34.3051 39.5287 33.9696 40.0205 33.9696 40.5902ZM17.3037 32.5623C12.5049 28.0047 0.740601 28.2895 1.33392 33.106C1.59126 35.1257 4.76465 35.7212 6.46821 35.6693C10.054 35.5402 13.923 33.8319 17.3037 32.5623Z" fill="white"/>
<path d="M36.3703 51.6687C36.9076 51.4843 37.3685 50.9827 37.5482 50.4025L40.1874 40.2456C40.2895 39.8239 40.0847 39.3488 39.726 39.1121V38.7949C41.0841 38.7949 42.4411 38.7949 43.7741 38.7949L46.7973 50.4025C46.9507 50.9827 47.4122 51.4843 47.9763 51.6687V51.9853C46.3364 51.9853 44.7478 51.9853 43.133 51.9853V51.6153C43.5169 51.405 43.7228 50.9569 43.5693 50.4025L43.0041 48.2647H39.7511L39.1864 50.4025C39.0586 50.9569 39.2383 51.405 39.5971 51.6153V51.9853C38.5207 51.9853 37.47 51.9853 36.3691 51.9853V51.6687H36.3703ZM42.6989 46.972L41.3921 41.9605L40.0853 46.972H42.6989Z" fill="white"/>
<path d="M49.9868 51.7561V46.9265H50.5759C50.9091 47.8669 51.4202 48.8587 52.1881 49.5705C53.0837 50.4084 54.9005 50.968 55.9498 50.0786C56.564 49.5445 56.6403 48.5787 56.1293 47.9942C55.1055 46.9011 52.4439 46.647 50.806 45.3519C49.9617 44.6905 49.5265 43.7507 49.5265 42.7844C49.4501 40.2943 51.5227 38.7949 53.9023 38.7949C55.0286 38.7949 56.0524 39.0999 56.6922 39.3545C56.9479 39.4309 57.2299 39.3036 57.2812 39.049C57.5108 39.049 57.6897 39.049 57.9199 39.049L58.7898 42.2259C58.5602 42.2259 57.7672 42.2259 57.5108 42.2259C57.1525 40.9302 55.285 40.0912 53.8773 40.2185C52.1881 40.3458 51.5996 42.3023 53.9547 43.0899C56.4102 43.9544 59.584 44.768 59.584 47.9444C59.5583 50.766 57.153 51.9853 54.6708 51.9853C53.6471 51.9853 52.7515 51.7058 51.8041 51.299C51.2937 51.0698 50.5764 50.9691 50.4226 51.7567L49.9868 51.7561Z" fill="white"/>
<path d="M60.8199 51.7561V46.9265H61.4096C61.7418 47.8669 62.2535 48.8587 63.0216 49.5705C63.9173 50.4084 65.7344 50.968 66.7834 50.0786C67.3976 49.5445 67.474 48.5787 66.9623 47.9942C65.939 46.9011 63.278 46.647 61.6393 45.3519C60.7943 44.6905 60.3595 43.7507 60.3595 42.7844C60.2832 40.2943 62.3561 38.7949 64.7356 38.7949C65.8615 38.7949 66.8854 39.0999 67.5247 39.3545C67.7811 39.4309 68.0626 39.3036 68.1144 39.049C68.3441 39.049 68.5236 39.049 68.7532 39.049L69.6238 42.2259C69.3931 42.2259 68.5999 42.2259 68.3435 42.2259C67.9846 40.9302 66.1168 40.0912 64.7099 40.2185C63.0205 40.3458 62.4324 42.3023 64.7863 43.0899C67.2432 43.9544 70.417 44.768 70.417 47.9444C70.3914 50.766 67.9851 51.9853 65.5031 51.9853C64.4797 51.9853 63.5834 51.7058 62.6364 51.299C62.1248 51.0698 61.4091 50.9691 61.2547 51.7567L60.8199 51.7561Z" fill="white"/>
<path d="M79.9199 49.4265H80.4767L79.7865 51.9853C77.1629 51.9853 74.5635 51.9853 71.9648 51.9853V51.6687C72.4689 51.4843 72.8403 50.9828 72.8403 50.4025V40.3782C72.8403 39.7974 72.4689 39.2971 71.9648 39.1121V38.7949C74.5104 38.7949 77.0826 38.7949 79.6554 38.7949L80.1053 40.4828L80.3704 41.3537H79.786C79.6017 40.8522 79.1241 40.4828 78.5408 40.4828H76.154V44.4927H77.8507C78.2752 44.4927 78.6997 44.2813 78.9907 43.9384H79.548L78.6725 47.051H78.3809C78.2226 46.577 77.8242 46.2335 77.3206 46.1806H76.1534V50.2957H78.6719C79.2304 50.2974 79.7346 49.928 79.9199 49.4265Z" fill="white"/>
<path d="M88.132 38.7949C91.2666 38.8742 92.436 40.5363 92.1704 42.4879C92.0113 43.965 91.134 44.9411 89.9652 45.6012L92.0107 49.2937L92.9667 51.0609C93.1264 51.3251 93.3653 51.5624 93.631 51.6423V51.9853C92.914 51.9853 92.1959 51.9853 91.4517 51.9853C90.2302 51.9853 89.5126 51.405 88.9542 50.3755L87.0412 46.6296C86.5106 46.7353 85.9782 46.814 85.4742 46.8933V50.4283C85.4742 50.9822 85.8463 51.4837 86.3509 51.6417V51.9847C84.6502 51.9847 82.9501 51.9847 81.25 51.9847V51.6423C81.7818 51.4843 82.1267 50.9827 82.1267 50.4289V40.3519C82.1267 39.7975 81.7818 39.3224 81.25 39.1121V38.7949C83.4807 38.7949 85.7143 38.7949 87.9462 38.7949H88.132ZM85.4759 45.2054C90.3118 45.0997 89.9131 40.2192 87.9474 40.0876H85.4759V45.2054Z" fill="white"/>
<path d="M99.8219 39.1121C99.2835 39.2965 98.9148 39.7975 98.9148 40.3519V50.4289C98.9148 50.9827 99.2835 51.4843 99.8219 51.6687V51.9853C98.0362 51.9853 96.2195 51.9853 94.4053 51.9853V51.6687C94.9715 51.4843 95.3414 50.9827 95.3414 50.4289V40.3519C95.3414 39.7975 94.9715 39.2965 94.4053 39.1121V38.7949C96.2195 38.7949 98.0368 38.7949 99.8219 38.7949V39.1121Z" fill="white"/>
<path d="M128.452 50.5812C128.427 56.1089 122.678 60.0198 117.241 58.7165C112.089 57.6734 109.577 53.1366 107.998 48.1552H104.787L104.217 50.2683C104.062 50.7896 104.269 51.2592 104.632 51.4671V51.8328C103.544 51.8328 102.457 51.8328 101.369 51.8328V51.5199C101.913 51.3109 102.379 50.8163 102.56 50.2683L105.227 40.2288C105.332 39.812 105.122 39.3685 104.761 39.1084V38.7949C106.107 38.7949 107.479 38.7949 108.851 38.7949C110.432 44.7139 111.389 54.2576 117.707 56.9698C122.057 58.821 125.681 54.8311 125.681 50.5545C125.681 46.6435 123.688 43.1755 120.063 43.1755C115.533 43.1755 113.823 48.5987 117.034 50.45C118.121 51.1019 119.624 50.998 120.529 49.9287C121.901 52.6147 119.571 54.2831 117.163 53.8924C111.079 52.8487 111.622 41.4804 120.063 41.4804C124.258 41.5071 127.805 44.6872 128.374 48.8599C128.427 49.4079 128.452 49.9809 128.452 50.5812ZM107.635 46.8775C107.17 45.2886 106.756 43.619 106.393 42.0807L105.123 46.8775H107.635Z" fill="white"/>
<path d="M53.3923 63.6731C52.697 63.9573 52.1564 64.6464 52.1171 65.4967L52.1558 73.8848C50.1869 74.7757 48.0632 75.2217 45.9009 75.2623C31.8835 75.3835 32.8868 54.5159 44.5494 54.3135C46.2098 54.3135 48.0632 54.9219 48.758 55.2056C49.4147 55.4886 49.5308 55.1238 49.6458 54.7189C49.994 54.7189 50.1869 54.7189 50.534 54.7189L51.8081 59.783C51.461 59.783 50.2632 59.783 49.9166 59.783C48.6038 54.5971 41.3434 54.9214 40.9194 62.6604C40.6878 67.1172 42.5412 72.7085 47.2905 73.3987V65.5779C47.2905 64.6864 46.7493 63.9579 46.0158 63.6737V63.1877C48.4872 63.1877 50.9204 63.1877 53.3918 63.1877L53.3923 63.6731Z" fill="white"/>
<path d="M82.0905 92.1792C78.8161 91.3105 75.8185 89.851 73.3335 87.5233C72.8592 87.089 72.4261 86.6157 71.9529 86.0627C63.3935 89.3381 53.5322 91.9815 50.2979 80.8946L50.8501 80.2235C54.439 86.2203 61.4613 84.8393 69.1517 82.1959C67.0608 78.764 65.4839 74.1472 64.1039 69.3332H59.331L58.4637 72.529C58.2661 73.3186 58.5416 73.9896 59.1345 74.3048V74.8577C57.4779 74.8577 55.8212 74.8577 54.125 74.8577V74.3844C54.9528 74.1082 55.7021 73.3587 55.9392 72.5295L60.0018 57.299C60.1994 56.6275 59.8838 55.9565 59.2915 55.6023V55.0889C61.3823 55.0889 63.4726 55.0889 65.4444 55.0889C67.2201 61.7182 70.2178 75.0548 73.4125 80.816C79.8816 78.4878 86.5477 76.0021 91.9909 76.5934C97.041 77.1464 100.552 79.9473 101.696 82.985C104.654 91.3105 92.346 94.9807 82.0905 92.1792ZM63.7087 67.3608C63.0379 64.8745 62.4072 62.3491 61.816 59.982L59.8437 67.3608H63.7087ZM100.157 83.8147C99.7625 80.855 94.8711 79.9468 92.267 80.0264C87.0209 80.2241 80.7883 82.8669 76.0154 84.5247C76.0945 84.6037 76.1335 84.6817 76.2132 84.7613C77.3565 86.0237 78.5796 87.0506 79.9206 87.799C88.0073 92.2187 100.788 88.9043 100.157 83.8147Z" fill="white"/>
<path d="M86.4327 57.6101L86.667 58.4258H85.8459C85.454 57.9211 84.8279 57.6101 84.162 57.6101H80.9899V72.1974C80.9899 73.0126 81.4983 73.7495 82.2825 73.9827V74.4864C79.7758 74.4864 77.2702 74.4864 74.8027 74.4864V73.9827C75.5079 73.7495 76.0555 73.0126 76.0555 72.1974V57.6101H72.9232C72.2573 57.6101 71.6306 57.9211 71.2007 58.4258H70.417L70.6519 57.6101L71.3178 55.0889C76.0947 55.0889 80.9507 55.0889 85.7668 55.0889L86.4327 57.6101Z" fill="white"/>
<path d="M104.23 57.6101L104.464 58.4258H103.642C103.25 57.9211 102.624 57.6101 101.958 57.6101H98.7871V72.1974C98.7871 73.0126 99.2966 73.7495 100.079 73.9827V74.4864C97.5742 74.4864 95.0666 74.4864 92.5994 74.4864V73.9827C93.305 73.7495 93.8532 73.0126 93.8532 72.1974V57.6101H90.7195C90.0537 57.6101 89.4265 57.9211 88.9972 58.4258H88.2148L88.449 57.6101L89.1149 55.0889C93.8919 55.0889 98.7484 55.0889 103.564 55.0889L104.23 57.6101Z" fill="white"/>
<path d="M111.809 72.1974V58.2853C110.711 57.3802 109.819 56.2751 109.082 55.0889C108.059 55.0889 107.036 55.0889 106.012 55.0889V55.5548C106.741 55.8258 107.216 56.5622 107.216 57.3779V72.1974C107.216 73.0126 106.741 73.7495 106.012 74.0211V74.4864C108.345 74.4864 110.679 74.4864 112.976 74.4864V74.0211C112.283 73.7495 111.809 73.0126 111.809 72.1974Z" fill="white"/>
<path d="M26.0884 72.5822C24.9412 71.948 23.8396 71.2993 22.7374 70.8814C21.4734 70.4198 20.3432 70.1315 19.3282 70.4495C17.5362 70.9965 17.0805 72.9996 18.9762 73.7355C20.5335 74.3412 21.8852 73.7791 22.841 72.4962C22.9726 72.5968 23.0171 72.6398 23.0467 72.6398C21.0473 76.4745 14.8025 73.6774 17.8443 70.2187C18.7557 69.166 20.3433 68.8486 22.3261 69.1805C25.8236 69.7862 33.6843 75.7398 35.3898 71.7614L35.5949 71.9056C35.1688 74.0819 32.5827 74.5859 30.6437 74.3412C29.6885 74.2261 28.7919 73.9232 27.9255 73.5338L26.0884 72.5822ZM23.0467 72.6398C23.0467 72.6398 23.0467 72.6392 23.0467 72.6253C23.0467 72.6253 23.0609 72.6398 23.0467 72.6398Z" fill="white"/>
<path d="M113.182 36.5648C113.344 38.6322 113.333 40.6718 113.169 42.6745C113.548 42.2628 113.981 41.8896 114.469 41.5691C114.557 39.8902 114.541 38.1887 114.407 36.4689C112.716 14.7269 93.7509 -1.57913 72.1305 0.12187C53.6825 1.5733 39.1788 15.6753 36.3691 33.2887C36.7329 33.9104 37.0499 34.6313 37.3132 35.4622C39.2268 17.4852 53.6684 2.81204 72.2258 1.35267C93.1711 -0.295581 111.544 15.5017 113.182 36.5648Z" fill="white"/>
<path fill-rule="evenodd" clip-rule="evenodd" d="M68.099 20.9492C68.3155 21.3037 68.8398 20.7797 68.8685 21.7045C68.5686 21.5889 68.0417 22.1129 68.099 20.9492Z" fill="white"/>
<path fill-rule="evenodd" clip-rule="evenodd" d="M105.238 21.265C105.169 21.6516 104.79 21.516 104.696 21.3068C104.6 21.3537 104.608 21.6237 104.536 21.7251C104.286 21.2244 104.756 20.6033 104.937 21.1826C105.039 21.2054 105.196 21.118 105.238 21.265Z" fill="white"/>
<path fill-rule="evenodd" clip-rule="evenodd" d="M102.917 20.9492C102.781 21.379 102.4 21.4532 102.157 21.7251C102.091 21.5638 102.268 21.4178 102.402 21.4155C102.526 21.1941 102.646 20.9669 102.917 20.9492Z" fill="white"/>
<path fill-rule="evenodd" clip-rule="evenodd" d="M101.369 22.0541C101.333 22.234 101.195 22.0911 101.163 22.0134C101.031 22.0516 101.057 22.3659 100.979 22.5015C100.854 22.4276 100.741 22.2476 100.613 22.2981C100.574 22.1675 100.604 22.0861 100.657 22.0146C100.752 22.0245 100.809 22.1022 100.864 22.1773C100.939 21.9592 100.983 21.6831 101.209 21.7311C101.304 21.7669 101.263 22.0393 101.369 22.0541Z" fill="white"/>
<path fill-rule="evenodd" clip-rule="evenodd" d="M102.143 21.7641C102.145 21.9464 102.038 21.9576 101.948 21.9984C101.854 22.1511 101.814 22.3915 101.692 22.5015C101.522 22.419 101.538 22.0442 101.369 21.9648C101.373 21.8395 101.457 21.8334 101.519 21.7967C101.624 21.8334 101.643 22.0065 101.713 22.0982C101.773 22.0035 101.795 21.8466 101.863 21.7641C101.953 21.7641 102.068 21.6775 102.143 21.7641Z" fill="white"/>
<path fill-rule="evenodd" clip-rule="evenodd" d="M107.444 22.631C107.411 22.6264 107.411 22.5901 107.378 22.5855C107.405 22.716 107.576 22.9108 107.428 23.039C107.554 23.0845 107.515 23.2233 107.526 23.3262C107.532 23.374 107.567 23.4066 107.558 23.4475C107.51 23.7196 107.11 23.8753 106.966 24.0527C106.97 23.788 107.425 23.8082 107.411 23.4774C107.382 23.4535 107.328 23.4526 107.312 23.4177C107.304 23.3083 107.386 23.2573 107.378 23.1907C107.326 23.1484 107.252 23.1254 107.264 23.0238C107.266 22.9664 107.323 22.9577 107.346 22.9186C107.329 22.852 107.259 22.8364 107.264 22.7518C107.229 22.7504 107.121 22.7252 107.181 22.6466C107.075 22.6847 107.072 22.8184 107.033 22.9186C106.955 22.8492 106.93 22.7307 106.786 22.7219C106.829 22.6843 106.919 22.6921 106.967 22.6613C106.999 22.4789 107.393 22.4302 107.444 22.631Z" fill="white"/>
<path fill-rule="evenodd" clip-rule="evenodd" d="M95.9369 24.1494C95.9942 24.3611 95.8738 24.558 95.8993 24.7967C95.8218 24.807 95.768 24.8369 95.7084 24.861C95.6794 25.0898 95.8027 25.3683 95.6511 25.5077C95.4601 25.4856 95.3334 25.5181 95.2703 25.6045C95.1482 25.5588 95.1482 25.133 95.2703 25.0874C95.3953 25.1001 95.3305 25.2735 95.3461 25.3786C95.393 25.4159 95.518 25.384 95.5949 25.3943C95.5973 25.2126 95.5834 25.0186 95.6129 24.861C95.4306 24.6503 95.4156 24.3017 95.5562 24.0527C95.7147 24.0551 95.8362 24.0674 95.9369 24.1494ZM95.6129 24.4568C95.6123 24.5388 95.6459 24.5904 95.632 24.6827C95.6765 24.6827 95.7211 24.6827 95.7662 24.6827C95.7546 24.5978 95.8229 24.4951 95.7853 24.4406C95.7639 24.477 95.6644 24.4465 95.6129 24.4568Z" fill="white"/>
<path fill-rule="evenodd" clip-rule="evenodd" d="M107.086 24.0527C107.166 24.1776 107.07 24.3649 107.178 24.457C107.238 24.3761 107.363 24.3874 107.48 24.3894C107.54 24.5092 107.578 24.673 107.55 24.8286C107.464 24.7006 107.328 24.6597 107.226 24.7938C107.135 24.7682 107.074 24.7006 107.016 24.6249C106.954 24.7017 106.929 24.8327 106.786 24.7938C106.806 24.5563 106.849 24.0854 107.086 24.0527Z" fill="white"/>
<path fill-rule="evenodd" clip-rule="evenodd" d="M106.786 24.0738C106.714 24.449 106.427 25.0084 106.012 24.7724C106.125 24.4238 106.326 23.9466 106.786 24.0738Z" fill="white"/>
<path fill-rule="evenodd" clip-rule="evenodd" d="M107.425 25.2577C107.507 25.437 107.577 25.5612 107.556 25.8163C107.503 25.8926 107.443 25.9605 107.332 25.9756C107.322 26.0653 107.398 26.0653 107.407 26.135C107.37 26.4076 107.411 26.6645 107.258 26.8735C106.832 27.1546 106.588 27.6308 106.18 27.9314C106.118 27.8962 106.097 27.941 106.012 27.9314C106.165 27.7617 106.374 27.6539 106.534 27.4915C106.565 27.2788 106.693 27.0014 106.849 26.8935C106.897 26.8596 106.954 26.8735 106.998 26.8335C107.154 26.6918 107.226 26.2428 107.259 25.8963C107.271 25.7702 107.248 25.6212 107.184 25.5176C107.201 25.3692 107.287 25.2958 107.296 25.1383C107.329 25.1359 107.334 25.1626 107.37 25.1589C107.355 25.0481 107.271 25.0129 107.146 25.0196C107.145 24.9487 107.092 24.9305 107.09 24.8596C107.41 24.7324 107.599 25.0305 107.425 25.2577Z" fill="white"/>
<path fill-rule="evenodd" clip-rule="evenodd" d="M64.2859 26.2322C64.3309 26.1388 64.4223 26.3135 64.5876 26.2322C64.6896 26.3135 64.7895 26.3957 64.888 26.4789C64.8557 26.7732 65.0625 26.8984 64.9802 27.1562C64.8254 27.1572 64.8016 26.9834 64.7038 26.9105C64.6306 26.9152 64.6728 27.0759 64.5876 27.0628C64.5609 26.8442 64.6546 26.7825 64.7728 26.7564C64.7524 26.377 64.4089 26.5452 64.2162 26.448C64.2534 26.0556 64.1563 25.8622 63.984 25.894C63.7244 25.9435 63.7905 26.8694 63.6146 27.0329C63.552 27.0329 63.4816 27.0441 63.4521 27.0021C63.4676 26.9086 63.5576 26.9161 63.5914 26.8479C63.583 26.6358 63.4951 26.2322 63.7076 26.2322C63.7315 26.0696 63.7314 25.8753 63.7771 25.7417C64.0332 25.3848 64.5336 25.7865 64.2859 26.2322Z" fill="white"/>
<path fill-rule="evenodd" clip-rule="evenodd" d="M44.8812 26.5946C44.7755 26.7364 44.393 26.5736 44.4892 26.94C44.2706 26.9006 44.2742 27.1055 44.1388 27.1567C44.083 27.0228 44.0901 26.8179 44.2552 26.8113C44.134 26.3306 44.8123 26.2439 44.8812 26.5946Z" fill="white"/>
<path fill-rule="evenodd" clip-rule="evenodd" d="M64.3616 27.1562C64.4212 27.1562 64.4821 27.1562 64.5431 27.1562C64.5597 27.2926 64.6747 27.339 64.6332 27.5268C64.7385 27.6395 64.8937 27.4542 65.0004 27.5669C64.9768 28.3592 63.8447 27.6945 64.3616 27.1562Z" fill="white"/>
<path fill-rule="evenodd" clip-rule="evenodd" d="M40.2383 30.2598C41.1297 30.3595 41.8568 30.7276 42.5598 31.0357C41.8186 30.8091 41.1001 30.4343 40.2383 30.2598Z" fill="white"/>
<path fill-rule="evenodd" clip-rule="evenodd" d="M78.9117 29.9296C78.7091 29.9711 78.6823 29.8394 78.5199 29.8365C78.359 29.8537 78.4424 30.1085 78.4231 30.2603C77.55 29.8322 79.1084 28.949 78.9117 29.9296Z" fill="white"/>
<path fill-rule="evenodd" clip-rule="evenodd" d="M38.6904 30.2598C39.228 30.4947 39.7797 30.7147 40.238 31.0357C39.7543 30.8298 39.142 30.5734 38.6904 30.2598Z" fill="white"/>
<path fill-rule="evenodd" clip-rule="evenodd" d="M73.6318 31.8115C72.2856 32.0308 70.9276 32.2398 69.5989 32.4782C70.9959 32.6084 72.3398 32.44 73.6877 32.44C74.1376 32.44 74.5936 32.4875 75.0446 32.4782C75.6209 32.4666 76.1848 32.3081 76.7357 32.2305C77.4197 32.1339 78.0547 32.021 78.7428 32.021C77.7861 32.1773 76.7927 32.2953 75.8252 32.44C77.168 32.4215 78.4775 32.491 79.7277 32.6113C80.1454 32.6524 80.5885 32.7294 80.9909 32.7068C81.9392 32.653 82.8378 32.4099 83.7973 32.4597C82.9704 32.5569 82.1333 32.6455 81.289 32.7259C81.3398 32.7682 81.4363 32.7659 81.5305 32.7641C80.5129 32.7745 79.6476 32.943 78.7061 33.0309C80.3542 33.112 81.9877 33.1635 83.5935 33.2404C84.1281 33.2659 84.6812 33.3666 85.1909 33.3354C85.735 33.3024 86.2724 33.1918 86.808 33.1264C87.4565 33.0471 88.0927 32.9696 88.7412 32.9742C87.6908 33.1357 86.5726 33.2271 85.4883 33.3545C86.8458 33.4459 88.2462 33.6132 89.6319 33.6971C90.1004 33.726 90.5801 33.8007 91.0266 33.7932C91.7355 33.781 92.3756 33.4991 93.071 33.5263C92.5709 33.6624 91.9794 33.7034 91.4358 33.7932C92.8723 33.9529 94.4984 33.9182 95.9518 34.06C94.7417 34.0976 93.4525 33.987 92.217 33.9263C91.7976 33.9054 91.3624 33.8406 90.9718 33.869C90.255 33.9222 89.5895 34.1711 88.9094 34.1358C89.5015 34.0316 90.1122 33.9465 90.7116 33.8505C89.3367 33.7781 87.9137 33.5738 86.5111 33.5067C86.0308 33.4847 85.5527 33.4019 85.0995 33.4123C84.5068 33.4245 83.9491 33.6299 83.3711 33.6213C83.7691 33.4893 84.2968 33.491 84.7275 33.3927C80.8662 33.1363 76.8768 33.1264 72.889 33.0113C74.6297 32.9048 76.485 33.0466 78.2043 33.0489C79.0126 33.05 79.7712 32.7826 80.5089 32.7635C79.7018 32.6906 78.8399 32.5882 77.9435 32.554C77.0563 32.5199 76.1069 32.469 75.2117 32.5349C74.4932 32.5876 73.8102 32.8249 73.112 32.8394C73.6307 32.7172 74.1884 32.6345 74.7471 32.554C73.4902 32.3908 72.0791 32.5951 70.677 32.5731C70.2159 32.5662 69.7536 32.5008 69.3201 32.5355C69.074 32.5546 68.8257 32.6605 68.5773 32.6299C68.6975 32.5755 68.8612 32.565 69.0046 32.5355C68.719 32.4915 68.4035 32.4794 68.0947 32.4591C68.5084 32.3816 68.8962 32.5072 69.284 32.4776C69.6035 32.4528 69.9325 32.363 70.2497 32.3063C70.576 32.2473 70.8966 32.1894 71.2166 32.1344C72.0029 31.9996 72.7152 31.826 73.6318 31.8115Z" fill="white"/>
<path fill-rule="evenodd" clip-rule="evenodd" d="M54.1663 31.8115C53.2197 31.9713 52.2595 32.1191 51.3267 32.2905C51.8883 32.313 52.5498 32.2058 53.1484 32.2574C52.4148 32.3516 51.6777 32.3211 50.9346 32.3727C50.448 32.4062 50.0012 32.5956 49.5234 32.5871C49.8441 32.521 50.1665 32.4568 50.5033 32.4057C50.32 32.3666 50.0523 32.3992 49.837 32.3892C50.1392 32.3085 50.5199 32.3416 50.8162 32.3231C51.3118 32.291 51.805 32.1472 52.2857 32.0585C52.8872 31.9478 53.4286 31.8185 54.1663 31.8115Z" fill="white"/>
<path fill-rule="evenodd" clip-rule="evenodd" d="M48.7502 31.814C48.4579 31.9073 48.1191 31.9499 47.8207 32.0383C47.9165 32.0741 48.0582 32.0581 48.1673 32.0791C47.4609 32.0568 46.9648 32.27 46.327 32.3237C46.5889 32.2496 46.8613 32.1884 47.1464 32.1396C46.394 32.1452 45.6821 32.1921 44.9579 32.2422C44.262 32.2897 43.5883 32.4695 42.8808 32.5059C41.9828 32.5517 41.045 32.3954 40.2383 32.5875C40.3291 32.4856 40.4775 32.4633 40.5838 32.4448C41.4364 32.3021 42.5231 32.4479 43.4095 32.3842C43.8036 32.3558 44.1912 32.2459 44.5942 32.2211C45.5869 32.1612 46.4893 32.1167 47.4741 32.0383C47.9093 32.0037 48.2758 31.7862 48.7502 31.814Z" fill="white"/>
<path fill-rule="evenodd" clip-rule="evenodd" d="M44.1068 31.8115C43.9601 32.4607 43.5816 32.2984 43.333 32.5874C43.5435 32.1599 43.8201 31.9659 44.1068 31.8115Z" fill="white"/>
<path fill-rule="evenodd" clip-rule="evenodd" d="M93.9994 20.0455C94.192 20.0438 94.3728 20.0542 94.535 20.0838C94.3576 20.1614 94.0601 20.0282 93.9433 20.1017C94.0814 20.2309 94.3335 20.1295 94.5541 20.1787C94.379 20.2946 94.0011 20.1405 93.8692 20.2164C94.0494 20.2801 94.2683 20.2077 94.4795 20.2546C94.3295 20.3218 94.0348 20.2859 93.8141 20.2731C94.0185 20.3618 94.3812 20.2865 94.6451 20.3119C94.567 20.1185 94.4637 19.7878 94.3121 19.6065C94.5962 19.5619 94.9589 19.599 95.2733 19.5868C95.3183 19.8289 95.4867 20.0519 95.5878 20.2928C95.54 20.7695 95.5866 21.4511 95.5692 21.9712C96.243 22.1537 96.9538 22.2985 97.641 22.467C97.7589 22.3755 97.783 22.233 97.7707 22.0477C97.9487 22.0923 98.0868 21.8867 98.2883 22.0095C98.3512 21.8525 98.3866 21.6649 98.4556 21.5143C98.5258 21.4726 98.6842 21.4511 98.7504 21.5143C98.8172 21.333 98.669 21.2774 98.6943 21.1135C98.7117 20.9994 98.8604 20.8708 98.9357 20.8465C99.0036 20.8245 99.0502 20.8743 99.1389 20.8662C99.1951 20.8604 99.2478 20.8112 99.3051 20.8083C99.3528 20.8065 99.423 20.8089 99.4893 20.8274C99.523 20.8372 99.6229 20.9241 99.6369 20.923C99.7425 20.9195 99.8306 20.7185 99.9704 20.7139C100.065 20.7092 100.095 20.7776 100.174 20.7898C100.146 20.5442 100.382 20.6397 100.543 20.5992C100.677 20.5645 100.782 20.305 101.023 20.4654C101.032 20.5587 101.072 20.6195 101.005 20.6751C101.055 20.7121 101.104 20.6224 101.207 20.6565C101.233 20.8065 101.292 20.8755 101.356 21.0185C101.575 21.0069 101.82 20.9919 101.855 21.1714C101.876 21.2791 101.753 21.3127 101.8 21.4378C101.871 21.5108 102.149 21.4708 102.169 21.5328C102.034 21.6579 101.81 21.3759 101.671 21.5525C101.74 21.3834 101.63 21.026 101.392 21.1899C101.32 21.0359 101.208 20.7411 100.967 20.8853C100.88 20.6826 100.578 20.6797 100.468 20.8668C100.313 20.6797 100.146 20.8963 100.024 20.9426C99.8312 21.0156 99.5162 20.9247 99.4331 21.1141C99.1872 20.8019 98.7723 21.1419 98.9536 21.5334C98.706 21.5901 98.5292 21.7992 98.5455 22.0685C98.4506 22.1687 98.322 22.0818 98.2131 22.1062C98.0216 22.1484 97.9649 22.3448 97.9172 22.5446C97.7128 22.7073 97.2934 22.566 97.1963 22.8122C97.1447 22.9436 97.2766 23.0734 97.1407 23.1736C96.9554 23.1174 96.883 22.8064 97.1037 22.7351C96.5608 22.69 95.9392 22.7282 95.3654 22.7154C95.3329 25.3616 95.4171 28.0298 95.3463 30.6481C96.2553 30.6435 97.1952 30.5074 98.1586 30.4958C98.1558 29.7331 98.1603 28.8221 98.1586 27.9985C97.9447 27.9823 97.7566 28.0697 97.6399 27.9029C97.6269 27.819 97.6719 27.7952 97.6584 27.7118C97.6011 27.6377 97.5225 27.585 97.4737 27.5016C97.5573 27.3394 97.3636 27.2427 97.3625 27.1014C97.3614 26.9711 97.445 26.9103 97.5657 26.835C97.2912 26.6942 97.4725 26.3288 97.7325 26.3195C97.5135 26.301 96.9701 26.4632 96.9369 26.1284C96.654 26.1475 96.6208 25.9101 96.4384 25.8238C96.4945 25.7236 96.5231 25.5944 96.6596 25.5765C96.6596 25.4548 96.7146 25.39 96.7898 25.3471C96.7224 25.2545 96.6354 25.1832 96.641 25.061C96.6466 24.9631 96.8156 24.7523 96.9364 24.6602C96.9616 24.6406 97.0301 24.6452 97.0655 24.622C97.1879 24.5433 97.3417 24.4112 97.4731 24.3174C97.2957 24.3348 97.3283 24.1355 97.1772 24.1263C97.1643 24.0678 97.1963 24.0568 97.1958 24.0122C96.9948 23.9149 96.8875 23.7197 96.8257 23.4788C96.8768 23.3728 97.0486 23.3902 97.1031 23.2876C97.0964 23.4666 97.2171 23.4788 97.1593 23.6693C97.2294 23.8436 97.3973 23.9189 97.5287 24.0307C97.5758 23.9716 97.6309 24.022 97.6954 23.9931C97.7959 23.9485 97.7813 23.8436 97.8616 23.7643C97.897 23.7301 97.975 23.7087 98.0284 23.6693C98.1132 23.6068 98.0969 23.5795 98.176 23.5738C98.2676 23.5668 98.418 23.6288 98.3613 23.7828C98.1991 23.7718 98.107 23.7133 97.9172 23.8019C97.8863 23.9548 97.8762 24.128 97.7886 24.2218C97.6758 24.2369 97.6893 24.1205 97.5848 24.1263C97.5118 24.1819 97.472 24.2502 97.5107 24.3741C97.3782 24.3967 97.4299 24.4934 97.3625 24.5844C97.312 24.6267 97.2452 24.6533 97.1778 24.6788C97.1402 24.8699 96.9364 24.8879 96.9184 25.0992C96.8448 25.1091 96.8291 25.0211 96.7898 25.0992C96.7129 25.2406 96.8476 25.3141 96.8819 25.4039C96.7763 25.4983 96.8168 25.7427 96.7522 25.8805C96.8381 26.0097 97.0767 26.078 97.2334 26.0711C97.3148 26.074 97.2317 26.0247 97.2513 25.9755C97.3198 25.9743 97.3069 26.0577 97.3996 26.0328C97.5511 26.0207 97.4798 25.7659 97.6219 25.7855C97.8049 25.8099 97.6129 26.0711 97.5843 26.1278C97.792 26.2245 97.7061 25.8608 97.9172 25.8996C98.0003 26.0549 97.8296 26.1933 97.7886 26.3381C97.5714 26.3832 97.486 26.7568 97.6589 26.9294C97.6488 27.0273 97.5663 27.0579 97.5663 27.1581C97.5674 27.3041 97.7415 27.3139 97.7886 27.4825C97.8077 27.5549 97.7718 27.6481 97.7886 27.6921C97.8538 27.867 98.2036 27.8948 98.3804 27.8827C98.6555 27.8641 98.7779 27.6174 99.0087 27.6539C99.0631 27.6377 98.966 27.6255 98.9901 27.5775C99.185 27.6661 99.19 27.4396 99.3225 27.406C99.3556 27.4315 99.3798 27.5166 99.3416 27.5595C99.446 27.519 99.4494 27.3006 99.619 27.3881C99.6774 27.3244 99.5246 27.267 99.619 27.2155C99.8907 27.3423 99.51 27.5346 99.4152 27.6354C99.2546 27.5832 99.2164 27.735 99.0642 27.6736C99.172 27.7755 99.1603 27.9736 99.3416 27.9985C99.4213 28.0095 99.5224 27.9551 99.5813 27.9417C99.9963 28.1804 100.322 27.808 100.58 27.6551C100.764 27.7599 100.616 28.1051 100.764 28.2273C100.987 28.2099 101.221 28.2029 101.467 28.2082C101.442 28.0431 101.421 27.8722 101.411 27.6933C101.492 27.6487 101.565 27.5983 101.707 27.6168C101.677 27.8583 101.817 27.9226 101.836 28.112C101.891 27.991 101.91 27.8329 101.984 27.7315C101.982 27.6371 101.814 27.6348 101.855 27.5601C102.247 27.6139 102.445 27.4686 102.557 27.2352C102.374 27.1089 102.438 26.6606 102.723 26.663C102.676 26.7747 102.568 26.8217 102.65 26.9682C102.844 27.0018 103.006 27.2033 103.297 27.1969C103.161 27.3209 102.814 27.3336 102.668 27.2161C102.548 27.3973 102.454 27.6053 102.187 27.6359C102.131 27.8317 102.001 27.9522 101.965 28.1699C102.329 28.2145 102.742 28.2087 103.148 28.2082C103.075 28.3906 102.8 28.3222 102.576 28.3222C102.349 28.3222 102.099 28.3222 101.91 28.3222C101.914 28.4578 101.967 28.5441 101.946 28.7039C102.286 28.6153 102.61 28.5111 102.964 28.4369C102.762 28.7184 102.256 28.6854 101.928 28.8371C101.929 29.0624 101.792 29.3485 101.946 29.5043C102.306 29.3659 102.643 28.8574 102.926 28.5128C103.037 28.3761 103.175 28.2719 103.221 28.1502C103.257 28.057 103.242 27.9383 103.258 27.8074C103.269 27.7147 103.316 27.6099 103.314 27.5404C103.307 27.3997 103.178 27.3649 103.295 27.2352C103.537 27.2763 103.665 27.7663 104.053 27.5977C103.966 27.6956 103.75 27.7859 103.591 27.6927C103.572 27.8763 103.571 28.0773 103.536 28.2458C103.66 28.1717 104.176 28.1717 104.239 28.017C104.263 27.9574 104.145 27.9203 104.128 27.8265C104.106 27.7078 104.162 27.607 104.201 27.5404C104.351 27.6093 104.322 27.812 104.498 27.8456C104.681 27.8798 104.806 27.7385 104.941 27.6354C105.18 27.5995 105.396 27.6134 105.587 27.5404C105.66 27.5126 105.773 27.3753 105.828 27.369C105.872 27.3632 105.967 27.5114 106.05 27.4448C106.039 27.5288 105.884 27.5433 105.809 27.5016C105.778 27.7385 105.444 27.8612 105.292 27.6545C105.204 27.8027 105.053 27.7164 104.922 27.7495C104.848 27.7686 104.816 27.8612 104.72 27.9215C104.56 28.0222 104.417 28.0089 104.349 28.1885C104.473 28.2203 104.757 28.1873 104.811 28.2267C104.794 28.2267 104.775 28.2267 104.756 28.2267C106.409 28.3228 108.149 28.5267 109.748 28.7601C109.832 28.7728 109.968 28.7676 110.024 28.8556C108.212 28.6246 106.311 28.4468 104.386 28.3599C104.319 28.357 104.107 28.3547 104.108 28.3026C103.46 28.4004 103.139 28.8406 102.797 29.2564C104.096 28.9136 105.461 28.5551 107.085 28.6078C105.49 28.7618 103.997 29.0184 102.649 29.4279C102.522 29.608 102.398 29.7898 102.316 30.0192C104.344 29.5755 106.597 28.7943 109.119 28.8556C109.279 28.8591 109.599 28.8545 109.415 29.008C109.328 29.0062 109.428 28.9732 109.433 28.9506C106.696 28.9941 104.478 29.5738 102.297 30.19C102.303 30.2352 102.327 30.2624 102.316 30.3238C103.357 30.406 104.27 30.1101 105.162 29.9613C105.741 29.8651 106.336 29.78 106.919 29.6948C108.099 29.5217 109.291 29.3311 110.579 29.3896C110.525 29.5141 110.419 29.4429 110.302 29.4458C108.119 29.5095 106.009 29.9891 103.998 30.2856C106.348 30.2306 108.826 30.329 111.023 30.5532C110.366 30.585 109.63 30.585 108.934 30.5532C106.669 30.446 104.333 30.3562 102.464 30.8769C102.467 31.0333 102.582 31.0744 102.594 31.2198C103.886 30.8485 105.307 30.6116 106.919 30.5711C105.439 30.7541 103.925 30.903 102.63 31.2771C102.778 31.401 102.996 31.3553 103.184 31.3721C103.372 31.3895 103.571 31.4445 103.758 31.43C103.923 31.4173 104.102 31.3275 104.275 31.2771C105.551 30.9053 107.047 30.7385 108.674 30.6858C107.031 30.8659 105.369 31.0257 103.942 31.43C104.312 31.4653 104.681 31.5875 105.07 31.5626C105.265 31.5505 105.487 31.4607 105.698 31.4103C107.126 31.0651 108.706 30.8039 110.449 30.7431C108.674 30.9644 106.89 31.1775 105.273 31.5626C105.757 31.6037 106.236 31.7763 106.715 31.7341C107.022 31.7068 107.358 31.6043 107.676 31.5441C108.619 31.3634 109.618 31.2035 110.671 31.1236C109.47 31.3848 108.119 31.4931 106.937 31.7723C107.661 31.829 108.333 32.059 109.063 32.1157C109.437 32.1447 109.846 32.0381 110.245 32.001C110.633 31.9651 111.027 31.9147 111.429 31.9066C110.85 32.0729 110.132 32.0949 109.469 32.173C109.472 32.2147 109.516 32.2136 109.561 32.2113C109.293 32.2119 108.948 32.246 108.656 32.2113C108.696 32.1823 108.76 32.1783 108.822 32.173C107.67 32.1146 106.446 31.8563 105.254 31.8111C105.156 31.8064 105.071 31.8256 104.978 31.8296C103.586 31.8945 102.216 31.9032 100.801 31.9831C101.709 32.107 102.558 32.2698 103.554 32.3451C103.647 32.3526 103.755 32.3497 103.85 32.3451C104.757 32.3039 105.737 32.235 106.678 32.1922C107.009 32.1771 107.391 32.1163 107.676 32.1922C106.534 32.3051 105.288 32.3097 104.128 32.4024C104.466 32.4788 104.868 32.4898 105.18 32.5929C105.089 32.6827 104.934 32.6103 104.829 32.5929C104.462 32.5327 104.043 32.4285 103.647 32.4215C102.777 32.4053 101.839 32.6103 100.966 32.612C102.725 32.9341 104.787 32.9422 106.66 33.146C105.67 33.157 104.675 33.0568 103.683 32.9746C103.188 32.9335 102.696 32.8958 102.206 32.8408C101.632 32.7765 101.113 32.6207 100.486 32.6503C98.9946 32.7209 97.5219 32.9555 96.0493 33.0887C99.5218 33.4049 102.675 34.0478 106.438 34.0617C105.862 34.1862 105.136 34.1318 104.46 34.0999C103 34.0316 101.504 33.8144 100.043 33.6227C99.3135 33.5271 98.5674 33.4611 97.8431 33.3748C97.0835 33.2856 96.3362 33.1414 95.6237 33.146C95.1667 33.1483 94.7282 33.3302 94.2554 33.2792C94.5294 33.2063 94.8495 33.1802 95.1611 33.146C93.0433 32.9908 90.7817 32.9207 88.5988 32.8211C87.8639 32.7875 87.1436 32.8617 86.4165 32.802C88.6881 32.6885 91.017 32.8501 93.3302 32.9549C93.4425 32.9601 93.6154 32.9671 93.7743 32.9746C94.4138 33.0036 95.1195 33.1107 95.7152 33.0696C96.458 33.018 97.2042 32.8802 97.9531 32.802C98.7218 32.7227 99.491 32.6815 100.245 32.5929C99.1715 32.5061 98.1519 32.3016 97.0649 32.231C96.9588 32.224 96.837 32.2263 96.732 32.231C95.1936 32.3005 93.5402 32.469 91.9799 32.612C91.328 32.6723 90.711 32.7881 90.0951 32.7267C92.1158 32.4974 94.2072 32.3398 96.2873 32.1736C94.3161 31.9964 92.0809 31.9831 90.0395 31.8875C89.893 31.88 89.7375 31.8812 89.596 31.8875C88.2283 31.9495 86.8881 32.1852 85.5659 32.1736C86.7247 32.0277 87.9487 31.9495 89.153 31.8493C86.9532 31.7173 84.5789 31.646 82.3314 31.7729C82.6323 31.5893 83.1837 31.6414 83.6626 31.6205C84.8439 31.5684 85.9269 31.5887 87.0824 31.6391C87.7999 31.6709 88.5152 31.759 89.2265 31.792C90.2506 31.84 91.4976 31.6622 92.7749 31.5823C94.9634 31.4456 97.006 31.3431 99.1923 31.2395C98.9508 31.2082 98.6353 31.1532 98.3787 31.2012C97.9896 31.1033 97.2137 31.1126 96.6584 31.0877C95.6473 31.0408 94.5564 30.757 93.589 30.8016C92.0613 30.8705 90.5746 31.0252 88.9683 31.0877C90.1698 31.2522 91.62 31.1618 92.8316 31.3159C91.8603 31.3327 90.8896 31.2869 89.8554 31.24C89.3231 31.2157 88.6219 31.119 88.0615 31.1445C86.1548 31.2308 84.3245 31.3883 82.4616 31.5638C81.7312 31.6321 81.0361 31.7485 80.2798 31.7352C82.6362 31.408 85.1661 31.2591 87.6741 31.0877C85.6103 30.9418 83.415 31.1508 81.2966 30.9725C81.1085 30.9562 80.9126 30.9638 80.7234 30.9725C79.9604 31.0078 79.1788 31.1271 78.413 31.2012C77.481 31.2916 76.6405 31.4404 75.6956 31.4306C77.0745 31.2256 78.541 31.1109 79.966 30.9533C78.7128 30.775 77.3457 30.8856 76.1206 30.8775C75.7849 30.8752 75.4598 30.8167 75.1409 30.8393C73.8496 30.9284 72.7806 31.2661 71.3876 31.2783C72.3196 31.1201 73.2786 30.9916 74.2533 30.8781C73.844 30.8178 73.4352 30.9238 72.9967 30.8972C73.4184 30.7912 73.8776 30.8028 74.3268 30.7825C75.5289 30.7275 76.6877 30.5549 77.8218 30.4385C77.4788 30.3921 77.1408 30.435 76.8045 30.4199C75.9376 30.3806 75.0876 30.4199 74.2533 30.3817C74.1494 30.3765 73.9821 30.3557 73.8282 30.3626C72.1411 30.4391 70.3832 30.7709 68.7628 30.9151C69.5702 31.0356 70.5657 30.8387 71.3326 30.9151C70.4382 31.0414 69.5618 31.0142 68.6708 30.9725C67.6927 30.9273 66.7501 31.302 65.7883 31.2586C66.0679 31.1665 66.4368 31.1653 66.7484 31.1057C65.9371 31.1074 65.0421 31.2018 64.1797 31.163C63.5105 31.1329 62.9934 31.2522 62.2938 31.2586C62.3393 31.2227 62.4145 31.2174 62.4976 31.2203C62.0361 31.1746 61.4977 31.2088 61.0744 31.1248C62.2091 31.1862 63.4353 31.0738 64.438 30.9342C65.8804 30.7344 67.3407 30.5398 68.856 30.3626C67.2806 30.3116 65.8719 30.3927 64.438 30.4582C64.4015 30.4692 64.292 30.4454 64.3824 30.4385C64.4318 30.4385 64.4812 30.4385 64.5306 30.4385C64.5969 30.4124 64.712 30.435 64.7715 30.4008C63.4302 30.34 62.0636 30.5155 60.6858 30.5155C58.9016 30.5155 57.1201 30.4906 55.3066 30.5723C55.0236 30.585 54.735 30.636 54.456 30.6487C53.8889 30.6754 53.3292 30.6203 52.7739 30.6487C52.5673 30.6591 52.3674 30.7101 52.1636 30.7252C51.5146 30.7738 50.8554 30.7518 50.2042 30.7825C48.3749 30.8682 46.6081 31.0837 44.917 31.3356C45.867 31.3837 46.6906 31.3981 47.6715 31.3547C49.6062 31.2667 51.3304 30.7501 53.1989 30.6875C51.8885 30.8925 50.5388 31.057 49.2065 31.2406C50.6449 31.2117 51.9924 31.236 53.3471 31.1827C53.6778 31.17 54.0203 31.0779 54.3639 31.0304C54.707 30.9823 55.0573 30.9458 55.3992 30.8977C56.2543 30.7761 57.0432 30.6221 57.9684 30.5925C56.5699 30.8213 55.1236 31.0014 53.6992 31.2024C55.0029 31.401 56.3032 31.1873 57.6551 31.1259C59.4905 31.0431 61.3158 30.5804 63.09 30.497C63.4347 30.4819 63.7895 30.4703 64.1438 30.4593C63.9276 30.4663 64.269 30.4813 64.2729 30.4779C64.1887 30.5242 64.0753 30.4842 63.9209 30.497C62.4325 30.6221 60.7746 30.8468 59.3737 31.031C59.5085 31.053 59.8027 31.0026 59.9655 31.0501C59.7566 31.134 59.5062 31.0964 59.2626 31.1074C58.1908 31.1555 57.2239 31.3767 56.1201 31.4126C56.4795 31.3373 56.8624 31.2881 57.2481 31.2412C56.0702 31.3454 54.8602 31.386 53.6621 31.3171C53.5116 31.3084 53.3662 31.273 53.218 31.2794C52.3023 31.3182 51.4668 31.6518 50.5556 31.6414C51.2355 31.4914 51.971 31.3981 52.6818 31.2794C51.3838 31.3223 50.0885 31.2951 48.7635 31.3553C47.1886 31.4265 45.8597 31.9281 44.4549 32.1371C45.4111 31.8644 46.4189 31.6449 47.4688 31.4694C46.5182 31.5452 45.5632 31.3437 44.6958 31.4126C43.5184 31.5053 42.3321 31.9084 41.1469 31.9651C43.588 31.5215 45.9607 31.0066 48.6517 30.8213C48.1706 30.7367 47.6563 30.8172 47.1909 30.8595C46.804 30.8943 46.4132 30.8282 46.0264 30.8595C45.529 30.8989 45.0444 30.9319 44.5481 30.9551C43.7514 30.9927 42.957 30.9997 42.1816 31.031C41.3422 31.0645 40.5135 31.2337 39.686 31.1642C39.7309 31.0026 39.9611 31.0292 40.093 31.0113C40.6084 30.9435 41.1963 30.9198 41.701 30.8589C41.0306 30.4634 40.2609 30.1709 39.4648 29.9057C40.1127 29.9659 40.6994 30.2642 41.2575 30.5549C41.5545 30.7084 41.6797 30.8398 42.0525 30.8213C42.3394 30.8068 42.6819 30.8381 43.0137 30.8213C43.3169 30.8057 43.5723 30.7518 43.8637 30.8213C42.9609 30.5028 42.1468 29.9514 41.203 29.6578C40.9941 29.5941 40.6034 29.7116 40.3709 29.5819C40.4686 29.5703 40.7207 29.5999 40.851 29.5628C40.8223 29.5037 40.6758 29.5651 40.6663 29.4863C41.066 29.5923 41.5977 29.5211 42.1081 29.5443C43.7228 29.6172 45.3774 29.7209 46.9696 29.7921C46.9388 29.5385 47.1695 29.4174 47.1914 29.2199C47.2201 28.9587 46.9725 28.8093 46.9332 28.5336C46.6137 28.247 46.4009 27.8485 46.0455 27.5995C45.913 27.6788 45.6368 28.0356 45.5099 27.7136C45.3768 27.68 45.3263 27.724 45.1955 27.7327C45.1141 27.6192 44.9849 27.5554 44.8996 27.4466C44.8086 27.4628 44.7177 27.5305 44.6228 27.4848C44.5105 27.4049 44.6233 27.2097 44.5672 27.0846C44.6318 27.1703 44.7362 27.2016 44.8625 27.256C44.9692 27.3024 45.1275 27.3244 45.214 27.3707C45.3207 27.4275 45.3639 27.5647 45.4728 27.5798C45.6048 27.5989 45.6985 27.4952 45.8237 27.5039C46.0663 27.3163 46.2195 27.0354 46.4335 26.8176C46.5817 26.9954 46.7372 26.7927 46.8214 26.6838C47.1611 26.8622 47.352 26.5975 47.3402 26.2454C47.4008 26.144 47.5653 26.1493 47.7096 26.1307C47.7259 26.451 47.6934 26.8211 47.9859 26.8558C48.0448 26.9334 48.0746 27.2867 48.2447 27.2942C48.4844 27.3058 48.4114 26.6971 48.4114 26.4168C48.4114 25.1328 48.3766 23.7261 48.4676 22.6222C48.7871 22.6923 49.0403 22.4942 49.2441 22.3934C49.4827 22.2747 49.7803 22.2654 49.7988 22.1073C49.8179 21.9295 49.5916 21.8577 49.4288 21.783C49.2536 21.5983 49.1189 21.3481 48.8 21.5345C48.6894 21.6 48.6815 21.7552 48.4676 21.7262C48.4642 21.5131 48.4008 21.3625 48.2273 21.326C48.0555 21.3428 47.8708 21.4106 47.7461 21.5548C47.8219 21.7315 47.7602 21.9353 47.672 22.0506C47.5564 22.0766 47.393 22.0546 47.3952 22.2029C47.2734 22.1421 47.1993 22.0291 47.0617 22.0703C46.8905 22.1195 46.9859 22.361 46.8955 22.5087C46.7922 22.5423 46.6962 22.5817 46.6373 22.661C46.4149 22.6216 46.2566 22.3297 46.0449 22.2984C46 22.2915 45.9411 22.3587 45.8782 22.3552C45.7799 22.3506 45.7642 22.2069 45.5823 22.2411C45.4734 22.262 45.4717 22.3419 45.3981 22.5081C45.3572 22.6019 45.2679 22.6807 45.2499 22.7745C45.228 22.9002 45.2814 23.2946 45.3611 23.3658C45.4526 23.4475 45.5784 23.4214 45.7305 23.4608C45.6935 23.6201 45.7013 23.8245 45.6564 23.9763C45.2578 23.85 45.0545 24.0886 45.0096 24.4338C44.9316 24.7477 44.4201 24.6145 44.2708 24.8543C44.25 25.174 44.4033 25.3141 44.6031 25.4068C44.5195 25.5446 44.3443 25.7415 44.4549 25.9593C44.3185 25.9906 44.2376 26.0792 44.0484 26.0554C43.7172 26.162 43.9945 26.8964 44.2517 26.9132C44.3842 26.9218 44.4291 26.7776 44.5666 26.7985C44.6643 26.8738 44.5228 27.0174 44.5481 27.1419C44.4734 27.1419 44.5481 26.989 44.4734 26.989C44.3033 26.9856 44.2983 27.1512 44.0855 27.1031C43.9945 27.0417 44.0338 26.967 43.9749 26.8744C43.9137 26.7776 43.7902 26.7522 43.7531 26.6641C43.6852 26.506 43.8064 26.3386 43.716 26.1689C43.8025 25.9535 44.0046 25.9373 44.2337 25.902C44.1899 25.7554 44.1787 25.5927 44.3443 25.5782C44.2629 25.4658 43.793 24.9174 44.1961 24.8716C44.1764 24.6035 44.3971 24.5832 44.6587 24.6052C44.7609 24.5131 44.7418 24.2977 44.9355 24.3006C44.9187 23.9606 45.3965 23.6305 45.6014 23.938C45.6665 23.901 45.5559 23.7649 45.6384 23.6902C45.5189 23.6728 45.4307 23.6241 45.3044 23.6131C45.2454 23.4973 45.1826 23.3838 45.0646 23.327C45.109 23.0346 44.8648 22.7096 45.2134 22.679C45.1494 22.3743 45.4172 21.9944 45.7305 22.2017C45.8389 22.0598 46.2695 22.0517 46.2661 22.2973C46.5025 22.2707 46.5177 22.471 46.6929 22.5075C46.8265 22.456 46.754 22.2961 46.7844 22.1826C46.8456 21.951 47.1841 21.8386 47.3396 22.0691C47.4177 22.0286 47.4834 21.9753 47.5238 21.8971C47.5693 21.8125 47.4385 21.827 47.4491 21.7257C47.5423 21.4836 47.6771 21.2867 47.9118 21.1911C48.0746 21.2067 48.2548 21.2062 48.3368 21.3058C48.3856 21.2815 48.4204 21.1772 48.485 21.2293C48.6282 21.2658 48.5776 21.5021 48.6332 21.6301C48.7483 21.5705 48.7135 21.4291 48.8179 21.3625C48.9965 21.2484 49.1879 21.351 49.3536 21.4205C49.3766 21.4737 49.3766 21.538 49.3536 21.5919C49.577 21.5125 49.6809 21.6898 49.705 21.8774C49.8078 21.8705 49.8909 21.8415 49.9638 21.8965C50.0009 21.9533 49.9745 22.0766 49.9818 22.1641C51.8346 21.6492 53.7559 21.0701 55.6395 20.5239C56.0567 20.4029 56.3346 20.276 56.8405 20.3143C57.8561 20.389 58.8645 20.7376 59.8538 20.9809C60.8492 21.227 61.825 21.4772 62.793 21.7054C62.8154 21.3168 62.7385 20.9259 62.8115 20.5239C62.8688 20.2048 63.1736 19.9801 63.3471 19.7994C63.3067 19.9419 63.2034 20.0201 63.1439 20.1417C63.1933 20.1417 63.2432 20.1417 63.2921 20.1417C63.223 20.239 63.0731 20.1341 63.0518 20.2749C63.1882 20.3311 63.4504 20.2581 63.588 20.3137C63.6183 20.2563 63.5217 20.166 63.5133 20.0849C63.428 20.0843 63.3331 20.0936 63.2736 20.0652C63.3157 20.0201 63.4493 20.0687 63.4762 20.0079C63.4628 19.9465 63.2955 20.0421 63.3101 19.9506C63.337 19.921 63.4049 19.9343 63.4577 19.9314C63.433 19.8932 63.337 19.9291 63.3656 19.8359C63.6497 19.7924 64.0124 19.8295 64.3263 19.8168C64.3718 20.0583 64.5396 20.2824 64.6418 20.5233C64.5829 20.9687 64.6581 21.6156 64.6227 22.1056C64.7985 22.1641 64.9635 22.1936 65.1404 22.2388C65.2987 22.2793 65.4868 22.3755 65.6389 22.372C65.717 22.3703 65.7731 22.3152 65.8428 22.2961C66.0224 22.2457 66.2116 22.2087 66.3969 22.1438C66.7439 22.0216 67.0993 21.8815 67.5063 21.7813C67.4979 21.2004 67.5147 20.6455 67.5249 20.0849C67.6776 19.8284 67.8207 19.5637 68.061 19.3975C68.0206 19.5405 67.9179 19.6187 67.8578 19.7409C67.9471 19.789 68.1071 19.7623 68.2093 19.7982C68.0066 19.8405 67.6983 19.7785 67.6545 20.027C67.7629 20.0229 67.8533 20.0386 67.9319 20.0652C67.8078 20.1318 67.6349 20.0027 67.5804 20.1226C67.8263 20.1672 68.1537 20.1295 68.431 20.1411C68.3496 20.0027 68.2918 19.8399 68.2278 19.6836C68.1604 19.6778 68.065 19.6998 68.0245 19.6645C68.0543 19.6181 68.1801 19.6726 68.1913 19.6077C68.2261 19.4762 68.0577 19.5544 68.0801 19.4363C68.3642 19.3922 68.7264 19.4299 69.0413 19.4172C69.0874 19.6581 69.2552 19.8805 69.3557 20.1226C69.308 20.4035 69.3529 20.8604 69.3378 21.2287C70.0244 21.0313 70.7869 20.7776 71.5196 20.561C71.8227 20.4712 72.1602 20.3102 72.4061 20.4087C73.136 20.426 73.9984 20.6502 74.6805 20.828C76.5153 21.3052 78.3299 21.7546 80.1889 22.2776C80.3568 22.3245 80.5415 22.4235 80.6695 22.4299C80.8946 22.4403 81.1265 22.2718 81.3533 22.2197C81.6374 22.156 81.9092 22.0957 82.1854 22.0106C82.451 21.9295 82.7064 21.8235 82.9804 21.7436C84.6086 21.271 86.3457 20.8164 87.9902 20.3328C90.0811 20.554 91.8749 21.0799 93.7395 21.5334C93.776 21.1309 93.6828 20.7052 93.7569 20.294C93.8153 19.9731 94.1224 19.749 94.2931 19.5695C94.274 19.6563 94.2195 19.7085 94.183 19.7797C94.2611 19.7797 94.302 19.7432 94.3683 19.7797C94.3279 19.884 94.1314 19.7432 94.1269 19.8556C94.1701 19.9002 94.3818 19.7699 94.4227 19.8741C94.2476 19.8955 94.0236 19.8672 93.9994 20.0455ZM68.2665 19.6262C68.3288 19.6378 68.4383 19.6019 68.4703 19.6453C68.4243 19.661 68.3704 19.6697 68.3036 19.6639C68.2884 19.7177 68.33 19.7131 68.3221 19.7594C68.4715 19.8202 68.7438 19.6876 68.8768 19.7594C68.6904 19.7849 68.5534 19.822 68.358 19.7977C68.344 19.8509 68.3844 19.8463 68.3766 19.8926C68.5658 19.9488 68.9279 19.8648 69.1542 19.95C68.9128 19.9517 68.6191 20.0073 68.4142 19.9309C68.4052 19.9911 68.4411 20.0062 68.4512 20.0455C68.5512 20.0438 68.65 20.0253 68.746 20.0646C68.6539 20.0646 68.5618 20.0646 68.4698 20.0646C68.4962 20.1863 68.6955 20.1405 68.8392 20.1405C68.997 20.1405 69.189 20.1706 69.2648 20.1023C69.2221 20.016 69.0666 20.1324 69.0054 20.0455C69.0408 20.0114 69.1278 20.0316 69.1901 20.0264C69.2199 19.9563 69.1289 19.8672 69.1166 19.7785C69.0599 19.7728 68.9728 19.7994 68.9683 19.7403C69.0048 19.7403 69.0419 19.7403 69.0789 19.7403C69.0643 19.6534 69.011 19.6071 69.0048 19.5116C68.7454 19.5116 68.4877 19.5116 68.2284 19.5116C68.2356 19.5556 68.2519 19.5897 68.2665 19.6262ZM94.5541 19.7206C94.6047 19.6986 94.9404 19.6992 94.7214 19.683C94.6395 19.6951 94.5109 19.6581 94.4609 19.7021C94.5131 19.6859 94.5098 19.7287 94.5541 19.7206ZM94.4795 19.7403C94.5614 19.9355 94.6333 20.1405 94.7383 20.3125C94.9792 20.2876 95.316 20.3623 95.4968 20.2737C95.3447 20.1822 94.9713 20.3038 94.7574 20.2552C94.9314 20.1776 95.2745 20.2042 95.4586 20.1979C95.3941 20.1191 95.3806 19.9876 95.3121 19.9117C95.197 19.8892 95.0864 19.9714 94.9977 19.9117C95.0886 19.8921 95.1863 19.8787 95.293 19.8735C95.2762 19.8023 95.2537 19.7368 95.2189 19.683C95.0263 19.7531 94.6928 19.7502 94.4795 19.7403ZM64.3291 20.0455C64.2971 20.0334 64.2213 20.0687 64.2185 20.0264C64.2494 20.0264 64.2802 20.0264 64.3111 20.0264C64.3246 19.9679 64.2786 19.9702 64.2932 19.9117C64.0826 19.9239 63.7272 19.8874 63.6087 19.9309C63.6419 19.9419 63.7171 19.9077 63.7199 19.95C63.6711 19.9702 63.6059 19.9726 63.5352 19.9691C63.584 20.0843 63.8474 19.9285 63.9597 20.0264C63.8356 20.0507 63.6812 20.0438 63.5722 20.0843C63.5801 20.1515 63.6789 20.126 63.7205 20.1602C63.7143 20.2042 63.6396 20.1787 63.6278 20.217C63.6806 20.2836 63.7053 20.3791 63.7384 20.4648C63.7716 20.4758 63.8468 20.4417 63.8496 20.484C63.8159 20.488 63.757 20.4648 63.7749 20.5222C63.9978 20.5656 64.2988 20.5291 64.552 20.5407C64.5368 20.4353 64.4897 20.3641 64.4038 20.3316C64.5245 20.2963 64.3381 20.1318 64.3291 20.0455ZM67.6197 20.1973C67.6416 20.6965 67.5748 21.2861 67.6568 21.7233C67.9145 21.6718 68.138 21.5838 68.3771 21.5137C68.3771 21.0805 68.3771 20.6484 68.3771 20.2164C68.1099 20.2262 67.8701 20.2065 67.6197 20.1973ZM68.4889 20.217C68.4889 20.6369 68.4889 21.0562 68.4889 21.4755C68.7567 21.4228 68.9734 21.3145 69.2468 21.2652C69.253 20.9166 69.2294 20.5361 69.2653 20.217C69.006 20.217 68.7466 20.217 68.4889 20.217ZM62.9249 20.4643C63.1613 20.4063 63.3859 20.4527 63.6643 20.4452C63.6688 20.3901 63.6228 20.3867 63.6273 20.3311C63.3858 20.4509 62.9839 20.1897 62.9249 20.4643ZM93.8506 20.3687C93.8506 20.8523 93.8506 21.3353 93.8506 21.8177C94.114 21.915 94.4053 21.9834 94.6271 22.1235C94.585 21.5815 94.6204 20.9606 94.6091 20.3878C94.3408 20.3977 94.1016 20.3774 93.8506 20.3687ZM94.7214 20.426C94.7007 20.517 94.8736 20.4075 94.8304 20.5222C94.8304 20.5789 94.6939 20.495 94.7214 20.5789C94.7214 21.1129 94.7214 21.6469 94.7214 22.1809C94.9674 22.1363 95.2161 22.1849 95.4772 22.1809C95.4878 21.5878 95.4558 20.9508 95.4968 20.3884C95.2486 20.4127 94.9062 20.338 94.7214 20.426ZM55.9927 20.6177C56.2566 20.5801 56.649 20.6091 56.8803 20.5986C56.5878 20.448 56.2779 20.4724 55.9927 20.6177ZM57.1942 20.5031C57.3761 20.5511 57.5608 20.5946 57.7674 20.6177C57.695 20.671 58.0004 20.7284 58.1554 20.7701C58.4198 20.8413 58.6107 20.8795 58.8392 20.9224C58.8128 20.9334 58.7432 20.9004 58.7472 20.9415C59.2014 21.0324 59.5646 21.2166 60.0598 21.2652C60.1193 21.3 60.0913 21.3081 60.1519 21.3417C61.3422 21.5948 62.4673 22.0876 63.6649 22.2764C63.6643 22.3013 63.6318 22.2932 63.6278 22.3141C63.661 22.2961 63.8895 22.3077 63.9226 22.3708C63.9159 22.3575 63.8569 22.3859 63.8681 22.39C63.9417 22.4207 64.0905 22.4293 64.2185 22.4664C64.6165 22.5788 65.1842 22.6471 65.4947 22.4282C65.3509 22.423 65.1881 22.3373 65.0691 22.3708C65.1303 22.3581 65.0988 22.4102 65.087 22.4282C64.9877 22.4154 64.8726 22.4855 64.7917 22.4282C64.8406 22.3575 64.9669 22.3679 65.05 22.3326C64.8495 22.3031 64.5879 22.2602 64.4779 22.1994C64.2202 22.1751 63.9675 22.2585 63.7379 22.1994C63.9495 22.1415 64.3274 22.0685 64.5329 22.1803C64.5424 21.6625 64.5121 21.1037 64.5514 20.6172C64.2926 20.6172 64.0338 20.6172 63.7744 20.6172C63.7508 21.106 63.8232 21.6898 63.7379 22.1044C63.6093 22.0842 63.6643 21.8936 63.6643 21.7986C63.6621 21.4083 63.6655 20.9728 63.6643 20.6172C63.3954 20.627 63.1568 20.6067 62.9064 20.598C62.8968 21.0527 62.926 21.5461 62.8867 21.9706C63.1388 22.0668 63.4678 22.0824 63.6458 22.2562C63.3112 22.2104 63.0018 22.0691 62.7952 21.9515C62.7952 21.9133 62.7952 21.8751 62.7952 21.8369C60.9346 21.4245 59.029 20.8245 57.1942 20.5031ZM62.8688 20.5407C63.1467 20.5286 63.4729 20.5668 63.7205 20.5222C63.5066 20.4527 63.0613 20.4625 62.8688 20.5407ZM71.9266 20.6363C72.1461 20.6953 72.4763 20.6409 72.6655 20.7318C72.0428 20.7046 71.5431 20.6357 71.1125 20.8842C71.3652 20.9027 71.638 20.9027 71.8519 20.9606C71.1877 20.9114 70.5954 20.9484 70.1519 21.1703C70.5533 21.1905 71.0906 21.1019 71.464 21.227C70.761 21.2224 69.9368 21.1112 69.4669 21.3793C69.8762 21.3631 70.3692 21.2948 70.7616 21.3793C69.9503 21.454 69.0829 21.3724 68.5063 21.6649C68.8291 21.6811 69.2204 21.6278 69.486 21.7031C68.8437 21.7778 68.0987 21.6544 67.6371 21.9324C68.1834 21.9423 68.673 21.9527 69.1536 21.9898C68.3564 22.0876 67.2761 21.8432 66.695 22.2179C68.5209 22.1762 70.4101 22.2301 72.2584 22.2179C70.3972 22.2718 68.4585 22.3054 66.6204 22.2179C66.2784 22.3477 65.8849 22.4264 65.548 22.562C67.0656 22.562 68.9032 22.5625 70.4837 22.562C71.0339 22.562 71.6436 22.6465 72.1293 22.562C72.0653 22.573 71.5549 22.5093 71.5005 22.4855C72.2725 22.5492 73.0809 22.4039 73.7373 22.4855C73.4229 22.5255 73.1174 22.5081 72.7761 22.5237C72.5762 22.533 72.419 22.5492 72.6279 22.5614C72.725 22.5672 73.0091 22.562 73.0714 22.5614C75.0887 22.5614 77.4462 22.577 79.2827 22.5423C78.815 22.383 78.1059 22.4062 77.4709 22.4467C76.2947 22.5214 75.151 22.5353 74.0697 22.4849C75.5755 22.4398 77.1369 22.4438 78.6359 22.3512C78.18 22.2249 77.7247 22.0957 77.2856 21.9515C76.686 22.0732 75.8517 22.0123 75.1971 21.9706C75.8607 21.9081 76.5765 22.0042 77.2121 21.9324C76.6512 21.6649 75.7141 21.8363 74.9758 21.7228C75.4514 21.6307 76.0033 21.7789 76.4356 21.7031C76.1672 21.6724 75.877 21.4928 75.567 21.4552C75.1656 21.4071 74.7608 21.4928 74.3655 21.3984C74.7591 21.3602 75.0988 21.4807 75.4559 21.4181C74.8956 21.117 73.9523 21.432 73.3111 21.2079C73.7985 21.1888 74.3184 21.2374 74.7529 21.2079C74.3728 21.0851 73.9658 20.9913 73.5149 20.9409C73.6014 20.9287 73.7362 20.9658 73.7923 20.9218C73.1713 20.8471 72.4819 20.3235 71.9266 20.6363ZM89.4517 20.9982C89.267 20.9878 88.7656 20.9849 88.4905 20.9415C88.8274 20.912 89.1586 20.9878 89.4332 20.9612C89.1783 20.8876 88.9161 20.8135 88.6567 20.7318C88.4113 20.656 88.1564 20.4967 87.8981 20.5598C88.0205 20.561 88.1373 20.5674 88.2131 20.6177C87.6281 20.5407 87.2323 20.7417 86.7898 20.8656C87.2311 20.9241 87.7505 20.9038 88.1755 20.9791C87.6202 21.0365 87.1071 20.8633 86.6231 20.9033C86.234 20.9357 85.8983 21.15 85.5507 21.2085C86.1133 21.2316 86.7438 21.1847 87.2334 21.2849C86.5361 21.3411 85.6243 21.1077 85.0331 21.3608C85.4205 21.3932 85.8893 21.3423 86.2357 21.4187C85.754 21.4755 85.3059 21.351 84.9039 21.3799C84.5688 21.4042 84.2841 21.5872 83.9983 21.6469C84.4767 21.7199 85.0993 21.6428 85.5513 21.7425C84.6429 21.8039 83.7597 21.516 83.1489 21.8954C83.6457 21.9486 84.2751 21.8652 84.7383 21.9527C84.297 21.9347 83.8383 21.977 83.4251 21.9527C83.2696 21.9428 83.1258 21.9 82.9821 21.9145C82.6604 21.9475 82.3982 22.1067 82.1315 22.1629C82.6082 22.1832 83.0843 22.1027 83.5357 22.1629C82.7923 22.2388 81.844 22.1073 81.3 22.3911C81.752 22.4149 82.2943 22.343 82.6868 22.4293C82.013 22.4652 81.1731 22.3297 80.6897 22.5625C85.2498 22.5504 89.8587 22.588 94.3874 22.5434C94.1409 22.445 93.927 22.3957 93.6474 22.4108C92.4083 22.4751 90.9536 22.4983 89.729 22.4676C91.0799 22.4374 92.4302 22.4062 93.7412 22.3344C93.4823 22.2457 93.2134 22.167 92.872 22.1635C92.9602 22.1652 93.0388 22.1577 93.0938 22.1253C92.6851 21.9266 92.1326 21.9724 91.5408 21.9724C90.8154 21.9724 90.0435 21.9295 89.3961 21.9724C90.2888 21.8033 91.4117 21.9683 92.3729 21.8959C92.0057 21.7535 91.5633 21.6892 91.0602 21.6857C91.2668 21.6712 91.4875 21.6759 91.652 21.6666C91.1989 21.5369 90.7947 21.3573 90.1911 21.3811C90.3511 21.3811 90.505 21.3735 90.6352 21.3428C90.3113 21.1882 89.6953 21.333 89.3225 21.2287C89.6016 21.245 89.9721 21.2704 90.2473 21.2287C89.9789 21.154 89.7431 21.0481 89.4517 20.9982ZM89.6555 20.8268C89.9272 20.9739 90.2641 21.0573 90.5796 21.1708C91.5577 21.5206 92.6037 21.8004 93.6109 22.0853C93.7979 22.2417 94.1151 22.2336 94.3874 22.3523C94.4508 22.3801 94.4929 22.4438 94.5547 22.467C95.2851 22.7369 96.3822 22.4768 97.2721 22.5429C96.7545 22.3587 96.1475 22.2672 95.5889 22.1235C95.5305 22.1681 95.6259 22.2539 95.5524 22.2764C94.8073 22.3876 94.2801 22.0517 93.7591 21.8177C93.7097 21.7986 93.7838 21.6533 93.7035 21.6649C92.0826 21.2525 90.414 20.7874 88.6758 20.5592C89.0154 20.634 89.2838 20.7834 89.6555 20.8268ZM76.6967 21.6284C77.1756 21.7801 77.6584 21.9035 78.1379 21.9903C78.0818 22.0349 78.1239 22.0089 78.1564 22.0477C78.9273 22.1537 79.6982 22.7195 80.4668 22.4861C78.0245 21.8786 75.6209 21.1286 73.1287 20.6369C74.3184 20.9664 75.5586 21.2676 76.6967 21.6284ZM57.028 20.6363C56.4009 20.682 55.6373 20.5876 55.2156 20.8459C56.1516 20.8535 57.1538 20.8934 58.0257 20.9027C57.6776 20.8303 57.3699 20.7156 57.028 20.6363ZM56.9354 20.9415C55.9674 20.9409 55.0354 20.7457 54.4212 21.0753C54.6076 21.1025 54.7867 21.0208 54.9383 21.0753C54.2786 21.0938 53.7295 21.227 53.2382 21.4187C53.7879 21.4378 54.4599 21.3828 54.9203 21.4372C54.0355 21.5033 52.9277 21.3399 52.3135 21.6845C52.8688 21.6724 53.4179 21.6168 53.9209 21.7233C53.4184 21.7164 52.9446 21.7708 52.4982 21.7419C52.4045 21.7355 52.3 21.6967 52.2029 21.7037C51.9104 21.7257 51.5949 21.8884 51.3158 21.9712C50.9975 22.065 50.6954 22.1235 50.4102 22.2382C51.5775 22.3291 52.8738 22.1403 54.0703 22.2764C53.7244 22.3112 53.3252 22.2984 53.017 22.2382C52.6161 22.4068 52.1434 22.2255 51.7043 22.2764C51.6184 22.2863 51.5455 22.3425 51.4635 22.3517C51.0834 22.3975 50.6808 22.2069 50.299 22.2562C50.0419 22.2898 49.8622 22.4085 49.6146 22.4664C49.9105 22.4791 50.2558 22.4415 50.5208 22.4855C50.1441 22.606 49.5293 22.423 49.2267 22.5811C54.0686 22.529 59.0268 22.5961 63.8676 22.5429C63.1916 22.3697 62.5369 22.1739 61.8705 21.9903C61.5735 22.0813 61.2714 21.9701 60.9464 21.9712C60.4315 21.9724 59.8762 22.0042 59.3569 22.0089C59.1946 22.0106 59.0082 22.0737 58.8757 21.9712C59.7954 21.9174 60.8537 21.9394 61.761 21.9521C61.1081 21.6683 60.2906 21.7019 59.4316 21.7037C59.1862 21.7048 58.9341 21.7587 58.6921 21.7037C59.3182 21.6701 60.0037 21.6961 60.596 21.6284C60.0896 21.4031 59.5214 21.4349 58.8218 21.4187C58.1464 21.4019 57.5243 21.4106 56.8624 21.3608C56.3296 21.3214 55.7659 21.4923 55.2724 21.399C56.7186 21.2513 58.2037 21.4708 59.6539 21.3608C59.4097 21.3527 59.1795 21.1772 58.8954 21.1517C58.4322 21.1094 57.8988 21.2392 57.4171 21.132C57.8842 21.11 58.3435 21.1789 58.7477 21.1129C58.2447 20.9212 57.6411 20.9426 56.9354 20.9415ZM65.0129 22.7143C60.3355 22.7143 55.4919 22.7658 50.7976 22.7143C50.0413 22.7068 49.1632 22.6396 48.5799 22.7531C48.5614 25.379 48.6192 28.0825 48.5428 30.647C49.7359 30.6759 51.0312 30.5456 52.2035 30.5526C52.2057 28.7056 52.1928 26.8419 52.222 25.0222C52.9822 24.6724 53.8839 25.2817 54.1259 25.8423C54.4869 24.5873 57.1908 24.4506 57.5277 25.8226C57.7888 25.196 58.7382 24.4882 59.5248 24.9643C59.6168 26.5917 59.5674 28.5302 59.5798 30.3041C60.582 30.3464 61.5887 30.2977 62.5931 30.2474C62.5549 30.1912 62.5572 30.0782 62.5184 29.9995C62.4595 29.8755 62.3747 29.846 62.3522 29.7319C62.3101 29.5182 62.4101 29.4157 62.501 29.2553C62.4819 29.1435 62.4381 29.0473 62.501 28.9501C62.7217 28.9582 62.8463 28.8556 63.0366 28.836C63.0445 28.741 63.0316 28.5134 63.0366 28.3587C63.1343 28.2944 63.2017 28.1983 63.2775 28.1109C63.2865 28.0182 63.1343 27.951 63.1287 27.8253C63.1259 27.7622 63.1927 27.7089 63.2034 27.6342C63.2135 27.5607 63.1624 27.4923 63.1669 27.4246C63.1669 27.4141 63.2135 27.4014 63.2219 27.3678C63.2343 27.3116 63.195 27.2734 63.2039 27.2531C63.3106 27.0024 63.4751 27.2635 63.6104 27.1193C63.6278 27.0371 63.4869 26.9554 63.4993 26.8147C63.5661 26.7365 63.5824 26.6074 63.7216 26.6045C63.7856 26.6462 63.7626 26.6919 63.8698 26.6612C63.8047 26.7701 63.7109 26.7244 63.684 26.8523C63.6565 26.9856 63.7777 27.0747 63.7031 27.2143C63.6576 27.3 63.5223 27.3446 63.4442 27.4246C63.3544 27.5161 63.282 27.6041 63.2781 27.7483C63.2736 27.874 63.3707 28.0883 63.3516 28.2064C63.3168 28.4143 63.0293 28.5029 63.0563 28.7207C63.0827 28.9414 63.3757 28.9587 63.3516 29.1794C63.1764 29.2587 63.1287 29.041 63.0372 28.9692C63.0226 29.1354 62.816 28.9993 62.7419 29.0838C62.6773 29.1655 62.7486 29.2275 62.7233 29.312C62.6925 29.4145 62.5504 29.4968 62.5566 29.6363C62.56 29.6972 62.6402 29.8489 62.6857 29.941C62.8609 30.2931 63.1725 30.1223 63.6099 30.1512C63.6638 30.1535 63.7682 30.1975 63.8507 30.208C64.1781 30.2526 64.6345 30.1935 65.0887 30.1703C65.4093 30.1535 65.9696 30.2161 66.124 30.1124C66.2515 30.0273 66.3492 29.6746 66.3082 29.5026C66.2908 29.4273 66.1807 29.385 66.124 29.2923C66.0398 29.158 66.0645 28.9443 66.0129 28.8348C65.973 28.7479 65.9169 28.7612 65.8652 28.7201C65.831 28.6946 65.7816 28.628 65.7361 28.5869C65.6771 28.1271 65.6833 27.5983 65.3661 27.4043C65.2875 27.0776 65.1735 26.6896 65.0331 26.4892C65.301 26.4493 65.2538 26.6809 65.292 26.8703C65.3257 27.0359 65.4705 27.1558 65.4587 27.2902C65.8815 27.4101 65.9382 28.1143 65.8282 28.606C65.8686 28.6408 65.9651 28.5336 66.0308 28.5869C66.0948 28.6929 66.1201 28.8383 66.1976 28.9304C66.2374 28.9941 66.1493 29.063 66.1611 29.1591C66.7141 28.8945 66.3767 29.8055 66.3834 30.1883C67.0504 30.1408 67.7696 30.1472 68.5467 30.1512C68.5473 28.4358 68.5371 26.7099 68.5647 25.0216C69.3249 24.6718 70.2271 25.2811 70.4685 25.8417C70.8295 24.5867 73.5346 24.45 73.8704 25.822C74.132 25.1954 75.0814 24.4877 75.8674 24.9637C75.9595 26.5662 75.9101 28.4786 75.9225 30.2271C76.6748 30.2259 77.4019 30.267 78.1407 30.2271C78.0823 30.0238 77.951 29.8136 78.0672 29.5599C78.12 29.4446 78.3625 29.3844 78.3816 29.2738C78.3956 29.1898 78.2856 29.0792 78.2704 28.9883C78.2255 28.7114 78.3243 28.4694 78.3816 28.1873C78.413 28.119 78.5523 28.1919 78.5478 28.13C78.5354 28.0008 78.5753 27.9516 78.5478 27.8444C78.7033 27.7535 78.6797 27.5502 78.8628 27.4634C78.7718 27.2126 79.016 27.0944 78.9548 26.7956C79.0087 26.744 79.0778 26.7064 79.1951 26.7197C79.3074 26.5552 79.3029 26.2703 79.436 26.1278C79.5792 26.0919 79.7072 26.1452 79.8234 26.0711C79.8947 25.95 79.8582 25.8342 79.9722 25.7855C80.1749 25.6981 80.2085 25.906 80.2675 26.0143C80.3427 26.1498 80.491 26.2744 80.4702 26.3954C80.5757 26.4018 80.5988 26.4927 80.619 26.5859C80.7509 26.5645 80.8121 26.6149 80.8598 26.6815C80.7885 26.9572 80.9654 27.0446 80.8958 27.2919C81.1978 27.1576 81.1849 27.6122 81.1731 27.9209C81.5055 27.9157 81.4449 28.3147 81.5055 28.5881C81.679 28.6489 81.8053 28.7456 81.839 28.913C81.8789 29.1134 81.7407 29.3045 81.7284 29.5419C81.725 29.5952 81.7632 29.6589 81.7643 29.7325C81.7688 29.9543 81.7351 29.9265 81.839 30.0753C81.8744 30.1263 81.9047 30.1935 81.9681 30.2282C82.7328 30.2369 83.4049 30.2856 84.2049 30.2856C84.2061 28.5267 84.1948 26.7545 84.2223 25.0228C84.9865 24.6718 85.8803 25.2817 86.1273 25.8429C86.4872 24.5879 89.1912 24.4512 89.5292 25.8232C89.7902 25.1965 90.7391 24.4888 91.5251 24.9649C91.6082 26.6659 91.5908 28.7358 91.5622 30.5532C92.1747 30.6279 92.8007 30.5155 93.429 30.534C94.0533 30.5514 94.6513 30.6643 95.2587 30.6667C95.2144 28.039 95.252 25.3506 95.2587 22.7149C85.2099 22.7143 75.0893 22.7154 65.0129 22.7143ZM54.4218 25.8996C54.6323 25.4091 55.4627 25.0477 56.1589 25.1172C56.7085 25.1728 57.3031 25.5614 57.3609 26.0328C57.3705 26.1064 57.3435 26.1881 57.3424 26.2622C57.3368 26.8807 57.3609 27.6006 57.3609 28.3217C57.3609 28.9396 57.3228 29.5912 57.3609 30.1715C57.3649 30.2207 57.3115 30.3777 57.4351 30.362C57.5384 30.3394 57.489 30.1929 57.4906 30.1327C57.5378 28.7873 57.4115 27.2195 57.5092 25.8608C57.1313 25.0929 55.8001 24.8224 54.8653 25.2701C54.6329 25.3819 54.223 25.6292 54.1629 25.8996C54.1062 26.1533 54.1629 26.5153 54.1629 26.8153C54.1629 27.7332 54.2168 28.6657 54.1629 29.5611C53.7621 29.5871 53.3005 29.469 52.9985 29.6184C53.291 29.7342 53.8637 29.6479 54.182 29.6763C54.182 29.7974 54.182 29.9595 54.182 30.1142C54.182 30.2416 54.1248 30.4599 54.2556 30.4761C54.3639 29.0838 54.2208 27.4697 54.3291 26.0525C54.4234 26.978 54.3707 28.0228 54.3853 29.0653C54.8226 29.0653 55.2606 29.0653 55.6979 29.0653C55.6946 27.7842 55.7108 26.524 55.7344 25.2707C55.1219 25.2927 54.6649 25.5776 54.4223 25.9193C54.4218 25.9118 54.4218 25.906 54.4218 25.8996ZM70.7622 25.8996C70.9727 25.4091 71.8031 25.0477 72.4999 25.1172C73.0495 25.1728 73.643 25.5614 73.7019 26.0328C73.7115 26.1064 73.6839 26.1881 73.6828 26.2622C73.6783 26.8512 73.7019 27.5439 73.7019 28.2261C73.7019 28.8116 73.6688 29.4313 73.7019 29.9809C73.7047 30.025 73.6519 30.1883 73.776 30.1715C73.8776 30.1553 73.8299 30.0122 73.8316 29.9613C73.8631 28.7074 73.7654 27.1303 73.8501 25.8608C73.4723 25.0929 72.1411 24.8224 71.2063 25.2701C70.9733 25.3819 70.564 25.6286 70.5039 25.8996C70.4472 26.1545 70.5039 26.5153 70.5039 26.8153C70.5039 27.7269 70.541 28.6385 70.5213 29.5611C70.1143 29.5889 69.6466 29.4684 69.3395 29.6184C69.632 29.7342 70.2047 29.6479 70.5213 29.6763C70.5544 29.8269 70.4551 30.1142 70.5775 30.1721C70.6791 30.164 70.6314 30.0313 70.6336 29.9815C70.6982 28.6773 70.5544 27.307 70.6701 26.0531C70.7639 26.9786 70.7105 28.0234 70.7262 29.0659C71.163 29.0659 71.6015 29.0659 72.0383 29.0659C72.035 27.7848 72.0518 26.5245 72.0748 25.2713C71.4629 25.2933 71.0053 25.5782 70.7627 25.9199C70.7622 25.9118 70.7622 25.906 70.7622 25.8996ZM86.4193 25.8996C86.631 25.4091 87.4602 25.0477 88.157 25.1172C88.7072 25.1728 89.3012 25.562 89.3596 26.0328C89.3686 26.1058 89.3411 26.1898 89.3411 26.2622C89.3355 26.8912 89.3596 27.6255 89.3596 28.3593C89.3596 28.9912 89.3276 29.6526 89.3596 30.2479C89.3619 30.2995 89.3074 30.4674 89.4337 30.4576C89.5376 30.4356 89.4865 30.2885 89.4893 30.2282C89.5398 28.8499 89.4062 27.2525 89.5078 25.8608C89.1288 25.0929 87.7982 24.8224 86.864 25.2701C86.6315 25.3819 86.2211 25.6286 86.1616 25.8996C86.1049 26.1545 86.1616 26.5153 86.1616 26.8153C86.1616 27.7269 86.1992 28.6385 86.1801 29.5611C85.7714 29.5889 85.3043 29.4684 84.9971 29.6184C85.2897 29.7342 85.8623 29.6479 86.1801 29.6763C86.1801 29.7765 86.1801 29.9161 86.1801 30.0383C86.1801 30.1599 86.1358 30.3296 86.2363 30.3626C86.3379 30.3476 86.2896 30.208 86.2918 30.153C86.3502 28.7856 86.2166 27.3753 86.3278 26.0531C86.4215 26.9786 86.3682 28.0234 86.3839 29.0659C86.8207 29.0659 87.2581 29.0659 87.6955 29.0659C87.6921 27.7848 87.7089 26.5245 87.7336 25.2713C87.1205 25.2933 86.6624 25.5782 86.4199 25.9199C86.4193 25.9118 86.4193 25.906 86.4193 25.8996ZM55.8074 30.0939C55.8057 30.1726 55.7603 30.3308 55.863 30.3806C55.8821 28.7143 55.9186 26.868 55.845 25.251C55.8327 25.251 55.8209 25.251 55.808 25.251C55.8069 25.2753 55.7844 25.2782 55.7894 25.3083C55.8108 26.118 55.8265 27.0105 55.8265 27.8827L55.8074 30.0939ZM55.9742 25.3083C55.9601 26.3566 55.9983 27.8902 55.9556 29.0462C56.3571 29.0902 56.836 29.052 57.2677 29.0653C57.2677 27.9869 57.2616 26.9508 57.2868 25.9379C57.019 25.54 56.5918 25.3066 55.9921 25.251C55.9708 25.2539 55.973 25.2817 55.9742 25.3083ZM72.1489 25.251C72.1366 25.2765 72.131 25.2875 72.1304 25.3274C72.1096 26.0699 72.1669 26.9218 72.1669 27.768C72.1669 28.6112 72.1461 29.4452 72.1854 30.1524C72.2472 28.5962 72.2466 26.7869 72.1854 25.251C72.1731 25.251 72.1607 25.251 72.1489 25.251ZM72.3151 25.3083C72.3011 26.3566 72.3393 27.8902 72.2977 29.0462C72.6975 29.0902 73.1775 29.052 73.6093 29.0653C73.6093 27.9869 73.6025 26.9508 73.6278 25.9379C73.36 25.54 72.9327 25.3066 72.3337 25.251C72.3118 25.2539 72.3135 25.2817 72.3151 25.3083ZM87.8061 25.251C87.805 25.2753 87.7825 25.2782 87.7881 25.3083C87.81 26.133 87.824 27.0342 87.824 27.9209C87.824 28.7039 87.8151 29.4794 87.8061 30.1524C87.805 30.2311 87.7583 30.3864 87.8622 30.4373C87.8802 28.7526 87.9178 26.8871 87.8437 25.251C87.8308 25.251 87.8184 25.251 87.8061 25.251ZM87.9728 25.3083C87.9582 26.3566 87.997 27.8902 87.9532 29.0462C88.3546 29.0902 88.8335 29.052 89.267 29.0653C89.267 27.9869 89.2602 26.9508 89.2849 25.9379C89.0177 25.54 88.5904 25.3066 87.9908 25.251C87.9689 25.2539 87.9711 25.2817 87.9728 25.3083ZM79.5612 26.2998C79.4326 26.4267 79.3574 26.6097 79.2468 26.7579C79.3405 26.8315 79.2749 26.9056 79.3215 27.0064C79.3799 27.1321 79.5107 27.1477 79.5236 27.2734C79.5365 27.3858 79.4708 27.4298 79.4321 27.5595C79.4888 27.6591 79.6353 27.6666 79.6353 27.8259C79.3535 27.8062 79.1901 27.53 79.3759 27.2919C79.2973 27.1952 79.2064 27.1112 79.1362 27.0064C79.1362 27.0892 79.1845 27.1332 79.1541 27.1964C79.1283 27.278 79.0194 27.2734 78.9868 27.3487C79.0273 27.3898 79.0593 27.4408 79.0621 27.5207C78.97 27.6481 78.8745 27.772 78.7662 27.8827C78.7493 28.1288 78.6522 28.4497 78.4518 28.5695C78.3872 28.9286 78.5118 29.0259 78.5438 29.3705C78.4815 29.5153 78.3384 29.5779 78.248 29.6948C78.248 29.886 78.2805 30.0429 78.285 30.2282C78.5972 30.4842 79.0273 30.2873 79.468 30.2665C80.2709 30.2294 80.7953 30.3192 81.4089 30.19C81.4505 30.1813 81.5105 30.2028 81.5386 30.19C81.8581 30.0562 81.6037 29.7672 81.5566 29.5611C81.5173 29.3896 81.6256 29.1794 81.5751 28.9697C81.5437 28.8417 81.3533 28.7821 81.3163 28.6645C81.2714 28.5244 81.3522 28.3738 81.3163 28.2452C81.2781 28.1114 81.1978 28.1491 81.094 28.0356C81.1299 27.7651 80.8974 27.658 80.8172 27.5207C80.7082 27.3359 80.7526 27.0678 80.5589 26.9294C80.4011 26.7041 80.4067 26.3114 80.1333 26.2049C80.1288 26.2767 80.1518 26.3769 80.0777 26.3763C80.0609 26.2541 80.0497 26.1249 79.948 26.0902C79.8026 26.1435 79.811 26.4093 79.5612 26.2998ZM47.471 26.9479C47.498 26.7412 47.5373 26.5477 47.6372 26.4139C47.3688 26.2147 47.4502 26.7881 47.471 26.9479ZM54.0332 26.8529C54.0703 26.8489 54.1876 26.8552 54.1253 26.7765C53.7851 26.7446 53.1641 26.6317 52.9053 26.8153C53.2113 26.9404 53.6526 26.8274 54.0332 26.8529ZM70.3742 26.8529C70.4191 26.8489 70.5286 26.8552 70.4663 26.7765C70.1255 26.7446 69.5045 26.6317 69.2468 26.8153C69.5528 26.9404 69.9935 26.8274 70.3742 26.8529ZM86.1245 26.7759C85.7837 26.744 85.1622 26.6311 84.9039 26.8147C85.2099 26.9398 85.6507 26.8269 86.0319 26.8523L86.1245 26.7759ZM57.5457 26.7759C57.5445 26.8008 57.5215 26.8031 57.5271 26.8338C57.8876 26.8952 58.5091 26.9097 58.8213 26.795C58.4518 26.7435 57.9376 26.7412 57.5457 26.7759ZM73.8866 26.7759C73.8855 26.8008 73.8625 26.8031 73.8681 26.8338C74.2297 26.8952 74.8506 26.9097 75.1622 26.795C74.7923 26.7435 74.2785 26.7412 73.8866 26.7759ZM89.5443 26.7759C89.5421 26.8008 89.5202 26.8031 89.5258 26.8338C89.8862 26.8952 90.5083 26.9097 90.8194 26.795C90.4505 26.7435 89.9362 26.7412 89.5443 26.7759ZM46.6204 27.062C46.5261 27.0776 46.5413 26.9774 46.4537 26.9861C46.3857 27.0429 46.3397 27.1228 46.3616 27.2728C46.3178 27.3284 46.2179 27.3273 46.1948 27.4054C46.3532 27.7251 46.667 27.8856 46.8416 28.1873C46.9472 28.1381 47.0078 28.3101 47.0264 28.2255C46.9068 27.647 47.1858 27.4101 47.2672 26.9861C47.1645 26.8883 46.8821 26.9763 46.8416 26.8147C46.7743 26.9027 46.7507 27.0377 46.6204 27.062ZM47.2116 28.2255C47.2869 28.2128 47.3172 28.2441 47.3784 28.2446C47.4182 28.1937 47.4283 28.1248 47.471 28.0732C47.672 27.8248 48.0302 27.6608 48.1172 27.3105C48.0656 27.2126 47.9505 27.2983 47.8584 27.2531C47.7697 27.157 47.8781 27.0284 47.8399 26.9288C47.7287 26.9578 47.6249 26.9856 47.5451 26.9097C47.4716 27.3927 47.0746 27.5809 47.2116 28.2255ZM48.2469 27.4825C48.1498 27.5763 48.0836 27.6753 47.9881 27.7871C47.8607 27.9371 47.5609 28.1792 47.5266 28.4358C47.5019 28.6141 47.6322 28.7873 47.6557 29.0074C47.6928 29.3549 47.6731 29.6723 47.5451 29.8657C47.8556 29.8831 48.1773 29.9775 48.4322 29.9416C48.3907 29.1649 48.4244 28.3095 48.4137 27.501C48.3379 27.5161 48.3188 27.472 48.2469 27.4825ZM99.6207 27.9776C99.4629 28.0639 99.0227 28.2296 99.0659 27.8259C98.9621 27.8427 98.9694 27.7471 98.8633 27.768C98.8464 28.0506 98.5539 27.9655 98.3085 27.9591C98.2687 28.0576 98.299 28.2296 98.29 28.3587C98.9497 28.2765 99.6689 28.2556 100.379 28.2255C100.355 28.1109 100.365 27.9609 100.304 27.8821C100.269 28.0668 100.038 28.2157 99.8424 28.1109C99.976 28.0564 99.5982 28.1688 99.6207 27.9776ZM46.8607 28.2446C46.7715 28.2087 46.6951 28.061 46.6019 28.0923C46.6973 28.1213 46.7748 28.269 46.8607 28.2446ZM47.3228 28.9692C47.3514 28.8221 47.2307 28.7097 47.2116 28.569C47.1998 28.4798 47.2459 28.3443 47.1931 28.2829C47.0831 28.5348 47.2509 28.7827 47.3228 28.9692ZM46.9163 30.1709C46.9073 30.179 46.7933 30.201 46.8422 30.285C46.8635 30.2607 46.8877 30.1431 46.9163 30.1889C46.8478 30.267 46.8983 30.3087 46.8798 30.38C46.8181 30.3516 46.7445 30.691 46.8613 30.7234C46.9281 30.7095 46.8865 30.5838 46.8978 30.5138C47.0067 30.296 47.0948 30.0551 47.2678 29.9033C47.3031 29.6479 47.3138 29.2645 47.3043 29.0259C47.3239 29.5831 47.1807 29.912 46.9163 30.1709ZM47.0634 30.6858C47.1162 30.6823 47.1909 30.7014 47.1925 30.6476C47.1656 30.6452 47.1246 30.6545 47.119 30.6284C47.1482 30.2531 47.4676 29.9908 47.5069 29.5993C47.5496 29.1724 47.361 28.7699 47.3587 28.302C47.3172 28.5493 47.3357 28.8962 47.3958 29.1024C47.4003 29.0694 47.3773 29.0074 47.4317 29.0265C47.6041 29.7904 46.9921 30.0875 47.0634 30.6858ZM100.859 28.3402C100.866 28.3964 100.891 28.4346 100.932 28.4543C101.033 28.386 101.207 28.3941 101.301 28.3211C101.202 28.3437 101.028 28.3414 100.859 28.3402ZM98.2895 28.4358C98.2895 28.5881 98.2895 28.741 98.2895 28.8939C98.7453 28.6582 99.2748 28.4989 99.8239 28.3593C99.3147 28.3883 98.7886 28.3975 98.2895 28.4358ZM100.969 28.5504C101.018 28.7028 101.1 28.8221 101.172 28.9501C101.309 28.9443 101.451 28.8429 101.542 28.8545C101.578 29.0508 101.348 28.9738 101.283 29.0641C101.401 29.1585 101.424 29.3514 101.616 29.3694C101.575 29.0537 101.721 28.5997 101.524 28.3778C101.351 28.4473 101.136 28.474 100.969 28.5504ZM100.562 28.4358C99.7284 28.3981 98.952 28.7433 98.2889 29.0074C98.2889 29.1794 98.2889 29.3508 98.2889 29.5228C98.8969 29.1892 99.624 28.8829 100.322 28.6454C100.4 28.6188 100.547 28.5093 100.599 28.6454C99.8082 28.9472 99.0098 29.2419 98.2889 29.6178C98.3018 29.802 98.2631 30.0371 98.3074 30.1894C98.9615 29.7927 99.8447 29.4429 100.618 29.1603C100.699 29.1307 100.885 29.0062 100.932 29.18C100.008 29.5049 99.1176 29.8634 98.2889 30.2856C98.2889 30.3557 98.2889 30.4252 98.2889 30.4952C98.7313 30.4281 99.0968 30.53 99.4904 30.4373C99.638 30.4037 99.8115 30.2966 99.971 30.2282C100.307 30.0858 100.621 29.9694 100.968 29.8466C101.1 29.8003 101.325 29.623 101.449 29.8089C100.907 29.9879 100.379 30.179 99.8784 30.3997C100.516 30.3319 101.25 30.4692 101.671 30.2474C101.584 30.0197 101.511 29.7759 101.356 29.6178C101.353 29.6462 101.363 29.6885 101.338 29.6943C101.081 29.2744 100.777 28.9002 100.562 28.4358ZM54.4027 29.1412C54.3886 29.1446 54.3808 29.1568 54.3841 29.1794C54.3841 29.1916 54.3841 29.2043 54.3841 29.217C54.6778 29.2489 55.0899 29.2362 55.4009 29.2362C55.4947 29.2362 55.6564 29.2842 55.6968 29.1794C55.3392 29.0908 54.8221 29.1661 54.4027 29.1412ZM55.9927 29.1412C55.9747 29.1412 55.9708 29.1568 55.9562 29.1603C55.9551 29.1863 55.9652 29.202 55.9747 29.2176C56.2588 29.2524 56.6698 29.2367 56.9724 29.2367C57.0695 29.2367 57.2301 29.2842 57.2677 29.18L55.9927 29.1412ZM70.7442 29.1412C70.729 29.1446 70.7223 29.1568 70.7257 29.1794C70.7257 29.1916 70.7257 29.2043 70.7257 29.217C71.0193 29.2489 71.4309 29.2362 71.7419 29.2362C71.8362 29.2362 71.9974 29.2842 72.0378 29.1794C71.6801 29.0908 71.1625 29.1661 70.7442 29.1412ZM72.3337 29.1412C72.3151 29.1412 72.3118 29.1568 72.2977 29.1603C72.2966 29.1863 72.3056 29.202 72.3151 29.2176C72.5992 29.2524 73.0102 29.2367 73.3128 29.2367C73.4105 29.2367 73.5705 29.2842 73.6087 29.18C73.2578 29.0908 72.7469 29.1661 72.3337 29.1412ZM86.4008 29.1412C86.3867 29.1446 86.38 29.1568 86.3834 29.1794C86.3834 29.1916 86.3834 29.2043 86.3834 29.217C86.6776 29.2489 87.0885 29.2362 87.4001 29.2362C87.4939 29.2362 87.6545 29.2842 87.6949 29.1794C87.3378 29.0908 86.8202 29.1661 86.4008 29.1412ZM87.9913 29.1412C87.9728 29.1412 87.9689 29.1568 87.9537 29.1603C87.9537 29.1863 87.9627 29.202 87.9734 29.2176C88.2575 29.2524 88.6679 29.2367 88.9711 29.2367C89.0677 29.2367 89.2277 29.2842 89.267 29.18C88.9155 29.0908 88.404 29.1661 87.9913 29.1412ZM54.3841 29.3126C54.3796 29.6537 54.3875 30.0632 54.3841 30.457C54.8479 30.4524 55.2656 30.4008 55.7148 30.3806C55.721 30.0122 55.7114 29.6595 55.6968 29.3126C55.233 29.3149 54.8086 29.308 54.3841 29.3126ZM55.9742 29.3126C55.9315 29.6306 55.9674 30.0308 55.9556 30.3806C56.3958 30.3348 56.8298 30.3974 57.2677 30.3615C57.2677 30.0053 57.2677 29.6491 57.2677 29.2929C56.8231 29.2854 56.4261 29.3282 55.9742 29.3126ZM70.7257 29.3126C70.7184 29.5779 70.729 29.8622 70.7257 30.1709C71.1833 30.1674 71.5707 30.153 72.0563 30.1518C72.0675 29.8535 72.0428 29.5941 72.0378 29.312C71.5735 29.3149 71.1496 29.308 70.7257 29.3126ZM72.2977 29.3317C72.2977 29.6045 72.2977 29.8779 72.2977 30.1518C72.6868 30.1385 73.2309 30.1605 73.6093 30.1518C73.6093 29.8651 73.6093 29.579 73.6093 29.2929C73.1646 29.2993 72.7188 29.3022 72.2977 29.3317ZM86.3828 29.3126C86.3777 29.6277 86.385 29.9972 86.3828 30.362C86.6096 30.3742 86.887 30.3365 87.0852 30.3811C86.9628 30.3817 86.8466 30.3893 86.7522 30.4194C87.0526 30.4466 87.3878 30.4373 87.7129 30.4379C87.7185 30.0522 87.7118 29.678 87.6943 29.3132C87.2312 29.3149 86.8073 29.308 86.3828 29.3126ZM87.9532 29.3317C87.9532 29.7001 87.9532 30.0684 87.9532 30.4367C88.3743 30.4674 88.8161 30.4755 89.267 30.475C89.267 30.0811 89.267 29.6867 89.267 29.2923C88.8223 29.2993 88.3754 29.3022 87.9532 29.3317ZM43.5336 30.1709C42.9182 29.8808 42.2933 29.5367 41.3888 29.6369C41.3844 29.6346 41.3737 29.6404 41.3703 29.6369C41.4809 29.7336 41.8122 29.8182 42.0171 29.9039C42.4971 30.1031 42.8655 30.2757 43.3298 30.4952C43.5583 30.6035 43.7963 30.7721 43.9766 30.801C44.2562 30.8456 44.5588 30.7437 44.8086 30.7622C44.3628 30.6093 43.9636 30.3742 43.5336 30.1709ZM45.8434 30.6858C45.8428 30.6742 45.8411 30.6626 45.8254 30.6667C45.2741 30.4663 44.6918 30.1784 44.1427 29.9421C43.9468 29.8576 43.7553 29.7418 43.5701 29.7134C43.2248 29.6607 42.8351 29.6815 42.4421 29.6757C43.0979 29.8906 43.7273 30.1848 44.3269 30.4761C44.5257 30.5728 44.7362 30.7437 44.9187 30.7813C45.2752 30.8543 45.6716 30.713 46.0466 30.6858C46.2297 30.6725 46.4054 30.7107 46.6013 30.6858C45.959 30.3817 45.2932 30.1031 44.6239 29.8275C45.3527 29.9844 46.0388 30.3504 46.6754 30.6667C46.6715 30.5358 46.6749 30.4113 46.6945 30.3047C46.3756 30.1906 46.0506 29.952 45.6581 29.8466C45.0938 29.6954 44.396 29.8333 43.7913 29.751C44.5122 30.0313 45.2235 30.3203 45.8613 30.6858C45.8563 30.6858 45.8501 30.6858 45.8434 30.6858ZM57.8966 29.7134C57.7702 29.7192 57.6136 29.6694 57.5457 29.7707C57.8696 29.8234 58.3783 29.8663 58.6545 29.7516C58.4372 29.6711 58.1537 29.7012 57.8966 29.7134ZM74.2375 29.7134C74.1112 29.7192 73.9546 29.6694 73.8866 29.7707C74.2111 29.8234 74.7198 29.8663 74.9955 29.7516C74.7782 29.6711 74.4952 29.7012 74.2375 29.7134ZM89.8952 29.7134C89.7689 29.7192 89.6111 29.6694 89.5443 29.7707C89.8672 29.8234 90.3775 29.8663 90.6532 29.7516C90.4353 29.6711 90.1524 29.7012 89.8952 29.7134ZM46.7125 30.2277C46.7512 30.1344 46.845 30.0974 46.8793 29.9995C46.6131 29.886 46.1819 29.8408 45.8434 29.8657C46.16 29.9589 46.4267 30.1031 46.7125 30.2277ZM47.471 29.9804C47.4604 30.0528 47.4132 30.0858 47.4149 30.1709C47.8146 30.2728 48.005 30.592 48.4507 30.647C48.4485 30.5282 48.4199 30.4367 48.4322 30.3041C48.1543 30.153 47.8719 30.0053 47.471 29.9804ZM48.4322 30.2474C48.4272 30.1819 48.4463 30.0927 48.4137 30.0562C48.3149 30.0684 48.1678 30.0313 48.0987 30.0748C48.225 30.1165 48.3244 30.1865 48.4322 30.2474ZM47.3228 30.5335C47.4997 30.6655 47.8792 30.7136 48.1537 30.6284C47.873 30.5248 47.6698 30.34 47.3778 30.2474C47.3621 30.3452 47.32 30.4159 47.3228 30.5335ZM71.5572 30.3429C70.797 30.3893 69.943 30.3099 69.1907 30.3997C67.4799 30.6047 65.8265 30.8213 64.1629 31.0669C65.7417 30.9644 67.2497 31.0559 68.6915 30.8572C70.1244 30.6597 71.5319 30.5062 72.9619 30.3423C72.492 30.3226 71.9985 30.3371 71.5572 30.3429ZM81.1697 30.4947C80.7756 30.5138 80.3562 30.5393 79.9682 30.5138C78.4361 30.4159 77.0762 30.5445 75.772 30.7808C77.298 30.7113 78.7387 30.8126 80.1524 30.8763C81.5633 30.94 82.926 30.6035 84.2925 30.5335C83.2589 30.5033 82.2073 30.4449 81.1697 30.4947ZM102.374 30.5711C102.364 30.6701 102.398 30.724 102.411 30.8005C103.024 30.6823 103.646 30.5728 104.277 30.4755C103.642 30.5057 102.964 30.4941 102.374 30.5711ZM100.692 30.5526C99.884 30.6122 99.1328 30.8242 98.418 30.9522C98.8986 31.0559 99.2888 30.9215 99.6571 30.8375C100.304 30.6904 100.946 30.552 101.708 30.5896C100.823 30.6817 99.9704 30.8051 99.2142 31.0281C99.8609 31.1589 100.324 30.9678 100.859 30.8375C101.106 30.7779 101.356 30.7275 101.579 30.6661C101.626 30.6533 101.772 30.6452 101.746 30.5526C101.466 30.5474 101.05 30.5254 100.692 30.5526ZM91.725 30.6858C91.2618 30.6858 90.802 30.7611 90.3393 30.7616C90.0384 30.7616 89.7358 30.7095 89.4332 30.7043C88.678 30.6916 87.9054 30.7008 87.1408 30.6852C86.3755 30.6696 85.622 30.5225 84.8849 30.5705C83.7951 30.6423 82.7047 30.808 81.6503 30.8954C83.0456 30.9858 84.4262 30.8711 85.7719 30.8763C86.3003 30.8775 86.8499 30.8566 87.3631 30.8954C87.6769 30.9186 87.9773 31.0408 88.2867 31.0478C88.6808 31.0564 89.0929 30.9991 89.4887 30.9713C90.7194 30.8879 91.9164 30.8503 93.1303 30.7425C92.6576 30.7333 92.1983 30.6858 91.725 30.6858ZM97.5865 30.8763C98.3624 31.0211 98.984 30.6997 99.6942 30.6082C98.9744 30.6806 98.2799 30.7773 97.5865 30.8763ZM96.3659 30.7808C96.9661 30.903 97.7853 30.7947 98.3821 30.6852C97.6702 30.6771 97.0363 30.7483 96.3659 30.7808ZM100.1 31.1051C100.686 31.2053 101.246 31.1798 101.708 30.9904C101.733 30.9012 101.737 30.7918 101.764 30.7049C101.211 30.8398 100.639 30.9557 100.1 31.1051ZM101.172 31.2001C101.376 31.2261 101.593 31.2377 101.801 31.2574C101.798 30.8862 101.376 31.1694 101.172 31.2001ZM101.265 31.4671C100.816 31.4138 100.343 31.3194 99.8789 31.2962C99.1968 31.2609 98.4708 31.3495 97.7712 31.3912C97.0722 31.4323 96.3749 31.4352 95.681 31.5238C96.4563 31.6055 97.2098 31.5771 97.9559 31.6576C98.6724 31.7346 99.3781 31.8875 100.099 31.9246C100.593 31.9501 101.121 31.8927 101.634 31.8673C102.58 31.8209 103.592 31.7908 104.518 31.7335C104.037 31.7219 103.531 31.5945 103.094 31.6576C103.149 31.6263 103.117 31.609 103.058 31.6003C102.859 31.6136 102.657 31.5308 102.485 31.5812C102.599 31.5783 102.785 31.6026 102.8 31.6379C102.303 31.5678 101.795 31.5308 101.265 31.4671ZM95.1453 31.5244C93.534 31.6362 91.885 31.708 90.3017 31.8493C91.8906 31.9657 93.5053 31.9055 95.0718 32.0207C95.8556 32.0781 96.6242 32.1568 97.4012 32.0966C98.1788 32.0369 98.9553 32.012 99.7313 31.9443C98.276 31.7288 96.659 31.6802 95.1453 31.5244ZM100.007 32.0393C99.1232 32.0821 98.2238 32.1146 97.3282 32.2113C97.8605 32.2611 98.3973 32.3381 98.9368 32.4018C99.4747 32.4644 100.054 32.5704 100.562 32.5732C101.443 32.5779 102.324 32.3914 103.224 32.3636C102.177 32.3213 101.119 31.9866 100.007 32.0393Z" fill="white"/>
<path fill-rule="evenodd" clip-rule="evenodd" d="M75.833 33.4974C75.9916 33.27 76.2929 33.3959 76.5343 33.417C78.3556 33.5811 80.4517 33.6648 82.0234 34.1392C82.005 34.1392 81.9861 34.1392 81.9665 34.1392C81.0984 33.9036 80.0418 33.8492 79.0322 33.7387C77.9537 33.6193 76.8436 33.4617 75.833 33.4974Z" fill="white"/>
<path fill-rule="evenodd" clip-rule="evenodd" d="M104.94 20.1738C104.978 20.2883 105.013 20.4071 105.063 20.5072C105.016 20.5166 105.046 20.6289 105.009 20.6507C105.11 20.7935 105.35 20.7449 105.449 20.8899C105.47 21.0558 105.453 21.1486 105.501 21.295C105.526 21.3429 105.557 21.1986 105.642 21.2486C105.657 21.2762 105.665 21.3124 105.66 21.3682C105.831 21.1617 106.112 21.4501 105.976 21.7256C105.834 21.6792 105.806 21.4806 105.696 21.3907C105.601 21.5792 105.285 21.7031 105.344 21.2486C105.342 21.1704 105.239 21.2312 105.256 21.1291C105.291 21.1291 105.326 21.1291 105.361 21.1291C105.334 20.8717 105.129 20.8551 104.974 20.771C104.967 20.4035 104.64 20.2484 104.464 20.5079C104.499 20.2346 104.77 20.1861 104.94 20.1738Z" fill="white"/>
<path fill-rule="evenodd" clip-rule="evenodd" d="M63.479 31.8507C61.7806 32.0156 60.1816 32.2399 58.5181 32.4249C59.7696 32.2449 61.0378 32.0748 62.3615 31.9376C59.2865 31.724 56.7852 32.3038 54.161 32.5331C55.378 32.5627 56.6261 32.4686 57.8776 32.4686C59.7885 32.4686 61.6949 32.4124 63.5341 32.3814C64.119 32.3719 64.6888 32.3169 65.2359 32.2518C66.3412 32.1205 67.3947 31.9994 68.4939 31.905C66.7821 31.8632 64.9841 31.9218 63.3695 31.9376C65.5473 31.8089 68.1231 31.827 70.4164 31.8833C69.9483 31.9215 69.5102 31.8754 69.0615 31.8941C68.4405 31.9201 67.8189 32.0047 67.2313 32.0679C66.6275 32.132 66.041 32.2097 65.4372 32.2626C65.619 32.2867 65.8391 32.2406 66.0593 32.2518C65.1353 32.3844 64.1173 32.4268 63.0582 32.4466C59.9136 32.5051 56.4961 32.5318 53.3926 32.5874C55.3196 32.3956 57.1165 32.1264 59.0491 31.9376C58.2335 31.9349 57.2594 31.933 56.4505 31.9702C57.5168 31.8609 58.6982 31.879 59.8547 31.8399C60.5463 31.8165 61.2129 31.7898 61.8678 31.8399C62.1125 31.8586 62.3621 31.9037 62.6006 31.9047C62.8964 31.906 63.1688 31.8198 63.479 31.8507Z" fill="white"/>
<path fill-rule="evenodd" clip-rule="evenodd" d="M127.353 37.4881H126.844L126.829 37.4803L126.817 37.4398L126.752 37.4368L126.739 37.4356L126.733 37.3837L126.734 37.3145V37.302L126.778 37.2948V37.0335L126.77 37.0234L126.741 37.0192L126.732 37.0043L126.733 36.9929L126.738 36.9774L126.778 36.9661V36.8426L126.769 36.8354L126.741 36.8301L126.732 36.8205V36.8038L126.738 36.7913L126.777 36.7764L126.779 36.709L126.781 36.697L126.827 36.6905H127.462L127.472 36.697L127.485 36.7358L127.606 36.7382L127.617 36.7453L127.625 36.7758L127.632 36.7835L127.7 36.7859L127.709 36.7937L127.718 36.8229L127.751 36.8348L127.76 36.8635L127.763 36.919L127.801 36.9273L127.813 36.9583L127.807 37.2411L127.795 37.2483L127.767 37.2566L127.76 37.2638L127.758 37.3318L127.746 37.3419L127.722 37.3461L127.707 37.3837L127.679 37.3914L127.628 37.3938L127.616 37.4332L127.584 37.4398L127.492 37.4368L127.487 37.4439L127.469 37.4851L127.353 37.4881ZM128.285 39.075H127.815L127.802 39.0344L127.764 39.0219L127.762 38.3424L127.748 38.3358L127.723 38.3251L127.716 38.315L127.713 38.1575L127.711 38.1461L127.672 38.1342L127.67 38.0674L127.663 38.0549L127.626 38.0405L127.619 38.0083L127.607 38.0024L127.536 37.9994L127.534 37.9916L127.524 37.9654L127.513 37.9558H126.8L126.782 37.9606L126.77 37.9994L126.748 38.0041L126.734 38.0143L126.733 38.8942L126.734 38.9259L126.744 38.9366L126.77 38.9408L126.781 38.9551V38.9646L126.776 38.9772L126.739 38.9921L126.731 39.0207L126.693 39.0356L126.675 39.0762H126.278L126.269 39.0661L126.26 39.0392L126.225 39.0249L126.216 38.9957V38.7153L126.21 38.7087L126.179 38.7027L126.169 38.686V38.6747L126.178 38.6622L126.217 38.6496V37.7745V36.916L126.222 36.2323L126.259 36.2198L126.273 36.1816L126.288 36.1732L126.303 36.178L126.317 36.2198L126.344 36.2269L126.431 36.2215L126.444 36.2198L126.461 36.178L126.664 36.1762L126.675 36.1834L126.691 36.2215L126.9 36.2198H126.911L126.923 36.1816L127.095 36.1786L127.109 36.2204L127.137 36.2257L127.328 36.2227L127.341 36.1869L127.375 36.1774H127.512L127.523 36.1869L127.533 36.218L127.535 36.2204L127.838 36.2221L127.847 36.2293L127.863 36.2711L127.932 36.2734L127.939 36.2812L127.951 36.317L128.019 36.3224L128.032 36.3259L128.044 36.3629L128.076 36.3701L128.09 36.4017L128.128 36.4208L128.135 36.4471L128.172 36.4655L128.188 36.5013L128.216 36.5103L128.229 36.5443L128.269 36.5616L128.271 36.6272L128.275 36.6368L128.313 36.6511L128.318 36.7746L128.331 36.7835L128.353 36.7913L128.365 36.799V37.2005L128.325 37.2149L128.318 37.2429V37.3807L128.308 37.3873L128.28 37.4004L128.272 37.4076L128.268 37.4768L128.259 37.4869L128.234 37.4941L128.22 37.5287L128.179 37.5454L128.174 37.5698L128.137 37.5859L128.124 37.6247L128.094 37.6343L128.079 37.6683L128.038 37.6826L128.037 37.75L128.038 37.7625L128.09 37.7673L128.125 37.7703L128.138 37.8079L128.174 37.8222L128.18 37.8514L128.221 37.8669L128.224 37.895L128.223 37.9839L128.229 37.994L128.269 38.0077L128.273 38.1264L128.28 38.1414L128.309 38.1431L128.319 38.1527V38.871L128.325 38.8835L128.362 38.9002L128.37 38.9265L128.406 38.9444L128.413 38.9676V39.0583L128.407 39.072L128.363 39.0744L128.285 39.075ZM127.631 39.7784L126.844 39.7808L126.829 39.7736L126.817 39.7372L126.697 39.733L126.692 39.7229L126.682 39.6943L126.672 39.6889L126.555 39.6841L126.541 39.643L126.511 39.6358H126.463L126.447 39.5976L126.415 39.5905L126.367 39.5875L126.352 39.5499L126.325 39.5421L126.272 39.5397L126.26 39.5081L126.23 39.4962H126.179L126.168 39.4598L126.129 39.4401L126.121 39.4169L126.11 39.4085L126.044 39.4043L126.037 39.3942L126.032 39.3649L125.991 39.3506L125.976 39.3148L125.913 39.3125L125.902 39.3053L125.882 39.2659L125.857 39.2582L125.838 39.2218L125.804 39.2075L125.796 39.1794L125.757 39.1687L125.744 39.1257L125.712 39.1198L125.697 39.0792L125.663 39.0649L125.656 39.038L125.622 39.0237L125.61 38.9945L125.608 38.9461L125.569 38.9324L125.554 38.8931L125.528 38.8859L125.516 38.8769V38.8095L125.505 38.8012L125.48 38.794L125.462 38.7552L125.429 38.7409L125.426 38.6711L125.417 38.6604L125.38 38.6467L125.378 38.5792L125.367 38.5691L125.334 38.5524L125.329 38.482L125.324 38.4731L125.286 38.4593L125.284 38.3418L125.277 38.3352L125.246 38.3245L125.239 38.3144L125.237 38.1569L125.231 38.1455L125.193 38.1336L125.192 38.0125L125.183 38.0024L125.152 37.9976L125.144 37.9874V37.3037L125.186 37.2936L125.191 37.265V37.1242L125.199 37.1146L125.23 37.1075L125.237 37.0973V36.9416L125.244 36.9267L125.281 36.9184L125.284 36.8456L125.287 36.8342L125.329 36.8247L125.332 36.7042L125.343 36.6934L125.367 36.6857L125.378 36.6738V36.6087L125.387 36.5992L125.415 36.5926L125.431 36.5556L125.47 36.5383V36.4727L125.477 36.462L125.512 36.4435L125.52 36.4172L125.557 36.3981L125.564 36.3761V36.3224L125.602 36.3086L125.622 36.2723L125.651 36.2645L125.666 36.2287L125.701 36.2162L125.703 36.1488L125.712 36.1338L125.748 36.1219L125.756 36.0879L125.763 36.0778H125.832L125.842 36.07L125.851 36.042L125.892 36.0271L125.896 36.0002V35.9477L125.908 35.94H125.973L125.985 35.9304L125.99 35.9036L126.027 35.8875L126.043 35.8505L126.107 35.8487L126.119 35.8379L126.136 35.8021L126.165 35.795L126.178 35.7586L126.204 35.752L126.258 35.7496L126.269 35.7133L126.301 35.7079L126.352 35.7055L126.364 35.6685L126.394 35.659H126.482L126.497 35.6524L126.51 35.613H126.576L126.587 35.6059L126.6 35.5647L126.77 35.5605L126.783 35.5218L126.816 35.517H126.903L126.917 35.5122L126.925 35.4752H127.659L127.675 35.5122L127.701 35.517H127.84L127.847 35.5241L127.857 35.554L127.868 35.5629H128.021L128.034 35.5731L128.046 35.6112L128.12 35.6136L128.13 35.619L128.143 35.6578L128.257 35.6625L128.268 35.6673L128.275 35.6995L128.314 35.7145L128.328 35.7508L128.396 35.7532L128.407 35.7628L128.422 35.7986L128.49 35.8016L128.503 35.8057L128.519 35.8469L128.543 35.8517L128.559 35.8887L128.596 35.9048L128.606 35.9316L128.613 35.9441L128.682 35.9417L128.691 35.9495L128.699 35.9775L128.733 35.9931L128.749 36.0312L128.781 36.0384L128.793 36.0754L128.831 36.0903L128.834 36.1267L128.877 36.1362L128.888 36.172L128.915 36.1804L128.933 36.2186L128.969 36.2323L128.98 36.2615L129.015 36.2752L129.024 36.3075L129.027 36.3552L129.061 36.3701L129.074 36.4065L129.105 36.4136L129.111 36.4238L129.115 36.4894L129.122 36.499L129.153 36.5097L129.166 36.5419L129.205 36.5592L129.207 36.6248L129.215 36.6344L129.252 36.6511L129.256 36.7209L129.262 36.7328L129.298 36.7453L129.301 36.8641L129.311 36.8742L129.339 36.8808L129.347 36.8879L129.349 37.0144L129.389 37.0263L129.398 37.0538V37.1928L129.405 37.1993L129.436 37.2095L129.442 37.222L129.446 37.5161L129.452 37.5263L129.49 37.5406L129.495 37.7482L129.49 37.7607L129.449 37.7756L129.442 38.0364L129.436 38.0459L129.405 38.0507L129.398 38.0602L129.395 38.2666L129.387 38.2732L129.361 38.2833L129.349 38.2947V38.411L129.306 38.4235L129.301 38.4552L129.298 38.5011L129.262 38.5196L129.254 38.5494L129.252 38.5995L129.215 38.6198L129.207 38.6413L129.205 38.695L129.166 38.7087L129.159 38.7332L129.156 38.7863L129.119 38.8012L129.105 38.8471H129.075L129.061 38.8841L129.028 38.9008L129.02 38.9634L129.015 38.976L128.979 38.9909L128.97 39.0195L128.933 39.0344L128.915 39.0726L128.889 39.0798L128.878 39.1192L128.834 39.1329L128.831 39.1615L128.795 39.177L128.781 39.2134L128.749 39.2206L128.737 39.2582L128.699 39.2725L128.692 39.3023L128.655 39.3148L128.637 39.3506L128.609 39.3608L128.594 39.4013L128.568 39.4085H128.52L128.5 39.4449L128.462 39.4622L128.456 39.489L128.45 39.4956L128.382 39.4992L128.375 39.5099L128.365 39.5362L128.356 39.5415L128.287 39.5445L128.275 39.5541L128.268 39.5803L128.257 39.5905L128.194 39.5923L128.182 39.6L128.173 39.6257L128.167 39.6358L128.099 39.6388L128.088 39.6483L128.085 39.677L128.074 39.6871H127.919L127.907 39.6925L127.895 39.7336L127.77 39.7378L127.762 39.7402L127.755 39.7688L127.743 39.7784H127.631ZM127.445 40.3404L127.114 40.3374L127.1 40.301L127.073 40.292L126.706 40.2938L126.692 40.2891L126.674 40.2485H126.61L126.598 40.2431L126.584 40.2026L126.414 40.1978L126.398 40.1572L126.364 40.1447L126.357 40.1155L126.346 40.1059L126.196 40.1035H126.179L126.166 40.063L126.138 40.0558L126.12 40.0218L126.095 40.0134H126.005L125.993 40.0093L125.978 39.9705L125.95 39.9651L125.933 39.9269L125.91 39.9204L125.853 39.9174L125.839 39.8756L125.813 39.8703L125.759 39.8679L125.747 39.8297L125.71 39.8178L125.702 39.7861L125.667 39.7736L125.652 39.7372L125.582 39.7348L125.57 39.7277L125.555 39.6889L125.529 39.6817L125.517 39.6746V39.5994L125.51 39.5916L125.445 39.5869L125.43 39.5845L125.428 39.5362L125.426 39.5099L125.413 39.4968H125.349L125.337 39.4884L125.332 39.421L125.327 39.4103L125.29 39.3936L125.284 39.3644L125.247 39.3482L125.235 39.3142L125.203 39.3059L125.19 39.2707L125.148 39.2552L125.146 39.1866L125.142 39.1764L125.104 39.1609L125.098 39.1323L125.059 39.1186L125.052 39.0863L125.051 39.038L125.014 39.0237L125 38.9831L124.97 38.9784L124.96 38.9706V38.9026L124.951 38.8931L124.925 38.8859L124.907 38.8519L124.873 38.8334L124.865 38.7141L124.856 38.7075L124.826 38.6992L124.813 38.6604L124.776 38.6479L124.772 38.4737L124.732 38.4617L124.726 38.4355L124.723 38.3854L124.687 38.3681L124.678 38.3412V38.1115L124.673 38.1014L124.632 38.0877V37.8264L124.62 37.8162L124.593 37.8138L124.583 37.7995V37.3986L124.625 37.3831L124.629 37.358L124.631 37.1683L124.672 37.1516L124.677 37.1248V36.8981L124.683 36.8802L124.721 36.8671L124.728 36.8396L124.766 36.8259L124.772 36.7967V36.6517L124.779 36.6463L124.807 36.6362L124.818 36.6296L124.821 36.564L124.825 36.5521L124.855 36.5467L124.867 36.5371L124.87 36.416L124.907 36.3999L124.924 36.3683L124.951 36.3582L124.959 36.348V36.283L124.971 36.2734L124.999 36.2657L125.014 36.2269L125.05 36.218L125.052 36.1506L125.057 36.138L125.098 36.1243L125.103 36.0903L125.141 36.0754L125.148 36.0491V35.9937L125.189 35.9781L125.202 35.9477L125.234 35.94L125.246 35.9036L125.283 35.8869L125.29 35.857L125.327 35.8385L125.334 35.8141L125.336 35.761L125.351 35.7544H125.413L125.42 35.7443L125.43 35.718L125.464 35.7049L125.482 35.6667L125.507 35.6578L125.526 35.6208L125.562 35.6035L125.568 35.5772L125.604 35.5581L125.62 35.5241L125.652 35.5164L125.668 35.483L125.695 35.4758L125.747 35.4734L125.759 35.4364L125.798 35.4179L125.805 35.3929L125.813 35.3833L125.877 35.3786L125.894 35.3714L125.896 35.3452L125.933 35.3249L125.95 35.2867H126.014L126.028 35.2801L126.044 35.2431L126.105 35.2414L126.119 35.239L126.136 35.1972L126.204 35.1954L126.214 35.193L126.227 35.1501L126.295 35.1477L126.301 35.1435L126.322 35.1024L126.44 35.1L126.45 35.0928L126.457 35.0636L126.465 35.054H126.583L126.597 35.0129L126.623 35.0087H126.766L126.778 35.0009L126.782 34.9723L126.792 34.9622L127.189 34.961L127.204 34.9168L127.219 34.915H127.229L127.24 34.9198L127.253 34.9562L127.261 34.961L127.835 34.9622L127.848 34.9645L127.864 35.0057H127.934L127.94 35.0129L127.953 35.054H128.162L128.174 35.0618L128.19 35.1L128.252 35.1024L128.267 35.1071L128.281 35.1465L128.402 35.1483L128.408 35.1584L128.417 35.1883L128.427 35.1942L128.495 35.1966L128.503 35.2038L128.509 35.233L128.519 35.2431H128.59L128.596 35.2527L128.607 35.2772L128.611 35.2849L128.683 35.2891L128.692 35.2986L128.699 35.3273L128.737 35.344L128.749 35.381L128.781 35.3857L128.795 35.4221L128.821 35.4293L128.871 35.4311L128.885 35.4699L128.912 35.4794H128.965L128.98 35.5164L129.015 35.5283L129.027 35.5581L129.061 35.5766L129.074 35.613L129.105 35.6208L129.118 35.6572L129.155 35.6733L129.165 35.7031L129.202 35.7204L129.217 35.7544L129.246 35.761L129.261 35.798L129.292 35.8117L129.305 35.8391L129.342 35.86L129.347 35.8845V35.9376L129.387 35.9501L129.403 35.9883L129.433 35.9937L129.449 36.0324L129.487 36.0444L129.492 36.1148L129.497 36.1297L129.53 36.144L129.538 36.1726L129.574 36.1852L129.584 36.2138V36.2693L129.623 36.2818L129.637 36.3152L129.66 36.3248L129.67 36.3319L129.673 36.3999L129.686 36.4095L129.711 36.4166L129.725 36.4512L129.767 36.4685V36.5873L129.775 36.5974L129.802 36.6016L129.813 36.6141L129.815 36.6791L129.82 36.6911L129.852 36.6988L129.861 36.706V36.8611L129.867 36.8748L129.905 36.8873L129.91 36.9601L129.911 36.972L129.952 36.984L129.954 37.296L129.996 37.3061L130 37.3354V37.9522L129.961 37.9642L129.952 37.9916V38.272L129.945 38.2786L129.915 38.2887L129.909 38.3L129.904 38.4164L129.866 38.4289L129.861 38.4605L129.858 38.6019L129.852 38.6127L129.818 38.6198L129.807 38.6532L129.767 38.6681L129.764 38.7863L129.756 38.7988L129.724 38.806L129.715 38.8453L129.672 38.859V38.9241L129.664 38.9366L129.631 38.9503L129.621 38.9748L129.587 38.9921L129.581 39.0219L129.582 39.1084L129.572 39.1233L129.536 39.1371L129.528 39.1657L129.495 39.1812L129.487 39.2092L129.484 39.2599L129.447 39.2755L129.431 39.3136L129.4 39.319L129.393 39.3232V39.4001L129.384 39.4079L129.312 39.4121L129.302 39.4145L129.289 39.4485L129.259 39.4604L129.246 39.4992L129.208 39.5135L129.2 39.5374L129.163 39.5529L129.149 39.5881L129.119 39.5952L129.106 39.634L129.066 39.6483L129.061 39.6793L129.024 39.6943L129.012 39.733L128.98 39.7402L128.968 39.7796L128.927 39.7915L128.925 39.8207L128.911 39.8285L128.841 39.8309L128.832 39.8374L128.829 39.8667L128.793 39.8786L128.778 39.9204L128.657 39.9257L128.65 39.9335L128.643 39.9615L128.606 39.9753L128.59 40.0122L128.521 40.0164L128.51 40.0224L128.493 40.0588L128.469 40.0659L128.453 40.1047L128.425 40.1089L128.337 40.1065L128.325 40.1172L128.312 40.1536L128.242 40.1554L128.232 40.1614L128.219 40.1996L128.044 40.2073L128.032 40.2449L128.001 40.2533H127.95L127.938 40.2914L127.913 40.2986L127.579 40.301L127.565 40.3392L127.534 40.3463L127.445 40.3404Z" fill="white"/>
</g>
</g>
<defs>
<clipPath id="clip0_367_11895">
<rect width="130" height="94" fill="white"/>
</clipPath>
</defs>
</svg>
