<svg width="107" height="31" viewBox="0 0 107 31" fill="none" xmlns="http://www.w3.org/2000/svg">
<g clip-path="url(#clip0_299_2445)">
<path d="M75.774 18.881C74.564 21.569 71.862 23.44 68.723 23.44C64.454 23.44 60.994 19.979 60.994 15.711C60.994 11.443 64.455 7.982 68.723 7.982C71.77 7.982 74.405 9.745 75.665 12.306L83.142 12.305C83.051 11.193 82.806 9.544 82.518 8.565H95.603L82.464 22.718C82.464 22.718 82.814 21.386 82.911 20.788C83.008 20.19 83.128 18.882 83.128 18.882H75.774V18.881ZM93.854 22.716L107 8.566V0.745001H80.927L80.924 5.692C78.352 1.992 73.88 0 68.308 0C61.321 0 55.506 4.533 53.564 10.792V0.745001H45.091L30.337 19.108V0.745001H22.592L0 30.606H11.217L21.977 16.58V30.606H32.404L43.738 16.561V30.606H53.574V19.846C55.542 26.062 61.289 30.614 68.245 30.614C68.383 30.614 68.608 30.617 68.745 30.614L107 30.607V22.715H93.854V22.716Z" fill="#ED1D24"/>
</g>
<defs>
<clipPath id="clip0_299_2445">
<rect width="107" height="31" fill="white"/>
</clipPath>
</defs>
</svg>
