<svg width="150" height="26" viewBox="0 0 150 26" fill="none" xmlns="http://www.w3.org/2000/svg">
<g clip-path="url(#clip0_367_11942)">
<mask id="mask0_367_11942" style="mask-type:luminance" maskUnits="userSpaceOnUse" x="0" y="0" width="150" height="26">
<path d="M150 0H0V25.3125H150V0Z" fill="white"/>
</mask>
<g mask="url(#mask0_367_11942)">
<path d="M18.0321 0.541992L13.2166 16.996L8.56781 0.541992H0V1.44218H3.28719V23.6935H0V24.5936H7.57108V23.6935H4.35025V2.05414H4.41661L11.0249 24.5936H12.1543L18.7958 2.05414H18.8953V23.6935H15.6082V24.5936H26.434V23.6935H23.146V1.44218H26.434V0.541992H18.0321Z" fill="white"/>
<path d="M30.3458 17.7152C30.3458 13.6482 30.1128 10.8397 33.3676 10.8397C36.6216 10.8397 36.3894 13.6482 36.3894 17.7152C36.3894 22.3965 36.323 24.4119 33.3676 24.4119C30.4114 24.4119 30.3458 22.3965 30.3458 17.7152ZM26.3936 17.7152C26.3936 21.7475 29.6144 25.1333 33.3676 25.1333C37.12 25.1333 40.3415 21.7475 40.3415 17.7152C40.3415 13.6844 37.12 10.1191 33.3676 10.1191C29.6144 10.1191 26.3936 13.6836 26.3936 17.7152Z" fill="white"/>
<path d="M40.4755 0.541261V1.44145H42.8655V23.6926H40.376V24.5929H48.8767V23.6926H46.4527V0.000976562C44.4932 0.397894 42.5006 0.613708 40.4755 0.541261Z" fill="white"/>
<path d="M50.8971 6.59023V10.7668H48.7725V11.8465H50.8971V22.0369C50.8971 24.0161 51.3955 25.1336 54.4173 25.1336C56.3436 25.1336 57.7716 24.1972 58.469 22.1818L57.8047 21.8219C57.4722 22.8291 56.8412 23.7294 55.7789 23.7294C54.5168 23.7294 54.4844 22.9016 54.4844 21.7487V11.8473H57.6389V10.7675H54.4844V6.37598C53.2886 6.44689 52.0929 6.59023 50.8971 6.59023Z" fill="white"/>
<path d="M65.1027 10.8397C68.0582 10.8397 67.4943 13.3244 67.4943 15.736H62.6456C62.6456 13.4678 62.3463 10.8397 65.1027 10.8397ZM58.6934 17.6813C58.6934 21.3529 61.3172 25.1341 64.9361 25.1341C68.1577 25.1341 70.449 23.5849 71.3122 20.0928H70.4821C69.8187 22.5421 67.9918 24.4126 65.6011 24.4126C62.7783 24.4126 62.6456 22.0373 62.6456 19.5171V16.6362H70.4165C70.9473 16.6362 71.2467 16.7449 71.2467 15.9873C71.2467 12.4227 68.3907 10.1191 65.3018 10.1191C61.6821 10.1198 58.6934 13.7206 58.6934 17.6813Z" fill="white"/>
<path d="M77.818 13.576H77.7517V10.191C75.6926 10.2642 73.666 10.4068 71.9727 10.3351V11.2361H74.2307V23.6939H71.9727V24.5941H79.8431V23.6939H77.7517V18.9417C77.7517 17.25 77.7517 15.5937 78.1837 14.4045C78.682 13.0719 79.9773 11.4172 81.4046 11.4172C83.6286 11.4172 83.2969 13.8642 83.2969 17.2137V23.6939H81.2047V24.5941H88.9092V23.6939H86.8163V17.0326C86.8163 13.4681 87.1827 10.1201 82.7653 10.1201C80.3746 10.1193 78.8803 11.3432 77.818 13.576Z" fill="white"/>
<path d="M89.9023 10.3344V11.2354H92.3271V23.6932H89.9023V24.5934H98.3715V23.6932H95.9136V10.1911C93.8869 10.2635 91.8626 10.4069 89.9023 10.3344ZM92.0617 3.56601C92.0617 4.61032 92.8262 5.72632 93.8553 5.72632C94.9848 5.72632 95.8149 4.79067 95.8149 3.56601C95.8149 2.48624 94.8181 1.62305 93.8553 1.62305C92.9589 1.62228 92.0617 2.59415 92.0617 3.56601Z" fill="white"/>
<path d="M108.495 21.3161C107.631 19.9836 106.635 17.824 106.635 16.1678C106.635 13.3948 108.231 12.5686 110.322 11.5589L116.764 21.6414C115.403 22.8291 113.841 23.7639 112.082 23.7639C110.387 23.7632 109.425 22.7204 108.495 21.3161ZM111.982 6.5539C111.384 5.65447 110.985 4.61094 110.985 3.71152C110.985 1.98281 112.148 1.01095 113.675 1.01095C115.833 1.01095 116.53 2.56006 116.53 4.71882C116.53 6.95003 115.7 8.49918 113.642 9.11189L111.982 6.5539ZM107.997 5.54657C107.997 7.27528 109.026 9.36314 109.856 10.8391C106.635 12.315 102.783 14.1501 102.783 18.6873C102.783 23.0796 106.17 25.3123 109.889 25.3123C112.579 25.3123 115.236 24.2688 117.295 22.4692L118.656 24.5933H126.36V23.6931H123.073L120.218 19.1574C122.044 17.1057 123.205 13.3948 123.205 10.6233H126.36V9.72305H118.956V10.6233H122.21C122.243 13.3585 121.28 16.2402 119.653 18.2919L114.173 9.90343C116.299 9.03945 119.587 7.38243 119.587 4.46605C119.587 1.18975 116.299 0.181641 113.841 0.181641C110.819 0.181641 107.997 1.94658 107.997 5.54657Z" fill="white"/>
<path d="M136.644 1.18999C132.512 3.60231 129.967 8.03083 129.967 12.7114C129.967 18.6875 134.874 25.1337 141.368 25.1337C143.545 25.1337 146.016 24.4848 147.676 23.0805L149.19 24.81H150V17.4281H148.968C147.898 21.3164 145.794 24.4485 141.256 24.2335C138.451 24.0886 136.717 22.5418 136.016 20.2366C135.315 17.8959 135.389 15.0867 135.389 13.0351C135.389 10.1187 135.021 5.9422 136.754 3.34953C138.046 1.40656 139.263 0.900968 141.625 0.900968C145.241 0.900968 148.045 3.38574 148.598 7.30944H149.667V0.360683H148.856L147.38 1.87282C145.757 0.576487 143.728 0 141.662 0C139.965 0.00154142 138.121 0.362239 136.644 1.18999Z" fill="white"/>
</g>
</g>
<defs>
<clipPath id="clip0_367_11942">
<rect width="150" height="26" fill="white"/>
</clipPath>
</defs>
</svg>
