<svg width="115" height="32" viewBox="0 0 115 32" fill="none" xmlns="http://www.w3.org/2000/svg">
<g clip-path="url(#clip0_367_11956)">
<mask id="mask0_367_11956" style="mask-type:luminance" maskUnits="userSpaceOnUse" x="0" y="0" width="115" height="32">
<path d="M115 0H0V32H115V0Z" fill="white"/>
</mask>
<g mask="url(#mask0_367_11956)">
<path d="M57.018 12.9564L60.6581 12.9516V0.00507871H57.009V3.82373C57.009 3.82373 54.4866 0.000976562 47.443 0.000976562C40.0034 0.000976562 31.7734 5.8946 31.7734 16.4055C31.7734 26.9181 41.6654 31.9351 47.3638 31.9351C53.0616 31.9351 57.0181 28.3507 57.0181 28.3507L59.3423 31.9998H62.9526V19.9191H65.1468L65.1487 16.4055L47.4567 16.4044V19.919H49.736L49.737 25.6803C49.737 25.6803 49.8352 27.9466 47.3635 27.954C44.9041 27.9602 44.9887 25.6803 44.9887 25.6803V6.32556C44.9887 6.32556 44.9393 5.8233 45.2345 5.18776C45.5423 4.52763 46.3955 3.88356 47.4428 3.82373C49.6565 3.69849 55.6725 4.35518 57.018 12.9564Z" fill="#E40613"/>
<path d="M90.0118 12.9564L93.6521 12.9516V0.00507871H90.0033V3.82373C90.0033 3.82373 87.4788 0.000976562 80.4368 0.000976562C72.9974 0.000976562 64.7666 5.8946 64.7666 16.4055C64.7666 26.9181 74.6595 31.9351 80.3568 31.9351C86.0555 31.9351 90.0118 28.3507 90.0118 28.3507L92.3361 31.9998H95.9462V19.9191H98.2255V16.4055L80.4503 16.4044V19.919H82.7304L82.731 25.6803C82.731 25.6803 82.8293 27.9466 80.357 27.954C77.8981 27.9602 77.9843 25.6803 77.9843 25.6803V6.32556C77.9843 6.32556 77.9328 5.8233 78.2293 5.18776C78.5361 4.52763 79.3895 3.88356 80.437 3.82373C82.6505 3.69849 88.6666 4.35518 90.0118 12.9564Z" fill="#E40613"/>
<path d="M97.1836 0.00488281V3.51289H100.163V28.3034H97.1836V31.9994H115V28.3034H112.026V3.51502H115V0.00488281H97.1836Z" fill="#E40613"/>
<path d="M13.4813 6.39693V25.6107C13.4813 25.6107 13.568 27.8578 15.8476 27.8578C18.126 27.8578 18.2137 25.5662 18.2137 25.5662V6.44118C18.2137 6.44118 18.2137 3.84017 15.8907 3.84017C13.5681 3.84017 13.4813 6.39693 13.4813 6.39693ZM0.006825 16.4708C-0.0930415 13.7764 0.900087 9.21727 3.18219 6.38906C5.46609 3.55986 9.0722 0.0329961 15.9208 0.000210938C22.7694 -0.0338856 26.9379 4.07377 28.6255 6.38906C30.0816 8.38485 31.8006 11.0913 31.7701 16.4597C31.74 21.8281 28.6035 25.6189 28.5744 25.6189C28.5439 25.6189 24.4432 31.9572 15.9099 31.9271C7.37724 31.8971 3.27652 25.6189 3.27652 25.6189C1.15977 22.8906 0.105714 19.1659 0.006825 16.4708Z" fill="#E40613"/>
</g>
</g>
<defs>
<clipPath id="clip0_367_11956">
<rect width="115" height="32" fill="white"/>
</clipPath>
</defs>
</svg>
