<svg width="99" height="70" viewBox="0 0 99 70" fill="none" xmlns="http://www.w3.org/2000/svg">
<g clip-path="url(#clip0_367_11965)">
<mask id="mask0_367_11965" style="mask-type:luminance" maskUnits="userSpaceOnUse" x="0" y="0" width="99" height="70">
<path d="M98.9333 0H0V70H98.9333V0Z" fill="white"/>
</mask>
<g mask="url(#mask0_367_11965)">
<path fill-rule="evenodd" clip-rule="evenodd" d="M62.3914 61.0645C61.7201 61.0645 61.1446 61.3527 60.7609 61.9292C60.3773 62.5057 60.1855 63.2743 60.1855 64.2832C60.1855 65.244 60.3773 66.0126 60.8089 66.5891C61.2405 67.1656 61.768 67.5019 62.3914 67.5019C63.0628 67.5019 63.5903 67.2136 63.974 66.6371C64.3576 66.0607 64.5974 65.292 64.5974 64.3312C64.5974 63.3224 64.4056 62.5537 64.0219 61.9772C63.6383 61.3527 63.0628 61.0645 62.3914 61.0645Z" fill="white"/>
<path fill-rule="evenodd" clip-rule="evenodd" d="M23.307 61.1123C23.0672 61.1123 22.8754 61.1123 22.7795 61.1123C22.6836 61.1123 22.4917 61.1604 22.252 61.1604V66.4929V66.9733C22.252 67.0694 22.2999 67.2135 22.3958 67.3096C22.4438 67.4056 22.6836 67.4537 22.9713 67.4537C23.6907 67.4537 24.2182 67.3096 24.6498 67.0694C25.0334 66.8292 25.3691 66.4448 25.6089 65.9164C25.8487 65.388 25.9446 64.8115 25.9446 64.1389C25.9446 63.13 25.7048 62.4094 25.2732 61.881C24.7936 61.3526 24.1223 61.1123 23.307 61.1123Z" fill="white"/>
<path fill-rule="evenodd" clip-rule="evenodd" d="M35.583 64.2834H37.5492L36.4941 61.7373L35.583 64.2834Z" fill="white"/>
<path fill-rule="evenodd" clip-rule="evenodd" d="M54.7663 62.4094C54.7663 61.9771 54.6703 61.6888 54.4305 61.4486C54.1908 61.2084 53.9031 61.1123 53.5195 61.1123L52.7042 61.1604H52.6562V64.0428H52.992C53.5195 64.0428 53.9511 63.8987 54.2868 63.6105C54.6225 63.3222 54.7663 62.8899 54.7663 62.4094Z" fill="white"/>
<path fill-rule="evenodd" clip-rule="evenodd" d="M0 58.0859V69.9999H84.9781V58.0859H0ZM9.97481 67.7901C10.0228 67.694 10.0228 67.5979 10.0228 67.4538C10.0228 67.3577 10.0228 67.2617 10.0228 67.1656V66.9254V66.493L9.97481 66.3969V66.3489L9.63919 61.9292L7.43319 67.7901H7.0975L4.79561 61.9292L4.60378 66.3969V66.445V66.493V66.7332C4.60378 67.0215 4.60378 67.2136 4.60378 67.3577C4.60378 67.4538 4.65173 67.5979 4.74765 67.7901H4.0283C4.07627 67.5499 4.07627 67.4058 4.12422 67.3097C4.12422 67.2617 4.12422 67.1175 4.12422 66.9254L4.17218 66.493V66.3969V66.3489L4.31604 62.3615V62.1213C4.31604 61.8331 4.31604 61.5449 4.26809 61.2566C4.22013 61.0644 4.17218 60.8723 4.12422 60.7762H5.27516L7.5291 66.3969L9.63919 60.7762H10.7422L10.6942 60.9203L10.6463 61.2566V61.6409V62.1694C10.6463 62.2654 10.6463 62.3615 10.6463 62.4096L10.886 66.445V66.493L10.934 67.0215C10.934 67.2136 10.934 67.3097 10.982 67.4058C10.982 67.5019 11.0299 67.646 11.1258 67.8862H9.97481V67.7901ZM18.1754 67.7901H14.147C14.195 67.5979 14.195 67.4538 14.2429 67.4058C14.2429 67.3577 14.2429 67.2136 14.2429 67.0215L14.2909 66.6371V66.5891V61.6409V61.2566L14.2429 60.9684L14.195 60.7282H17.9356L18.0314 61.3527C17.7917 61.2566 17.5999 61.2086 17.3601 61.1605C17.1203 61.1125 16.8805 61.1125 16.5448 61.1125H15.202V63.8508H16.2091C16.4489 63.8508 16.6408 63.8508 16.8326 63.8028C17.0244 63.7547 17.2163 63.7067 17.4081 63.6586V64.4753C17.2163 64.3792 17.0244 64.3312 16.8326 64.3312C16.6408 64.2831 16.401 64.2832 16.1612 64.2832H15.1541V67.3577H16.8805H17.5039C17.6958 67.3577 17.8396 67.3097 17.9836 67.2617C18.1274 67.2136 18.3192 67.1656 18.5111 67.0695L18.1754 67.7901ZM25.6085 67.2136C24.6974 67.5979 23.8821 67.8381 23.1148 67.8381H23.0189H22.2996H21.1966C21.2445 67.646 21.2925 67.5019 21.2925 67.3577C21.2925 67.2136 21.3405 67.0215 21.3405 66.7813V66.541V66.493V66.3969V62.2174V62.1694V62.0733V61.6409C21.3405 61.4488 21.3405 61.3046 21.3405 61.2086C21.3405 61.1125 21.2925 60.9684 21.2445 60.7282H22.0118L22.7791 60.6801L23.8342 60.6321C24.7933 60.6321 25.5605 60.9203 26.0881 61.5449C26.6636 62.1694 26.9513 62.9861 26.9513 64.043C26.9513 65.7244 26.4718 66.7813 25.6085 67.2136ZM31.0275 67.3577C31.0275 67.4058 31.0755 67.5499 31.1715 67.7901H30.0205C30.0685 67.5979 30.1164 67.4538 30.1164 67.3577C30.1164 67.2617 30.1644 67.1175 30.1644 66.9254V66.493V66.3969V62.1694V62.1213V62.0253V61.5929C30.1644 61.4007 30.1644 61.2566 30.1164 61.1125C30.0685 60.9203 30.0205 60.7762 30.0205 60.6801H31.1715C31.1235 60.8723 31.0755 61.0164 31.0755 61.1125C31.0755 61.2566 31.0275 61.4007 31.0275 61.5449V61.9772V62.1213V66.2528V66.3969V66.8293C30.9796 67.1656 31.0275 67.3097 31.0275 67.3577ZM38.9403 67.7901C38.9403 67.694 38.8924 67.5979 38.8924 67.5019C38.8924 67.4538 38.8444 67.3577 38.8444 67.3097C38.8444 67.2617 38.7964 67.1656 38.7485 67.0695C38.7006 66.9734 38.6526 66.7813 38.5087 66.445L38.4607 66.3969L38.4128 66.3008L37.6934 64.5714H35.4395L34.8161 66.3008L34.7682 66.3969C34.5764 66.8773 34.4804 67.2617 34.4804 67.4538V67.7421H33.5692C33.6651 67.5979 33.7611 67.4538 33.809 67.3097C33.8569 67.1656 33.9529 67.0215 34.0488 66.8293L34.2886 66.2528L34.7202 65.0998L35.8232 62.1694C35.967 61.785 36.063 61.5449 36.063 61.4488C36.111 61.3527 36.111 61.2566 36.111 61.1605C36.111 61.0164 36.063 60.8723 36.015 60.6801H37.0221L38.2209 63.5145L38.4128 63.9949L38.5087 64.2832C38.8444 65.1479 39.0842 65.7244 39.2281 66.0606C39.3719 66.3969 39.4679 66.6371 39.5637 66.8293C39.6597 67.0215 39.7555 67.2136 39.8994 67.4058C39.9474 67.5019 39.9954 67.5499 40.0433 67.5979C40.0912 67.646 40.1392 67.694 40.1392 67.7421H38.9403V67.7901ZM48.3397 67.4538C48.3397 67.5019 48.3876 67.5499 48.4356 67.694H48.2438H47.9561C47.9081 67.694 47.8601 67.694 47.8121 67.694C47.7643 67.694 47.6683 67.694 47.5245 67.7421L46.8051 67.8862C46.4695 67.9342 46.1337 67.9823 45.798 67.9823C44.9349 67.9823 44.1196 67.694 43.4482 67.1175C42.7768 66.541 42.4411 65.6763 42.4411 64.4753C42.4411 63.3704 42.7768 62.4576 43.4002 61.737C44.0716 61.0164 44.8869 60.6801 45.9419 60.6801C46.0378 60.6801 46.1337 60.6801 46.1817 60.6801C46.2297 60.6801 46.3735 60.6801 46.5173 60.7282L47.0928 60.7762L47.5245 60.8242H47.8601H48.0519L48.1479 61.7851C48.0519 61.689 47.9561 61.6409 47.9081 61.5929C47.8601 61.5448 47.7643 61.4968 47.5724 61.4007C47.4286 61.3046 47.1888 61.2566 46.901 61.1605C46.6133 61.0644 46.3255 61.0644 46.0378 61.0644C45.6062 61.0644 45.2225 61.1605 44.791 61.3046C44.4073 61.4488 44.0716 61.785 43.8319 62.3135C43.5441 62.8419 43.4482 63.4665 43.4482 64.2351C43.4482 65.1959 43.6401 66.0126 44.0716 66.5891C44.5032 67.2136 45.1267 67.5019 45.9419 67.5019C46.1817 67.5019 46.4695 67.5019 46.6613 67.4538C46.901 67.4058 47.1408 67.3577 47.3806 67.2617V65.1959C47.3806 64.8116 47.3326 64.5234 47.2846 64.3312H48.3876L48.3397 64.5234C48.3397 64.6194 48.3397 64.6675 48.2918 64.7636C48.2918 64.8596 48.2918 64.9557 48.2918 65.0998V66.9254V67.2617C48.3397 67.3577 48.3397 67.4058 48.3397 67.4538ZM56.4922 67.7901C56.2525 67.7901 56.0607 67.7901 55.9647 67.7901C55.8688 67.7901 55.7729 67.742 55.677 67.694C55.581 67.646 55.4852 67.5499 55.3413 67.4538C55.1974 67.3577 55.1015 67.2136 55.0056 67.0695L53.5189 65.1959L53.2792 64.8596C53.1833 64.7636 53.1353 64.6675 53.0394 64.6194C52.9435 64.5714 52.8476 64.5234 52.7038 64.4753V66.445V66.5891V67.0215C52.7038 67.2617 52.7038 67.4538 52.7038 67.5019C52.7038 67.5499 52.7516 67.694 52.7996 67.8862H51.6487L51.7446 67.4538C51.7446 67.4058 51.7446 67.2617 51.7925 67.1175C51.7925 66.9254 51.7925 66.7813 51.7925 66.6371V66.445V62.2655V62.1213V61.8811C51.7925 61.737 51.7925 61.5929 51.7925 61.4968C51.7925 61.4007 51.7925 61.3527 51.7446 61.2566L51.6487 60.8242H52.5598L53.2312 60.7762C53.3751 60.7762 53.5189 60.7282 53.6628 60.7282C53.8067 60.7282 53.9026 60.7282 53.9986 60.7282C54.574 60.7282 55.0056 60.8723 55.3413 61.1605C55.677 61.4488 55.8208 61.8331 55.8208 62.3135C55.8208 62.7939 55.677 63.2263 55.3413 63.6106C55.0056 63.9469 54.526 64.2351 53.9506 64.3792L55.629 66.493L56.1086 67.0215C56.3483 67.2617 56.5402 67.4538 56.684 67.5499C56.828 67.646 56.9718 67.7421 57.0677 67.7901C57.1636 67.8381 57.2595 67.8862 57.3075 67.9342H56.4922V67.7901ZM64.7407 66.8773C64.1172 67.5499 63.302 67.8862 62.3428 67.8862C61.3838 67.8862 60.6165 67.5499 60.041 66.8773C59.4176 66.2048 59.1298 65.34 59.1298 64.3312C59.1298 63.2743 59.4176 62.4096 60.041 61.689C60.6644 61.0164 61.4317 60.6801 62.4388 60.6801C63.3499 60.6801 64.1172 61.0164 64.7407 61.689C65.3641 62.3615 65.6518 63.2263 65.6518 64.2351C65.6998 65.34 65.3641 66.2048 64.7407 66.8773ZM73.133 67.7901V66.9254C72.5095 67.5979 71.7423 67.9342 70.7832 67.9342C70.0639 67.9342 69.5842 67.7901 69.3444 67.5019C69.1047 67.2136 68.9608 67.0215 68.9129 66.8293C68.8649 66.6852 68.8649 66.3969 68.8649 66.0126V62.1694V62.0253V61.5929C68.8649 61.4007 68.8649 61.2566 68.8649 61.1605C68.8649 61.0644 68.8169 60.8723 68.7689 60.6801H69.8719L69.824 61.1605L69.7761 61.737V62.0253V62.1694V65.8204C69.7761 66.8293 70.3036 67.3097 71.3107 67.3097C71.9341 67.3097 72.3657 67.1656 72.6055 66.9254C72.8453 66.6371 72.9891 66.445 73.085 66.2528C73.133 66.0606 73.1809 65.8205 73.1809 65.4842V62.2174V62.1694V62.1213V61.737C73.1809 61.5449 73.1809 61.4007 73.1809 61.2566C73.1809 61.1125 73.133 60.9684 73.085 60.7762H74.1881L74.1401 61.2566C74.1401 61.4488 74.0921 61.737 74.0921 62.1213V62.2655V66.3969V66.541V66.6371C74.0921 66.7813 74.0921 66.9254 74.0921 67.0695C74.0921 67.2136 74.0921 67.3097 74.1401 67.4058C74.1401 67.4538 74.1401 67.5499 74.1881 67.5979C74.1881 67.694 74.2359 67.742 74.2359 67.8381H73.133V67.7901ZM80.9978 64.091C80.5662 64.4753 80.0387 64.7155 79.3673 64.7155C79.2234 64.7155 79.0796 64.7155 78.9836 64.6675C78.8877 64.6675 78.7439 64.6194 78.5999 64.5234H78.7438C79.3193 64.5234 79.7989 64.3312 80.1346 63.9949C80.5182 63.6106 80.6621 63.1302 80.6621 62.5537C80.6621 62.2654 80.6142 62.0253 80.5182 61.7851C80.4223 61.5449 80.2305 61.3527 79.9907 61.2566C79.7509 61.1605 79.3673 61.1125 78.8398 61.1125H78.4081V66.3969V66.541V66.9734C78.4081 67.2617 78.4561 67.5499 78.5041 67.8381H77.4011C77.449 67.646 77.449 67.5019 77.449 67.4058L77.497 66.9734V66.5891V66.3969V62.2174V62.0733V61.7851V61.6409C77.497 61.4968 77.497 61.3527 77.449 61.2086C77.449 61.0644 77.4011 60.9203 77.3531 60.7282H78.1204H78.9356H79.4632C80.9019 60.7282 81.6212 61.3527 81.6212 62.5537C81.6692 63.1782 81.4294 63.6586 80.9978 64.091Z" fill="white"/>
<path fill-rule="evenodd" clip-rule="evenodd" d="M28.2466 36.083C28.3425 50.9756 44.0241 57.8454 59.3701 52.7531C59.3701 50.5432 59.3701 48.3334 59.3701 46.1235C59.1303 46.3637 55.2459 48.9098 52.5123 49.2942C45.8464 50.303 40.4754 47.0362 37.9816 44.0097C31.028 35.4585 37.1664 21.3346 49.0595 21.2866C52.7042 21.2866 55.1499 22.5357 58.5548 24.2171C58.5548 21.9111 58.5548 19.6532 58.5548 17.3473C42.7773 13.0236 28.1507 21.6709 28.2466 36.083Z" fill="white"/>
<path fill-rule="evenodd" clip-rule="evenodd" d="M59.8969 27.628C59.9928 30.2222 61.5274 33.2488 63.8773 35.0263C67.2342 37.6205 77.4968 38.8695 77.8804 43.7697C78.5039 51.7443 64.5966 48.7178 61.2397 46.1717C61.2397 48.4776 61.2397 50.7355 61.2397 53.0414C72.0298 56.5965 85.2657 52.8013 84.978 42.4725C84.8341 36.3714 79.6068 34.4978 74.9551 32.4321C72.1257 31.183 67.2822 29.6938 67.0424 26.6192C66.7067 22.3436 71.7421 21.1906 75.7704 21.8632C77.4968 22.1514 78.8875 22.9681 79.9426 23.5446C80.6619 23.977 81.5731 24.7937 81.5731 24.7937C81.5731 22.5838 81.5731 20.1337 81.5731 17.9239C70.9748 14.465 59.5612 18.4043 59.8969 27.628Z" fill="white"/>
<path fill-rule="evenodd" clip-rule="evenodd" d="M2.63758 35.5546C2.63758 41.0792 2.63758 48.3814 2.63758 50.1108C2.63758 51.7923 0 53.5697 0 53.5697H12.4206C12.4206 53.5697 9.78301 51.552 9.78301 50.1108C9.78301 48.6696 9.78301 40.9351 9.78301 36.083C9.78301 30.9907 9.78301 25.9945 9.78301 21.815C14.3868 21.6228 17.7437 22.3434 18.7509 25.2739C20.669 30.7985 15.1062 33.633 10.3105 34.5458C12.5166 37.332 14.6266 41.2233 17.1683 44.8744C19.3742 47.997 22.1078 52.1285 26.0881 53.3775C27.3349 53.7619 32.1785 53.6178 35.5834 53.6178C28.1022 49.6304 22.4434 41.7038 17.9836 35.5546C19.9497 35.0741 21.0048 34.7859 22.2036 34.0653C26.5676 31.327 27.5748 24.3131 24.0739 20.5659C22.1557 18.5482 18.8947 17.3953 15.4898 17.2512C15.4898 17.2512 5.03539 17.2031 0.287736 17.2031C3.83649 20.0375 2.63758 27.5798 2.63758 35.5546Z" fill="white"/>
<path d="M18.7511 8.26805C15.1065 9.56517 11.9414 13.0721 11.9414 13.0721L16.3533 12.976C20.7173 12.8318 27.8628 14.6094 29.3494 21.287C29.3494 21.287 34.6245 10.574 52.2245 10.574C69.8244 10.574 83.6356 10.574 83.6356 10.574C83.6356 10.574 91.2607 10.622 98.9336 0.00508867H61.8156C61.8156 0.00508867 44.3117 -0.715518 32.7063 14.9937C32.8022 14.9937 29.5892 4.37677 18.7511 8.26805Z" fill="white"/>
</g>
</g>
<defs>
<clipPath id="clip0_367_11965">
<rect width="99" height="70" fill="white"/>
</clipPath>
</defs>
</svg>
