<svg width="102" height="56" viewBox="0 0 102 56" fill="none" xmlns="http://www.w3.org/2000/svg">
<g clip-path="url(#clip0_367_11988)">
<mask id="mask0_367_11988" style="mask-type:luminance" maskUnits="userSpaceOnUse" x="0" y="0" width="102" height="56">
<path d="M102 0H0V56H102V0Z" fill="white"/>
</mask>
<g mask="url(#mask0_367_11988)">
<path d="M88.7565 14.8613V11.9472H88.7527V10.5762H74.7809V10.5848H74.7598V47.3382H88.7565V43.0617H79.9067V30.6417H88.2406V26.364H79.9067V14.8613H88.7565Z" fill="white"/>
<path d="M63.9351 10.584H58.7881V47.3374H72.5797V43.0609H63.9351V10.584Z" fill="white"/>
<path d="M46.9164 26.057H46.8132L42.3374 10.584H37.1904L44.2913 32.2701V47.3374H49.4383V32.2701L56.5888 10.584H52.0596L46.9164 26.057Z" fill="white"/>
<path d="M17.9023 14.8605H24.0772V47.3374H29.2229V14.8605H35.3978V10.584H17.9023V14.8605Z" fill="white"/>
<path d="M5.75189 18.2708C5.75189 15.4206 6.73009 14.2488 8.83935 14.2488C10.8467 14.2488 11.7217 15.471 11.7217 17.5564V20.4582H16.5592V16.9969C16.5592 14.4025 15.9415 13.1287 15.0664 12.3134C13.831 11.1945 11.8249 10.2773 9.04569 10.2773C3.43758 10.2773 0.607422 12.8729 0.607422 18.8806C0.607422 23.8691 3.33441 26.8213 6.62818 30.0797C11.9802 35.3251 12.1344 36.3407 12.1344 39.4454C12.1344 41.8394 11.4657 43.6727 8.73743 43.6727C6.67913 43.6727 5.75314 42.1468 5.75314 39.7024V36.6985H0.607422V41.0771C0.607422 45.6609 3.84898 47.643 8.58331 47.643C14.7072 47.643 16.9706 44.3367 16.9706 38.5834C16.9706 34.1545 16.0446 32.3729 11.002 27.1816C6.26647 22.294 5.75189 20.7644 5.75189 18.2708Z" fill="white"/>
<path d="M88.5415 5.25293H0V5.87879H88.5577C88.549 5.69066 88.5365 5.49763 88.5365 5.30336C88.5365 5.2886 88.5415 5.2726 88.5415 5.25293Z" fill="white"/>
<path d="M96.3729 11.1314C93.273 11.1314 90.7461 8.63657 90.7461 5.56508C90.7461 2.49482 93.273 0 96.3729 0C99.4765 0 102 2.49482 102 5.56508C102 8.63657 99.4765 11.1314 96.3729 11.1314ZM96.3729 0.601282C93.6073 0.601282 91.3539 2.82803 91.3539 5.56508C91.3539 8.30089 93.6073 10.5301 96.3729 10.5301C99.1421 10.5301 101.391 8.30089 101.391 5.56508C101.391 2.82803 99.1409 0.601282 96.3729 0.601282Z" fill="white"/>
<path d="M97.0293 4.91437H98.6091L99.238 2.23266C99.238 2.23266 98.2747 2.23266 98.0609 2.23266C97.8472 2.23266 97.7291 2.5966 97.7291 2.5966C97.5041 2.44659 97.2568 2.30767 96.9771 2.24496C95.8026 1.97446 94.6342 2.68637 94.3433 3.80651H94.3409L93.6883 6.63333C93.5081 7.73258 94.1768 8.68672 95.3178 8.94739C96.46 9.21052 97.6533 8.68059 97.9827 7.61454C97.9827 7.61454 98.0299 7.42639 98.0336 7.40426L98.3419 6.09967C98.3419 6.09967 97.1611 6.09967 97.094 6.09967C96.8864 6.09967 96.7211 6.29396 96.6763 6.4575L96.6303 6.66159L96.4973 7.21739C96.4128 7.55921 96.0636 7.77436 95.7131 7.69075C95.3675 7.61452 95.15 7.269 95.2233 6.92594C95.2233 6.92594 95.892 4.06596 95.8933 4.06228C95.9716 3.7143 96.3246 3.49541 96.6763 3.57657C97.0268 3.65772 97.2468 4.00818 97.1636 4.35492L97.0293 4.91437Z" fill="white"/>
<path d="M88.8643 55.9273V55.2733H87.3715V54.0326H88.7027V53.3809H87.3715V52.3321H88.8158V51.6804H86.4754V55.9273H88.8643ZM82.8783 55.9273V52.8238H82.887L84.0603 55.9273H85.2411V51.6804H84.4034V54.6216H84.3947L83.2499 51.6804H82.0406V55.9273H82.8783ZM80.8014 51.6791H79.9052V55.9262H80.8014V51.6791ZM76.2957 52.3321H78.0135L76.2125 55.1515V55.9273H78.9258V55.2733H77.0763L78.8835 52.4501V51.6804H76.297V52.3321H76.2957ZM74.1852 54.335H73.3301L73.739 52.5005H73.7539L74.1852 54.335ZM72.91 55.9273L73.1499 54.9842H74.3754L74.6115 55.9273H75.5587L74.394 51.6804H73.2071L72.0213 55.9273H72.91ZM71.0928 52.9887C71.1475 52.0997 70.6006 51.6104 69.7219 51.6104C68.2502 51.6104 68.198 52.6972 68.198 53.7706C68.198 55.3789 68.3708 56 69.8797 56C70.2377 56 70.8517 55.9065 71.0928 55.8573V53.7043H69.7094V54.3559H70.1992V55.2979C70.0637 55.3434 69.9008 55.379 69.7542 55.379C69.2384 55.379 69.1079 55.1466 69.1079 53.8162C69.1079 52.9936 69.1079 52.2435 69.6684 52.2435C70.1432 52.2435 70.2116 52.5916 70.2041 52.9887H71.0928ZM65.9682 54.335H65.1118L65.5245 52.5005H65.5369L65.9682 54.335ZM64.6917 55.9273L64.9328 54.9842H66.1596L66.3945 55.9273H67.3404L66.177 51.6804H64.9937L63.803 55.9273H64.6917ZM59.5596 55.9273V52.653H59.5695L60.3563 55.9273H61.2139L62.0405 52.653H62.0529V55.9273H62.9255V51.6804H61.5284L60.815 54.5686H60.8013L60.1339 51.6804H58.6895V55.9273H59.5596Z" fill="white"/>
<path d="M25.3931 55.9194H0.574219V51.6885H29.1467" fill="white"/>
<path d="M29.1472 51.6885H56.5502V55.9194H25.3936" fill="#E32119"/>
</g>
</g>
<defs>
<clipPath id="clip0_367_11988">
<rect width="102" height="56" fill="white"/>
</clipPath>
</defs>
</svg>
