<svg width="90" height="41" viewBox="0 0 90 41" fill="none" xmlns="http://www.w3.org/2000/svg">
<g clip-path="url(#clip0_367_11979)">
<mask id="mask0_367_11979" style="mask-type:luminance" maskUnits="userSpaceOnUse" x="0" y="0" width="90" height="41">
<path d="M90 0H0V40.788H90V0Z" fill="white"/>
</mask>
<g mask="url(#mask0_367_11979)">
<path d="M0 0.514648H5.66834L8.29629 9.17229C8.38146 9.43021 8.46784 9.71369 8.55544 10.0227C8.64304 10.3317 8.74645 10.6663 8.86568 11.0265C9.70698 13.6075 10.3776 16.2412 10.8731 18.9103C11.1822 16.7812 11.4401 15.2957 11.6469 14.4537L12.4718 10.8987L12.7821 9.50808L14.9939 0.514648H20.5856L13.6507 23.188V40.2953H8.29629V23.188L0 0.514648Z" fill="white"/>
<path d="M43.1057 21.3849C43.1057 28.4098 42.3246 33.3981 40.7624 36.3497C39.2003 39.3012 36.5796 40.7758 32.9005 40.7734C29.0364 40.7734 26.3148 39.1917 24.7356 36.0285C23.171 32.9139 22.3887 27.3879 22.3887 19.4505C22.3887 12.3745 23.1612 7.36678 24.7064 4.42737C26.2515 1.48796 28.8977 0.0121664 32.645 0C35.9761 0 38.4496 1.14243 40.0653 3.42729C41.1311 4.95539 41.9036 7.12832 42.383 9.94606C42.8648 12.557 43.1057 16.3699 43.1057 21.3849ZM37.4884 21.9507C37.4884 15.062 37.1794 10.4936 36.5614 8.24519C35.9433 5.99684 34.6804 4.86293 32.7727 4.84346C30.865 4.84346 29.5936 5.88247 28.9585 7.9605C28.3235 10.0385 28.0144 14.2469 28.0315 20.5856C28.0315 26.4085 28.3575 30.4453 29.0096 32.6961C29.6788 34.8252 30.9332 35.8898 32.7727 35.8898C34.6123 35.8898 35.8496 34.8933 36.4847 32.9005C37.1539 30.9271 37.4884 27.2772 37.4884 21.9507Z" fill="white"/>
<path d="M68.3305 21.3849C68.3305 28.4098 67.5495 33.3981 65.9873 36.3497C64.4251 39.3012 61.8045 40.7758 58.1253 40.7734C54.2613 40.7734 51.5396 39.1917 49.9604 36.0285C48.3983 32.9187 47.6172 27.3964 47.6172 19.4614C47.6172 12.3854 48.3898 7.37773 49.9349 4.43832C51.48 1.49891 54.1299 0.0194663 57.8844 0C61.2156 0 63.6891 1.14243 65.3048 3.42729C66.3705 4.95539 67.1431 7.12832 67.6225 9.94606C68.0945 12.557 68.3305 16.3699 68.3305 21.3849ZM62.7133 21.9507C62.7133 15.062 62.4043 10.4936 61.7862 8.24519C61.1682 5.99684 59.9053 4.86293 57.9976 4.84346C56.0899 4.84346 54.8185 5.88247 54.1834 7.9605C53.5483 10.0385 53.2393 14.2469 53.2563 20.5856C53.2563 26.4085 53.5824 30.4453 54.2345 32.6961C54.9037 34.8252 56.158 35.8898 57.9976 35.8898C59.8372 35.8898 61.0745 34.8933 61.7096 32.9005C62.3787 30.9271 62.7133 27.2772 62.7133 21.9507Z" fill="white"/>
<path d="M70.4186 0.514136H75.6234L78.3791 8.21914C79.4619 11.2583 80.1055 13.4823 80.3099 14.8912C80.4997 14.0152 80.7102 13.1636 80.9414 12.3363C81.1725 11.5089 81.4159 10.684 81.6714 9.86161L82.0364 8.70093L84.5913 0.506836H90.0042L82.6313 20.096L90.0042 40.2947H84.5877L81.9743 32.7211C81.4414 31.21 81.0119 29.8535 80.6859 28.6514C80.3874 27.5968 80.1509 26.5255 79.9778 25.4432C79.8458 26.5571 79.6125 27.6566 79.2807 28.7281L78.3791 31.5604L77.9156 33.0533L75.6234 40.2692H69.9551L77.4776 20.0705L70.4186 0.514136Z" fill="white"/>
</g>
</g>
<defs>
<clipPath id="clip0_367_11979">
<rect width="90" height="41" fill="white"/>
</clipPath>
</defs>
</svg>
