<svg width="154" height="56" viewBox="0 0 154 56" fill="none" xmlns="http://www.w3.org/2000/svg">
<path d="M154 44.5455L140.154 50.2727V47.0202L149.762 43.1313L140.154 39.1717V35.9192L154 41.7172V44.5455Z" fill="#EE731B"/>
<path d="M0 11.3837L13.8459 5.65649V8.909L4.23853 12.7979L13.8459 16.7575V20.01L0 14.212V11.3837Z" fill="#EE731B"/>
<path d="M30.2344 25.3131V8.06051H30.1638L27.0555 21.7777H24.795L21.6867 8.06051H21.6161V25.3131H18.084V0.424133H23.0289L25.9959 13.7878H26.0665L28.9629 0.424133H34.0491V25.3131H30.2344Z" fill="white"/>
<path d="M46.271 25.3131L45.4234 19.6564H41.2555L40.4078 25.3131H36.7344L41.0436 0.424133H45.8472L50.1564 25.3131H46.271ZM41.8206 16.2626H44.9995L43.4454 5.79787H43.3747L41.8206 16.2626Z" fill="white"/>
<path d="M62.8711 5.65657V6.29293L59.2684 6.64646V5.72726C59.2684 4.31311 58.5619 3.53535 57.361 3.53535C56.0895 3.53535 55.4537 4.31311 55.4537 5.72726V6.08079C55.4537 7.56564 56.0895 8.76768 58.6326 10.8889C62.0941 13.7879 63.3656 15.8383 63.3656 18.8788V20.1515C63.3656 23.6869 61.2463 25.7374 57.5729 25.7374C53.8289 25.7374 51.7803 23.6869 51.7803 20.1515V18.4545L55.383 18.101V19.8687C55.383 21.4242 56.0895 22.202 57.5023 22.202C58.9151 22.202 59.6216 21.4242 59.6216 19.8687V19.0202C59.6216 17.4647 58.8445 16.1919 56.372 14.0707C52.9106 11.1717 51.7803 9.12122 51.7803 6.1515V5.58586C51.7803 2.0505 53.8289 0 57.361 0C60.8931 0 62.8711 2.12121 62.8711 5.65657Z" fill="white"/>
<path d="M89.716 3.95956V10.9595H95.2261V14.4242H89.716V21.7778H96.4977V25.2424H85.9014V0.353516H96.4977V3.81815H89.716V3.95956Z" fill="white"/>
<path d="M78.2717 34.1515V41.1515H83.7818V44.6162H78.2717V51.9697H85.0534V55.4344H74.457V30.5455H85.0534V34.0101H78.2717V34.1515Z" fill="white"/>
<path d="M98.2637 35.9193V36.5556L94.6609 36.9092V35.99C94.6609 34.5758 93.9545 33.798 92.7536 33.798C91.482 33.798 90.8463 34.5758 90.8463 35.99V36.3435C90.8463 37.8284 91.482 39.0304 94.0252 41.1516C97.4866 44.0505 98.7582 46.1011 98.7582 49.1415V50.4142C98.7582 53.9495 96.6389 56 92.9655 56C89.2215 56 87.1729 53.9495 87.1729 50.4142V48.7172L90.7756 48.3637V50.1314C90.7756 51.6869 91.482 52.4647 92.8949 52.4647C94.3077 52.4647 95.0141 51.6869 95.0141 50.1314V49.2829C95.0141 47.7274 94.2371 46.4546 91.7646 44.3334C88.3031 41.4344 87.1729 39.3839 87.1729 36.4142V35.8486C87.1729 32.3132 89.2215 30.2627 92.7536 30.2627C96.2151 30.3334 98.2637 32.3132 98.2637 35.9193Z" fill="white"/>
<path d="M100.947 55.5051V30.6162H104.691V55.5051H100.947Z" fill="white"/>
<path d="M120.162 36.2728V37.9697L116.559 38.1819V36.697C116.559 34.7172 115.782 33.798 114.369 33.798C112.886 33.798 112.18 34.7172 112.18 36.3435V49.9192C112.18 51.5454 112.886 52.4647 114.369 52.4647C115.853 52.4647 116.559 51.5454 116.559 49.5657V45.3233H114.44V41.8586H120.233V49.9899C120.233 53.7374 118.043 55.9293 114.299 55.9293C110.555 55.9293 108.436 53.7374 108.436 49.9899V36.2728C108.436 32.5253 110.555 30.3334 114.299 30.3334C117.972 30.3334 120.162 32.5253 120.162 36.2728Z" fill="white"/>
<path d="M132.242 55.5051L127.297 39.0303H127.226V55.5051H123.694V30.6162H127.862L132.313 45.394H132.383V30.6162H135.915V55.5051H132.242Z" fill="white"/>
<path d="M77.1411 25.3131L69.2998 13.7879L80.1787 0.494934H84.9117L73.8209 13.8585L81.4502 25.3131H77.1411Z" fill="white"/>
<path d="M64.3547 30.6868H65.9794C70.006 30.6868 72.196 32.8787 72.196 36.9798V49.2828C72.196 53.3838 70.006 55.5758 65.9794 55.5758H55.9482L64.3547 30.6868ZM59.1271 52.0403H65.9088C67.7454 52.0403 68.5226 51.0505 68.5226 49V37.1919C68.5226 35.0707 67.6748 34.1515 65.9088 34.1515H64.4253L59.1271 52.0403Z" fill="white"/>
<path d="M54.6064 55.5049L71.49 0.424133H74.8808L57.9973 55.5049H54.6064Z" fill="#EE731B"/>
</svg>
